<svg xmlns="http://www.w3.org/2000/svg" width="33" height="51" viewBox="0 0 33 51">
  <metadata><?xpacket begin="﻿" id="W5M0MpCehiHzreSzNTczkc9d"?>
<x:xmpmeta xmlns:x="adobe:ns:meta/" x:xmptk="Adobe XMP Core 5.6-c138 79.159824, 2016/09/14-01:09:01        ">
   <rdf:RDF xmlns:rdf="http://www.w3.org/1999/02/22-rdf-syntax-ns#">
      <rdf:Description rdf:about=""/>
   </rdf:RDF>
</x:xmpmeta>
                                                                                                    
                                                                                                    
                                                                                                    
                                                                                                    
                                                                                                    
                                                                                                    
                                                                                                    
                                                                                                    
                                                                                                    
                                                                                                    
                                                                                                    
                                                                                                    
                                                                                                    
                                                                                                    
                                                                                                    
                                                                                                    
                                                                                                    
                                                                                                    
                                                                                                    
                                                                                                    
                           
<?xpacket end="w"?></metadata>
<defs>
    <style>
      .cls-1 {
        fill: #161616;
        fill-rule: evenodd;
        opacity: 1;
      }
    </style>
  </defs>
  <path id="ico-man" class="cls-1" d="M548.537,868.055v-1.687a11.333,11.333,0,0,0,6.624-10.277v-4.768a9.293,9.293,0,0,0,4.3-7.816v-0.09a0.992,0.992,0,0,0-.406-0.8,1.011,1.011,0,0,0-1.8.621v0.05a1.8,1.8,0,0,1-.087.645,1.286,1.286,0,0,1-.334.478,1.224,1.224,0,0,1-.614.269,1.331,1.331,0,0,1-.17.013,1.216,1.216,0,0,1-.93-0.434l-0.007,0a0.015,0.015,0,0,0,0-.006l0,0a1.781,1.781,0,0,1-.208-0.356s0-.008,0-0.015a0.012,0.012,0,0,0,0-.008,0.062,0.062,0,0,0,0-.018c-0.015-.064-0.032-0.126-0.046-0.188a11.356,11.356,0,0,0-11.1-8.658h-0.112A11.389,11.389,0,0,0,532.2,846.328v9.764a11.324,11.324,0,0,0,6.244,10.093v1.87a16.33,16.33,0,0,0-7.756,5.223A16.066,16.066,0,0,0,527,882.824a0.339,0.339,0,0,0,0,.045v0.715a1,1,0,0,0,.623.923A19.658,19.658,0,0,0,535.177,886H552.79a19.708,19.708,0,0,0,6.53-1.1,1,1,0,0,0,.674-0.934l0-.383A16.307,16.307,0,0,0,548.537,868.055ZM543.624,837h0.112a9.341,9.341,0,0,1,9.276,7.785,3.655,3.655,0,0,0,.753,1.131,3.328,3.328,0,0,0,2.2.823,3.456,3.456,0,0,0,.749-0.086,7.387,7.387,0,0,1-6.651,4.16h-7.926a7.348,7.348,0,0,1-7.371-7.309v-0.09a1.068,1.068,0,0,0-.015-0.172A9.409,9.409,0,0,1,543.624,837Zm-9.4,19.088v-7.586a9.4,9.4,0,0,0,7.917,4.315h7.926a9.421,9.421,0,0,0,3.077-.517v3.788a9.377,9.377,0,0,1-9.4,9.326h-0.112A9.375,9.375,0,0,1,534.221,856.092Zm12.295,10.99V868.3a2.994,2.994,0,0,1-3,2.979h-0.044a2.994,2.994,0,0,1-3-2.979v-1.324a11.428,11.428,0,0,0,3.157.444h0.113A11.572,11.572,0,0,0,546.516,867.082ZM552.791,884H535.178a17.634,17.634,0,0,1-6.157-1.1v-0.009a14.087,14.087,0,0,1,3.231-8.344,14.313,14.313,0,0,1,6.517-4.489,5.03,5.03,0,0,0,4.7,3.225h0.044a5.034,5.034,0,0,0,4.7-3.224,14.292,14.292,0,0,1,9.758,13.171A17.717,17.717,0,0,1,552.791,884Zm-8.9-3.04a1.024,1.024,0,0,0-.714.292,1,1,0,0,0,0,1.418,1.018,1.018,0,0,0,1.429,0,1,1,0,0,0,0-1.418A1.032,1.032,0,0,0,543.89,880.957Zm0-3.15a1.017,1.017,0,0,0-.714.294,0.995,0.995,0,0,0,0,1.416,1.016,1.016,0,0,0,.714.293,1.026,1.026,0,0,0,.715-0.293,1,1,0,0,0,0-1.416A1.021,1.021,0,0,0,543.89,877.807Zm0-3.179a1.024,1.024,0,0,0-.714.292,1,1,0,0,0,0,1.417,1.018,1.018,0,0,0,1.429,0,1,1,0,0,0,0-1.417A1.028,1.028,0,0,0,543.89,874.628Z" transform="translate(-527 -835)"/>
</svg>
