<svg xmlns="http://www.w3.org/2000/svg" width="41" height="41" viewBox="0 0 41 41">
  <metadata><?xpacket begin="﻿" id="W5M0MpCehiHzreSzNTczkc9d"?>
<x:xmpmeta xmlns:x="adobe:ns:meta/" x:xmptk="Adobe XMP Core 5.6-c138 79.159824, 2016/09/14-01:09:01        ">
   <rdf:RDF xmlns:rdf="http://www.w3.org/1999/02/22-rdf-syntax-ns#">
      <rdf:Description rdf:about=""/>
   </rdf:RDF>
</x:xmpmeta>
                                                                                                    
                                                                                                    
                                                                                                    
                                                                                                    
                                                                                                    
                                                                                                    
                                                                                                    
                                                                                                    
                                                                                                    
                                                                                                    
                                                                                                    
                                                                                                    
                                                                                                    
                                                                                                    
                                                                                                    
                                                                                                    
                                                                                                    
                                                                                                    
                                                                                                    
                                                                                                    
                           
<?xpacket end="w"?></metadata>
<defs>
    <style>
      .cls-1 {
        fill: #161616;
        fill-rule: evenodd;
        opacity: 1;
      }
    </style>
  </defs>
  <path id="ico-map" class="cls-1" d="M771.513,839.2a1.073,1.073,0,0,0-1.015-.1l-12.528,5.219L745.44,839.1a1.1,1.1,0,0,0-.831,0l-12.943,5.393a1.078,1.078,0,0,0-.662,1v33.43a1.079,1.079,0,0,0,1.079,1.078,1.062,1.062,0,0,0,.416-0.083l12.528-5.219,12.528,5.219a1.088,1.088,0,0,0,.831,0l12.943-5.392a1.076,1.076,0,0,0,.664-1v-33.43A1.079,1.079,0,0,0,771.513,839.2ZM746.1,841.712l10.787,4.494V877.3L746.1,872.8V841.712ZM733.161,846.2l10.786-4.494V872.8L733.161,877.3V846.2Zm36.673,26.6L759.048,877.3V846.2l10.786-4.494V872.8Z" transform="translate(-731 -839)"/>
</svg>
