<?xml version="1.0" encoding="utf-8"?>
<!-- Generator: Adobe Illustrator 21.1.0, SVG Export Plug-In . SVG Version: 6.00 Build 0)  -->
<svg version="1.1" id="Calque_1" xmlns="http://www.w3.org/2000/svg" xmlns:xlink="http://www.w3.org/1999/xlink" x="0px" y="0px"
	 viewBox="0 0 30 49" style="enable-background:new 0 0 30 49;" xml:space="preserve">
<style type="text/css">
	.st0{fill:#161616;}
</style>
<path id="ico-phone" class="st0" d="M25,0H5C2.3,0,0,2.2,0,4.9v39.2C0,46.8,2.3,49,5,49h20c2.7,0,5-2.2,5-4.9V4.9
	C30,2.2,27.7,0,25,0z M5,2.6h20c1.3,0,2.4,1,2.4,2.3c0,0,0,0,0,0v3.8H2.6V4.9C2.7,3.6,3.7,2.6,5,2.6z M25,46.4H5
	c-1.3,0-2.4-1-2.4-2.3c0,0,0,0,0,0V9.7h24.6v34.4C27.3,45.3,26.3,46.4,25,46.4C25.1,46.4,25,46.4,25,46.4L25,46.4z M15,38.8
	c1.4,0,2.4,1.1,2.4,2.5c0,1.4-1.1,2.4-2.5,2.4c-1.3,0-2.4-1.1-2.4-2.5C12.5,39.9,13.6,38.8,15,38.8L15,38.8z M6.2,4.4
	c0.7,0,1.2,0.6,1.2,1.2c0,0.7-0.6,1.2-1.2,1.2C5.5,6.8,5,6.3,5,5.6C5,4.9,5.6,4.4,6.2,4.4L6.2,4.4z M9.6,4.4c0.7,0,1.2,0.6,1.2,1.2
	c0,0.7-0.6,1.2-1.2,1.2c-0.7,0-1.2-0.6-1.2-1.2C8.4,4.9,8.9,4.4,9.6,4.4L9.6,4.4z M13.1,4.4c0.7,0,1.2,0.6,1.2,1.2
	c0,0.7-0.6,1.2-1.2,1.2c-0.7,0-1.2-0.6-1.2-1.2C11.9,4.9,12.4,4.4,13.1,4.4L13.1,4.4z"/>
</svg>
