<svg xmlns="http://www.w3.org/2000/svg" width="39" height="41" viewBox="0 0 39 41">
  <metadata><?xpacket begin="﻿" id="W5M0MpCehiHzreSzNTczkc9d"?>
<x:xmpmeta xmlns:x="adobe:ns:meta/" x:xmptk="Adobe XMP Core 5.6-c138 79.159824, 2016/09/14-01:09:01        ">
   <rdf:RDF xmlns:rdf="http://www.w3.org/1999/02/22-rdf-syntax-ns#">
      <rdf:Description rdf:about=""/>
   </rdf:RDF>
</x:xmpmeta>
                                                                                                    
                                                                                                    
                                                                                                    
                                                                                                    
                                                                                                    
                                                                                                    
                                                                                                    
                                                                                                    
                                                                                                    
                                                                                                    
                                                                                                    
                                                                                                    
                                                                                                    
                                                                                                    
                                                                                                    
                                                                                                    
                                                                                                    
                                                                                                    
                                                                                                    
                                                                                                    
                           
<?xpacket end="w"?></metadata>
<defs>
    <style>
      .cls-1 {
        fill: #161616;
        fill-rule: evenodd;
      }
    </style>
  </defs>
  <path id="ico-calendar" class="cls-1" d="M986.9,841H966.047a9.112,9.112,0,0,0-9.04,9.179v22.639a9.112,9.112,0,0,0,9.04,9.179h20.908a9.111,9.111,0,0,0,9.039-9.179V850.176A9.159,9.159,0,0,0,986.9,841Zm-20.852,2.816h20.908a6.345,6.345,0,0,1,6.266,6.363v2.14h-33.5v-2.14A6.356,6.356,0,0,1,966.047,843.813ZM986.9,879.178H966.047a6.345,6.345,0,0,1-6.267-6.363V855.132h33.441v17.683A6.356,6.356,0,0,1,986.9,879.178ZM971.814,859.3H970.04a1.408,1.408,0,0,0,0,2.816h1.774A1.408,1.408,0,0,0,971.814,859.3Zm5.546,0h-1.774a1.408,1.408,0,0,0,0,2.816h1.774A1.408,1.408,0,0,0,977.36,859.3Zm5.546,0h-1.775a1.408,1.408,0,0,0,0,2.816h1.775A1.408,1.408,0,0,0,982.906,859.3Zm5.546,0h-1.775a1.408,1.408,0,0,0,0,2.816h1.775A1.408,1.408,0,0,0,988.452,859.3Zm-22.183,5.632h-1.775a1.408,1.408,0,0,0,0,2.815h1.775A1.408,1.408,0,0,0,966.269,864.931Zm5.545,0H970.04a1.408,1.408,0,0,0,0,2.815h1.774A1.408,1.408,0,0,0,971.814,864.931Zm5.546,0h-1.774a1.408,1.408,0,0,0,0,2.815h1.774A1.408,1.408,0,0,0,977.36,864.931Zm5.546,0h-1.775a1.408,1.408,0,0,0,0,2.815h1.775A1.408,1.408,0,0,0,982.906,864.931Zm5.546,0h-1.775a1.408,1.408,0,0,0,0,2.815h1.775A1.408,1.408,0,0,0,988.452,864.931Zm-22.183,5.631h-1.775a1.408,1.408,0,0,0,0,2.816h1.775A1.408,1.408,0,0,0,966.269,870.562Zm5.545,0H970.04a1.408,1.408,0,0,0,0,2.816h1.774A1.408,1.408,0,0,0,971.814,870.562Zm5.546,0h-1.774a1.408,1.408,0,0,0,0,2.816h1.774A1.408,1.408,0,0,0,977.36,870.562Zm5.546,0h-1.775a1.408,1.408,0,0,0,0,2.816h1.775A1.408,1.408,0,0,0,982.906,870.562Z" transform="translate(-957 -841)"/>
</svg>
