<svg xmlns="http://www.w3.org/2000/svg" width="399" height="57" viewBox="0 0 399 57">
  <defs>
    <style>
      .cls-1 {
        fill: #ffef2a;
        fill-rule: evenodd;
      }
    </style>
  </defs>
  <path id="futurissimo" class="cls-1" d="M835,426.3V385.873H862.45v8.865H844v7.5h16.531V411.1H844v15.2h-9Zm27.652-17.073V385.873h9v23.353c0,5.424,2.98,8.41,8.392,8.41s8.291-2.907,8.291-8.41V385.873h9v23.353C898.525,432.252,861.459,432.158,862.651,409.226Zm34.832-14.488v-8.865h32.1v8.865H918.006V426.3h-9V394.738H897.483Zm32.2,14.488V385.873h9v23.353c0,5.424,2.98,8.41,8.393,8.41s8.29-2.907,8.29-8.41V385.873h9v23.353C965.558,432.252,928.492,432.158,929.685,409.226ZM969.318,426.3V385.873h15.924c16.628-1.558,22.108,19.395,9.749,26.941l9.269,13.485H993.605l-7.28-11.219c-0.577.043-7.268,0.016-8.009,0.023v11.2h-9Zm9-31.561v11.5c5.894,0.129,15.287.8,14.509-5.877C993.7,394.143,984.429,394.551,978.316,394.738ZM1005.87,426.3V385.873h9V426.3h-9Zm10.46-7.221,4.15-8.317c9.43,12.558,28.96,4.086,11.3-.857-28.49-8.286-5.12-35.493,16.18-19.3l-3.78,8.373c-8.23-7.932-25.84-2.717-8.95,2.474,16.99,2.452,18.23,24.736-2.32,25A23.044,23.044,0,0,1,1016.33,419.078Zm30.89,0,4.15-8.317c9.42,12.555,28.96,4.1,11.3-.857-28.49-8.286-5.12-35.493,16.18-19.3l-3.78,8.372c-3.57-2.993-13.21-6.914-15.87-1.964,2.41,6.839,20.29,3.376,19.87,17.175C1079.19,429.231,1055.15,429.492,1047.22,419.078Zm35.19,7.221V385.873h8.99V426.3h-8.99Zm14.76,0V385.873h8.99v31.612h15.52V426.3h-24.51Zm30.84-40.425h4.29l11.42,22.526,11.37-22.526h8.96V426.3h-8.69l-0.04-21.364-8.91,17.615h-5.47l-8.84-17.543V426.3h-8.8V385.873h4.71Zm38.51,20.213c-0.09-26.6,42.12-26.644,42.01,0C1208.63,432.866,1166.43,432.817,1166.52,406.086Zm32.92,0c-0.08-15.08-23.79-14.985-23.87,0C1175.65,421.139,1199.36,421.23,1199.44,406.086Zm20.56,21.79c-0.22-8.2,14.27-8.171,14.01,0C1234.27,436.046,1219.78,436.077,1220,427.876Zm1.05-35.728V376.994h11.9c0.33,9.25-.7,31.226-1.26,40.671h-9.48Z" transform="translate(-835 -377)"/>
</svg>
