<svg id="Layer_1" data-name="Layer 1" xmlns="http://www.w3.org/2000/svg" xmlns:xlink="http://www.w3.org/1999/xlink" viewBox="0 0 312.42 84.73"><defs><clipPath id="clip-path" transform="translate(0 15.19)"><rect width="312.42" height="49.77" style="fill:none"/></clipPath><clipPath id="clip-path-2" transform="translate(0 15.19)"><rect x="107.76" y="-0.98" width="47.66" height="21.1" style="fill:none"/></clipPath><clipPath id="clip-path-3" transform="translate(0 15.19)"><path d="M131.73,19.1,117.2,2.3S115.54.14,118.66.06,129,.06,129,.06a4.86,4.86,0,0,1,3.31,1.46c1.88,1.88,14.15,17.6,14.15,17.6Z" style="fill:none"/></clipPath><linearGradient id="linear-gradient" x1="-37.61" y1="103.09" x2="-36.61" y2="103.09" gradientTransform="matrix(0, -25.26, -25.26, 0, 2734.82, -933.8)" gradientUnits="userSpaceOnUse"><stop offset="0" stop-color="#b61c50"/><stop offset="0.99" stop-color="#cb747e"/><stop offset="1" stop-color="#cb747e"/></linearGradient><clipPath id="clip-path-4" transform="translate(0 15.19)"><rect x="96.99" y="18.13" width="58.43" height="32.64" style="fill:none"/></clipPath><clipPath id="clip-path-5" transform="translate(0 15.19)"><path d="M146.42,19.14l-25.1,29.17s-1.33,1.46-4.57,1.46h-9.53a1.29,1.29,0,0,1-1-.57c-.3-.42-.32-1,.44-2.06,1.46-1.95,24.06-28,24.06-28Z" style="fill:none"/></clipPath><linearGradient id="linear-gradient-2" x1="-35.33" y1="106.5" x2="-34.33" y2="106.5" gradientTransform="matrix(22.43, 0, 0, -22.43, 922.67, 2423.48)" xlink:href="#linear-gradient"/></defs><title>x</title><g style="clip-path:url(#clip-path)"><path d="M306.68,32.88h5.75V5h-5.17L296.83,17.41,286.4,5h-5.17V32.88H287V14l9.32,11.25h1L306.68,14ZM257.3,5h-5.75V21.1c0,7.1,4.39,12.23,12.64,12.23S277,27.67,277,21.1V5h-5.75V20.69c0,4.31-2.3,7.31-7,7.31s-6.9-2.83-6.9-7.26ZM241.53,32.88h5.75V5h-5.75ZM228.73,22c2.5.7,4,1.44,4,3,0,1.85-1.89,3.12-5.25,3.12a16.61,16.61,0,0,1-8.62-2.63l-1.35,5.46a22.18,22.18,0,0,0,9.85,2.42c6.73,0,11.37-3.57,11.37-8.83,0-4-2.46-6.28-7.51-7.72L226,15.27c-2-.57-3-1.19-3-2.71s1.48-2.71,5-2.71a17.5,17.5,0,0,1,8.58,2.34l1.64-5.38a22.91,22.91,0,0,0-10-2.22C220.52,4.6,217,8.42,217,13.05c0,3.78,2.18,6.36,6.4,7.47Zm-36-3a8.57,8.57,0,0,1,8.7-8.95c5.13,0,8.7,3.82,8.7,8.95s-3.57,8.95-8.7,8.95a8.61,8.61,0,0,1-8.7-8.95m-5.66,0a14.37,14.37,0,0,0,28.73,0,14.37,14.37,0,1,0-28.73,0m-11.53-9a4.81,4.81,0,0,1,5.09,5.13,4.86,4.86,0,0,1-5.09,5h-6.69V10Zm-12.44,22.9h5.75V25.16h7.59c5.46,0,10.14-3.74,10.14-10,0-7-4.68-10.18-10.14-10.18H163.13Z" transform="translate(0 15.19)" style="fill:#021737"/><path d="M116.45,32.92V27.87H99.85V21.12h13.61V16.07H99.85V10h16.61V5H94.34v28ZM84,32.92h5.75V5H84.56L74.12,17.42,63.67,5H58.49v28h5.75V14.05l9.33,11.26h1L84,14.05ZM32.52,19a8.58,8.58,0,0,1,8.71-9c5.14,0,8.71,3.82,8.71,9s-3.58,9-8.71,9a8.62,8.62,0,0,1-8.71-9m-5.67,0A14,14,0,0,0,41.19,33.33,14,14,0,0,0,55.62,19,14.07,14.07,0,0,0,41.19,4.56,14,14,0,0,0,26.84,19" transform="translate(0 15.19)" style="fill:#021737"/><path d="M23.92,8.76C22,6.08,18.8,4.56,14.39,4.56,6.13,4.56,0,9.9,0,19S6.13,33.33,14.39,33.33a17.36,17.36,0,0,0,11.47-4.52l-2.71-4.32A13.1,13.1,0,0,1,14.51,28C9.37,28,6,24.7,6,19S9.37,9.9,14.3,9.9A5.79,5.79,0,0,1,19.25,12Z" transform="translate(0 15.19)" style="fill:#021737"/><path d="M130.76,19.13,117.2,2.32s-1.65-2,1.46-2.24S129,.09,129,.09a4.87,4.87,0,0,1,3.31,1.46c1.88,1.88,14.15,17.6,14.15,17.6Z" transform="translate(0 15.19)" style="fill:#b61c50"/><path d="M146.42,19.14l-25.1,29.17s-1.33,1.46-4.57,1.46h-9.53a1.29,1.29,0,0,1-1-.57c-.3-.42-.32-1,.44-2.06,1.46-1.95,24.13-28,24.13-28Z" transform="translate(0 15.19)" style="fill:#b61c50"/><g style="opacity:0.699997"><g style="clip-path:url(#clip-path-2)"><g style="clip-path:url(#clip-path-3)"><rect x="112.98" y="-7.66" width="36.01" height="34.42" transform="translate(23.84 100.68) rotate(-39.5)" style="fill:url(#linear-gradient)"/></g></g></g><g style="opacity:0.699997"><g style="clip-path:url(#clip-path-4)"><g style="clip-path:url(#clip-path-5)"><rect x="101.52" y="9.05" width="49.25" height="50.81" transform="translate(20.52 126.73) rotate(-51.4)" style="fill:url(#linear-gradient-2)"/></g></g></g><path d="M148.26,18l-6-7.36s3-3.7,3.53-4.42a4.67,4.67,0,0,1,3.39-1.59h7.11a1.43,1.43,0,0,1,1.26.83,1.25,1.25,0,0,1-.21,1.35C155.94,8.56,148.26,18,148.26,18" transform="translate(0 15.19)" style="fill:#021737"/><path d="M148.26,21l-6,7.21,2.22,3.08a5.62,5.62,0,0,0,3.94,2h6.75a1.34,1.34,0,0,0,1.07-2.17c-1.08-1.34-8-10.08-8-10.08" transform="translate(0 15.19)" style="fill:#021737"/></g></svg>