<?xml version="1.0" encoding="utf-8"?>
<!-- Generator: Adobe Illustrator 21.1.0, SVG Export Plug-In . SVG Version: 6.00 Build 0)  -->
<svg version="1.1" id="Calque_1" xmlns="http://www.w3.org/2000/svg" xmlns:xlink="http://www.w3.org/1999/xlink" x="0px" y="0px"
	 viewBox="0 0 33 51" style="enable-background:new 0 0 33 51;" xml:space="preserve">
<style type="text/css">
	.st0{fill:#161616;}
</style>
<g>
	<path class="st0" d="M28.7,48.4H4.6c-1.6,0-2.8-1.3-2.8-2.8V5.9c0-1.6,1.3-2.8,2.8-2.8h24.1c1.6,0,2.8,1.3,2.8,2.8v39.7
		C31.5,47.1,30.2,48.4,28.7,48.4z M4.6,5.9v39.7h24.1V5.9H4.6z"/>
</g>
<g>
	<path class="st0" d="M21.6,11.6h-9.9c-0.8,0-1.4-0.6-1.4-1.4c0-0.8,0.6-1.4,1.4-1.4h9.9c0.8,0,1.4,0.6,1.4,1.4
		C23,11,22.5,11.6,21.6,11.6z"/>
</g>
<g>
	<path class="st0" d="M17.4,42.7h-1.4c-0.8,0-1.4-0.6-1.4-1.4s0.6-1.4,1.4-1.4h1.4c0.8,0,1.4,0.6,1.4,1.4S18.2,42.7,17.4,42.7z"/>
</g>
</svg>
