<svg fill="none" height="162" viewBox="0 0 603 162" width="603" xmlns="http://www.w3.org/2000/svg" xmlns:xlink="http://www.w3.org/1999/xlink"><mask id="a" fill="#fff"><path clip-rule="evenodd" d="m559.427 31.3372v20.0448l1.57 33.7528h12.863l1.708-33.6689.005-20.1287zm8.008 58.9896c-5.291 0-9.435 3.6518-9.435 8.3146 0 4.6626 4.144 8.3146 9.435 8.3146 5.453 0 9.565-3.575 9.565-8.3146 0-4.741-4.112-8.3146-9.565-8.3146z" fill="#fff" fill-rule="evenodd"/></mask><g fill="#ffed00"><path d="m6.85534 102h12.56816v-22.1166h27.2581v-11.4256h-27.2581v-12.16h30.9306v-11.4256h-43.49876zm68.41056.898c15.3429 0 25.0551-8.4878 25.0551-25.7894v-32.2364h-12.5686v32.7261c0 9.0588-4.6518 13.7106-12.3233 13.7106-7.6714 0-12.3233-4.815-12.3233-14.1187v-32.318h-12.5681v32.6445c0 16.8119 9.3853 25.3813 24.7282 25.3813zm42.1811-.898h12.569v-45.539h17.383v-11.5888h-47.335v11.5888h17.383zm54.471.898c15.343 0 25.054-8.4878 25.054-25.7894v-32.2364h-12.568v32.7261c0 9.0588-4.652 13.7106-12.323 13.7106s-12.323-4.815-12.323-14.1187v-32.318h-12.568v32.6445c0 16.8119 9.385 25.3813 24.728 25.3813zm28.879-.898h12.568v-18.2809h9.711.164l12.241 18.2809h14.69l-13.955-20.4028c7.263-2.6932 12.242-8.4876 12.242-17.7096v-.1632c0-5.3864-1.714-9.875-4.897-13.0578-3.754-3.7541-9.385-5.7944-16.649-5.7944h-26.115zm12.568-29.38v-16.4039h12.486c6.121 0 9.875 2.7748 9.875 8.1612v.1632c0 4.815-3.509 8.0795-9.63 8.0795zm38.002 29.38h12.569v-57.1278h-12.569zm38.189.816c12.324 0 20.974-6.3656 20.974-17.7095v-.1632c0-9.9566-6.528-14.1188-18.117-17.1384-9.875-2.5299-12.323-3.7541-12.323-7.5082v-.1632c0-2.7748 2.529-4.9783 7.345-4.9783 4.815 0 9.793 2.1219 14.853 5.6312l6.529-9.4669c-5.795-4.6519-12.895-7.2634-21.219-7.2634-11.671 0-19.995 6.8553-19.995 17.2199v.1633c0 11.3439 7.427 14.5267 18.934 17.4647 9.548 2.4484 11.507 4.0806 11.507 7.2634v.1633c0 3.346-3.101 5.3863-8.243 5.3863-6.529 0-11.915-2.6932-17.056-6.937l-7.427 8.8957c6.855 6.1208 15.588 9.1403 24.238 9.1403zm42.429 0c12.323 0 20.974-6.3656 20.974-17.7095v-.1632c0-9.9566-6.529-14.1188-18.118-17.1384-9.875-2.5299-12.323-3.7541-12.323-7.5082v-.1632c0-2.7748 2.53-4.9783 7.345-4.9783s9.793 2.1219 14.853 5.6312l6.529-9.4669c-5.795-4.6519-12.895-7.2634-21.219-7.2634-11.67 0-19.995 6.8553-19.995 17.2199v.1633c0 11.3439 7.427 14.5267 18.934 17.4647 9.549 2.4484 11.507 4.0806 11.507 7.2634v.1633c0 3.346-3.101 5.3863-8.243 5.3863-6.528 0-11.915-2.6932-17.056-6.937l-7.427 8.8957c6.855 6.1208 15.588 9.1403 24.239 9.1403zm23.475-.816h12.568v-57.1278h-12.568zm17.868 0h41.05v-11.4256h-28.482v-45.7022h-12.568zm41.551 0h12.324v-37.0515l15.914 24.1569h.326l16.078-24.4017v37.2963h12.486v-57.1278h-13.547l-15.017 24.1569-15.016-24.1569h-13.548zm89.623.979c17.628 0 30.441-13.3023 30.441-29.5429v-.1632c0-16.2406-12.65-29.38-30.278-29.38s-30.441 13.3026-30.441 29.5432v.1632c0 16.2406 12.65 29.3797 30.278 29.3797zm.163-11.5885c-10.12 0-17.302-8.1611-17.302-17.9544v-.1632c0-9.7934 7.019-17.7913 17.139-17.7913 10.119 0 17.301 8.1612 17.301 17.9545v.1632c0 9.7934-7.018 17.7912-17.138 17.7912z"/><path d="m6.85534 102h-1v1h1zm12.56816 0v1h1v-1zm0-22.1166v-1h-1v1zm27.2581 0v1h1v-1zm0-11.4256h1v-1h-1zm-27.2581 0h-1v1h1zm0-12.1601v-1h-1v1zm30.9306 0v1h1v-1zm0-11.4255h1v-1h-1zm-43.49876 0v-1h-1v1zm0 58.1278h12.56816v-2h-12.56816zm13.56816-1v-22.1166h-2v22.1166zm-1-21.1166h27.2581v-2h-27.2581zm28.2581-1v-11.4256h-2v11.4256zm-1-12.4256h-27.2581v2h27.2581zm-26.2581 1v-12.1601h-2v12.1601zm-1-11.1601h30.9306v-2h-30.9306zm31.9306-1v-11.4255h-2v11.4255zm-1-12.4255h-43.49876v2h43.49876zm-44.49876 1v57.1278h2v-57.1278zm94.46566 0h1v-1h-1zm-12.5686 0v-1h-1v1zm-24.6466 0h1v-1h-1zm-12.5681 0v-1h-1v1zm24.7282 59.0258c7.8501 0 14.3977-2.174 18.983-6.6946 4.5884-4.5238 7.0721-11.2594 7.0721-20.0948h-2.0005c0 8.4662-2.3726 14.6251-6.4758 18.6705-4.1063 4.0485-10.086 6.1189-17.5788 6.1189zm26.0551-26.7894v-32.2364h-2.0005v32.2364zm-1-33.2364h-12.5686v2h12.5686zm-13.5686 1v32.7261h2v-32.7261zm0 32.7261c0 4.3681-1.1208 7.5201-3.0191 9.5735-1.8878 2.0421-4.6736 3.1371-8.3042 3.1371v2c4.0409 0 7.4168-1.2309 9.7728-3.7794 2.3454-2.5372 3.5505-6.2405 3.5505-10.9312zm-11.3233 12.7106c-3.62 0-6.403-1.129-8.2938-3.238-1.9053-2.125-3.0295-5.3839-3.0295-9.8807h-2c0 4.8068 1.2017 8.6074 3.5403 11.2158 2.3529 2.6244 5.7316 3.9029 9.783 3.9029zm-11.3233-13.1187v-32.318h-2v32.318zm-1-33.318h-12.5681v2h12.5681zm-13.5681 1v32.6444h2v-32.6444zm0 32.6444c0 8.5888 2.4006 15.2209 6.9051 19.7039 4.5031 4.4815 10.9702 6.6775 18.8231 6.6775v-2c-7.49 0-13.387-2.0892-17.4123-6.0952-4.0238-4.0045-6.3159-10.063-6.3159-18.2862zm67.9093 24.4834h-1v1h1zm12.569 0v1h1v-1zm0-45.539v-1h-1v1zm17.383 0v1h1v-1zm0-11.5888h1v-1h-1zm-47.335 0v-1h-.9998v1zm0 11.5888h-.9998v1h.9998zm17.383 0h1v-1h-1zm0 46.539h12.569v-2h-12.569zm13.569-1v-45.539h-2v45.539zm-1-44.539h17.383v-2h-17.383zm18.383-1v-11.5888h-2v11.5888zm-1-12.5888h-47.335v2h47.335zm-48.3348 1v11.5888h1.9998v-11.5888zm.9998 12.5888h17.383v-2h-17.383zm16.383-1v45.539h2v-45.539zm80.525-11.5888h1v-1h-1zm-12.568 0v-1h-1v1zm-24.646 0h1v-1h-1zm-12.568 0v-1h-1v1zm24.728 59.0258c7.85 0 14.397-2.174 18.983-6.6946 4.588-4.5238 7.071-11.2594 7.071-20.0948h-2c0 8.4662-2.372 14.6251-6.475 18.6705-4.107 4.0485-10.086 6.1189-17.579 6.1189zm26.054-26.7894v-32.2364h-2v32.2364zm-1-33.2364h-12.568v2h12.568zm-13.568 1v32.7261h2v-32.7261zm0 32.7261c0 4.3681-1.121 7.5201-3.019 9.5735-1.888 2.0421-4.673 3.1371-8.304 3.1371v2c4.041 0 7.417-1.2309 9.773-3.7794 2.345-2.5372 3.55-6.2405 3.55-10.9312zm-11.323 12.7106c-3.62 0-6.403-1.129-8.294-3.238-1.905-2.125-3.029-5.3839-3.029-9.8807h-2c0 4.8068 1.201 8.6074 3.54 11.2158 2.353 2.6244 5.732 3.9029 9.783 3.9029zm-11.323-13.1187v-32.318h-2v32.318zm-1-33.318h-12.568v2h12.568zm-13.568 1v32.6444h2v-32.6444zm0 32.6444c0 8.5888 2.4 15.2209 6.905 19.7039 4.503 4.4815 10.97 6.6775 18.823 6.6775v-2c-7.49 0-13.387-2.0892-17.413-6.0952-4.023-4.0045-6.315-10.063-6.315-18.2862zm54.607 24.4834h-1v1h1zm12.568 0v1h1v-1zm0-18.2809v-1h-1v1zm9.875 0 .831-.5564-.297-.4436h-.534zm12.241 18.2809-.831.556.297.444h.534zm14.69 0v1h1.896l-1.07-1.565zm-13.955-20.4028-.348-.9376-1.201.4452.723 1.057zm-35.419-36.725v-1h-1v1zm12.568 27.7478h-1v1h1zm0-16.4039v-1h-1v1zm-12.568 46.7839h12.568v-2h-12.568zm13.568-1v-18.2809h-2v18.2809zm-1-17.2809h9.711v-2h-9.711zm9.711 0h.164v-2h-.164zm-.667-.4436 12.241 18.2805 1.662-1.112-12.241-18.2813zm13.072 18.7245h14.69v-2h-14.69zm15.516-1.565-13.956-20.4024-1.651 1.1292 13.956 20.4032zm-14.433-18.9002c3.781-1.402 7.015-3.63 9.303-6.7531 2.292-3.1283 3.591-7.0952 3.591-11.8941h-2c0 4.4231-1.191 7.9645-3.204 10.7121-2.017 2.753-4.904 4.7687-8.386 6.0599zm12.894-18.6472v-.1632h-2v.1632zm0-.1632c0-5.603-1.788-10.3628-5.19-13.7649l-1.414 1.4142c2.963 2.9635 4.604 7.181 4.604 12.3507zm-5.19-13.7649c-3.994-3.9937-9.911-6.0873-17.356-6.0873v2c7.082 0 12.427 1.9869 15.942 5.5015zm-17.356-6.0873h-26.115v2h26.115zm-27.115 1v57.1278h2v-57.1278zm14.568 27.7478v-16.4039h-2v16.4039zm-1-15.4039h12.486v-2h-12.486zm12.486 0c2.927 0 5.143.6657 6.607 1.8407 1.431 1.1478 2.268 2.8802 2.268 5.3205h2c0-2.9461-1.039-5.2942-3.016-6.8804-1.943-1.559-4.665-2.2808-7.859-2.2808zm8.875 7.1612v.1632h2v-.1632zm0 .1632c0 2.1492-.774 3.8806-2.173 5.0884-1.414 1.2212-3.567 1.9911-6.457 1.9911v2c3.231 0 5.893-.8623 7.764-2.4772 1.886-1.6282 2.866-3.9365 2.866-6.6023zm-8.63 7.0795h-12.731v2h12.731zm25.271 30.38h-1v1h1zm12.569 0v1h1v-1zm0-57.1278h1v-1h-1zm-12.569 0v-1h-1v1zm0 58.1278h12.569v-2h-12.569zm13.569-1v-57.1278h-2v57.1278zm-1-58.1278h-12.569v2h12.569zm-13.569 1v57.1278h2v-57.1278zm42.046 22.9327.252-.9677-.004-.001zm9.875-7.0185-.57.8217.824.5714.569-.8254zm6.529-9.4669.823.5677.528-.7654-.725-.5821zm-22.28 27.5845.248-.9686-.001-.0003zm-13.792 5.876.636-.7712-.767-.633-.637.7634zm-7.427 8.8957-.768-.6409-.62.7425.722.6443zm24.238 10.1403c6.323 0 11.811-1.632 15.739-4.8247 3.954-3.2129 6.235-7.934 6.235-13.8848h-2c0 5.3931-2.043 9.5268-5.496 12.3327-3.478 2.8268-8.477 4.3768-14.478 4.3768zm21.974-18.7095v-.1632h-2v.1632zm0-.1632c0-5.2365-1.735-9.0545-5.059-11.9272-3.262-2.8192-7.979-4.6606-13.806-6.1789l-.504 1.9354c5.761 1.5013 10.103 3.2508 13.003 5.7567 2.837 2.4525 4.366 5.6938 4.366 10.414zm-18.869-18.1071c-4.972-1.2738-7.904-2.182-9.604-3.1872-.822-.4858-1.286-.9561-1.559-1.4415s-.408-1.0804-.408-1.9108h-2c0 1.0466.17 2.0125.665 2.8915.494.8791 1.259 1.5768 2.284 2.1825 1.993 1.1779 5.223 2.1468 10.126 3.4029zm-11.571-6.5395v-.1632h-2v.1632zm0-.1632c0-1.0508.465-2.0014 1.455-2.721 1.013-.7371 2.622-1.2573 4.89-1.2573v-2c-2.548 0-4.612.5815-6.067 1.6399-1.479 1.0758-2.278 2.6144-2.278 4.3384zm6.345-3.9783c4.525 0 9.302 1.9983 14.283 5.4529l1.14-1.6435c-5.139-3.5639-10.319-5.8094-15.423-5.8094zm15.676 5.1989 6.529-9.4669-1.647-1.1355-6.528 9.4669zm6.332-10.8144c-5.975-4.7968-13.297-7.4836-21.845-7.4836v2c8.1 0 14.979 2.5362 20.593 7.0432zm-21.845-7.4836c-6.026 0-11.268 1.7705-15.022 4.9613-3.767 3.2026-5.973 7.7878-5.973 13.2586h2c0-4.8938 1.956-8.9185 5.269-11.7348 3.326-2.828 8.081-4.4851 13.726-4.4851zm-20.995 18.2199v.1633h2v-.1633zm0 .1633c0 5.9352 1.965 9.8757 5.535 12.6718 3.48 2.7261 8.409 4.2956 14.151 5.7619l.495-1.9379c-5.764-1.4717-10.303-2.9626-13.413-5.3985-3.02-2.3657-4.768-5.6886-4.768-11.0973zm19.685 18.4334c4.784 1.2265 7.506 2.214 9.032 3.222.739.488 1.147.9496 1.382 1.4014.236.4526.342.9788.342 1.6713h2c0-.8989-.139-1.7702-.568-2.5954-.431-.8259-1.109-1.5222-2.054-2.1461-1.84-1.2159-4.872-2.2687-9.637-3.4905zm10.756 6.2947v.1633h2v-.1633zm0 .1633c0 1.3126-.585 2.3547-1.741 3.1112-1.198.7844-3.044 1.2751-5.502 1.2751v2c2.684 0 4.959-.5294 6.597-1.6018 1.681-1.1 2.646-2.7511 2.646-4.7845zm-7.243 4.3863c-6.218 0-11.386-2.5534-16.42-6.7082l-1.273 1.5425c5.249 4.3327 10.854 7.1657 17.693 7.1657zm-17.824-6.5778-7.427 8.8956 1.536 1.2817 7.426-8.8956zm-7.325 10.2824c7.05 6.2944 16.024 9.3944 24.904 9.3944v-2c-8.421 0-16.912-2.9395-23.572-8.8863zm70.189-26.6167.252-.9677-.004-.001zm9.875-7.0185-.57.8217.824.5714.569-.8254zm6.529-9.4669.823.5677.528-.7654-.725-.5821zm-22.28 27.5845.248-.9686-.001-.0003zm-13.792 5.876.636-.7712-.767-.633-.637.7634zm-7.427 8.8957-.768-.6409-.619.7425.721.6443zm24.239 10.1403c6.322 0 11.81-1.632 15.739-4.8247 3.953-3.2129 6.235-7.934 6.235-13.8848h-2c0 5.3931-2.044 9.5268-5.497 12.3327-3.478 2.8268-8.476 4.3768-14.477 4.3768zm21.974-18.7095v-.1632h-2v.1632zm0-.1632c0-5.2365-1.735-9.0545-5.059-11.9272-3.263-2.8192-7.98-4.6606-13.807-6.1789l-.504 1.9354c5.762 1.5013 10.103 3.2508 13.003 5.7567 2.837 2.4525 4.367 5.6938 4.367 10.414zm-18.87-18.1071c-4.972-1.2738-7.903-2.182-9.604-3.1872-.822-.4858-1.286-.9561-1.559-1.4415s-.408-1.0804-.408-1.9108h-2c0 1.0466.171 2.0125.665 2.8915.495.8791 1.26 1.5768 2.284 2.1825 1.993 1.1779 5.223 2.1468 10.126 3.4029zm-11.571-6.5395v-.1632h-2v.1632zm0-.1632c0-1.0508.465-2.0014 1.455-2.721 1.013-.7371 2.622-1.2573 4.89-1.2573v-2c-2.548 0-4.611.5815-6.067 1.6399-1.479 1.0758-2.278 2.6144-2.278 4.3384zm6.345-3.9783c4.525 0 9.302 1.9983 14.283 5.4529l1.14-1.6435c-5.139-3.5639-10.318-5.8094-15.423-5.8094zm15.676 5.1989 6.529-9.4669-1.646-1.1355-6.529 9.4669zm6.332-10.8144c-5.975-4.7968-13.297-7.4836-21.845-7.4836v2c8.1 0 14.979 2.5362 20.593 7.0432zm-21.845-7.4836c-6.026 0-11.268 1.7705-15.021 4.9613-3.768 3.2026-5.974 7.7878-5.974 13.2586h2c0-4.8938 1.956-8.9185 5.269-11.7348 3.326-2.828 8.081-4.4851 13.726-4.4851zm-20.995 18.2199v.1633h2v-.1633zm0 .1633c0 5.9352 1.966 9.8757 5.535 12.6718 3.481 2.7261 8.409 4.2956 14.152 5.7619l.494-1.9379c-5.764-1.4717-10.303-2.9626-13.412-5.3985-3.021-2.3657-4.769-5.6886-4.769-11.0973zm19.686 18.4334c4.783 1.2265 7.505 2.214 9.031 3.222.739.488 1.147.9496 1.382 1.4014.236.4526.342.9788.342 1.6713h2c0-.8989-.138-1.7702-.568-2.5954-.43-.8259-1.109-1.5222-2.053-2.1461-1.841-1.2159-4.872-2.2687-9.638-3.4905zm10.755 6.2947v.1633h2v-.1633zm0 .1633c0 1.3126-.585 2.3547-1.741 3.1112-1.198.7844-3.043 1.2751-5.502 1.2751v2c2.684 0 4.96-.5294 6.598-1.6018 1.68-1.1 2.645-2.7511 2.645-4.7845zm-7.243 4.3863c-6.218 0-11.386-2.5534-16.42-6.7082l-1.273 1.5425c5.249 4.3327 10.854 7.1657 17.693 7.1657zm-17.824-6.5778-7.427 8.8956 1.536 1.2817 7.426-8.8956zm-7.325 10.2824c7.05 6.2944 16.024 9.3944 24.905 9.3944v-2c-8.422 0-16.912-2.9395-23.573-8.8863zm48.38 7.5784h-1v1h1zm12.568 0v1h1v-1zm0-57.1278h1v-1h-1zm-12.568 0v-1h-1v1zm0 58.1278h12.568v-2h-12.568zm13.568-1v-57.1278h-2v57.1278zm-1-58.1278h-12.568v2h12.568zm-13.568 1v57.1278h2v-57.1278zm18.868 57.1278h-1v1h1zm41.05 0v1h1v-1zm0-11.4256h1v-1h-1zm-28.482 0h-1v1h1zm0-45.7022h1v-1h-1zm-12.568 0v-1h-1v1zm0 58.1278h41.05v-2h-41.05zm42.05-1v-11.4256h-2v11.4256zm-1-12.4256h-28.482v2h28.482zm-27.482 1v-45.7022h-2v45.7022zm-1-46.7022h-12.568v2h12.568zm-13.568 1v57.1278h2v-57.1278zm42.551 57.1278h-1v1h1zm12.324 0v1h1v-1zm0-37.0515.835-.5501-1.835-2.7856v3.3357zm15.914 24.1569-.835.5502.296.4498h.539zm.326 0v1h.539l.296-.4498zm16.078-24.4017h1v-3.3354l-1.835 2.7852zm0 37.2963h-1v1h1zm12.486 0v1h1v-1zm0-57.1278h1v-1h-1zm-13.547 0v-1h-.556l-.294.472zm-15.017 24.1569-.849.5279.849 1.3663.849-1.3663zm-15.016-24.1569.849-.528-.293-.472h-.556zm-13.548 0v-1h-1v1zm0 58.1278h12.324v-2h-12.324zm13.324-1v-37.0515h-2v37.0515zm-1.836-36.5013 15.915 24.1569 1.67-1.1003-15.914-24.1569zm16.75 24.6067h.326v-2h-.326zm1.161-.4498 16.078-24.4017-1.67-1.1004-16.078 24.4018zm14.243-24.9519v37.2963h2v-37.2963zm1 38.2963h12.486v-2h-12.486zm13.486-1v-57.1278h-2v57.1278zm-1-58.1278h-13.547v2h13.547zm-14.397.472-15.016 24.157 1.698 1.0558 15.017-24.1569zm-13.318 24.157-15.016-24.157-1.699 1.0559 15.017 24.1569zm-15.865-24.629h-13.548v2h13.548zm-14.548 1v57.1278h2v-57.1278zm90.623 59.1068c18.171 0 31.441-13.7411 31.441-30.5429h-2c0 15.6794-12.357 28.5429-29.441 28.5429zm31.441-30.5429v-.1632h-2v.1632zm0-.1632c0-16.8019-13.107-30.38-31.278-30.38v2c17.085 0 29.278 12.7006 29.278 28.38zm-31.278-30.38c-18.171 0-31.441 13.7414-31.441 30.5432h2c0-15.6794 12.356-28.5432 29.441-28.5432zm-31.441 30.5432v.1632h2v-.1632zm0 .1632c0 16.8019 13.106 30.3797 31.278 30.3797v-2c-17.085 0-29.278-12.7003-29.278-28.3797zm31.441 16.7912c-9.508 0-16.302-7.6516-16.302-16.9544h-2c0 10.2838 7.57 18.9544 18.302 18.9544zm-16.302-16.9544v-.1632h-2v.1632zm0-.1632c0-9.3037 6.632-16.7913 16.139-16.7913v-2c-10.733 0-18.139 8.5082-18.139 18.7913zm16.139-16.7913c9.507 0 16.301 7.6517 16.301 16.9545h2c0-10.2839-7.569-18.9545-18.301-18.9545zm16.301 16.9545v.1632h2v-.1632zm0 .1632c0 9.3037-6.631 16.7912-16.138 16.7912v2c10.733 0 18.138-8.5082 18.138-18.7912z"/><path clip-rule="evenodd" d="m559.427 31.3372v20.0448l1.57 33.7528h12.863l1.708-33.6689.005-20.1287zm8.008 58.9896c-5.291 0-9.435 3.6518-9.435 8.3146 0 4.6626 4.144 8.3146 9.435 8.3146 5.453 0 9.565-3.575 9.565-8.3146 0-4.741-4.112-8.3146-9.565-8.3146z" fill-rule="evenodd"/><path d="m559.427 51.382h-1v.0232l.001.0232zm0-20.0448v-1h-1v1zm1.57 53.7976-.999.0465.044.9535h.955zm12.863 0v1h.951l.048-.9493zm1.708-33.6689.999.0507.001-.0253v-.0252zm.005-20.1287 1 .0002v-1.0002h-1zm-15.146 20.0448v-20.0448h-2v20.0448zm1.569 33.7064-1.57-33.7529-1.998.0929 1.57 33.7529zm11.864-.9536h-12.863v2h12.863zm.71-32.7196-1.709 33.669 1.998.1013 1.708-33.6689zm.003-20.0783-.005 20.1288 2 .0004.005-20.1287zm-15.146 1.0003h16.146v-2h-16.146zm-.427 66.3042c0-3.9954 3.574-7.3146 8.435-7.3146v-2c-5.72 0-10.435 3.9844-10.435 9.3146zm8.435 7.3146c-4.861 0-8.435-3.319-8.435-7.3146h-2c0 5.3306 4.715 9.3146 10.435 9.3146zm8.565-7.3146c0 4.0606-3.528 7.3146-8.565 7.3146v2c5.869 0 10.565-3.895 10.565-9.3146zm-8.565-7.3146c5.037 0 8.565 3.2529 8.565 7.3146h2c0-5.4202-4.696-9.3146-10.565-9.3146z" mask="url(#a)"/></g></svg>