<svg fill="none" height="14" viewBox="0 0 17 14" width="17" xmlns="http://www.w3.org/2000/svg"><path d="m5.3463 13.9998c6.4155 0 9.9237-5.38609 9.9237-10.0554 0-.15338-.003-.30579-.0098-.45746.681-.4989 1.273-1.12122 1.7397-1.83014-.6248.28143-1.2973.47113-2.0028.55664.7201-.43713 1.2729-1.12964 1.5337-1.9552-.6739.404785-1.4202.69928-2.2147.8584-.6365-.687441-1.5426-1.11664-2.546-1.11664-1.9262 0-3.4882 1.58264-3.4882 3.53394 0 .27685.0307.54699.0906.80578-2.899-.14783-5.4694-1.55438-7.1895-3.692503-.299501.522093-.472299 1.129093-.472299 1.776303 0 1.22589.615799 2.30799 1.552099 2.94159-.5721-.01751-1.1096-.17657-1.579599-.44159-.000401.0141-.000401.02881-.000401.04468 0 1.71173 1.2021 3.14093 2.7981 3.46484-.2931.081-.6014.12458-.9196.12458-.2245 0-.4431-.02259-.6556-.06403.4441 1.4043 1.7316 2.42581 3.2583 2.45471-1.1938.9479-2.6976 1.513-4.331999 1.513-.281201 0-.558899-.0164-.832001-.0493 1.5436 1.0029 3.3766 1.5878 5.3465 1.5878" fill="#241d4c"/></svg>