<svg fill="none" height="14" viewBox="0 0 18 14" width="18" xmlns="http://www.w3.org/2000/svg"><path clip-rule="evenodd" d="m16.1166 1.21771c.7413.21063 1.3252.82953 1.5234 1.61603.3599 1.42529.3599 4.39978.3599 4.39978s0 2.97388-.3599 4.39908c-.1982.7871-.7821 1.4066-1.5234 1.6166-1.3436.3823-6.731.3823-6.731.3823s-5.38771 0-6.7313-.3823c-.7414-.21-1.32511-.8295-1.5233-1.6166-.360004-1.4252-.360004-4.39908-.360004-4.39908s0-2.97449.360004-4.39978c.19819-.7865.7819-1.4054 1.5233-1.61603 1.34359-.381711 6.7313-.381711 6.7313-.381711s5.3874 0 6.731.381711zm-8.4932 3.31531v5.40088l4.503-2.70038z" fill="#241d4c" fill-rule="evenodd"/></svg>