<svg fill="none" height="16" viewBox="0 0 16 16" width="16" xmlns="http://www.w3.org/2000/svg"><path clip-rule="evenodd" d="m12.0699 9.90524 3.681 3.68566c.3289.3301.3289.8652.0204 1.1738-.1645.1653-.3908.2469-.5963.2469-.2261 0-.4319-.0816-.5964-.2469l-3.7013-3.6653c-1.0901.8443-2.40602 1.2559-3.7223 1.2559-1.58325 0-3.14612-.5968-4.35938-1.8125-2.40588-2.40876-2.40588-6.32156 0-8.73086 1.21326-1.214101 2.77613-1.81200104 4.35938-1.81200104 1.58349 0 3.1464.59790004 4.3596 1.81200104 2.2208 2.2038 2.406 5.6839.5553 8.0933zm-8.08165-.5351c.86377.84366 1.97412 1.31756 3.18738 1.31756 1.19287 0 2.34436-.453 3.18747-1.31756.843-.8658 1.3161-1.9773 1.3161-3.1919 0-1.2152-.4525-2.3477-1.3161-3.192-.86386-.8442-1.97421-1.3176-3.18747-1.3176s-2.34424.4734-3.18738 1.3176c-1.7478 1.7707-1.7478 4.6331 0 6.3839z" fill="#241d4c" fill-rule="evenodd"/></svg>