<svg fill="none" height="65" viewBox="0 0 46 65" width="46" xmlns="http://www.w3.org/2000/svg"><g fill="#241d4c"><path d="m38.3501 29.7551c0 .3866.3134.7.7.7.79 0 1.66-1.2 1.66-2.81.1253-1.1246-.4338-2.2152-1.42-2.77-.3748-.1127-.7718.0902-.9.46-.0592.171-.0457.3588.0375.5195s.2287.2801.4025.3305c.3588.3976.5363.9264.49 1.46.041.5217-.1242 1.0387-.46 1.44-.3003.0847-.5083.3579-.51.67z"/><path d="m7.15004 29.0852c-.33332-.3988-.4983-.9117-.46-1.43-.02957-.5142.13454-1.0208.46-1.42.34452-.1003.55744-.4448.49303-.7978-.06442-.353-.3853-.6001-.74303-.5722-.76.06-1.61 1.21-1.61 2.78s.86 2.83 1.64 2.83c.34651-.0014.63988-.256.68993-.5989.05006-.3429-.15827-.6708-.48993-.7711z"/><path d="m11.5105 14.7245c.3535.1538.7648-.0071.92-.36.08-.17 1.93-4.24 8.89-4.12.3866 0 .7-.31336.7-.69996s-.3134-.7-.7-.7c-7.93-.1-10.11 4.75996-10.2 4.99996-.1243.3504.047.7368.39.88z"/><path d="m38.5301 59.475h-8c-.3866 0-.7.3134-.7.7s.3134.7.7.7h8c.3866 0 .7-.3134.7-.7s-.3134-.7-.7-.7z"/><path clip-rule="evenodd" d="m38.7702 48.1751-7.18-1.92v-2.18c-.0011-.2186-.1043-.4241-.279-.5556-.1746-.1314-.4006-.1738-.611-.1144l-1 .28c4.4019-2.109 7.7252-5.9578 9.17-10.62 2.4.12 4.41-2.37 4.41-5.41 0-2.82-1.71-5.15-3.89-5.39 1.2-5.13 1.44-11.79-1.48-14.79003-1.2257-1.25419-2.9951-1.81648-4.72-1.5-4.9034-9.76706-25.61012-3.5521-26.64022-3.24292l-.00974.00292c-.23816.07404-.41893.2692-.47456.51231-.05562.24311.0223.49746.20456.66769.86999.81 2.22 2.45 2.17 3.38-.00297.17716-.09266.34159-.24.44-4.08 3.04003-4.87001 7.87003-2.39 14.74003-2.01873.9188-3.26305 2.986-3.13001 5.2 0 2.74 1.57 5 3.66 5.35 1.38918 4.4727 4.50657 8.2057 8.65997 10.37-.0933.0183-.1818.0558-.26.11-.1762.1322-.28.3396-.28.56v2.19l-7.22997 1.92c-3.97137 1.0628-6.735031 4.6588-6.739994 8.77l-.000002 6.83c0 .3866.313403.7.700006.7h43.61996c.3866 0 .7-.3134.7-.7v-6.83c-.0049-4.1112-2.7686-7.7072-6.74-8.77zm-17.28-2.92h.76.38.21.69.65l.58-.07.73-.1c-.0319.0434-.0588.0904-.08.14v.06c-.0126.0761-.0126.1538 0 .23v2.85c-.2061.0756-.4164.139-.63.19l-.41.08h-.14c-.8091.1172-1.6309.1172-2.44 0h-.14l-.42-.16c-.2135-.051-.4239-.1144-.63-.19v-2.81c-.0015-.0932-.0219-.185-.06-.27h.43zm-2.28 2.37v-1.63l-3.39-.99v1.39zm1.92 2.31.64.11h.23.15.88.88.16.17l.64-.11-.7 1.27h-2.35zm7.32-2.91 1.74-.63v-1.4l-3.39 1v1.63zm-19.44997-38.20003c.47897-.34503.7737-.89028.8-1.48.07-1.25-1-2.7-1.77999-3.61 4.40996-1.17 20.63996-4.86 24.07996 3.26.1275.30651.4553.47877.78.41 1.4157-.43246 2.9544-.04777 4 1 2.14 2.24003 2.55 7.81003 1.06 14.00003-1.83-.1-4-4.26-4.87-6.43-.0668-.1767-.2023-.3189-.3755-.3942-.1733-.0753-.3696-.0774-.5445-.0058-.0078.002-.0557.0206-.1406.0535-1.5509.6013-15.4373 5.9847-22.15937 2.8465-.30246-.1411-.66243-.049-.86.22l-1.99 2.78c-2.12-6-1.43999-10 2-12.65003zm23.79997 15.99003c.8338-.0013 1.5902.4886 1.93 1.25l2.33-2.48c-2.41-.91-4.3-4.84-5-6.49-3 1.17-15.26 5.6-22.25997 2.86l-2.12 2.93 3.51997 3.42c.2704-.8797 1.0798-1.4827 2-1.49h7.15c.564-.0028 1.1053.2214 1.5022.622.3968.4007.6159.9441.6078 1.508h1.08c-.008-.5639.211-1.1073.6079-1.508.3969-.4006.9382-.6248 1.5021-.622zm-7.8 2.26c-.0491-.2123.002-.4354.1386-.6052.1366-.1697.3436-.2674.5614-.2648h7.1c.3899.0053.7046.3201.71.71v1.44c-.0054.3898-.3201.7046-.71.71h-6.8c-.3352-.001-.6255-.2332-.7-.56zm-4.27 1.4.27-1.4.05.01c.0492-.2123-.0019-.4354-.1385-.6052-.1366-.1697-.3436-.2674-.5615-.2648h-7.15c-.3898.0054-.7046.3201-.71.71v1.4c.0054.3898.3202.7046.71.71h6.83c.3353-.001.6255-.2332.7-.56zm-13.22997 3.69c-.08253-.2934-.34541-.4997-.64999-.51-1.55001 0-2.82001-1.84-2.82001-4 0-2 1.06-3.64 2.45-3.93l4.54997 4.43v.21c-.0002.5701.2303 1.1161.6391 1.5136s.961.6126 1.5309.5964h6.8c.9901-.0045 1.8452-.6936 2.06-1.66l.1-.47h1.6l.1.47c.2209.9962 1.1202 1.6938 2.14 1.66h6.8c1.1654 0 2.11-.9447 2.11-2.11v-.45l4-4.26h.18c1.58 0 2.87 1.8 2.87 4s-1.29 4-2.87 4c-.1588-.0051-.3165-.0286-.47-.07-.3662-.0896-.7376.1271-.84.49-1.4419 5.3623-5.5532 9.5983-10.87 11.2l-.64.18-.39.08c-.8192.1816-1.652.2953-2.49.34h-.54-.58-.67-.48l-.85-.11h-.29c-6.0249-1.1633-10.85379-5.6697-12.42997-11.6zm.09 17.36c-3.3592.8999-5.69635 3.9423-5.7 7.42v6.13h1.45001v-2.94c0-.3866.3134-.7.7-.7s.7.3134.7.7v2.94h13.99996l1.94-11.13-1.6-2.9-.13-.09h-.05l-3.95-1.43zm12.56997 13.55 1.84-10.48h2l1.84 10.48zm22.51 0h1.44l-.05-6.09c-.0036-3.4777-2.3408-6.5201-5.7-7.42l-7.36-2-3.9 1.46h-.05l-.13.09-1.6 2.9 1.95 11.06h14v-2.94c0-.3866.3134-.7.7-.7s.7.3134.7.7z" fill-rule="evenodd"/></g></svg>