<svg fill="none" height="16" viewBox="0 0 16 16" width="16" xmlns="http://www.w3.org/2000/svg"><path clip-rule="evenodd" d="m11.1127 9.9053 3.681 3.6857c.3289.3301.3289.8652.0204 1.1738-.1645.1653-.3909.2469-.5963.2469-.2261 0-.4319-.0816-.5964-.2469l-3.70133-3.6653c-1.09008.8443-2.406 1.2559-3.72229 1.2559-1.58325 0-3.14611-.5968-4.35937-1.8125-2.405884-2.4088-2.405884-6.3216 0-8.7309 1.21326-1.2141 2.77612-1.812 4.35937-1.812 1.5835 0 3.14637.5979 4.35962 1.812 2.2208 2.2038 2.406 5.6839.5553 8.0933zm-8.08166-.5351c.86377.8437 1.97412 1.3176 3.18737 1.3176 1.19288 0 2.34436-.453 3.1875-1.3176.84299-.8658 1.31609-1.9773 1.31609-3.1919 0-1.2152-.4526-2.3477-1.31609-3.192-.86389-.8442-1.97424-1.3176-3.1875-1.3176-1.21325 0-2.34423.4734-3.18737 1.3176-1.74781 1.7707-1.74781 4.6331 0 6.3839z" fill="#fff" fill-rule="evenodd"/></svg>