<svg fill="none" height="17" viewBox="0 0 22 17" width="22" xmlns="http://www.w3.org/2000/svg"><path clip-rule="evenodd" d="m18.743 1.22168c.8902.26172 1.5912 1.03223 1.8291 2.01074.4324 1.77246.4324 5.47217.4324 5.47217s0 3.70021-.4324 5.47221c-.2379.979-.9389 1.7495-1.8291 2.0112-1.6133.4746-8.0825.4746-8.0825.4746s-6.46977 0-8.08305-.4746c-.89038-.2617-1.591183-1.0322-1.829098-2.0112-.432373-1.772-.432373-5.47221-.432373-5.47221s0-3.69971.432373-5.47217c.237915-.97851.938718-1.74902 1.829098-2.01074 1.61328-.47461 8.08305-.47461 8.08305-.47461s6.4692 0 8.0825.47461zm-10.19863 4.12451v6.71731l5.40713-3.35891z" fill="#fff" fill-rule="evenodd"/></svg>