<svg fill="none" height="18" viewBox="0 0 13 18" width="13" xmlns="http://www.w3.org/2000/svg"><path d="m11.2932 2.33643c-1.0492-1.1294-2.5006-1.750492-4.08763-1.750492-2.42408 0-3.91516 1.113282-4.73902 2.047852-1.01513 1.15088-1.597531 2.6792-1.597531 4.19385 0 1.90136.709471 3.36036 1.897701 3.90336.07984.0361.16004.0551.2389.0551.25061 0 .44921-.184.51806-.4795.04004-.1684.13294-.5859.17334-.76705.08655-.35791.0166-.53027-.172-.7793-.34375-.45507-.50366-.99463-.50366-1.6958 0-2.083 1.38404-4.29736 3.94934-4.29736 2.0354 0 3.2998 1.29639 3.2998 3.38379 0 1.31689-.2532 2.53711-.71288 3.43457-.31946.62405-.88135 1.36665-1.74378 1.36665-.37292 0-.70788-.1709-.91931-.4702-.19971-.2827-.2655-.6484-.18518-1.02926.0907-.43067.21436-.87989.33411-1.31397.21826-.79297.42492-1.5415.42492-2.13867 0-1.02197-.56054-1.70801-1.39465-1.70801-1.06006 0-1.89062 1.20606-1.89062 2.74658 0 .75538.17919 1.32032.26025 1.5376-.13355.63428-.92725 4.40433-1.07788 5.11523-.08692.415-.61145 3.6929.25659 3.9541.97534.293 1.84705-2.8989 1.93567-3.2602.07178-.2925.32349-1.4024.47778-2.0835.47058.5078 1.22864.851 1.96619.851 1.39038 0 2.64089-.7011 3.52109-1.9746.8534-1.23435 1.3235-2.95603 1.3235-4.84568 0-1.47754-.5661-2.93457-1.5531-3.99609z" fill="#fff"/></svg>