<svg fill="none" height="14" viewBox="0 0 11 14" width="11" xmlns="http://www.w3.org/2000/svg"><path d="m9.50998 1.41309c-.87361-.907109-2.08241-1.40710855-3.40401-1.40710855-2.0188 0-3.2605.89520255-3.94659 1.64611855-.84551.92578-1.330401 2.15448-1.330401 3.37189 0 1.52887.590901 2.7016 1.580401 3.13818.06639.02893.1333.04413.1989.04413.20869 0 .3741-.14832.43139-.38562.0334-.13532.11071-.47052.1444-.61658.072-.28772.0137-.42584-.14319-.62634-.2863-.36578-.41951-.7995-.41951-1.36292 0-1.67498 1.15251-3.45465 3.28891-3.45465 1.69499 0 2.748 1.04187 2.748 2.71967 0 1.0589-.21071 2.04022-.59361 2.76098-.26599.50171-.734 1.09913-1.45209 1.09913-.3107 0-.5896-.13709-.7657-.3783-.1662-.2276-.22101-.52087-.15421-.82727.0755-.3465.17861-.70721.27831-1.05664.1817-.63757.35389-1.23889.35389-1.71912 0-.82214-.46679-1.37304-1.1616-1.37304-.8828 0-1.5743.96936-1.5743 2.20825 0 .6076.1491 1.06122.21671 1.23614-.11131.50971-.77231 3.54016-.89761 4.11211-.0725.3329-.5093 2.9688.2136 3.1788.8122.2362 1.5382-2.3306 1.6119-2.6211.0598-.2349.2695-1.12733.39801-1.67493.39189.40771 1.02319.68403 1.6373.68403 1.158 0 2.19929-.56343 2.93229-1.58723.71083-.99201 1.10243-2.37592 1.10243-3.8963 0-1.18738-.4715-2.3584-1.29362-3.21228z" fill="#241d4c"/></svg>