<svg fill="none" height="52" viewBox="0 0 50 52" width="50" xmlns="http://www.w3.org/2000/svg" xmlns:xlink="http://www.w3.org/1999/xlink"><clipPath id="a"><path d="m0 .821045h49.9568v50.556h-49.9568z"/></clipPath><clipPath id="b"><path d="m4.95508.821045h38.5568v39.1035h-38.5568z"/></clipPath><clipPath id="c"><path d="m0 49.973h48.2021v1.40396h-48.2021z"/></clipPath><g clip-path="url(#a)"><g clip-path="url(#b)"><path d="m22.337 39.9245c-5.2944.0001-10.3037-1.9366-14.21404-5.4871l-1.96178 2.0249c-.26966.2785-.71414.2856-.99259.0158-.27844-.2698-.28547-.7142-.01568-.9926l2.44229-2.5209c.12951-.1338.30688-.2105.49302-.2134.18332-.0051.36573.0681.49956.1976 3.79312 3.6748 8.78812 5.6482 14.07092 5.5694 5.2807-.0835 10.2128-2.2184 13.8876-6.0115 7.5864-7.8302 7.388-20.3723-.4419-27.95877-.2785-.26979-.2855-.71413-.0158-.99259l2.4422-2.52077c.27-.278459.7143-.285479.9926-.01568.2785.26979.2855.71414.0158.99258l-1.9619 2.02496c7.8945 8.16687 7.9386 21.23007-.0227 29.44717-3.9359 4.0624-9.2181 6.349-14.8738 6.4383-.1145.0017-.2295.0026-.3438.0026z" fill="#241d4c"/></g><g fill="#241d4c"><path d="m30.453 44.3574h-3.5098c-.3876 0-.702-.3144-.702-.702v-4.6798c0-.3876.3144-.702.702-.702s.702.3144.702.702v3.9778h2.1059v-4.9004c0-.3876.3143-.7019.7019-.7019.3877 0 .702.3143.702.7019v5.6024c0 .3876-.3142.702-.702.702z"/><path clip-rule="evenodd" d="m4.65723 17.9024c0 9.4187 7.66277 17.0813 17.08127 17.0813 9.4187 0 17.0814-7.6626 17.0814-17.0813 0-9.41874-7.6628-17.081355-17.0814-17.081355-9.4185 0-17.08127 7.662615-17.08127 17.081355zm1.40394 0c0-8.64459 7.03283-15.67741 15.67733-15.67741s15.6774 7.03282 15.6774 15.67741c0 8.6445-7.0329 15.6773-15.6774 15.6773s-15.67733-7.0328-15.67733-15.6773z" fill-rule="evenodd"/><path d="m21.7374 34.9838c-3.5364 0-6.6342-3.7932-8.0844-9.8992-.0897-.3772.1435-.7556.5207-.8452.3773-.0896.7556.1436.8452.5208 1.2727 5.3578 3.9097 8.8198 6.7185 8.8198 1.9078 0 3.7413-1.566 5.1631-4.4093 1.499-2.998 2.3245-6.9997 2.3245-11.2681 0-1.5589-.1115-3.0986-.3313-4.5764-.057-.3833.2076-.7406.5911-.7975.3829-.0569.7405.2075.7975.591.23 1.5459.3467 3.1552.3467 4.7831 0 4.4819-.8782 8.7066-2.4728 11.8959-1.672 3.3436-3.9515 5.1851-6.4188 5.1851z"/><path d="m13.5482 18.6043c-.3876 0-.702-.3143-.702-.7019 0-4.482.8782-8.70671 2.4728-11.89589 1.672-3.34396 3.9515-5.185465 6.4189-5.185465 2.7217 0 5.2444 2.289015 6.9208 6.280315.1501.35741-.0179.76889-.3754.91899-.3575.15022-.7688-.01779-.919-.37532-1.4468-3.44446-3.4976-5.42004-5.6263-5.42004-1.9079 0-3.7414 1.56598-5.1632 4.40932-1.499 2.998-2.3245 6.99979-2.3245 11.26809-.0001.3876-.3144.7019-.7021.7019z"/><path d="m38.1179 18.604h-32.75871c-.38759 0-.70196-.3144-.70196-.7019 0-.3876.31437-.702.70196-.702h32.75871c.3876 0 .702.3144.702.702 0 .3875-.3144.7019-.702.7019z"/><path d="m21.7381 34.9838c-.3876 0-.702-.3144-.702-.702v-32.75878c0-.38761.3144-.701975.702-.701975s.702.314365.702.701975v32.75878c0 .3876-.3143.702-.702.702z"/><path clip-rule="evenodd" d="m12.4022 51.3767h24.569c.3876 0 .702-.3144.702-.702v-7.0197c0-.3876-.3144-.702-.702-.702h-24.569c-.3876 0-.702.3144-.702.702v7.0197c0 .3876.3144.702.702.702zm23.867-1.404h-23.1651v-5.6157h23.1651z" fill-rule="evenodd"/></g><g clip-path="url(#c)"><path d="m47.5001 51.377h-46.798123c-.38773 0-.701977-.3144-.701977-.702s.314247-.702.701977-.702h46.798123c.3876 0 .702.3144.702.702s-.3144.702-.702.702z" fill="#241d4c"/></g><path clip-rule="evenodd" d="m1.16992 43.0699c0 1.3548 1.10211 2.457 2.45691 2.457 1.35481 0 2.4569-1.1022 2.4569-2.457 0-1.3546-1.10209-2.4569-2.4569-2.4569-1.3548 0-2.45691 1.1023-2.45691 2.4569zm1.40396 0c0-.5806.47242-1.0529 1.05295-1.0529.58052 0 1.05296.4723 1.05296 1.0529 0 .5807-.47244 1.053-1.05296 1.053-.58053 0-1.05295-.4723-1.05295-1.053z" fill="#241d4c" fill-rule="evenodd"/><path clip-rule="evenodd" d="m43.873 29.616c0 1.6774 1.3645 3.0419 3.0419 3.0419s3.0419-1.3645 3.0419-3.0419-1.3645-3.0419-3.0419-3.0419-3.0419 1.3645-3.0419 3.0419zm1.404 0c0-.9032.7347-1.6379 1.6379-1.6379s1.6379.7347 1.6379 1.6379-.7347 1.6379-1.6379 1.6379-1.6379-.7347-1.6379-1.6379z" fill="#241d4c" fill-rule="evenodd"/></g></svg>