<svg fill="none" height="22" viewBox="0 0 19 22" width="19" xmlns="http://www.w3.org/2000/svg"><path clip-rule="evenodd" d="m11.06 0h-1.40999v3.47h1.40999zm5.5121 8.729h.503c1.0614 0 1.9247.8772 1.9247 1.9546v9.3584c0 1.0776-.8633 1.9541-1.9247 1.9541h-14.17062c-1.06134 0-1.9245-.8765-1.9245-1.9541v-9.3584c0-.479.17127-.91773.45386-1.25758.13452-.20898.38-.44336.8219-.58081.20312-.07422.42083-.11621.64874-.11621h.21149zm.8135 1.2961c-.0387-.09224-.2878-.22994-.8135-.22994h-13.45595c-.23828 0-.41681.02905-.54749.06812-.10199.04345-.19378.10571-.27191.18282-.02166.1087.0658.3743.40662.7344l5.73071 6.0481c.37586.3962.87659.615 1.4101.615.53342 0 1.03432-.218 1.41012-.615l5.7307-6.0481c.3644-.3855.4394-.6623.4006-.7554zm-.3105 10.9048h-14.17062c-.4823 0-.87482-.3982-.87482-.8884v-8.4348l5.64789 5.9614c.57562.6074 1.34491.9422 2.16663.9422.82182 0 1.59102-.3348 2.16652-.9422l5.7304-6.0486c.0782-.0832.146-.1631.2089-.2419v8.7639c.0001.4902-.3926.8884-.8749.8884zm-1.4726-19.5409 1.2737.6543-1.6874 3.0852-1.2738-.65454zm-11.73352.73815 1.23517-.60815 1.63635 2.87036-1.23523.60864z" fill="#150d46" fill-rule="evenodd"/></svg>