<svg fill="none" height="19" viewBox="0 0 48 19" width="48" xmlns="http://www.w3.org/2000/svg"><path clip-rule="evenodd" d="m47 8.3165h-2.2931c-.5007-4.6681-4.4619-8.3165-9.2606-8.3165-4.4603 0-8.1941 3.1529-9.1013 7.3458-.8052-.5184-1.6171-.7823-2.428-.7823-.0332 0-.0664 0-.0987.001-.7478.0195-1.4753.2673-2.1781.7244-.9291-4.1641-4.6477-7.2889-9.0875-7.2889-4.7987 0-8.75901 3.6484-9.25981 8.3165h-2.29289c-.55281 0-1 .4472-1 1 0 .5527.44719 1 1 1h2.29289c.5008 4.6679 4.46111 8.3154 9.25981 8.3154 4.9945 0 9.0724-3.9536 9.2951-8.8941.6958-.7491 1.3764-1.1566 2.0223-1.1743.6984-.0062 1.4614.4029 2.2836 1.2039.2376 4.9267 4.3081 8.8645 9.2926 8.8645 4.7987 0 8.7599-3.6475 9.2606-8.3154h2.2931c.5527 0 1-.4473 1-1 0-.5528-.4473-1-1-1zm-34.4473 8.3154c-4.03421 0-7.31541-3.2813-7.31541-7.3154 0-4.0342 3.2812-7.3165 7.31541-7.3165 4.0342 0 7.3164 3.2823 7.3164 7.3165 0 4.0341-3.2822 7.3154-7.3164 7.3154zm15.5781-7.3154c0 4.0341 3.2813 7.3154 7.3155 7.3154 4.0341 0 7.3164-3.2813 7.3164-7.3154 0-4.0342-3.2823-7.3165-7.3164-7.3165-4.0342 0-7.3155 3.2823-7.3155 7.3165z" fill="#241d4c" fill-rule="evenodd"/></svg>