<svg fill="none" height="17" viewBox="0 0 16 17" width="16" xmlns="http://www.w3.org/2000/svg"><path clip-rule="evenodd" d="m4.3324 2.62476c0 .89868-.65479 1.62695-1.73206 1.62695-1.01349 0-1.668211-.72827-1.668211-1.62695 0-.92066.675901-1.626713 1.710571-1.626713 1.03491 0 1.66882.706053 1.6897 1.626713zm-3.3158 13.37764v-10.46651h3.21045v10.46651zm5.04753-10.46576c.04199.94165.08398 2.03345.08398 3.33863v7.12793h3.21057v-6.03638c0-.29932.02124-.59888.10602-.81299.2323-.59961.7599-1.21973 1.647-1.21973 1.1617 0 1.6264.91968 1.6264 2.2683v5.8008h3.2106v-6.18628c0-3.08204-1.5841-4.51587-3.6961-4.51587-1.7321 0-2.76708 1.00561-3.18939 1.69091h-.06329l-.14819-1.45532z" fill="#150d46" fill-rule="evenodd"/></svg>