<svg fill="none" height="14" viewBox="0 0 15 14" width="15" xmlns="http://www.w3.org/2000/svg"><path clip-rule="evenodd" d="m4.19861.150024h6.09459c2.0698 0 3.7536 1.697086 3.7535 3.783696v6.14198c0 2.0866-1.6837 3.7837-3.7535 3.7837h-6.09459c-2.06981 0-3.753603-1.6971-3.753603-3.7837v-6.14198c0-2.08661 1.683793-3.783696 3.753603-3.783696zm6.09459 12.493076c1.4042 0 2.5468-1.1518 2.5468-2.5674h-.0001v-6.14198c0-1.41559-1.1425-2.56739-2.5467-2.56739h-6.09459c-1.40441 0-2.54691 1.1518-2.54691 2.56739v6.14198c0 1.4156 1.1425 2.5679 2.54691 2.5674zm-6.55219-5.63781c0-1.94837 1.57229-3.53327 3.505-3.53327 1.9326 0 3.50479 1.5849 3.50479 3.53327 0 1.94684-1.57219 3.53111-3.50479 3.53111-1.93271 0-3.505-1.58427-3.505-3.53111zm1.20709-.0011c0 1.27753 1.03081 2.31592 2.29791 2.31592 1.267 0 2.2979-1.03839 2.2979-2.31592 0-1.27686-1.03081-2.31586-2.2979-2.31586-1.2671 0-2.29791 1.039-2.29791 2.31586zm5.3238-4.30212c.1641-.16589.3925-.26105.6251-.26105.2333 0 .4618.09516.6259.26105.165.1659.2591.39697.2591.63141 0 .23438-.0941.46429-.2591.6308-.1649.16589-.3926.26099-.6259.26099-.2326 0-.4611-.0951-.6251-.26099-.165-.16651-.2599-.39642-.2599-.6308 0-.23444.0949-.46551.2599-.63141z" fill="#241d4c" fill-rule="evenodd"/></svg>