<svg fill="none" height="39" viewBox="0 0 69 39" width="69" xmlns="http://www.w3.org/2000/svg" xmlns:xlink="http://www.w3.org/1999/xlink"><clipPath id="a"><path d="m0 .20105h68.0586v38.2987h-68.0586z"/></clipPath><g clip-path="url(#a)" fill="#241d4c"><path clip-rule="evenodd" d="m36.0952 18.2883c.4184.5606 3.9191 5.2505 9.0034 5.2505 1.6321 0 3.4682-.5441 5.3723-1.8362l.544-.34-3.8082-8.8405-9.3846-2.2441c-1.4961-.34007-2.8561-.54408-4.3522.136l-3.4682 1.4961c-1.4961.612-2.6522 1.9721-3.1282 3.5362l-.8841 3.1282c-.34 1.02.136 2.1081 1.0881 2.5841 1.0201.476 2.1081.544 2.9922.204 1.088-.408 2.0401-1.4961 2.7201-3.1282.136-.34.8161-1.224 1.4961-1.292.6801 0 1.3601.68 1.7681 1.292.0037.0037.0175.0222.0412.0539zm1.2509-1.0059c-.952-1.2241-1.9721-1.9041-2.9922-1.9041-.068 0-.136 0-.068 0-1.5569.1245-2.4865 1.6749-2.7365 2.0918-.0229.0384-.0402.0671-.0516.0843v.068c-.5441 1.2241-1.1561 2.0401-1.9042 2.3121-.544.204-1.156.136-1.7681-.204-.272-.136-.408-.476-.34-.748l.8841-3.1282c.34-1.1561 1.156-2.1081 2.2441-2.5842l3.4682-1.5641c1.0201-.476 1.9041-.34 3.4002-.068l8.6365 2.0402 2.9922 7.0724c-6.6644 3.9442-11.5607-3.1282-11.7647-3.4682z" fill-rule="evenodd"/><path clip-rule="evenodd" d="m40.1348 20.4791 5.5763 7.8205 7.3444-2.3122-2.6521-6.1883-.8161.68c-2.9921 2.5842-6.8004 1.0881-6.9364 1.0201zm6.1883 6.0524-2.1761-3.0602c1.4961.204 3.6042.136 5.5763-1.1561l1.1561 2.7882z" fill-rule="evenodd"/><path d="m6.47242 30.9509-5.984361-2.3801c-.408024-.136-.612036-.6121-.408024-1.0201.136008-.408.612037-.612 1.020065-.408l4.48826 1.8361 8.84054-21.62529-13.94084-5.64434c-.4080249-.13601-.612037-.61204-.4080249-1.020061.1360079-.408024.6120369-.6120373 1.0200649-.408024l15.3689 6.256375z"/><path d="m15.8573 26.5311-7.27647-2.8561c-.40802-.136-.61203-.6121-.40802-1.0201.13601-.408.61203-.612 1.02006-.408l5.84833 2.3121 5.3723-12.5127-5.9843-2.51619c-.408-.136-.544-.61203-.408-1.02006.136-.40802.612-.54403 1.02-.40802l7.4125 3.12817z"/><path d="m61.5557 32.3789-9.9966-24.41344 15.3689-6.25638c.408-.136.816 0 1.0201.40803.136.40802 0 .81605-.4081 1.02006l-13.9408 5.64434 8.8405 21.62529 4.5563-1.8361c.408-.136.816.068 1.0201.408.136.408-.068.8161-.4081 1.0201z"/><path d="m52.1716 27.9591-6.5964-15.3009 7.4804-3.12819c.4081-.13601.8161 0 1.0201.40802.136.40797 0 .81607-.408 1.02007l-6.0524 2.5161 5.3723 12.5128 5.8484-2.3121c.408-.1361.816.068 1.02.408.1361.408-.068.816-.408 1.02z"/><path d="m45.3028 32.5155c-.7481 0-1.4961-.34-2.0402-.884l-7.0044-7.4805c-.272-.34-.272-.816 0-1.088.34-.272.8161-.272 1.0881 0l7.0044 7.4124c.34.34.748.4761 1.2241.408.476-.068.816-.408.952-.816.136-.34.068-.748-.204-1.0201l-5.1003-6.3923c-.272-.3401-.204-.8161.136-1.0881s.8161-.204 1.0881.136l5.1003 6.3924c.544.68.748 1.6321.408 2.4481-.34.9521-1.0881 1.6321-2.1081 1.8361-.136.068-.34.136-.544.136z"/><path d="m41.8343 35.0315c-1.02 0-2.0401-.408-2.7881-1.156l-5.9164-6.1884c-.272-.34-.272-.8161 0-1.0881s.816-.272 1.0881 0l5.9163 6.1884c.544.612 1.3601.816 2.1761.68.8161-.204 1.3601-.748 1.6321-1.4961v-.068c.136-.408.5441-.612.9521-.476s.612.5441.476.9521v.136c-.408 1.2921-1.4281 2.2441-2.7201 2.5161-.2721-.068-.5441 0-.8161 0z"/><path d="m38.0268 37.2757c-.068 0-.136 0-.204 0-.9521-.068-1.9041-.544-2.6522-1.2921l-4.8963-5.4403c-.272-.34-.272-.816.068-1.088.3401-.2721.8161-.2721 1.0881.068l4.8963 5.4403c.408.476 1.0201.748 1.5641.816.8841.068 1.7001-.476 2.3801-1.5641.2041-.34.6801-.476 1.0201-.272s.476.6801.272 1.0201c-1.156 1.9041-2.5161 2.3121-3.5362 2.3121z"/><path d="m31.1582 12.9301c-.068 0-.136 0-.204 0-4.2162-.952-9.4526-.544-9.5206-.544-.408.068-.816-.272-.816-.6801-.068-.408.272-.816.68-.816.204 0 5.5084-.476 9.9966.544.4081.068.6801.4761.5441.9521 0 .34-.3401.544-.6801.544z"/><path d="m34.287 38.4998c-.68 0-1.4281-.272-1.9041-.7481l-2.3121-2.1761c-7.2085-7.1404-13.9409-11.8327-14.0089-11.8327-.34-.272-.408-.748-.204-1.0881.272-.34.7481-.408 1.0881-.204.068.068 6.8684 4.8283 14.2128 11.9687l2.3122 2.1762c.34.34.816.408 1.2921.272.204-.068.68-.272.816-.8841.068-.408.408-.748.8841-.68.408.068.748.408.68.816v.068c-.136 1.0201-.8161 1.7681-1.8361 2.1082-.408.136-.7481.204-1.0201.204z"/><path d="m29.1861 38.3632c-.8161 0-1.7001-.34-2.3122-.884l-6.2563-5.5764c-.9521-.884-1.3601-2.1761-1.0881-3.4682l.544-2.2441c.136-.408.5441-.68.9521-.544s.68.544.544.952l-.544 2.2442c-.204.748.068 1.496.612 1.9721l6.2564 5.5763c.612.544 1.4281.6801 2.1761.34l1.9041-.884c.4081-.204.8161 0 1.0201.408s0 .816-.408 1.0201l-1.9041.884c-.4761.136-.9521.204-1.4961.204z"/></g></svg>