<svg fill="none" height="18" viewBox="0 0 18 18" width="18" xmlns="http://www.w3.org/2000/svg"><path clip-rule="evenodd" d="m5.44226.00683594h7.31844c2.4854 0 4.5074 2.11035406 4.5071 4.70605406v7.64061c0 2.5947-2.0217 4.7061-4.5071 4.7061h-7.31844c-2.48535 0-4.507201-2.1114-4.507201-4.7061v-7.64061c0-2.5957 2.021851-4.70605406 4.507201-4.70605406zm7.31844 15.53956406c1.6862 0 3.0583-1.4321 3.0583-3.1929h-.0002v-7.64061c0-1.76025-1.3719-3.19238-3.0581-3.19238h-7.31844c-1.68628 0-3.05823 1.43213-3.05823 3.19238v7.64061c0 1.7608 1.37195 3.1939 3.05823 3.1929zm-7.86764-7.01203c0-2.42334 1.88794-4.39453 4.20874-4.39453 2.3207 0 4.2085 1.97119 4.2085 4.39453 0 2.42233-1.8878 4.39303-4.2085 4.39303-2.3208 0-4.20874-1.9707-4.20874-4.39303zm1.44922-.00098c0 1.58931 1.23791 2.88081 2.75952 2.88081 1.5214 0 2.7594-1.2915 2.7594-2.88081 0-1.58838-1.2378-2.88037-2.7594-2.88037-1.52161 0-2.75952 1.29199-2.75952 2.88037zm6.39392-5.35285c.197-.20605.4714-.3247.7506-.3247.2802 0 .5544.11865.7516.3247.1981.20606.311.49317.311.78516s-.1129.57764-.311.78516c-.198.20605-.4714.3247-.7516.3247-.2792 0-.5536-.11865-.7506-.3247-.1981-.20752-.3121-.49317-.3121-.78516s.114-.5791.3121-.78516z" fill="#fff" fill-rule="evenodd"/></svg>