<svg fill="none" height="14" viewBox="0 0 36 14" width="36" xmlns="http://www.w3.org/2000/svg"><path clip-rule="evenodd" d="m34.7289 6.12565h-1.6944c-.37-3.43836-3.297-6.12565-6.8428-6.12565-3.2958 0-6.0547 2.32232-6.7251 5.41067-.5949-.38184-1.1949-.57622-1.794-.57622-.0246 0-.0491 0-.073.00074-.5525.01436-1.0901.19688-1.6094.53357-.6865-3.06714-3.4342-5.36876-6.71487-5.36876-3.54581 0-6.47213 2.68729-6.84217 6.12565h-1.694248c-.408478 0-.738912.3294-.738912.73657 0 .4071.330434.73656.738912.73656h1.694248c.37004 3.43822 3.29636 6.12482 6.84217 6.12482 3.69047 0 6.70367-2.9121 6.86827-6.55107.5141-.55176 1.017-.85191 1.4943-.86495.5161-.00456 1.0798.29677 1.6874.88676.1755 3.62886 3.1833 6.52926 6.8664 6.52926 3.5458 0 6.4728-2.6866 6.8428-6.12482h1.6944c.4083 0 .7389-.32946.7389-.73656 0-.40717-.3306-.73657-.7389-.73657zm-25.45324 6.12485c-2.98092 0-5.40544-2.4169-5.40544-5.38828 0-2.97146 2.42452-5.38909 5.40544-5.38909 2.98094 0 5.40614 2.41763 5.40614 5.38909 0 2.97138-2.4252 5.38828-5.40614 5.38828zm11.51104-5.38828c0 2.97138 2.4246 5.38828 5.4055 5.38828s5.4062-2.4169 5.4062-5.38828c0-2.97146-2.4253-5.38909-5.4062-5.38909s-5.4055 2.41763-5.4055 5.38909z" fill="#fff" fill-rule="evenodd"/></svg>