<svg fill="none" height="18" viewBox="0 0 21 18" width="21" xmlns="http://www.w3.org/2000/svg"><path d="m6.42303 17.9932c7.70357 0 11.91617-6.6993 11.91617-12.50834 0-.18994-.0036-.37988-.0119-.56836.8179-.6206 1.5287-1.39453 2.0893-2.27636-.7504.35009-1.5581.58593-2.4051.69189.8645-.54394 1.5285-1.40527 1.8416-2.431151-.8091.503421-1.7053.869631-2.6596 1.066411-.7641-.85401-1.8523-1.388188-3.057-1.388188-2.313 0-4.18844 1.968258-4.18844 4.395018 0 .3457.03674.68067.10864 1.00244-3.48108-.18359-6.56763-1.93261-8.63299-4.59277-.35975.64941-.567143 1.4043-.567143 2.20947 0 1.52539.739443 2.87207 1.863833 3.65967-.6872-.02295-1.3327-.2207-1.896914-.54981-.00061.01807-.00061.03614-.00061.05616 0 2.1289 1.443604 3.90622 3.360104 4.30912-.35193.1005-.72223.1543-1.10449.1543-.26941 0-.53192-.0269-.78711-.0787.53333 1.7471 2.07929 3.0176 3.91254 3.0533-1.43335 1.1797-3.23926 1.8818-5.20184 1.8818-.33759 0-.671208-.02-.99908928-.061 1.85369928 1.247 4.05468928 1.9751 6.42016928 1.9751" fill="#fff"/></svg>