<svg fill="none" height="116" viewBox="0 0 184 116" width="184" xmlns="http://www.w3.org/2000/svg"><g fill="#fff"><path clip-rule="evenodd" d="m14.8819 24.3799c2.2645 4.376 6.1196 4.376 8.6705 4.376 5.9288 0 9.3292-2.7295 9.3292-7.4908 0-6.2973-4.4261-7.2236-8.3329-8.0405l-.0017-.0003c-3.6055-.7543-6.4529-1.3499-6.4529-5.33416 0-5.06592 4.8746-5.32227 5.8516-5.32227.2466 0 .4775.01367.6683.03858 2.1308.2841 2.7298 1.00501 3.3093 1.7026l.0005.00052.1463.17432c.3137.36983.5499.77837.778 1.17264l.0032.00558.0012.00209v.00001c.1965.34102.3818.66255.6084.94858.0578.07325.17.16162.373.16162.496-.00048 1.4679-.57959 1.7339-1.03271.1292-.22168.078-.38574.0359-.46338-1.9941-3.69775-4.2306-5.27539031-7.4775-5.27539031-4.3597 0-8.9932 2.66357031-8.9932 7.59863031 0 6.46334 4.473 7.53854 8.4196 8.48724l.0002.0001c3.5579.854 6.3678 1.5298 6.3678 5.4165 0 3.3452-1.7237 4.7099-5.9502 4.7099-.2819 0-.5749-.0063-.8776-.0175-2.1397-.0855-2.7853-.4688-3.6792-1l-.0693-.0416c-1.0469-.6204-1.4925-1.2573-2.1095-2.1392l-.0006-.0009-.1996-.2837c-.0683-.0976-.2024-.2124-.4525-.2124-.5108 0-1.2984.5098-1.6208 1.0488-.2218.3702-.1653.6446-.0794.8111zm139.6951 4.3375c-7.827 0-14.195-6.4199-14.195-14.311 0-7.91655 6.368-14.3574703 14.195-14.3574703 7.803 0 14.15 6.4409203 14.15 14.3574703 0 7.8911-6.347 14.311-14.15 14.311zm0-25.78859c-6.256 0-11.346 5.14893-11.346 11.47759 0 6.2221 5.196 11.4775 11.346 11.4775 6.283 0 11.394-5.1484 11.394-11.4775 0-6.22173-5.218-11.47759-11.394-11.47759zm-105.2673 25.84739h-1.8491c-.2802 0-.5086-.231-.5086-.5142v-27.710422c0-.28418.2284-.5146483.5086-.5146483h1.8491c.2806 0 .5085.2304683.5085.5146483v27.710422c0 .2832-.2279.5142-.5085.5142zm17.5158 0h17.1108c.2805 0 .5085-.231.5085-.5142v-1.6782c0-.2837-.228-.5142-.5085-.5142h-14.8009v-25.518022c0-.28418-.2278-.5146483-.5086-.5146483h-1.8013c-.2808 0-.5085.2304683-.5085.5146483v27.710422c0 .2832.2277.5142.5085.5142zm58.5085 0h-1.659c-.28 0-.508-.231-.508-.5142v-23.28171l-11.549 23.31981c-.177.3516-.738.3486-.91 0l-11.5025-23.09032v23.05222c0 .2832-.228.5142-.5086.5142h-1.6594c-.2802 0-.5085-.231-.5085-.5142v-27.710422c0-.28418.2283-.5146483.5085-.5146483h2.5125c.1933 0 .3677.1088863.455.2832033l11.157 22.525867 11.158-22.525379c.087-.174805.261-.2836913.455-.2836913h2.559c.281 0 .508.2304683.508.5146483v27.710422c0 .2832-.227.5142-.508.5142zm-44.8613 29.1714c.0763-.0248.1525-.0496.2272-.0773.0361.0313.0726.0635.1086.0957l-.034.0792-.0461.108c-.0495.116-.0991.2323-.15.3475-.2125.4813-.4254.9626-.6383 1.4439l-.0014.0031c-.4086.9239-.8173 1.8479-1.2239 2.7727-1.0477 2.3819-1.9758 4.8101-2.7408 7.2998-.0644.2085-.1014.4278-.1294.6446-.0244.1923.0224.373.2229.456.2309.0957.3425-.0859.4295-.2363l.0614-.1069.0001-.0002c.2163-.3764.4332-.7538.6042-1.1507.1481-.3433.2797-.6938.4114-1.0445.1257-.3346.2514-.6694.3915-.998.8057-1.8858 1.6186-3.7676 2.4476-5.6431.6358-1.4394 1.2912-2.8696 1.9571-4.2949.1985-.4243.401-.8477.8485-1.1064 1.4645-.8472 2.9226-1.7051 4.3656-2.5884l.0627-.0384c1.4988-.9164 2.9978-1.833 4.3769-2.9362l.0277-.0222c1.1436-.9149 2.2816-1.8253 3.2437-2.949.7128-.8335 1.2521-1.749 1.5772-2.7959.4956-1.5928-.408-3.2158-1.9985-3.647-1.7288-.4702-3.423-.227-5.0975.2417-1.644.4605-3.2554 1.0259-4.8112 1.7383-1.1557.5288-2.3104 1.0644-3.4365 1.6528-.5801.3031-1.1348.6556-1.6892 1.008-.1968.1251-.3936.2501-.5914.3729-.2496.1551-.501.3079-.7525.4607-.665.4042-1.3303.8085-1.9644 1.2571-1.6204 1.1455-3.1635 2.3935-4.6111 3.7592-.8253.7783-1.5813 1.6192-2.1684 2.5987-.1761.2929-.305.6215-.4138.9487-.1198.3599.058.646.3243.8691.2655.2227.4955.1343.5081-.2158.0165-.4297.1932-.7695.4363-1.1011.7058-.9614 1.5128-1.8286 2.3843-2.6347 2.258-2.0879 4.7114-3.8941 7.3906-5.4004 1.8099-1.0171 3.6518-1.958 5.5638-2.7559 2.2021-.9189 4.4606-1.6494 6.8557-1.8301.8719-.0664 1.7383.0406 2.562.3584.5493.212.7446.6524.6206 1.232-.1759.8276-.571 1.5449-1.0879 2.1909-1.0304 1.2891-2.2043 2.4185-3.5379 3.396-2.1776 1.5947-4.439 3.0498-6.7686 4.3999-.0592.0341-.1258.0547-.2185.0835-.0521.0162-.1125.0349-.1845.06.1411-.2673.2784-.5246.4121-.7753l.0036-.0066.0005-.001.0003-.0007c.3032-.5682.5886-1.103.8599-1.6451.2725-.5445.5269-1.0985.7812-1.6523l.0002-.0003.0956-.2082c.0417-.0907.0835-.1814.1254-.272.1395-.3012.1376-.6059-.0336-.8969-.1234-.209-.2678-.4107-.5368-.4112-.2319-.0017-.3112.1716-.3905.3452l-.0165.0358c-.0045.0098-.0091.0195-.0137.0292-.0035.0073-.0071.0147-.0107.0219l-.1849.3732-.0004.0009c-.3521.7111-.7043 1.4223-1.0699 2.1264-.3059.5889-.6161 1.1754-.9262 1.7619-.3996.7556-.7992 1.5112-1.1897 2.2718-.1361.2652-.3265.4302-.5742.5542-.4384.2203-.8759.4426-1.3133.6649l-.0018.0009-.0005.0003h-.0001c-1.037.527-2.0737 1.054-3.1233 1.5527-1.2964.6172-2.6182 1.1816-4.0624 1.3647-.1225.0156-.3152.1284-.3271.2168-.0182.1392.0498.3345.1503.437.2908.2993.6878.333 1.068.2788.4824-.0673.9688-.1591 1.4336-.3046 1.6141-.5059 3.1683-1.1592 4.6534-1.9781.1492-.0824.3135-.1358.4778-.1893zm22.8313-6.3104v-.0001c.039-.0885.106-.2395.215-.2807.149-.0566.398.0113.537.1153.145.1074.25.3115.302.4936.082.2959.139.607.145.9121.007.3448-.213.4629-.5.2832-.387-.2431-.756-.6611-.726-1.4663.007-.0109.016-.0313.027-.0571zm3.825 11.7624c-.206.1261-.452.1817-.687.1689.059-.5007.255-.8687.508-1.1918-.253.3231-.449.6912-.508 1.192.235.0128.481-.0429.687-.1691zm.558-1.8275c-.08.0861-.16.1698-.241.2529 0-.0001 0-.0002.001-.0002v-.0001c.08-.083.16-.1666.24-.2526zm.535-1.4863c2.437-1.6382 5.245-2.3218 5.707-2.3818.196-.0259.303.0962.305.2832.001.1523-.16.3569-.288.3408-2.533.3503-4.814 1.8684-5.36 2.2316v.0003c-.04.0265-.07.0468-.091.0601.015.0655.047.1545.088.2631.217.5887.647 1.7554-.415 2.9034-.597.6367-1.308.7812-2.075.5093-.242-.0855-.427-.3116-.483-.5708-.052-.2476-.011-.5494.056-.8018.151-.5698.508-.9751.874-1.3633.159-.168.292-.2968.414-.415v-.0001c.106-.1018.203-.1958.301-.3002.262-.2782.139-.4184-.21-.8151v-.0001c-.222-.2522-.535-.6082-.898-1.1692-.969.8892-2.428 2.2993-4.939 4.8052-.155.1548-.336.2817-.518.4004-.462.3017-.8565.2295-1.1776-.2207-.2622-.3697-.4015-.7876-.3455-1.2442.0316-.2599.0855-.5166.1394-.7733l.0001-.0001c.0214-.102.0428-.204.0628-.3062.0213-.1084.0448-.216.0683-.3239v-.0003l.0007-.0029c.0128-.0587.0256-.1176.0381-.1768-.0143-.0076-.0286-.0151-.0428-.0225l-.0003-.0002c-.0183-.0096-.0366-.0191-.0547-.029-.0337.0286-.0684.0563-.103.0839h-.0001c-.0724.0577-.1447.1154-.2076.1817-1.0141 1.0721-2.1812 1.9595-3.3476 2.8465l-.1537.1169c-.5627.4292-1.2362.2466-1.5367-.417-.2315-.5127-.286-1.042-.0718-1.6016.5308-1.3847 1.3215-2.6079 2.2092-3.7768.1374-.1814.2726-.365.4252-.5723l.0001-.0001.0001-.0001c.1012-.1374.2101-.2853.3325-.45-.1388.0126-.2674.022-.3886.0308-.287.021-.5321.0389-.7707.0893-.1329.0269-.2618.1822-.3475.3101-.3413.508-.6787 1.0193-1.0161 1.5305-.3375.5112-.6749 1.0225-1.0162 1.5305-.79 1.1763-1.7542 2.1973-2.8351 3.0991-.8788.7325-1.8267.4791-2.2762-.5849-.0774-.1841-.1218-.3832-.1661-.5822-.0156-.0702-.0312-.1403-.0483-.2098-.0214-.0874-.0366-.1762-.0563-.2912-.011-.0642-.0234-.1366-.0391-.2215-.0955.0848-.1864.1651-.2738.2425-.2238.1979-.4249.3757-.623.5558-.1273.116-.2518.2353-.3764.3545-.2441.2336-.488.4671-.7515.6753-.6092.48-1.0628.5127-1.5373.1768-.4615-.3267-.6979-1.0132-.5519-1.6226.2565-1.0708.766-2.0171 1.4178-2.8872.8253-1.102 1.7484-2.1064 2.9065-2.8652.7869-.5166 1.3371-.479 2.0558.1367.0654.0557.1497.0962.2315.125.8328.29.9904.8735.4556 1.5859-.7644 1.0176-1.3752 2.1162-1.5896 3.3985-.0363.2174-.0522.4382-.0685.6643-.0075.1045-.0151.2102-.0248.3171.2841.0318.4301-.1069.571-.2407.0281-.0267.056-.0532.0848-.0781 1.5891-1.376 2.8044-3.0635 3.9187-4.8321.3081-.4891.593-.9939.8777-1.4983l.0029-.0052c.0551-.0975.1101-.195.1653-.2924.1541-.2724.3717-.374.6239-.1489.3659.3286.6876.2046 1.0495.0488.5843-.2509 1.1712-.4965 1.7654-.7221.4471-.169.6722-.1162.9166.2085.2507.334.4015.7192.1937 1.124-.1577.3062-.3608.5952-.579.8638-1.0825 1.3344-2.1332 2.6919-3.0378 4.1572-.1488.2412-.2439.5156-.3242.8022.4518-.148.7821-.4565 1.1045-.7576l.0012-.0011c.0515-.0482.1028-.0961.1544-.1431.6651-.6082 1.3037-1.246 1.9423-1.8837l.0029-.0028c.1346-.1345.2692-.2689.4041-.4031.806-.8029 1.6048-1.6124 2.4038-2.4216l.001-.0002.212-.2149c.081-.0827.158-.1698.235-.2569v-.0002c.08-.0906.16-.1812.245-.2668.324-.3267.719-.3208.973.0547.218.3227.351.6938.107 1.0786l-.102.1604c-.271.4237-.541.8472-.822 1.2634-.671.9907-1.165 2.0703-1.569 3.1953-.018.0498-.025.1075-.024.1617.001.0188.011.0378.031.0734.011.0216.027.0493.045.0867l.176-.1513v-.0001c.107-.0921.213-.1833.32-.2763 1.386-1.4326 4.782-4.919 4.931-5.0054.264-.1519.464-.0679.527.2671.41 1.6064 1.069 2.6101 1.357 3.0501l.001.0002c.042.0648.077.1173.101.1577zm-23.0203 2.7713c.1136-.0648.2272-.1297.3219-.2161.1294-.1176.2594-.2348.3893-.352l.0003-.0003c1.288-1.1617 2.5766-2.3239 3.386-3.9192.0404-.08.0915-.1547.1425-.2293.0629-.0921.1257-.184.1677-.2849.0408-.0981.0254-.2573-.0306-.3476-.0322-.0532-.2102-.0655-.2929-.0279-.2305.1021-.4694.2095-.6622.3687-1.4761 1.2187-2.7078 2.6406-3.489 4.4224-.0574.1309-.0957.2702-.1341.4098-.0176.0639-.0352.1279-.0547.1912l.0336.025.0003.0003c.0226.0167.0451.0333.0678.0509.0501-.0317.1021-.0614.1541-.091z" fill-rule="evenodd"/><path d="m0 81.5h184v.5h-184z"/><path d="m2.60317 107.764h5.6238v-1.566h-3.902v-6.2607h-1.7218zm7.87263 0h5.9592v-1.532h-4.2486v-1.644h3.6896v-1.531h-3.6896v-1.588h4.1927v-1.5317h-5.9033zm12.7428 0h1.6882v-5.076l2.1802 3.309h.0447l2.2026-3.343v5.11h1.7106v-7.8267h-1.8559l-2.0573 3.3097-2.0572-3.3097h-1.8559zm14.4582.134c2.415 0 4.1703-1.823 4.1703-4.048v-.022c0-2.225-1.7329-4.0249-4.1479-4.0249s-4.1704 1.8229-4.1704 4.0469v.023c0 2.225 1.733 4.025 4.148 4.025zm.0224-1.588c-1.3864 0-2.3703-1.118-2.3703-2.46v-.022c0-1.342.9615-2.437 2.3479-2.437s2.3703 1.118 2.3703 2.459v.023c0 1.342-.9615 2.437-2.3479 2.437zm6.6256 1.454h1.6995v-4.976l3.7902 4.976h1.4646v-7.8267h-1.6994v4.8187l-3.6672-4.8187h-1.5877zm9.7834 0h3.0523c2.4597 0 4.1592-1.711 4.1592-3.914v-.022c0-2.202-1.6995-3.8907-4.1592-3.8907h-3.0523zm1.7218-1.554v-4.719h1.3305c1.4088 0 2.3591.973 2.3591 2.359v.023c0 1.386-.9503 2.337-2.3591 2.337zm8.0525 1.554h1.7218v-7.8267h-1.7218zm3.9573 0h1.7553l.7155-1.756h3.3095l.7155 1.756h1.8001l-3.3542-7.8826h-1.5876zm3.0858-3.276 1.0398-2.538 1.0398 2.538zm7.3684 3.276h5.6238v-1.566h-3.902v-6.2607h-1.7218zm12.1749 0h3.0523c2.4597 0 4.1592-1.711 4.1592-3.914v-.022c0-2.202-1.6995-3.8907-4.1592-3.8907h-3.0523zm1.7218-1.554v-4.719h1.3305c1.4088 0 2.3591.973 2.3591 2.359v.023c0 1.386-.9503 2.337-2.3591 2.337zm7.9743 1.554h5.959v-1.532h-4.248v-1.644h3.689v-1.531h-3.689v-1.588h4.192v-1.5317h-5.903zm12.743 0h5.624v-1.566h-3.902v-6.2607h-1.722zm6.978-4.227c1.33-.022 2.068-.614 2.068-2.09v-1.5097h-1.811v1.7887h.693c.056.637-.324 1.029-1.096 1.107zm8.398 4.361c2.415 0 4.17-1.823 4.17-4.048v-.022c0-2.225-1.733-4.0249-4.148-4.0249s-4.17 1.8229-4.17 4.0469v.023c0 2.225 1.733 4.025 4.148 4.025zm.022-1.588c-1.386 0-2.37-1.118-2.37-2.46v-.022c0-1.342.961-2.437 2.348-2.437 1.386 0 2.37 1.118 2.37 2.459v.023c0 1.342-.962 2.437-2.348 2.437zm6.626 1.454h1.721v-2.348h1.309c1.755 0 3.164-.939 3.164-2.751v-.022c0-1.599-1.13-2.7057-2.997-2.7057h-3.197zm1.721-3.88v-2.393h1.331c.861 0 1.397.414 1.397 1.186v.022c0 .671-.503 1.185-1.364 1.185zm8.52 3.88h1.721v-6.239h2.382v-1.5877h-6.485v1.5877h2.382zm6.456 0h1.721v-7.8267h-1.721zm11.616.234 1.095-1.218-.805-.682c.447-.649.693-1.431.693-2.248v-.022c0-2.225-1.733-4.0249-4.148-4.0249s-4.17 1.8229-4.17 4.0469v.023c0 2.225 1.733 4.025 4.148 4.025.872 0 1.666-.246 2.326-.671zm-3.165-1.688c-1.386 0-2.37-1.118-2.37-2.46v-.022c0-1.342.962-2.437 2.348-2.437s2.37 1.118 2.37 2.459v.023c0 .391-.067.749-.212 1.073l-1.286-1.163-1.096 1.23 1.275 1.085c-.302.134-.648.212-1.029.212zm9.891 1.577c2.102 0 3.432-1.163 3.432-3.533v-4.4167h-1.722v4.4837c0 1.241-.637 1.878-1.688 1.878s-1.688-.66-1.688-1.934v-4.4277h-1.722v4.4727c0 2.303 1.286 3.477 3.388 3.477zm6.136-.123h5.96v-1.532h-4.249v-1.644h3.69v-1.531h-3.69v-1.588h4.193v-1.5317h-5.904z"/></g></svg>