<svg fill="none" height="30" viewBox="0 0 175 30" width="175" xmlns="http://www.w3.org/2000/svg" xmlns:xlink="http://www.w3.org/1999/xlink"><linearGradient id="a"><stop offset="0" stop-color="#a3063f"/><stop offset=".989609" stop-color="#bd5e6b"/><stop offset="1" stop-color="#bd5e6b"/></linearGradient><linearGradient id="b" gradientUnits="userSpaceOnUse" x1="-25.2996" x2="-24.7393" xlink:href="#a" y1="65.6244" y2="65.6244"/><linearGradient id="c" gradientUnits="userSpaceOnUse" x1="-27.4324" x2="-26.8723" xlink:href="#a" y1="73.4215" y2="73.4215"/><clipPath id="d"><path d="m60.36.878906h26.6966v11.703h-26.6966z"/></clipPath><clipPath id="e"><path d="m60.36.878906h26.6966v11.703h-26.6966z"/></clipPath><clipPath id="f"><path d="m54.33 11.4824h32.726v18.1059h-32.726z"/></clipPath><clipPath id="g"><path d="m54.33 11.4824h32.726v18.1059h-32.726z"/></clipPath><mask id="h" height="13" maskUnits="userSpaceOnUse" width="28" x="60" y="0"><path d="m60.36.878906h26.6966v11.703h-26.6966z" fill="#fff"/></mask><mask id="i" height="12" maskUnits="userSpaceOnUse" width="18" x="65" y="1"><path d="m73.7903 12.0207-8.1422-9.32405s-.9293-1.19373.8172-1.24088c1.7667-.0477 5.7756 0 5.7756 0s1.0055-.02995 1.8518.80877c1.0542 1.0434 7.9226 9.76286 7.9226 9.76286z" fill="#fff"/></mask><mask id="j" height="19" maskUnits="userSpaceOnUse" width="34" x="54" y="11"><path d="m54.33 11.4824h32.726v18.1059h-32.726z" fill="#fff"/></mask><mask id="k" height="18" maskUnits="userSpaceOnUse" width="24" x="59" y="12"><path d="m82.0147 12.0432-14.0617 16.1808s-.7428.8093-2.5598.8093h-5.3365c-.2296 0-.4374-.1265-.5764-.3167-.1691-.233-.1786-.5791.2459-1.1405.8173-1.0789 13.4747-15.539 13.4747-15.539z" fill="#fff"/></mask><g fill="#fff"><path clip-rule="evenodd" d="m112.83 19.8895c-4.576 0-8.024-3.4153-8.024-7.9461 0-4.5769 3.448-7.99223 8.024-7.99223 4.621 0 8.07 3.41533 8.07 7.99223 0 4.5308-3.449 7.9461-8.07 7.9461zm17.52-4.6445c0-.8432-.828-1.2525-2.231-1.6397l-2.966-.7977c-2.368-.614-3.587-2.0485-3.587-4.14309 0-2.57384 1.955-4.6906 6.255-4.6906 2.252 0 4.414.59132 5.61 1.22923l-.92 2.98266c-1.149-.72833-3.104-1.29801-4.805-1.29801-1.978 0-2.805.61517-2.805 1.5027 0 .84315.574 1.18429 1.701 1.5027l2.897.82041c2.828.7966 4.208 2.0713 4.208 4.2807 0 2.9144-2.599 4.8952-6.37 4.8952-2.276 0-4.506-.7743-5.517-1.3429l.758-3.0287c1.127.7283 2.943 1.4572 4.829 1.4572 1.885 0 2.943-.7056 2.943-1.7301zm4.943 4.4171h3.22v-15.4835h-3.22zm5.61-15.4835h3.219v8.7433c0 2.4596 1.265 4.0305 3.862 4.0305 2.645 0 3.933-1.6619 3.933-4.0533v-8.7205h3.218v8.948c0 3.6438-2.482 6.7862-7.151 6.7862-4.621 0-7.081-2.8467-7.081-6.7862zm34.097 15.4835h-3.218v-10.4512l-5.242 6.2388h-.575l-5.219-6.2388v10.4512h-3.22v-15.4835h2.897l5.84 6.8989 5.84-6.8989h2.897zm-67.022-7.7187c0-2.84622 2.046-4.96464 4.876-4.96464 2.873 0 4.873 2.11842 4.873 4.96464 0 2.8007-2 4.9635-4.873 4.9635-2.83 0-4.876-2.1628-4.876-4.9635zm-9.6336-4.98738c1.5863 0 2.8516 1.00235 2.8516 2.8462 0 1.73068-1.2653 2.80068-2.8516 2.80068h-3.7479v-5.64688zm-3.7479 12.70608h-3.2185v-15.4835h7.4728c3.0582 0 5.6792 1.77617 5.6792 5.64636 0 3.48414-2.621 5.55654-5.6792 5.55654h-4.2543z" fill-rule="evenodd"/><path clip-rule="evenodd" d="m23.0712 19.9123c-4.5814 0-8.0352-3.4203-8.0352-7.9584 0-4.58241 3.4538-8.00273 8.0352-8.00273 4.629 0 8.0828 3.42032 8.0828 8.00273 0 4.5381-3.4538 7.9584-8.0828 7.9584zm27.193-.228h-3.2236v-10.46619l-5.2496 6.24769h-.5758l-5.2267-6.24769v10.46619h-3.223v-15.5057h2.9004l5.8495 6.9094 5.8484-6.9094h2.9004zm14.9664-2.8046v2.8046h-12.3875v-15.5057h12.3875v2.8046h-9.3017v3.3521h7.6207v2.8051h-7.6207v3.7393zm-47.0169-4.9258c0-2.84895 2.0484-4.9707 4.8805-4.9707 2.8791 0 4.8821 2.12175 4.8821 4.9707 0 2.8052-2.003 4.9713-4.8821 4.9713-2.8321 0-4.8805-2.1661-4.8805-4.9713z" fill-rule="evenodd"/><path d="m13.3963 6.28426c-1.0537-1.48938-2.864-2.33309-5.33703-2.33309-4.62842 0-8.05927 2.9638-8.05927 8.00273 0 4.994 3.43085 7.9584 8.05927 7.9584 2.60183 0 5.01943-1.186 6.42363-2.5084l-1.5196-2.3941c-1.1511 1.049-2.901 1.9381-4.83513 1.9381-2.87799 0-4.78918-1.8238-4.78918-4.994 0-3.2145 1.91119-5.03893 4.67379-5.03893 1.29952 0 2.20522.43211 2.77042 1.18097z"/></g><path d="m73.2456 12.037-7.5977-9.32519s-.9265-1.13327.8172-1.24088c1.7432-.10817 5.775 0 5.775 0s1.0055-.02996 1.8524.80931c1.0542 1.04396 7.9232 9.76286 7.9232 9.76286z" fill="#a3063f"/><path d="m82.0156 12.0427-14.0617 16.1813s-.7439.8093-2.561.8093h-5.3364c-.2291 0-.4364-.1265-.5753-.3167-.1697-.233-.1792-.5791.2459-1.1405.8173-1.0789 13.5184-15.539 13.5184-15.539z" fill="#a3063f"/><g clip-path="url(#d)" opacity=".699997"><g clip-path="url(#e)"><g mask="url(#h)"><g mask="url(#i)"><path d="m59.4557 5.7041h20.1675v19.0897h-20.1675z" fill="url(#b)" transform="matrix(.77162347 -.63607957 .63607957 .77162347 9.950025 39.121238)"/></g></g></g></g><g clip-path="url(#f)" opacity=".699997"><g clip-path="url(#g)"><g mask="url(#j)"><g mask="url(#k)"><path d="m50.9334 22.418h27.5837v28.1824h-27.5837z" fill="url(#c)" transform="matrix(.62387278 -.78152592 .78152592 .62387278 1.63719 48.237792)"/></g></g></g></g><path d="m83.046 11.4252-3.339-4.08205s1.6692-2.05186 1.9784-2.44847c.3227-.32118.7545-.78658 1.8967-.88198h3.9837s.5108 0 .7063.45763c.1003.23464.093.50478-.1154.75051-.8077.95188-5.1107 6.20436-5.1107 6.20436z" fill="#fff"/><path d="m83.046 13.0986-3.339 4.0006 1.2419 1.7079s.8895 1.0895 2.2091 1.0895h3.7804s.4319 0 .6403-.339c.1383-.2218.1708-.6079-.0398-.8664-.6066-.7444-4.4929-5.5926-4.4929-5.5926z" fill="#fff"/></svg>