<svg viewBox="0 0 312.42 84.73" xmlns="http://www.w3.org/2000/svg" xmlns:xlink="http://www.w3.org/1999/xlink"><clipPath id="a" transform="translate(0 15.19)"><path d="m0 0h312.42v49.77h-312.42z"/></clipPath><clipPath id="b" transform="translate(0 15.19)"><path d="m107.76-.98h47.66v21.1h-47.66z"/></clipPath><clipPath id="c" transform="translate(0 15.19)"><path d="m131.73 19.1-14.53-16.8s-1.66-2.16 1.46-2.24 10.34 0 10.34 0a4.86 4.86 0 0 1 3.31 1.46c1.88 1.88 14.15 17.6 14.15 17.6z"/></clipPath><linearGradient id="d" gradientTransform="matrix(0 -25.26 -25.26 0 2734.82 -933.8)" gradientUnits="userSpaceOnUse" x1="-37.61" x2="-36.61" y1="103.09" y2="103.09"><stop offset="0" stop-color="#b61c50"/><stop offset=".99" stop-color="#cb747e"/><stop offset="1" stop-color="#cb747e"/></linearGradient><clipPath id="e" transform="translate(0 15.19)"><path d="m96.99 18.13h58.43v32.64h-58.43z"/></clipPath><clipPath id="f" transform="translate(0 15.19)"><path d="m146.42 19.14-25.1 29.17s-1.33 1.46-4.57 1.46h-9.53a1.29 1.29 0 0 1 -1-.57c-.3-.42-.32-1 .44-2.06 1.46-1.95 24.06-28 24.06-28z"/></clipPath><linearGradient id="g" gradientTransform="matrix(22.43 0 0 -22.43 922.67 2423.48)" x1="-35.33" x2="-34.33" xlink:href="#d" y1="106.5" y2="106.5"/><g clip-path="url(#a)"><g fill="#021737"><path d="m306.68 32.88h5.75v-27.88h-5.17l-10.43 12.41-10.43-12.41h-5.17v27.88h5.77v-18.88l9.32 11.25h1l9.36-11.25zm-49.38-27.88h-5.75v16.1c0 7.1 4.39 12.23 12.64 12.23s12.81-5.66 12.81-12.23v-16.1h-5.75v15.69c0 4.31-2.3 7.31-7 7.31s-6.9-2.83-6.9-7.26zm-15.77 27.88h5.75v-27.88h-5.75zm-12.8-10.88c2.5.7 4 1.44 4 3 0 1.85-1.89 3.12-5.25 3.12a16.61 16.61 0 0 1 -8.62-2.63l-1.35 5.46a22.18 22.18 0 0 0 9.85 2.42c6.73 0 11.37-3.57 11.37-8.83 0-4-2.46-6.28-7.51-7.72l-5.22-1.55c-2-.57-3-1.19-3-2.71s1.48-2.71 5-2.71a17.5 17.5 0 0 1 8.58 2.34l1.64-5.38a22.91 22.91 0 0 0 -10-2.22c-7.7.01-11.22 3.83-11.22 8.46 0 3.78 2.18 6.36 6.4 7.47zm-36-3a8.57 8.57 0 0 1 8.7-8.95c5.13 0 8.7 3.82 8.7 8.95s-3.57 8.95-8.7 8.95a8.61 8.61 0 0 1 -8.7-8.95m-5.66 0a14.37 14.37 0 0 0 28.73 0 14.37 14.37 0 1 0 -28.73 0m-11.53-9a4.81 4.81 0 0 1 5.09 5.13 4.86 4.86 0 0 1 -5.09 5h-6.69v-10.13zm-12.44 22.9h5.75v-7.74h7.59c5.46 0 10.14-3.74 10.14-10 0-7-4.68-10.18-10.14-10.18h-13.31z" transform="translate(0 15.19)"/><path d="m116.45 32.92v-5.05h-16.6v-6.75h13.61v-5.05h-13.61v-6.07h16.61v-5h-22.12v28zm-32.45 0h5.75v-27.92h-5.19l-10.44 12.42-10.45-12.42h-5.18v28h5.75v-18.95l9.33 11.26h1l9.43-11.26zm-51.48-13.92a8.58 8.58 0 0 1 8.71-9c5.14 0 8.71 3.82 8.71 9s-3.58 9-8.71 9a8.62 8.62 0 0 1 -8.71-9m-5.67 0a14 14 0 0 0 14.34 14.33 14 14 0 0 0 14.43-14.33 14.07 14.07 0 0 0 -14.43-14.44 14 14 0 0 0 -14.35 14.44" transform="translate(0 15.19)"/><path d="m23.92 8.76c-1.92-2.68-5.12-4.2-9.53-4.2-8.26 0-14.39 5.34-14.39 14.44s6.13 14.33 14.39 14.33a17.36 17.36 0 0 0 11.47-4.52l-2.71-4.32a13.1 13.1 0 0 1 -8.64 3.51c-5.14 0-8.51-3.3-8.51-9s3.37-9.1 8.3-9.1a5.79 5.79 0 0 1 4.95 2.1z" transform="translate(0 15.19)"/></g><path d="m130.76 19.13-13.56-16.81s-1.65-2 1.46-2.24 10.34.01 10.34.01a4.87 4.87 0 0 1 3.31 1.46c1.88 1.88 14.15 17.6 14.15 17.6z" fill="#b61c50" transform="translate(0 15.19)"/><path d="m146.42 19.14-25.1 29.17s-1.33 1.46-4.57 1.46h-9.53a1.29 1.29 0 0 1 -1-.57c-.3-.42-.32-1 .44-2.06 1.46-1.95 24.13-28 24.13-28z" fill="#b61c50" transform="translate(0 15.19)"/><g clip-path="url(#b)" opacity=".699997"><g clip-path="url(#c)"><path d="m112.98-7.66h36.01v34.42h-36.01z" fill="url(#d)" transform="matrix(.77162458 -.63607822 .63607822 .77162458 23.84 100.68)"/></g></g><g clip-path="url(#e)" opacity=".699997"><g clip-path="url(#f)"><path d="m101.52 9.05h49.25v50.81h-49.25z" fill="url(#g)" transform="matrix(.6238796 -.78152047 .78152047 .6238796 20.52 126.73)"/></g></g><path d="m148.26 18-6-7.36s3-3.7 3.53-4.42a4.67 4.67 0 0 1 3.39-1.59h7.11a1.43 1.43 0 0 1 1.26.83 1.25 1.25 0 0 1 -.21 1.35c-1.4 1.75-9.08 11.19-9.08 11.19" fill="#021737" transform="translate(0 15.19)"/><path d="m148.26 21-6 7.21 2.22 3.08a5.62 5.62 0 0 0 3.94 2h6.75a1.34 1.34 0 0 0 1.07-2.17c-1.08-1.34-8-10.08-8-10.08" fill="#021737" transform="translate(0 15.19)"/></g></svg>