<svg xmlns="http://www.w3.org/2000/svg" viewBox="0 0 120 120" height="120" width="120"><style>
@keyframes a0_o { 0% { opacity: 1; } 5.405% { opacity: 1; } 8.108% { opacity: 0; } 10.811% { opacity: 1; } 18.919% { opacity: 1; } 21.622% { opacity: 0; } 24.324% { opacity: 1; } 78.378% { opacity: 1; } 81.081% { opacity: 0; } 83.784% { opacity: 1; } 100% { opacity: 1; } }
@keyframes a1_o { 0% { opacity: 1; } 5.405% { opacity: 1; } 8.108% { opacity: 0; } 10.811% { opacity: 1; } 18.919% { opacity: 1; } 21.622% { opacity: 0; } 24.324% { opacity: 1; } 78.378% { opacity: 1; } 81.081% { opacity: 0; } 83.784% { opacity: 1; } 100% { opacity: 1; } }
@keyframes a2_o { 0% { opacity: 0; } 5.405% { opacity: 0; } 8.108% { opacity: 1; } 10.811% { opacity: 0; } 18.919% { opacity: 0; } 21.622% { opacity: 1; } 24.324% { opacity: 0; } 78.378% { opacity: 0; } 81.081% { opacity: 1; } 83.784% { opacity: 0; } 100% { opacity: 0; } }
@keyframes a3_o { 0% { opacity: 0; } 5.405% { opacity: 0; } 8.108% { opacity: 1; } 10.811% { opacity: 0; } 18.919% { opacity: 0; } 21.622% { opacity: 1; } 24.324% { opacity: 0; } 78.378% { opacity: 0; } 81.081% { opacity: 1; } 83.784% { opacity: 0; } 100% { opacity: 0; } }
</style><path class="st0" d="M106.1 60.4h-4.6c-0.9-9.2-8.7-16.4-18.2-16.4c-8.8 0-16.2 6.2-18 14.5c-1.6-1.1-3.2-1.6-4.9-1.6c0 0-0.1 0-0.2 0c-1.4 .1-2.9 .6-4.3 1.4c-1.8-8.1-9.1-14.3-17.9-14.3c-9.5 0-17.3 7.2-18.3 16.4h-4.5c-1.2 0-2 1-2 2c0 1.1 .9 2 2 2h4.5c1 9.2 8.8 16.4 18.3 16.4c9.9 0 18-7.8 18.5-17.6c1.4-1.4 2.7-2.3 3.9-2.3c1.4 0 2.9 .8 4.5 2.4c.5 9.7 8.6 17.5 18.4 17.5c9.5 0 17.3-7.2 18.3-16.4h4.6c1.1 0 1.9-0.9 1.9-2c0-1-0.9-2-2-2Zm-68 16.5c-8 0-14.5-6.5-14.5-14.5c0-8 6.5-14.5 14.5-14.5c7.9 0 14.4 6.5 14.4 14.5c0 8-6.5 14.5-14.4 14.5Zm30.8-14.5c0 8 6.5 14.5 14.4 14.5c8 0 14.5-6.5 14.5-14.5c0-8-6.5-14.5-14.5-14.5c-8 0-14.5 6.5-14.5 14.5Z" fill="#241d4c" clip-rule="evenodd" fill-rule="evenodd"/><rect width="12" height="12" fill="#241d4c" rx="12" transform="translate(40.4,60.9) scale(.7,.7) translate(-9,-2.8)" style="animation: 3.7s linear infinite both a0_o;"/><rect width="12" height="12" fill="#241d4c" rx="12" transform="translate(85.4,60.9) scale(.7,.7) translate(-9,-2.8)" style="animation: 3.7s linear infinite both a1_o;"/><path fill="#241d4c" d="M3.5 0h13c1.9 0 3.5 1.3 3.5 3c0 1.7-1.6 3-3.5 3h-13c-1.9 0-3.5-1.3-3.5-3c0-1.7 1.6-3 3.5-3Z" opacity="0" transform="translate(82.9,62.9) scale(.7,.7) translate(-9,-2.8)" style="animation: 3.7s linear infinite both a2_o;"/><path fill="#241d4c" d="M3.5 0h13c1.9 0 3.5 1.3 3.5 3c0 1.7-1.6 3-3.5 3h-13c-1.9 0-3.5-1.3-3.5-3c0-1.7 1.6-3 3.5-3Z" opacity="0" transform="translate(37.9,63) scale(.7,.7) translate(-9,-2.8)" style="animation: 3.7s linear infinite both a3_o;"/></svg>