<svg fill="none" height="162" viewBox="0 0 300 162" width="300" xmlns="http://www.w3.org/2000/svg" xmlns:xlink="http://www.w3.org/1999/xlink"><clipPath id="a"><path d="m0 0h300v162h-300z"/></clipPath><g clip-path="url(#a)" fill="#fff"><path d="m300 131.89h-300v.848h300z"/><path d="m252.999 4.66504c-10.162 0-18.631 8.26966-18.631 18.65966 0 10.178 8.469 18.6597 18.631 18.6597 10.374 0 18.631-8.2696 18.631-18.6597 0-9.9659-8.68-18.65966-18.631-18.65966zm0 41.98426c-12.914 0-23.288-10.39-23.288-23.1125 0-12.9346 10.374-23.324642 23.288-23.324642 12.703 0 23.077 10.390042 23.077 23.324642 0 12.7225-10.374 23.1125-23.077 23.1125z"/><path d="m38.3204 46.6493c-4.2343 0-10.5858 0-14.1849-6.9974-.2117-.212-.2117-.6361.2117-1.2722.4234-.8482 1.9054-1.6963 2.7523-1.6963.4234 0 .6351.212.8469.424l.4234.4241c1.0586 1.4843 1.6937 2.5445 3.3874 3.3927h.2117c1.4821.8482 2.5406 1.4843 5.9281 1.6963h1.482c6.9866 0 9.7389-2.1204 9.7389-7.6335 0-6.3612-4.6578-7.4214-10.3741-8.6937-6.5631-1.4843-13.7614-3.1806-13.7614-13.7827 0-8.0576 7.6217-12.298442 14.82-12.298442 5.2929 0 8.892 2.544502 12.2795 8.481672 0 .21205.2117.42409 0 .84817-.4235.6361-2.1172 1.6963-2.7523 1.6963-.4235 0-.4235-.212-.6352-.212-.4234-.4241-.6351-1.06022-1.0585-1.4843-1.0586-1.06021-1.4821-1.69633-1.9055-2.33246l-.2117-.21204c-1.0586-1.06021-1.9054-2.33246-5.5046-2.75655-.2117 0-.6351 0-1.0586 0-1.6937 0-9.5271.42409-9.5271 8.69375 0 6.3612 4.6577 7.4214 10.5857 8.6937 6.3515 1.2722 13.5498 2.7565 13.5498 13.1466 0 7.4214-5.5046 11.8743-15.2435 11.8743z"/><path d="m80.4517 46.6492h-2.9641c-.4234 0-.8468-.4241-.8468-.8482v-44.952832c0-.424084.4234-.848168.8468-.848168h2.9641c.4234 0 .8468.424084.8468.848168v44.952832c0 .4241-.4234.8482-.8468.8482z"/><path d="m137.191 46.6492h-27.946c-.424 0-.847-.4241-.847-.8482v-44.952832c0-.424084.423-.848168.847-.848168h2.964c.423 0 .847.424084.847.848168v41.348132h24.347c.423 0 .847.4241.847.8482v2.7565c-.212.4241-.635.8482-1.059.8482z"/><path d="m204.94 46.6492h-2.752c-.424 0-.847-.4241-.847-.8482v-37.74341l-18.843 37.74341c-.211.6362-1.27.6362-1.482 0l-18.842-37.31932v37.31932c0 .4241-.424.8482-.847.8482h-2.753c-.423 0-.846-.4241-.846-.8482v-44.952832c0-.424084.423-.848168.846-.848168h4.023c.423 0 .635.212042.847.424084l18.207 36.471216 18.208-36.471216c.423-.212042.635-.424084.847-.424084h4.234c.423 0 .847.424084.847.848168v44.952832c0 .4241-.424.8482-.847.8482z"/><path d="m38.5321 155.639h3.5991c3.1758 0 3.1758-4.453 0-4.453h-3.5991zm3.5991 2.332h-3.5991v3.817h-2.5406v-12.723h6.1397c6.1398-.212 6.1398 8.906 0 8.906z"/><path d="m52.9287 151.186v4.029h3.5992c1.482 0 2.1171-1.06 2.1171-2.121 0-1.06-.6351-2.12-2.1171-2.12h-3.5992zm8.892 10.39h-2.964l-3.8108-4.241h-2.1172v4.241h-2.3288v-12.934h6.1397c2.964 0 4.6577 2.12 4.6577 4.24 0 1.697-.8469 3.605-3.1757 4.029z"/><path d="m64.7848 148.853v12.723h9.5271v-2.333h-7.1983v-2.968h6.9866v-2.121h-6.9866v-2.968h7.1983v-2.333z"/><path d="m89.132 148.853-4.0226 5.513-4.0226-5.513h-2.7523v12.723h2.3289v-9.33l4.0225 5.725h.6352l4.0226-5.513v9.118h2.5406v-12.723z"/><path d="m98.4474 148.853h-2.3288v12.723h2.3288z"/><path d="m114.114 148.853v7.422c0 3.816-2.329 5.725-5.504 5.725-3.176 0-5.717-1.909-5.717-5.725v-7.422h2.329v7.422c0 2.332 1.271 3.604 3.388 3.604 1.905 0 3.175-1.272 3.175-3.604v-7.422z"/><path d="m129.358 148.853-4.023 5.513-4.022-5.513h-2.753v12.723h2.329v-9.33l4.023 5.725h.635l4.023-5.513v9.118h2.54v-12.723z"/><path d="m142.061 148.853v12.723h9.527v-2.333h-7.198v-2.968h6.986v-2.121h-6.986v-2.968h7.198v-2.333z"/><path d="m157.728 159.244h2.54c2.964 0 4.023-2.121 4.023-4.241 0-1.909-1.271-4.029-4.023-4.029h-2.54zm9.103-4.029c0 3.181-1.905 6.573-6.351 6.573h-5.081v-12.722h5.081c4.234-.212 6.14 2.968 6.351 6.149z"/><path d="m181.651 148.854v7.421c0 3.817-2.328 5.725-5.504 5.725s-5.717-1.908-5.717-5.725v-7.421h2.329v7.421c0 2.333 1.271 3.605 3.388 3.605 1.905 0 3.176-1.272 3.176-3.605v-7.421z"/><path d="m197.318 160.092c-1.27 1.272-2.964 1.908-4.869 1.908-4.658 0-6.775-3.18-6.775-6.573s2.117-6.785 6.775-6.785c1.694 0 3.387.636 4.658 1.908l-1.694 1.484c-.847-.848-1.906-1.272-3.176-1.272-3.176 0-4.446 2.332-4.446 4.453 0 2.12 1.27 4.241 4.446 4.241 1.059 0 2.329-.424 3.176-1.273z"/><path d="m205.787 151.61 2.329 5.513h-4.658zm-1.27-2.757-5.717 12.723h2.541l1.058-2.333h6.775l1.059 2.333h2.54l-5.716-12.723z"/><path d="m213.197 148.853v2.121h4.022v10.602h2.541v-10.602h4.023v-2.121z"/><path d="m229.499 148.853h-2.329v12.723h2.329z"/><path d="m236.062 155.427c0 2.12 1.27 4.452 4.234 4.452s4.235-2.332 4.235-4.452c0-2.121-1.271-4.665-4.235-4.665s-4.234 2.544-4.234 4.665zm10.798-.212c0 3.392-2.118 6.573-6.564 6.573s-6.563-3.181-6.563-6.573c0-3.393 2.117-6.786 6.563-6.786 4.446.212 6.564 3.605 6.564 6.786z"/><path d="m259.139 148.853v7.846l-6.351-7.846h-1.906v12.723h2.329v-8.482l6.775 8.482h1.482v-12.723z"/><path d="m100.988 77.1832c-.635 2.1204-1.2703 4.4529-1.6937 6.9974l-4.2343 1.0602c.2117-.4241.6351-1.0602.8468-1.4843.4234-.6361.8469-1.2722 1.2703-2.1204.8469-1.4843 1.6937-2.9686 2.5406-4.2408.8473-1.2723 1.6933-2.7566 2.3293-3.8168 0-.212.211-.4241.211-.4241-.423 1.0602-.847 2.5445-1.27 4.0288zm2.964 5.7251h-.212l-.635.2121c.424-1.4843.847-2.9686 1.27-4.4529.424-1.6963 1.059-3.1806 1.482-4.877.424-1.4843 1.059-2.9685 1.482-4.4528.424-1.2723 1.059-2.5445 1.271-3.6048.211-.424.211-.8481 0-1.2722-.212-.4241-.424-.8482-1.059-1.0602-.423-.2121-.847-.2121-1.27 0-.424.212-.847.4241-1.059 1.0602l-.211.8482c-.212.424-.424.8481-.847 1.4843-.424.6361-.847 1.4843-1.482 2.5445s-1.271 2.1204-1.906 3.1806c-.635 1.2722-1.4817 2.5445-2.3286 3.8167-.8469 1.2723-1.6937 2.7566-2.5406 4.2409-.8468 1.4843-1.9054 2.9686-2.7523 4.4529-1.0585 1.4843-1.9054 3.1806-2.964 4.6649s-2.1171 3.1806-2.964 4.6649c-1.0586 1.4843-2.1171 2.9686-3.1757 4.2408-.2117.4241-.6352.6362-.8469 1.0603-.2117.4243-.4234.6363-.6351 1.0603l-1.0586 1.06-.2117.212-.2117.212-.2117.212s0 .212-.2118.212c-.8468.848-1.9054 1.909-2.7523 2.757-.8468.848-2.1171 1.484-3.1757 1.908-.2117 0-.2117 0-.4234 0s-.2117 0-.2117 0-.2117 0-.4235 0c0 0-.8468.212-.8468.848 0 .212 0 .636.2117.849.2117.424.8469.424 1.0586.424.4234 0 .8468 0 1.0586-.212.2117 0 .4234-.212.4234-.212.2117 0 .2117-.213.4234-.213 1.0586-.636 2.1172-1.484 2.964-2.332.8469-.848 1.6937-1.908 2.5406-2.969l.4234-.424c.2118-.212.4235-.424.4235-.424.2117-.212.2117-.424.4234-.424.2117-.212.2117-.424.4234-.424.4235-.636 1.0586-1.272 1.482-2.1203 1.0586-1.4843 2.1172-2.9686 3.1758-4.4529 1.0585-1.4843 2.1171-2.9686 3.1757-4.6649.4234-.6362.8468-1.2723 1.2703-1.9084.4234-.6362.8468-1.2723 1.0585-1.9084l5.0812-1.2723c-.2117 1.4843-.6351 2.9686-.6351 4.2409-.2118 1.4843-.2118 2.5445-.4235 3.8167-.2117 3.3927.6352 5.5131 1.9055 6.5736.4234.212.6351.424 1.0587.424.635 0 1.058-.212 1.482-.6363.423-.4241.423-.8482.423-1.2723 0-.424-.211-.8481-.635-1.2722-.212-.212-.212-.4241-.423-.6361 0-.2121-.212-.6362-.212-1.0602 0-.4241 0-1.0603 0-1.9084 0-1.0602.212-2.3325.423-3.8168.212-1.4843.424-3.1806.847-4.8769 0 0 0 0 0-.2121l1.482-.4241c.424 0 .635-.424.635-.8481.212-.4241-.211-.6362-.423-.6362z"/><path d="m192.449 106.233c-.847 1.696-1.694 3.393-2.541 5.089-.635 1.272-1.482 2.12-2.329 3.181-.423.636-2.117 2.544-4.869 3.392-1.694.636-4.87 1.06-6.987.636-2.117-.212-5.716-1.696-5.293-4.665.424-3.18 3.6-4.452 4.87-5.513 1.058-.848 2.117-1.272 3.176-1.908.847-.424 1.905-1.06 2.964-1.484.846-.424 1.905-.848 2.752-1.061 1.905-.424 3.811-.848 5.716-1.272 1.271-.212 2.753-.424 4.023-.636-.212 1.484-.847 2.757-1.482 4.241zm-47.636-15.6912-.212.4241v.2121c0 .212 0 .212-.211.424v.2121c-.212.212-.212.4241-.424.6361s-.212.4241-.423.6361c-.424.6362-1.059 1.4843-1.694 2.1205-.423.424-.635.8481-1.059 1.0602-.423.424-.635.6361-1.058 1.0602l-.635.424c-.212.2121-.424.2121-.635.4241 0 0-.212 0-.212.2121 0 0 0 0-.212 0s-.423.212-.635.212c0 0 0 0-.212 0h-.211s0 0-.212 0v-.212c0-.2121 0-.4241 0-.4241 0-.212.212-.4241.212-.6361v-.2121s0 0 0-.212v-.2121l.211-.6361.212-.212c.212-.2121.212-.4241.423-.6361.212-.4241.636-1.0603.847-1.4843.212-.4241.635-.8482.847-1.2723.212-.212.424-.4241.424-.6361l.211-.2121c0-.212.212-.212.212-.212.212-.2121.423-.4241.423-.6361.212-.2121.212-.4241.424-.6362l.212-.212.211-.212.212-.2121s0 0 .212-.212c.211-.2121.423-.2121.423-.4241l.424-.4241c.635-.4241 1.27-.8482 1.693-1.0602.424-.212.847-.4241 1.271-.4241v.2121c0 .212-.212.212-.212.424-.212.2121-.212.4241-.424.8482 0 .2121-.211.4241-.211.8482zm-15.032-2.5445s0 .2121-.211.2121c0 0-.001.212-.212.212 0 .2121 0 .2121-.212.4241 0 .212 0 .4241-.212.6361 0 .2121-.211.4241-.211.8482 0 .212-.212.4241-.212.4241 0 .212-.212.424-.424.6361-.211.6361-.635 1.2722-1.27 2.1204 0 0 0 0-.212.2121l-.211.212-.212.212s-.212.2121-.212.4241c-.211.4241-.635.8482-.847 1.0602l-.211 1.0602c-.212.2121-.424.4241-.635.6362l-.212.212s-.212 0-.212.212c0 0 0 .0001-.212.2121 0 0 0 0-.211 0 0 0-.212 0-.212.212l-.212.2121h-.211l-.212.212c-.212 0-.212 0-.212.2121-.212 0-.212.212-.212.212-.211 0-.211 0-.423.212h-.212-.423-.212v-.212-.212-.2121c0-.212 0-.212 0-.4241v-.4241-.212s0 0 0-.212v-.2121l1.059-2.1204c.211-.212.211-.4241.423-.8482.212-.424.635-1.0602.847-1.4843.212-.424.635-.8481.847-1.4842.212-.4241.635-.8482.847-1.2723.211-.4241.635-.8482 1.058-1.0602l.212-.2121.212-.212.211-.212.212-.2121h.212s.212 0 .212-.212h.211s.212 0 .212-.2121c.212 0 .212-.212.423-.212.212 0 .212-.212.424-.212h.212.211.212.424.423.212.211s0 0 .212.212v.212s0 .2121.212.2121c-.212 0-.635 0-.847 0 .212-.2121 0 0-.212.212zm25.829 3.6047c0-.212.212-.212.424-.424.212-.2121.212-.2121.423-.4241l.212-.2121s0 0 .212-.212l.211-.2121s0-.212.212-.212l.847-.8482c.212-.212.423-.6361.635-.8481.212-.2121.424-.6362.847-.8482.212-.212.635-.4241.847-.6361.212-.2121.635-.4241.847-.6362.211 0 .211-.212.423-.212h.212c.212 0 .212-.212.212-.212h.211c.212 0 .212-.2121.424-.2121h.423.212v.4241.212.2121.212.2121.212c0 .2121 0 .2121-.212.2121v.212c0 .212-.212.212-.212.4241 0 .212-.211.212-.211.212-.212.2121-.212.4241-.635.6361-.212.2121-.424.4241-.636.6362-.211.212-.423.4241-.635.6361-.423.4241-.847.6361-1.27.8482-.423.212-.847.424-1.27.6361-.424.212-.847.4241-1.271.4241-.423.212-.635.212-1.058.212zm71.772 11.238c-.424-.212-.635-.636-1.059-.848-.423-.212-1.905-1.484-4.446-2.1203-1.482-.4241-2.752-.4241-4.234-.6362-1.694-.212-3.388-.212-5.081-.424-1.906 0-3.599-.2121-5.505-.2121-1.482 0-2.964 0-4.446.2121-1.27 0-2.54.212-3.811.212-.211 0-.635 0-.847 0 0-.212.212-.212.212-.4241 0-.212.212-.4241.212-.4241 0-.212.212-.4241.212-.4241 0-.212.211-.424.211-.424 0-.2121.212-.4241.212-.4241 0-.2121.212-.2121.212-.4241s.211-.4241.211-.4241c0-.212.212-.212.212-.4241 0-.212.212-.424.212-.424.212-.6362.423-1.2723.635-1.9084.212-.6362.423-1.0602.635-1.6964l.424-1.4843c.211-1.0602.423-1.6963.635-2.5445 0-.212 0-.424.211-.424 0-.2121 0-.2121.212-.4241 0-.2121 0-.2121.212-.4241v-.2121c0-.212 0-.212 0-.424v-.2121-.212l-.424-.8482c-.211-.212-.211-.4241-.635-.6361-.211-.2121-.635-.2121-.847 0-.211.212-.423.212-.635.6361v.2121c0 .212-.211.212-.211.424v.2121c0 .212 0 .212-.212.4241l-.212.424c0 .2121 0 .2121-.212.4241 0 .2121 0 .2121-.211.4241 0 0 0 .2121-.212.4241v.212c-.212.2121-.423.4241-.423.8482s-.424.6361-.424.8482c-.212.212-.423.6361-.635.8481-.212.2121-.423.6362-.635 1.0603-.212.424-.424.6361-.635 1.0602-.212.424-.424.6361-.635 1.0602-.212.4241-.424.6361-.847 1.0602-.212.4241-.635.6361-.847 1.0602 0 0 0 .212-.212.212l-.212.2121-.846.8481-.212.2121s-.212 0-.212.212c0 0-.212 0-.212.2121 0 0 0 0-.211 0 0 0 0 0-.212 0 0-.2121 0-.2121 0-.4241 0-.2121 0-.4241 0-.6361 0-.2121 0-.4241.212-.6362.211-.4241.211-.8481.423-1.2722s.212-.8482.424-1.0602c.211-.4241.211-.8482.423-1.0602.212-.4241.423-.6362.423-1.0602.212-.4241.212-.6362.424-1.0603.212-.212.212-.6361.423-.8481.212-.2121.212-.6361.424-.8482.211-.212.211-.4241.423-.6361.212-.2121.212-.4241.212-.6361.212-.2121.212-.4241.212-.4241 0-.2121.211-.2121.211-.4241v-.2121c.212-.212.212-.6361 0-1.0602 0-.424-.211-.6361-.635-.8481-.423-.2121-.635-.2121-1.058-.2121-.424 0-.636.2121-.847.6362 0 0 0 0-.212.212l-.212.212s0 .2121-.211.2121v-.2121c-.212.2121-.212.4241-.424.6362-.212.212-.212.424-.423.6361-.212.212-.212.6361-.424.8482-.211.212-.211.6361-.423 1.0602-.212.424-.212.6361-.424 1.0602-.211.4241-.211.8481-.423 1.2722-.212.8482-.423 1.6964-.635 2.7566v.4241l-.212.212c-.212.212-.212.212-.423.4241-.212.212-.212.4241-.424.6361l-.635.8482c-.212.212-.423.6361-.847.8481-.211.2121-.423.4241-.423.4241-.212.2121-.212.4241-.424.4241-.211.2121-.423.4241-.423.4241-.212.212-.423.212-.635.4241-.212.212-.424.212-.424.4241 0 0 0 0-.211 0 0-.2121 0-.2121 0-.2121 0-.212 0-.4241.211-.4241 0-.212 0-.212 0-.4241l.212-.8481c.212-.2121.212-.6361.424-.8482.211-.212.211-.6361.423-.8481.212-.6362.423-1.2723.635-1.9084l.635-1.9084v-.212s0 0 0-.2121c0-.212.212-.212.212-.4241 0 0 0 0 0-.212 0-.2121 0-.2121.212-.4241v-.212c0-.2121 0-.4241.211-.6362.212-.424.212-.8481.212-1.0602 0-.4241 0-.8481.212-1.0602 0-.212 0-.4241 0-.6361 0-.2121 0-.4241 0-.6361v-.2121c0-.212 0-.212 0-.4241v-.424c0-.2121 0-.2121-.212-.4241 0 0 0-.2121-.212-.2121 0-.212-.211-.212-.211-.212-.212-.2121-.424-.4241-.635-.4241h-.212s-.212 0-.424 0c-.211 0-.423 0-.635.212-.211 0-.423.2121-.423.2121-.212 0-.212.212-.424.212 0 0 0 0-.211.2121-.212.212-.424.212-.424.4241-.211.212-.211.212-.423.424-.212.2121-.212.2121-.424.4241l-.423.4241c-.212.212-.423.4241-.635.8482-.212.212-.424.4241-.635.8481-.847 1.0602-1.694 2.1205-2.541 2.9686l-1.059 1.0602c0-.424.212-.6361.212-1.0602 0-.212 0-.212.212-.4241v-.212c0-.212 0-.212 0-.4241 0 0 0-.212 0-.4241 0-.212 0-.212 0-.4241 0-.212 0-.212 0-.424 0-.2121 0-.2121 0-.4241 0-.2121 0-.2121 0-.4241 0-.6361 0-1.2722 0-1.6963 0-.2121-.212-.6362-.212-1.0602 0-.2121-.212-.4241-.212-.6362 0 0 0 0 0-.212 0 0 0-.2121-.211-.2121-.212-.212-.212-.212-.212-.212l-.212-.212s0 0-.211 0c-.212 0-.424 0-.424 0-.212 0-.423 0-.635 0s-.423 0-.635.212c-.212 0-.424.212-.424.212-.211 0-.211.2121-.423.2121l-.423 1.0602-.212.212-.635.6362c-.212.212-.424.424-.635.6361-.636.8482-1.271 1.6963-1.906 2.3324-.212.4241-.423.6362-.847 1.0603v-.2121c.424-1.2722 1.059-2.7565 1.482-4.0288.212-.4241.212-.8481 0-1.0602-.211-.4241-.423-.6361-.847-.8482-.423-.212-.846-.212-1.058 0-.424.2121-.635.4241-.847.8482-.635 1.4843-1.059 2.9686-1.694 4.4529s-1.058 2.9686-1.482 4.2408c0 .2121-.211.6362-.211.8482l-.424.6361c0 .2121-.212.2121-.212.4241-.423.4241-1.058 1.0602-1.693 1.6963l-.212.2121-.212.212c-.211 0-.211.2121-.423.2121l-.424.212c-.211.2121-.423.2121-.635.4241-.211.212-.423.212-.635.4241-.212 0-.212.212-.423.212-.212 0-.212.2121-.424.2121l-.847.212c-.211 0-.211 0-.423 0s-.212 0-.423 0c-.212 0-.212 0-.424 0s-.212 0-.423 0c-.212 0-.424 0-.424 0h-.423-.212-.212c-.211 0-.211 0-.423-.212-.212-.2121-.423-.2121-.635-.4241-.212-.2121-.424-.4241-.424-.6362-.211-.424-.423-.8481-.423-1.4842 0-.2121 0-.6362 0-.8482l.212-.4241s0-.212.211-.4241v-.212-.2121s0 0 0-.212h.424c.212 0 .635 0 1.058-.212.424 0 .847-.2121 1.271-.4241.423-.2121.847-.2121 1.27-.4241 1.059-.4241 1.905-1.0602 2.964-1.6963.212-.2121.423-.4241.847-.6362.212-.212.423-.4241.635-.6361s.212-.212.423-.4241c.212-.212.212-.212.424-.4241.212-.212.212-.4241.423-.4241 0-.212.212-.424.212-.6361.212-.212.212-.6361.423-1.0602 0-.212 0-.212.212-.4241 0 0 0-.212 0-.4241v-.212-.212-.2121c0-.212 0-.212 0-.4241 0-.212 0-.424 0-.424v-.2121c0-.212 0-.212 0-.212s0-.2121-.212-.2121c0-.212 0-.212-.211-.212-.212-.2121-.212-.2121-.424-.4241-.211 0-.211-.212-.423-.212s-.212 0-.424 0h-.423c-.212 0-.212 0-.423 0l-1.059.212c-.212 0-.423.212-.635.212s-.424.2121-.635.2121c-.424.212-.635.4241-1.059.6361-.423.2121-.635.4241-1.058.6361-.636.4241-1.271 1.0603-1.906 1.6964-.212.212-.212.212-.423.4241-.212.212-.212.212-.424.424 0 0 0 .2121-.211.2121l-.212.212-.212.2121-.212.212s0 .212-.211.212l-.212.2121-.212.212-.211.2121-.636.8481-.211 1.0603-.212.212-.212.212-.211.2121-.212.6361c0 .212 0 .212-.212.4241 0 0 0 .212-.212.212 0 .2121 0 .2121-.211.4241v.2121.212l-.212.212c-.212.2121-.212.4241-.423.6362-.212.212-.424.4241-.636.6361-.423.4241-.846 1.0602-1.482 1.4843l-.423.4241c-.212.212-.423.212-.635.424l-.212.2121s-.212 0-.212.212l-.211.2121s-.212 0-.212.212c0 0 0 0-.212 0-.211 0-.211 0-.211 0-.212 0-.212 0-.212 0s0 0-.212 0v-.212-.2121-.212c0-.212 0-.212 0-.4241 0-.212 0-.212 0-.4241 0-.212 0-.4241.212-.6361 0-.212.212-.4241.212-.6361.211-.4241.423-1.0602.423-1.4843.212-.4241.423-1.0602.635-1.4843 0-.2121 0-.2121.212-.4241l.212-.4241c0-.212.211-.212.211-.4241l.212-.424c.212-.2121.212-.4241.423-.8482.212-.2121.212-.4241.424-.8482.212-.212.212-.4241.423-.6361.212-.212.212-.4241.424-.6361 0-.2121.211-.2121.211-.4241l.212-.2121v-.212c0-.212.212-.212.212-.4241 0 0 0-.212.212-.4241.211-.212.211-.4241.423-.6361s.212-.4241.423-.6361c.212-.4241.424-.8482.636-1.2723.211-.212.211-.4241.423-.6361 0-.212.212-.4241.212-.6361.211-.2121.211-.4241.211-.6361 0-.2121.212-.4241.212-.6362v-.212l.212-.2121s0-.212.212-.212c0 0 0-.212.211-.212.212-.2121.212-.4241.212-.6362 0-.212.212-.4241.212-.4241 0-.212.211-.212.211-.424l.212-.4241c0-.2121.212-.2121.212-.4241s.212-.212.212-.4241c0-.212.211-.212.211-.4241 0 0 0-.212.212-.212l.212-.2121s0 0 0-.212v-.212s0 0 0-.2121c.211-.4241.211-.6361 0-1.0602 0-.4241-.424-.6361-.635-.8482-.424-.212-.636-.212-1.059-.212s-.635.212-.847.6361c0 0 0 0-.212.2121v.212s0 .212-.211.212l-1.059.8482s0 .2121-.212.2121l-.211.424c-.212.2121-.212.4241-.424.6362l-1.27 2.3324v.2121l-.212.212c-.211.2121-.211.4241-.211.6361 0 .2121-.212.4241-.212.6362 0 0 0 .212-.212.212 0 .212-.212.212-.212.4241 0 0 0 .212-.211.212 0 .2121-.212.2121-.212.4241 0 0 0 .2121-.212.2121 0 .212-.211.212-.211.424v.2121c-.212 0-.636-.2121-.847-.2121-.212 0-.424 0-.635 0-.212 0-.212 0-.424 0-.635 0-1.482.4241-2.117.6362-.423.212-.847.4241-1.059.6361-.423.212-.635.6361-1.058.8482-.212.212-.424.212-.635.424-.212.2121-.424.4241-.635.4241-.212.2121-.424.4241-.636.6362l-.635.6361c-.211.212-.423.4241-.423.6361-.212.2121-.424.4241-.424.6361 0 .2121-.211.2121-.211.4241 0 .2121-.212.2121-.212.4241s-.212.212-.212.4241c0 .212-.211.212-.211.4241-.212.4241-.636 1.0602-.847 1.4843-.212.424-.424.8481-.635 1.2722l-.212.2121c-.212.212-.424.424-.635.8481-.212.2121-.212.4241-.424.4241-.211 0-.211.4241-.423.4241-.212.4241-.635.8482-1.059 1.0602-.211.212-.423.4241-.635.6361-.212.2121-.423.4241-.635.6361 0 0-.212.0001-.212.2121 0 0-.211 0-.211.212 0 0 0 0-.212 0h-.212-.212v-.212c0-.212 0-.4241 0-.8482 0-.212 0-.212 0-.4241 0-.212 0-.212 0-.424 0-.2121 0-.4241 0-.6362 0-.212 0-.212 0-.424 0-.2121 0-.4241.212-.4241 0-.2121 0-.2121 0-.4241 0-.2121 0-.4241.212-.4241 0-.212 0-.212 0-.4241 0-.212 0-.4241.212-.4241 0-.212 0-.212 0-.4241 0-.212.211-.424.211-.6361 0-.212.212-.4241.212-.8481.212-.4241.212-.8482.423-1.2723 0-.4241.212-.6361.212-.8482 0-.212 0-.212.212-.4241 0 0 0 .0001 0-.212 0 0 0 0 0-.212 0 0 0 0 0-.2121 0-.4241 0-.6361 0-1.0602 0-.212-.212-.212-.212-.4241h1.059c.423-.212.635-.424.847-.8481.211-.4241.211-.8482 0-1.0602 0 0 0 0 0-.2121 0 0 0 0 0-.212l-.212-.4241s0-.2121-.212-.2121c0 0 0-.212-.212-.212-.211-.212-.211-.212-.423-.4241-.212 0-.212-.212-.423-.4241-.212-.212-.212-.212-.424-.212l-.423-.212s0 0-.212 0c0 0 0 0-.212 0-.423 0-.635-.2121-1.058-.2121-.212 0-.212 0-.424 0h-.211s-.001 0-.212 0h-.212s0 0-.212 0l-.635.2121c-.423.212-1.058.424-1.482.6361-.212.212-.423.4241-.635.4241-.212.212-.423.212-.635.424 0 0-.212 0-.212.2121v.212s-.212 0-.212.2121l-.211.212-.635.6361c-.424.4241-.847.8482-1.059 1.4843-.423.4241-.635 1.0602-1.059 1.4843-.635 1.0602-1.27 2.1204-1.693 3.1807-.212.424-.212.6361-.424.8481 0 .2121-.211.4241-.211.4241s0 .212-.212.212l-.212.2121-.212.212c-.211.2121-.211.2121-.423.4241 0 .2121-.212.2121-.212.2121-.211.212-.423.424-.847.6361-.211.212-.635.4241-.846.8482-.424.212-.636.424-1.059.6361-.423.212-.635.4241-1.27.6361-.424.212-.847.4241-1.271.4241l-.635.212c-.635.2121-1.27 0-1.905-.212-.212 0-.424-.2121-.635-.2121-.212 0-.424-.212-.635-.424-.424-.2121-.636-.6362-.847-.8482-.212-.4241-.212-.6361-.424-1.0602 0-.4241 0-.8482.212-1.2723v-.212-.2121s0-.212.212-.212c0 0 0-.212.211-.4241 0-.212.212-.4241.212-.4241s0-.212.212-.212c0 0 0-.212.212-.212 0 0 0 0 0-.2121l.211-.212s0-.2121.212-.2121c0 0 0-.212.212-.212 0 0 .211-.2121.211-.4241.212-.4241.636-.8482.847-1.0602.424-.4241.635-.6361 1.059-1.0602.635-.6361 1.27-1.2723 1.905-1.6964.635-.424 1.271-.8481 1.694-1.0602.212 0 .423-.212.423-.212 0 .4241.212.6361.424.8482.212.212.635.424 1.058.424h.212c.424 0 .847-.212 1.059-.424.211-.2121.423-.6362.423-1.0602v-.2121-.212s0 0 0-.2121v-.212s0 0 0-.2121v-.212l-.212-.212s0 0-.211-.2121c0-.212-.212-.212-.212-.212l-.212-.2121s0 0-.211 0c0 0-.212 0-.212-.212 0 0-.212 0-.424-.212-.211 0-.423 0-.423 0h-.847c-.212 0-.212 0-.423 0-.212 0-.424-.0001-.635.212-.212 0-.424.212-.636.212-.211 0-.423.2121-.635.2121-.211 0-.423.212-.635.4241-.212.212-.423.212-.635.424-.212.2121-.423.2121-.635.4241-.847.4241-1.482 1.0602-2.329 1.9084-.423.4241-.847.8482-1.059 1.0602-.423.4241-.635.8482-1.058 1.2723l-.424.6361s0 0-.211.212v.2121l-.212.212s0 .2121-.212.2121v.212l-.211.4241v.212.2121c-.212.212-.212.6361-.424.8481-.212.4241-.212.6362-.212.8482-.211.4241-.211.8482-.211 1.0602v2.1204c.211.8482.423 1.4843.847 1.9084.423.6361 1.058 1.0602 1.693 1.4843.635.212 1.271.6361 1.906.6361h.423.424.423.423.847c.212 0 .635 0 .847-.212.424-.2121 1.059-.2121 1.482-.4241.424-.212.847-.4241 1.27-.6361.424-.2121.847-.4241 1.059-.8482.212-.212.635-.4241.847-.6361v.8481.2121.212.4241c0 .2121.212.4241.212.6361.211.2121.211.4241.423.6362l.212.2123h.211s.212 0 .212.212h.212c.212 0 .423.212.635.212h.212.211.212c.424 0 .635-.212 1.059-.424h.211l.636-.2123h.211l.424-.2121c.211 0 .211-.212.423-.212.212-.2121.212-.2121.424-.2121 0 0 .211 0 .211-.212 0 0 0 0 .212-.212l.423-.4241c.212-.2121.424-.4241.636-.6362.211-.212.423-.424.635-.6361.211-.212.423-.4241.423-.6361l.424-.6361.211-.2121.212-.212s0-.212.212-.212v.212.6361 1.4843.6361c0 .4241 0 .8482.211 1.0602 0 .2121.212.4241.212.6362v.2123s0 .212.212.212v.212s0 .212.212.212c.211.212.211.212.423.424h.212.212.211.212.212.423s.212 0 .212-.212h.212c.211 0 .423-.212.635-.424l.211-.212s.212 0 .212-.212h.212s0 0 .212-.2123c.211-.2121.423-.4241.635-.6362.211-.212.423-.424.635-.6361 0 0 0 0 .212-.212v.212.6361.4241s0 .2121.211.4244c0 0 0 .212.212.212 0 .212.212.212.212.212l.211.212h.212s.212.212.424.212h.211.212.212.211c.212 0 .636 0 1.059-.212.212 0 .423 0 .423-.212.212 0 .424-.212.424-.212l.423-.212c.212 0 .424-.2123.424-.2123.423-.2121 1.058-.6362 1.482-1.0602.847-.8482 1.693-1.4843 2.329-2.3325.211-.212.211-.212.423-.4241v.2121.424.4241.4241.4241.4241c0 .212 0 .4241.212.6361v.212s0 .2121.211.2121c.212.212.212.4241.424.6364.212.212.423.424.635.424.423.212 1.059.212 1.27 0 .212 0 .424 0 .424-.212h.211.212.212s.212 0 .212-.212c0 0 .211 0 .211-.2123.212 0 .212-.2121.424-.2121.211 0 .211-.212.423-.212l.212-.2121c.212-.212.423-.212.635-.424.212-.2121.423-.2121.423-.4241.212-.2121.636-.6361.847-.8482.212-.212.424-.6361.847-.8482v.2121c0 .212.212.4241.212.6361.212.4241.423.8482.847 1.2723.423.424.635.6361 1.058.8481.424.2121.847.4244 1.271.6364.211 0 .211 0 .423.212l.847.212h.635.635.212.423.212.212.211c.424 0 .636 0 1.059-.212.212-.212.635-.212.847-.424.212-.2123.635-.2123.847-.4244.635-.212 1.058-.6361 1.693-1.0602l.212-.212c.212 0 .212-.2121.424-.2121.211 0 .211-.212.211-.212l.212-.2121c-.212.4241-.212.8482-.423 1.0603-.212.424-.212.6361 0 1.0602.211.4243.423.6363.846.8483.847.424 1.694 0 1.906-.636.212-.2123.212-.8485.423-1.2725.212-.6362.424-1.2723.635-1.9084l.636-1.2723c.211-.4241.635-.8481.846-1.4843.212-.424.424-.6361.636-1.0602l.635-1.0602c.211-.4241.423-.8481.847-1.0602.423-.212.635-.8482.846-1.0602l.847-1.2723c.212-.424.635-.8481.847-1.0602l.212-.212.212-.212.211-.2121.212-.212.212-.2121.211-.212c.212 0 .212-.2121.424-.2121l.212-.212c.211 0 .211 0 .211-.212h.212v.212.212.4241c0 .4241 0 .8482-.212 1.2723 0 .212 0 .4241-.211.6361 0 .2121-.212.4241-.212.6361l-.424 1.2723c0 .212-.211.4241-.211.6361 0 .2121-.212.4241-.212.6361l-.847 2.3325c-.212.6361-.635 1.4843-.847 1.9084l-.635 1.4843c0 .212-.212.4241-.212.6361s0 .212-.211.4241v.212.2121c-.212.424 0 .6361 0 1.0602.211.4243.423.6363.847.8483.423.212.635.212 1.058 0 .424 0 .635-.212.847-.636 0 0 0-.2123.212-.2123 0 0 0-.2121.211-.2121 0-.212.212-.212.212-.4241 0-.212.212-.212.212-.6361l.423-.8482c.212-.212.212-.6361.424-1.0602.211-.424.423-.6361.847-1.0602l.846-1.2722c.424-.4241.636-.8482 1.059-1.2723l1.059-1.4843c.423-.424.846-1.0602 1.27-1.4843.423-.424.847-1.0602 1.27-1.4843.212-.212.424-.424.635-.8481.212-.2121.424-.4241.636-.6361.211-.2121.211-.2121.423-.4241.212-.2121.212-.2121.423-.4241l.847-.6361c.212-.2121.212-.2121.424-.2121v.2121.212l-.212.4241c0 .212 0 .4241-.212.4241 0 .212 0 .212-.211.4241 0 .212-.212.424-.212.424v.2121.212l-.424 1.0602s-.211.2121-.211.4241c0 .2121-.212.4241-.212.4241v.212c0 .2121 0 .2121-.212.2121-.211.6361-.423 1.2722-.847 2.1204-.211.6361-.423 1.2723-.635 2.1204-.212.6361-.211 1.2723-.423 2.1204v.4241.4241.6361.4241.6361.2121.4241c0 .2123.212.2123.212.4243.211.212.211.212.423.424s.212.212.423.212h.636.211c.212 0 .212 0 .424-.212h.211.212l.424-.212.211-.212h.212s.212 0 .212-.212c.211-.2123.423-.4244.635-.6364.212-.2121.423-.4241.635-.6361l.423-.4241c.212-.2121.424-.4241.424-.4241.423-.4241.635-.6361.847-1.0602.211-.2121.211-.2121.211-.4241v.212.2121.212.2121.212c0 .2121 0 .2121.212.4241 0 0 0 .212.212.212v.2121l.212.212s.211.2121.423.2121h.212.635.212.211s.212 0 .212-.2121c0 0 .212 0 .212-.212.423-.2121.847-.6361 1.27-1.0602l.212-.2121.211-.212.212-.2121s.212-.212.212-.424c.635-.6362 1.27-1.4843 1.694-2.1205.211-.212.423-.6361.635-.8481-.212.8481-.635 1.9083-1.059 2.7565-.212.4241-.423.8482-.635 1.4843h.635c-.212.6361-.423 1.0602-.847 2.1204h-.211c-2.118.4244-4.235.8484-6.352 1.2724-1.27.212-6.775 2.12-9.315 3.393-2.753 1.272-5.928 3.392-7.41 4.452-1.271 1.273-2.541 2.545-2.753 4.453-.211 1.061-.211 1.909.212 2.969.423.848 1.482 2.332 5.081 3.605 3.599 1.06 7.41.424 9.527-.212 2.118-.637 5.082-2.333 5.928-3.393.847-.848 2.118-2.121 2.753-2.969 1.482-2.332 2.54-4.665 3.387-7.209.424-1.484.847-2.757 1.27-4.241.847-.212 1.694-.212 2.329-.424 1.059-.212 2.329-.212 3.388-.424h2.117c1.482 0 2.752-.212 4.234-.212 1.694 0 3.388 0 5.081.212 1.694 0 3.388.212 5.293.212.635 0 1.27 0 1.906.212.846.212 1.693.424 2.54.636 1.27.212 2.329.424 3.388 1.272.211.212.423 0 .635 0 0 0 .211-.424 0-.424z"/></g></svg>