<svg fill="none" height="155" viewBox="0 0 294 155" width="294" xmlns="http://www.w3.org/2000/svg" xmlns:xlink="http://www.w3.org/1999/xlink"><mask id="a" height="156" maskUnits="userSpaceOnUse" width="294" x="0" y="-1"><path d="m294-.000244h154.563v293.997h-154.563z" fill="#fff" transform="matrix(0 1 -1 0 293.999756 -294.000244)"/></mask><mask id="b" height="156" maskUnits="userSpaceOnUse" width="294" x="0" y="-1"><path d="m294-.000244h154.563v293.997h-154.563z" fill="#fff" transform="matrix(0 1 -1 0 293.999756 -294.000244)"/></mask><g fill="#fff"><g mask="url(#a)"><path d="m6.39928 47.4153v11.8444c5.06202-9.155 14.25752-12.9221 23.45072-13.058 17.588 0 29.7118 10.9041 29.7118 29.3454v38.3619h-6.528v-38.2282c0-15.076-9.194-23.1525-23.4507-23.0181-13.5906.136-23.05074 10.5001-23.05074 24.2295v37.0168h-6.52877418v-66.4937z"/><path clip-rule="evenodd" d="m119.377 46.3362c-18.521.1511-33.3282 14.6743-33.1683 34.5952.169 21.1316 15.1963 34.0676 33.7173 33.9166 10.525-.087 21.95-4.487 28.277-13.02l-4.694-3.7309c-4.876 6.6359-14.975 10.2179-23.635 10.2889-13.591.112-25.5209-8.8101-26.9795-24.4133l59.2915-.4841c2.323-25.9983-14.29-37.3034-32.809-37.1524zm.049 6.0563c15.854-.1292 26.586 8.9367 26.852 25.3555l-53.4298.4373c1.3359-16.2988 12.9868-25.6811 26.5778-25.7928z" fill-rule="evenodd"/></g><path d="m249.206 3.23364h7.86v.26811l-53.451 75.94895 25.449 34.1883v.27h-7.728l-21.585-29.7472-48.792 67.1672h-7.727v-.271l52.656-71.6073-23.586-31.7668v-.2681h7.862l19.587 27.1885z"/><g mask="url(#b)"><path clip-rule="evenodd" d="m143.231 154.563h7.727c1.019 0 1.979-.492 2.582-1.322l46.207-63.6097 19.007 26.1897c.604.83 1.561 1.322 2.582 1.322h7.729c1.768 0 3.201-1.448 3.201-3.235v-.268c0-.701-.225-1.383-.642-1.944l-24.043-32.2989 52.093-74.02157c.387-.54679.594-1.20233.594-1.87374v-.26811c0-1.78613-1.433-3.23392414-3.202-3.23392414h-7.86c-1.045 0-2.023.51431614-2.621 1.37981414l-46.887 67.65863-16.947-23.5248c-.602-.8368-1.563-1.3308-2.587-1.3308h-7.862c-1.769 0-3.202 1.4471-3.202 3.2332v.2674c0 .6993.225 1.3805.64 1.9402l22.152 29.8364-51.231 69.6712c-.41.557-.631 1.233-.631 1.928v.269c0 1.786 1.432 3.235 3.201 3.235zm96.228-131.6244 11.413-16.47099h.179zm-39.709 57.9901c.392 0 .776.074 1.134.2122-.663-1.0966-.627-2.4976.118-3.5602-.381.1647-.797.2553-1.224.2598l-.044-.0046c-.476-.0498-.849-.0888-1.235-.2529.744 1.0581.783 2.4591.118 3.5556.357-.1359.739-.2099 1.133-.2099z" fill-rule="evenodd"/><path d="m269.483 27.3577v20.0576h22.385v5.5192h-22.385v40.5147c0 9.0188 1.865 15.3458 12.125 15.3458 3.199 0 6.795-1.077 10.127-2.694l2.265 5.384c-4.131 2.02-8.26 3.367-12.392 3.367-13.989 0-18.521-8.347-18.521-21.4028v-40.5147h-13.99v-5.5192h13.99v-19.3832z"/></g></g></svg>