<svg fill="none" height="234" viewBox="0 0 290 234" width="290" xmlns="http://www.w3.org/2000/svg" xmlns:xlink="http://www.w3.org/1999/xlink"><clipPath id="a"><path d="m0 0h289.309v234h-289.309z"/></clipPath><g clip-path="url(#a)" fill="#fff"><path d="m149.281 20.1513c-1.234 3.0843-8.225 13.7768-16.655 20.9736-7.814 6.58-15.011 5.9631-17.067 4.1125s-2.262-3.29-.822-7.1968c2.056-5.5519 9.664-12.7487 14.393-16.45 4.729-3.7012 13.777-7.608 17.478-6.9912 3.907.4113 3.907 2.6731 2.673 5.5519zm-67.855 26.5255c-3.4955.4112-9.2529-3.4956-18.0946-12.9543-8.4305-8.8419-9.4586-16.2443-9.0474-17.6837.4113-1.4394 3.0843-1.8506 6.7855-1.2337 3.7012.4112 12.5429 6.5799 14.3935 8.2249s12.5429 10.8981 13.1598 17.0668c.6168 5.9631-3.9068 6.3743-7.1968 6.58zm75.669-44.82605c-4.935-2.056237-9.459-3.4956-19.946 1.43937-10.486 4.93497-24.057 22.82428-26.525 25.29178-2.673 2.4674-5.14 5.5518-9.047 5.5518-3.9069 0-9.8699-5.9631-12.1317-8.4306-2.2619-2.4675-18.0947-20.56237-25.0858-23.23548-6.1687-2.46748336-12.5429-2.46748361-17.6835.41125-5.1405 2.87874-9.2529 8.63623-9.0473 10.07553.2056 1.4394 2.6731 4.3181 3.4956 5.9631.8224 1.645 2.2618 5.5519 3.4955 6.9912 1.2337 1.4394 3.4956 2.2619 5.3462 4.3181 2.0562 2.0563 2.2618 5.9631 4.1124 8.0194 1.8506 2.0562 5.1405 4.3181 5.963 5.5518 1.2337 1.645 2.8787 8.6362 5.1405 11.7206 2.2619 3.0843 7.608 5.7575 9.4586 8.0193 1.8506 2.2619 3.4956 8.0194 5.1406 10.4868 2.4674 3.7013 6.5798 5.1406 8.8417 6.58 1.8506 1.0281 2.8787 4.935 2.0562 7.4025-.8225 2.4674-4.5237 8.8418-5.1406 15.2158-.6168 8.02 2.2619 19.123 4.5237 28.993s5.3462 26.115 5.7574 36.19c.4112 9.87.4113 25.703.4113 28.171 0 2.467-.2057 4.112-.2057 4.112s-12.3372 6.58-13.9822 7.403c-1.645.822-2.0562.822-2.2618 1.645-.2057.822-.8225 15.421-1.0282 17.478-.2056 2.056-.2056 3.701.6169 4.523.8225.823 11.3092 3.085 22.0012 2.879 10.693-.411 22.002-2.056 22.619-3.496.616-1.233-.206-17.272-.412-18.711-.205-1.44 0-2.057-.411-2.673-.411-.617-11.72-5.964-13.571-6.992-1.85-1.233-5.14-2.673-5.14-2.673s.822-22.413 1.645-31.872c.822-9.253 3.495-24.058 6.374-35.161 2.879-11.104 5.14-23.441 4.935-28.993-.412-5.552-6.58-14.5995-5.963-17.8894.617-3.29 1.85-5.1407 5.963-6.7856 4.112-1.645 5.14-4.5238 7.196-9.2531 2.057-4.7294 3.085-6.1687 4.319-7.1969 1.233-1.0281 8.019-4.9349 10.075-8.0193 1.851-3.0843 2.673-8.2249 4.318-10.2812 1.645-2.0562 5.963-6.7856 7.402-8.2249 1.234-1.4394 1.851-4.3181 3.085-5.9631 1.233-1.645 4.729-3.7013 6.374-5.9631 1.234-1.645 2.262-5.1406 2.879-6.58.617-1.2337 3.084-3.7012 3.084-5.1406.617-2.0562-4.112-8.84181-9.047-10.89805z" fill-opacity=".4"/><path d="m.205627 180.743v1.645h3.084323v8.225h1.85059v-8.225h3.08432v-1.645z"/><path d="m17.0666 190.613v-4.112h-4.7293v4.112h-1.8506v-9.87h1.8506v4.113h4.7293v-4.113h1.8506v9.87z"/><path d="m29.1982 190.613h-7.4024v-9.87h7.4024v1.851h-5.5518v2.262h5.3462v1.645h-5.3462v2.262h5.5518z"/><path d="m39.8905 182.8-1.8506 4.112h3.7012zm2.6731 5.963h-5.1405l-.8225 1.85h-2.0562l4.5236-9.87h2.0563l4.5236 9.87h-2.0562z"/><path d="m56.5459 190.613h-1.645l-1.2337-3.084-1.0281-3.084-1.0281 3.084-1.2338 3.084h-1.6449l-3.4956-9.87h2.0562l2.2618 6.992 2.4675-6.992h1.2337l2.4675 6.992 2.2618-6.992h2.0562z"/><path d="m66.6213 182.8-1.8506 4.112h3.7012zm2.6731 5.963h-5.1406l-.8224 1.85h-2.0563l4.5237-9.87h2.0562l4.5237 9.87h-2.0562z"/><path d="m75.8742 182.389v3.084h2.8787c1.2338 0 1.645-.822 1.645-1.645 0-.822-.6169-1.644-1.645-1.644h-2.8787zm6.7855 8.225h-2.2618l-2.8787-3.29h-1.8506v3.29h-1.6449v-9.87h4.7292c2.2619 0 3.4956 1.645 3.4956 3.29 0 1.439-.6169 2.673-2.4675 3.084z"/><path d="m86.3609 188.763h2.0562c2.2618 0 3.0843-1.645 3.0843-3.29 0-1.44-1.0281-3.085-3.0843-3.085h-2.0562zm6.7855-3.29c0 2.467-1.4393 4.935-4.9349 4.935h-3.9068v-9.87h3.9068c3.4956.205 4.9349 2.467 4.9349 4.935z"/><path d="m289.103 169.434h-289.103v1.645h289.103z"/><path d="m126.868 144.759c.823-1.028 1.645-2.056 2.468-3.084.205-.411.411-.617.617-1.028.205-.411.411-.617.617-1.028 0-.206.205-.206.205-.412 0-.205 0-.205.206-.411v-.205-.206-.206-.205l.822-2.262c.206-.411.206-.617.411-1.028.206-.412.206-.823.412-1.028 0-.206.205-.412.205-.617 0-.206.206-.412.206-.617 0-.206.206-.411.206-.617h-.206-.411-.206c-.206 0-.206 0-.411 0-.617 0-1.234.411-2.056.822-.823.412-1.645 1.029-2.468 1.645-.205.206-.411.412-.617.617-.205.206-.411.412-.617.617-.205 0-.205.206-.411.206 0 .205-.205.205-.411.411s-.206.206-.411.411c-.206.206-.206.206-.411.412-.206.205-.412.411-.617.822-.206.206-.412.617-.617.823 0 .205-.206.205-.206.411-.205.205-.205.205-.411.411-.206.411-.411.617-.617.823-.411.616-.822 1.233-1.234 1.85-.411.617-.822 1.234-1.233 2.056-.206.206-.412.617-.617 1.028-.206.206-.206.412-.412.412 0 .205-.205.411-.205.617l-.206.205v.206s0 .205-.205.205v.206c-.206.411-.206.617-.412 1.028 0 .411-.205.617 0 1.028v.206s0 .206.206.411l.206.206h.205.206.822.412c.411 0 .822-.206 1.028-.411.205 0 .411-.206.411-.206l.206-.206s.205 0 .205-.205c.411-.206.617-.412 1.028-.617.206-.206.617-.411.823-.617.617-.411 1.028-1.028 1.645-1.439.822-.412 1.233-1.029 1.85-1.44zm16.039-28.376c.411.206.617.411.617.823v1.028.205.206.206l-.206.205s0 .206-.206.411c0 .206-.205.206-.205.412 0 .205-.206.205-.206.411s-.205.411-.205.411-.412.411-.617.617c0 .206-.206.411-.206.617s-.206.411-.411.617c0 .205-.206.411-.206.617-.205.205-.205.411-.411.617 0 .205-.206.205-.206.411 0 .205-.205.205-.205.411s-.206.206-.206.411c0 .206-.206.206-.206.412-.205.205-.205.411-.411.822-.205.206-.205.617-.411.823-.206.205-.206.616-.411.822-.206.206-.206.617-.411.823-.206.616-.617 1.233-.823 1.85-.206.411-.411.617-.411 1.028-.206.412-.206.617-.411 1.028 0 .206-.206.412-.206.412 0 .205-.206.411-.206.411v.206s0 .205-.205.205c0 0 0 .206-.206.206 0 0 0 .205-.206.205-.205.412-.411.617-.411 1.029-.205.411-.411.616-.411 1.028-.206.411-.411.617-.411 1.028-.617.411-.617.822-.823 1.234 0 .205-.205.411-.205.411 0 .205-.206.411-.206.617 0 .205-.206.411-.206.411 0 .206-.205.411-.205.617-.412.617-.617 1.439-.823 2.056-.205.617-.411 1.439-.617 2.056-.205.411-.205.823-.205 1.028 0 .412-.206.617-.206 1.028v.617.617.411.412c0 .411.206.617.206.822h.205.206.411.823.205.206c.206 0 .411-.205.411-.205.206 0 .206-.206.411-.206.206 0 .206-.206.412-.206.205 0 .205-.205.411-.205s.206-.206.411-.206c.206-.206.411-.411.617-.617.206-.205.411-.411.617-.617.822-.822 1.645-1.439 2.262-2.262.411-.411.617-.616.822-1.028.206-.205.411-.617.617-.822.206-.206.411-.411.617-.617s.206-.411.411-.617l.206-.205s0-.206.205-.206c.206-.206.412-.206.617-.206.206.206.206.411.206.617v.206s0 0-.206.205c-.205.206-.205.412-.411.617-.206.206-.411.411-.617.617-.205.206-.411.617-.617.823-.205.411-.617.616-.822 1.028-.411.411-.617.617-1.028 1.028s-.823.822-1.234 1.234c-.206.205-.411.411-.617.616-.205.206-.411.412-.822.617-.206 0-.206.206-.412.206-.205 0-.205.206-.411.206-.205 0-.205.205-.411.205s-.411.206-.411.206-.206 0-.206.205c0 0 0 0-.206 0 0 0 0 0-.205 0h-.206-.205c-.206 0-.412.206-.617.206-.206 0-.412 0-.617 0-.206 0-.411 0-.617-.206-.206 0-.411-.205-.617-.411-1.234.823-1.234.617-1.439.411 0-.205-.206-.205-.206-.411 0 0 0-.205-.205-.411 0-.206 0-.411-.206-.617 0-.206 0-.411 0-.617v-.617c0-.205 0-.411 0-.617 0-.205 0-.411 0-.616 0-.206 0-.412 0-.617 0-.206 0-.412 0-.617 0-.206 0-.411 0-.617 0-.411.206-.617.206-1.028s.205-.617.205-1.028c-.411.411-.617 1.028-1.028 1.439s-.822 1.028-1.234 1.439c-1.028 1.029-2.056 2.262-3.29 3.29-.616.617-1.233 1.029-1.85 1.44 0 0-.206.205-.411.411v.206c-.206.205-.412.205-.617.205-.206 0-.412.206-.617.206-.411.206-1.028.206-1.44.206h-.205-.206-.205-.206c-.206 0-.411-.206-.411-.206l-.206-.206s0 0-.205-.205c-.206 0-.206-.206-.206-.412 0-.205-.206-.205-.206-.411 0-.205-.205-.205-.205-.411s0-.206 0-.411c0-.206 0-.412 0-.617 0-.206 0-.411 0-.617s0-.411.205-.617c0-.206 0-.411.206-.617 0 0 0-.205.206-.411 0 0 0-.206 0-.411v-.206-.206l.205-.205c0-.206.206-.411.206-.617s.205-.411.205-.617.206-.411.206-.617c0-.205.206-.411.206-.617.411-.822.616-1.439 1.028-2.261.411-.823.822-1.44 1.233-2.057 0-.205.206-.411.206-.411.206-.206.206-.411.206-.411.205-.206.205-.411.411-.411.206-.206.206-.206.411-.412.206-.411.411-.617.617-1.028.206-.205.411-.617.617-.822.206-.206.411-.617.822-.823.412-.205.412-.617.823-.822.206-.206.411-.412.822-.617.206-.206.617-.411.823-.617.617-.411 1.028-.823 1.439-1.234s1.028-.617 1.44-.822c1.028-.617 2.056-.823 2.878-1.028h.617.617c.411 0 .617 0 1.028.205h.411.206c0-.205.206-.205.206-.411s.205-.206.205-.411c0-.206.206-.206.206-.412 0-.205.205-.411.205-.411 0-.205.206-.205.206-.411s.206-.206.206-.411c0-.206.205-.206.205-.412 0-.205.206-.205.206-.411.206-.205.206-.617.411-.822.206-.206.206-.617.411-.823 0-.205.206-.205.206-.411s.206-.206.206-.411l.411-.617c.206-.206.206-.411.411-.617.206-.206.206-.411.411-.617.206-.411.412-.822.617-1.234.206-.411.411-.616.617-1.028 0-.205.206-.205.206-.411s.205-.206.205-.411c0-.206.206-.206.206-.411 0 0 0-.206.206-.206 0 0 .205-.206.205-.411v-.206c.206-.411.411-.617.823-.617.205-.205.617 0 1.028 0z"/><path d="m148.87 119.468c-1.028 3.906-3.085 8.841-4.318 10.898l-2.673.411c1.028-2.673 2.261-7.608 2.673-10.898z"/><path d="m173.956 130.16c.411-2.056.411-3.701.205-5.346 0-.823-.205-1.439-.411-2.056s-.617-1.028-.823-1.44c-.205-.205-.411-.411-.616-.411-.206-.206-.412-.206-.412-.411 0 0-.205 0-.205-.206 0 0-.206 0-.206-.205h-.205-.206s0 0-.206 0c-.205 0-.205 0-.411 0h-.206s0 0-.205 0h-.206-.205-.206-.206-.205-.206-.206c-.205 0-.411.205-.616.205-.206 0-.412.206-.617.206-.206 0-.412.205-.617.205-.206 0-.411.206-.823.412-.205 0-.205.205-.411.205s-.206.206-.411.206c-.206 0-.206.206-.411.206-.206 0-.206.205-.412.411-.205.205-.205.205-.411.411-.205.206-.205.206-.411.411l-.206.206s0 0-.205.206v.205c0 .206-.206.206-.206.411l-.206.206v.206.205c0 .206-.205.206-.205.412 0 .205-.206.205-.206.411h-.205s-.206.205-.206.411c-.206.411-.206.617-.411 1.028-.206.411-.206.617-.206 1.028 0 .412-.206.617-.206 1.028 0 .412-.205.823-.205 1.029 0 .411-.206.822-.206 1.233v1.234.617.617.617c0 .205 0 .411.206.616 0 .412.205.823.411 1.234 0 .206.206.411.206.411.205.206.205.412.205.412v.205l.206.206h.206c.411.206.616.411 1.028.411h.205.206.411c.206 0 .411-.205.411-.205l.412-.206c.205 0 .205-.206.411-.206.205 0 .205-.205.411-.205 0 0 .206-.206.411-.206 0 0 0-.206.206-.206 0 0 .206 0 .206-.205.205-.206.411-.411.616-.617.206-.206.412-.411.412-.617l.205-.206s0 0 0-.205c0 0 0-.206.206-.206v-.205s0 0 0-.206.206-.206.206-.206l.205-.205v-.206s.206-.206.206-.411c.205-.206.411-.411.617-.411h.617c.205.205.411.411.411.617 0 .205 0 .411-.206.616l-.205.206s-.206 0-.206.206v.205l-.206.206-.205.205c-.206.206-.206.412-.412.412-.205.205-.411.411-.411.617-.411.411-.822.822-1.439 1.233l-.206.206-.205.206s-.206 0-.206.205c-.411.206-.823.411-1.028.411-.206 0-.411.206-.617.206s-.411.206-.617.206h-.411-.206-.205-.206-.206c-.205 0-.411-.206-.616-.206-.206 0-.412-.206-.617-.411h-.206l-.206-.206h-.205s0-.205-.206-.205c0 0 0 0-.205-.206v-.206l-.206-.205c-.206-.206-.206-.412-.411-.617 0-.206-.206-.411-.206-.617-.206-.411-.411-.823-.411-1.234 0-.205-.206-.411-.206-.617 0-.205 0-.411 0-.616 0-.206 0-.412 0-.617v-.617c0-.411 0-.823 0-1.234s0-.822.206-1.234c.205-.822.411-1.645.617-2.262 0-.411.205-.616.205-1.028.206-.411.206-.617.412-1.028 0-.205 0-.205 0-.205-.412.411-.823.822-1.029 1.439-.205.411-.616.822-.822 1.234-.206.411-.617.822-.822 1.233-.206.206-.206.412-.412.617-.205.206-.205.412-.411.617-.206.206-.206.411-.411.617-.206.206-.206.411-.411.617-.206.411-.412 1.028-.617 1.439-.206.411-.412 1.028-.617 1.44-.206.616-.411 1.028-.617 1.645-.206.616-.411 1.028-.617 1.645-.206.616-.206 1.028-.411 1.645-.206.616-.206 1.233-.411 1.645 0 .616-.206 1.233-.206 1.645v1.645c.206 1.233.617 2.261 1.234 3.084.205.411.617.617 1.233 1.028.206.206.412.206.823.411.206 0 .206.206.411.206.206 0 .206 0 .411.206h.412.411.411.411.206.206.205.206 1.234.205.206c.205 0 .205-.206.411-.206s.206 0 .411-.206c.206 0 .206-.205.412-.205.205 0 .205-.206.411-.206h.205.206c.206-.206.206-.206.411-.206l.412-.205.205-.206s.206 0 .206-.205c1.028-.617 1.85-1.645 2.673-2.468.822-1.028 1.645-2.056 2.262-2.879.617-1.028 1.233-2.056 1.85-3.084s1.028-2.056 1.44-3.084c.411-1.029.822-2.057 1.028-3.085.205-.822.411-1.645.617-2.673zm1.233-5.346c.206 1.645.206 3.496-.205 5.552-.206 1.028-.412 2.056-.617 3.084-.206 1.028-.617 2.056-1.028 3.29-.412 1.028-.823 2.056-1.44 3.29-.616 1.028-1.233 2.056-1.85 3.29-.411.617-.617 1.028-1.028 1.645-.412.411-.823 1.028-1.234 1.439-.823 1.029-1.851 1.851-2.879 2.674-.205.205-.205.205-.411.411-.206 0-.206.205-.411.205-.206 0-.206.206-.411.206-.206 0-.206.206-.412.206-.205 0-.205.205-.411.205s-.206.206-.411.206c-.411.206-.617.411-1.028.411-.206 0-.412.206-.412.206-.205 0-.411 0-.411.205h-.205s0 0-.206 0h-.206-.205s0 0-.206 0h-.206-.205-.206-.205-.206-.411c-.206 0-.411 0-.617 0s-.411 0-.617 0-.411 0-.617-.205c-.205 0-.411-.206-.411-.206-.206 0-.411 0-.617-.205-.411-.206-.617-.412-1.028-.617-.411-.206-.617-.412-1.028-.823-.206-.205-.617-.617-.823-.822-.205-.206-.205-.412-.411-.412-.206-.205-.205-.411-.205-.616 0-.206-.206-.412-.206-.412 0-.205-.206-.411-.206-.617 0-.205-.617-.411-.617-.411 0-.205 0-.411-.205-.617-.206-.205 0-.411-.206-.617 0-.205 0-.411 0-.616 0-.206 0-.412 0-.412v-.617-1.028c0-.205 0-.411 0-.617 0-.205 0-.411 0-.411 0-.205 0-.411 0-.411 0-.206 0-.411 0-.617s0-.411 0-.411c0-.206 0-.411 0-.411 0-.412.206-.617.206-1.029 0-.411.205-.616.205-1.028.206-.617.412-1.233.617-1.85.206-.617.411-1.234.617-1.645.206-.617.411-1.234.823-1.645.205-.617.616-1.028.822-1.645.206-.206.411-.411.411-.823.206-.205.206-.411.412-.822.205-.206.411-.411.411-.617.205-.206.205-.411.411-.617.411-.411.617-.822 1.028-1.234.411-.411.617-.822 1.028-1.233.412-.412.617-.823 1.028-1.029.412-.411.617-.616 1.028-1.028.412-.411.617-.617 1.029-.822.411-.206.822-.617 1.028-.823.617-.411 1.439-.822 2.056-1.233.617-.412 1.234-.617 1.85-.823.206 0 .617-.206.823-.206s.411 0 .822-.205h.206.411.617.206.205.206.206.205.412.205.206c.411 0 .822.205 1.234.411l.205.206c.206 0 .206.205.411.205.206.206.412.412.617.617.411.411.617 1.028 1.028 1.851 1.234 1.028 1.44 1.85 1.645 2.673z"/><path d="m194.107 141.881c.205.205.205.411.205.617-.411.616-1.028 1.233-1.439 1.85s-1.028 1.234-1.44 1.851c-.205.205-.411.617-.822.822-.411.206-.617.617-.823.823-.616.617-1.233 1.028-1.85 1.439-.617.617-1.234 1.028-2.056 1.234-.412.206-.823.411-1.234.411s-.617 0-.617 0c-.206 0-.411 0-.822-.205-.206-.206-.412-.206-.617-.412-.206-.205-.412-.411-.412-.617 0-.205-.205-.411-.205-.616 0-.206 0-.206 0-.412 0 0 0-.205 0-.411s0-.411 0-.617c0-.205 0-.411 0-.617 0-.205 0-.411 0-.617 0-.205 0-.411.205-.616 0-.412.206-.823.206-1.234s.206-.823.411-1.234c.206-.411.206-.822.412-1.234.205-.411.205-.822.411-1.028.205-.822.617-1.439.822-2.262.206-.822.617-1.439 1.028-2.056.206-.617.617-1.439 1.029-2.056.411-.617.616-1.439 1.028-2.056.205-.412.205-.617.411-1.028.205-.206.205-.617.411-.823h-.411l-1.439.206-1.44.205-2.467.412s0 .205-.206.205c0 0 0 .206-.206.411 0 .206-.205.412-.205.412l-.206.411-.205.206v.205s-.206.206-.206.411c0 .206-.206.412-.206.617v.206.206l-.205.411-.206.617-.205.205c0 .206-.001.206-.206.206 0 0 0 .206-.206.206v.205l-.205.206c0 .205-.206.205-.206.411s-.206.206-.411.617l-.206.206c0 .205 0 .205-.205.205 0 .206-.206.411-.412.617 0 .206-.205.206-.411.617-.206.206-.206.411-.411.411-.206.206-.206.411-.411.411l-.206.206s0 .206-.206.206l.412 1.028c0 .205-.206.205-.206.411s-.206.206-.206.411c-.205.206-.205.206-.205.206l-.206.205-.206.206s0 0-.205.206v.205c-.206.206-.411.206-.617 0-.206 0-.206-.205-.206-.205 0-.206 0-.206.206-.412 0 0 0 0 0-.205 0 0 0-.206.206-.206 0 0 0-.205.205-.205 0 0 0 0 .206-.206v-.206s0 0 0-.205c0-.206.205-.206.205-.411 0-.206.206-.206.206-.412l.206-.411c.205-.206.205-.206.411-.411l.206-.206s0-.205.205-.205l.206-.617s.205-.206.411-.412c0-.205.206-.205.411-.616 0-.206.206-.412.412-.617 0-.206.205-.206.205-.412 0 0 0-.205.206-.205l.205-.206.206-.205s0-.206.206-.206c0 0 0 0 0-.206l.205-.617.206-.205c0-.206 0-.206.206-.206 0-.205 0-.205 0-.205 0-.206.205-.206.205-.206s0-.206.206-.206c0 0 0-.205.205-.205.206 0 0-.206.206-.206 0 0 0-.206.206-.206v-.205s0 0 0-.206c0 0 0 0 0-.205v-.206-.206l.205-.411s0 0 0-.206h-.822l-1.44.206c-.411 0-.822 0-1.028-.206-.205-.205-.411-.616-.411-1.028 0-.411 0-.822.206-1.028.205-.205.617-.411 1.028-.411l1.439-.206 1.439-.205 2.879-.412 1.44-.205 1.439-.206h.822.823l1.439-.205c.411 0 .617 0 1.028.205.206.206.412.617.412 1.028 0 .206 0 .617-.206.823-.411.617-.823 1.439-1.234 2.056s-.822 1.234-1.234 2.056c-.411.617-.822 1.44-1.233 2.057-.412.616-.823 1.233-1.028 2.056-.412.617-.617 1.439-1.028 2.056-.412.617-.617 1.439-1.029 2.056-.205.411-.205.617-.411 1.028-.205.412-.205.617-.411 1.028-.206.412-.206.617-.411 1.029-.206.411-.206.822-.412 1.028 0 .205-.205.411-.205.617 0 .205 0 .411-.206.411v.617.411.411.411s0 .206.206.412l.205.205h.412.411c.206 0 .411 0 .411-.205.206 0 .411-.206.411-.206.617-.411 1.234-.617 1.851-1.234.617-.411 1.234-1.028 1.645-1.439.206-.206.617-.411.822-.823.206-.205.617-.616.823-.822 1.028-1.234 2.056-2.262 2.879-3.496.205-.411.411-.411.617-.205z"/><path d="m244.072 58.3973c-9.869 0-17.889 8.0193-17.889 17.8893 0 9.6643 8.225 17.8893 17.889 17.8893 9.87 0 17.889-8.0194 17.889-17.8893.206-9.6643-8.019-17.8893-17.889-17.8893zm0 40.0967c-12.337 0-22.412-10.0756-22.412-22.413 0-12.3375 10.075-22.413 22.412-22.413 12.338 0 22.413 10.0755 22.413 22.413 0 12.543-10.075 22.413-22.413 22.413z"/><path d="m37.4231 98.7005c-4.1124 0-10.0754 0-13.7766-6.7856-.2056-.2056-.2056-.6168.2056-1.2337.4112-.8225 1.8506-1.645 2.4675-1.645.4112 0 .6168.2056.6168.4112l.4113.4113c1.0281 1.4394 1.6449 2.4675 3.2899 3.29h.2056c1.4394.8225 2.4675 1.4393 5.7574 1.645h1.4394c6.5798 0 9.4585-2.0563 9.4585-7.4025 0-5.9631-4.5236-7.1968-10.0754-8.4306-6.1686-1.4393-13.3654-3.0843-13.3654-13.1599 0-7.6081 7.4024-11.9262 14.1879-11.9262 5.1405 0 8.6361 2.4675 11.7204 8.225 0 .2056.2056.4112 0 .8225-.4112.6168-1.8506 1.645-2.6731 1.645-.4112 0-.4112-.2057-.6168-.2057-.4113-.4112-.6169-1.0281-1.0281-1.4393-.4113-.6169-.8225-1.2338-1.2338-1.8507l-.2056-.2056c-.8225-1.0281-1.8506-2.2618-5.1405-2.6731-.2057 0-.6169 0-1.0281 0-1.645 0-9.253.4113-9.253 8.225 0 6.1687 4.5237 7.1968 10.2811 8.2249 6.1686 1.2338 13.1597 2.6731 13.1597 12.5431-.2056 7.1968-5.5517 11.5149-14.8047 11.5149z"/><path d="m78.1361 98.6995h-2.8787c-.4113 0-.8225-.4112-.8225-.8225v-43.181c0-.4112.4112-.8225.8225-.8225h2.8787c.4112 0 .8225.4113.8225.8225v43.181c-.2056.4113-.4113.8225-.8225.8225z"/><path d="m132.626 98.6995h-26.937c-.411 0-.822-.4112-.822-.8225v-43.181c0-.4112.411-.8225.822-.8225h2.879c.411 0 .823.4113.823.8225v39.8911h23.44c.412 0 .823.4112.823.8225v2.6731c-.206.2056-.617.6168-1.028.6168z"/><path d="m198.013 98.6995h-2.673c-.411 0-.822-.4112-.822-.8225v-36.3954l-18.301 36.3954c-.205.6169-1.233.6169-1.439 0l-18.095-35.9841v35.9841c0 .4113-.411.8225-.822.8225h-2.673c-.411 0-.823-.4112-.823-.8225v-43.181c0-.4112.412-.8225.823-.8225h3.907c.205 0 .617.2057.617.4113l17.683 35.1617 17.889-35.1617c.206-.2056.411-.4113.617-.4113h4.112c.412 0 .823.4113.823.8225v43.181c0 .4113-.411.8225-.823.8225z"/><path d="m111.447 180.743h-1.851v9.87h1.851z"/><path d="m120.288 180.743h1.851v9.87h-1.028l-5.141-6.785v6.785h-1.85v-9.87h1.439l4.729 5.963z"/><path d="m131.186 180.743h1.851v9.87h-1.234l-5.14-6.785v6.785h-1.851v-9.87h1.439l4.935 5.963z"/><path d="m136.944 185.678c0 1.645.822 3.29 3.29 3.29 2.262 0 3.29-1.645 3.29-3.29s-.823-3.495-3.29-3.495c-2.468 0-3.29 1.85-3.29 3.495zm8.225 0c0 2.468-1.645 5.141-5.141 5.141-3.495 0-5.14-2.467-5.14-5.141 0-2.673 1.645-5.14 5.14-5.14 3.496 0 5.141 2.467 5.141 5.14z"/><path d="m152.16 190.613h-1.851l-4.112-9.87h2.056l2.879 7.608 3.084-7.608h2.056z"/><path d="m162.646 182.8-1.85 4.112h3.701zm2.468 5.963h-5.141l-.822 1.85h-2.056l4.523-9.87h2.056l4.524 9.87h-2.056z"/><path d="m170.46 182.388h-3.084v-1.645h8.019v1.645h-3.084v8.225h-1.851z"/><path d="m179.096 180.743h-1.85v9.87h1.85z"/><path d="m183.209 185.678c0 1.645.822 3.29 3.289 3.29 2.262 0 3.29-1.645 3.29-3.29s-.822-3.495-3.29-3.495c-2.261 0-3.289 1.85-3.289 3.495zm8.43 0c0 2.468-1.645 5.141-5.141 5.141-3.495 0-5.14-2.467-5.14-5.141 0-2.673 1.645-5.14 5.14-5.14 3.496 0 5.141 2.467 5.141 5.14z"/><path d="m200.069 180.743h1.851v9.87h-1.028l-5.141-6.785v6.785h-1.85v-9.87h1.439l4.729 5.963z"/><path d="m208.5 183.828.617-.411c.411-.206.617-.617.617-.823 0-.205 0-.411-.206-.617-.206-.205-.411-.205-.822-.205-.206 0-.617 0-.823.205-.206.206-.206.412-.206.617 0 .206.206.617.412.823zm-.823 2.056c-.411.206-.822.411-1.028.823-.205.411-.411.617-.411 1.028s.206.822.411 1.028c.206.206.617.411 1.028.411.206 0 .617 0 .823-.205.206-.206.617-.412.822-.617zm5.963 3.496-1.233 1.439c-.617-.205-1.028-.617-1.645-1.234-.411.412-.823.617-1.234.823s-1.028.206-1.645.206c-1.234 0-2.262-.412-2.879-1.029-.411-.616-.822-1.233-.822-1.85s.205-1.234.617-1.645c.411-.617 1.028-1.028 1.645-1.44-.412-.411-.617-.822-.823-1.233-.205-.412-.205-.617-.205-1.028 0-.617.205-1.029.822-1.645.411-.412 1.234-.617 2.056-.617.823 0 1.645.205 2.057.617.411.411.822 1.028.822 1.645 0 .411-.206.822-.411 1.233-.206.412-.823.823-1.44 1.234l1.44 1.851c.205-.206.411-.617.411-1.234l1.645.411c-.206.617-.411 1.028-.411 1.44-.206.205-.206.616-.412.616.206.206.412.412.823.617.411.617.617.617.822.823z"/><path d="m223.922 189.38c-1.029 1.028-2.262 1.439-3.702 1.439-3.701 0-5.14-2.467-5.14-5.14s1.645-5.141 5.14-5.141c1.44 0 2.673.411 3.702 1.439l-1.234 1.234c-.617-.617-1.44-1.028-2.468-1.028-2.467 0-3.495 1.851-3.495 3.496s1.028 3.29 3.495 3.29c.823 0 1.851-.412 2.468-1.028z"/><path d="m227.623 182.389v3.084h2.878c1.234 0 1.645-.822 1.645-1.645 0-.822-.616-1.645-1.645-1.645h-2.878zm6.785 8.225h-2.056l-2.879-3.29h-1.85v3.29h-1.851v-9.87h4.729c2.262 0 3.496 1.645 3.496 3.29 0 1.439-.617 2.673-2.467 3.084z"/><path d="m243.25 190.613h-7.402v-9.87h7.402v1.851h-5.552v2.262h5.346v1.645h-5.346v2.262h5.552z"/><path d="m249.83 182.8-1.851 4.112h3.701zm2.673 5.963h-5.141l-.822 1.85h-2.056l4.523-9.87h2.057l4.523 9.87h-2.056z"/><path d="m257.849 182.388h-3.084v-1.645h8.019v1.645h-3.084v8.225h-1.851z"/><path d="m266.485 180.743h-1.85v9.87h1.85z"/><path d="m270.598 185.678c0 1.645.822 3.29 3.289 3.29 2.262 0 3.29-1.645 3.29-3.29s-.822-3.495-3.29-3.495c-2.261 0-3.289 1.85-3.289 3.495zm8.224 0c0 2.468-1.645 5.141-5.14 5.141-3.496 0-5.141-2.467-5.141-5.141 0-2.673 1.645-5.14 5.141-5.14 3.495 0 5.346 2.467 5.14 5.14z"/><path d="m287.459 180.743v5.963l-4.73-5.963h-1.645v9.87h1.851v-6.785l5.14 6.785h1.234v-9.87z"/></g></svg>