<svg fill="none" height="76" viewBox="0 0 163 76" width="163" xmlns="http://www.w3.org/2000/svg"><path clip-rule="evenodd" d="m.628607 26.4059c2.378193 4.5803 6.426693 4.5803 9.105703 4.5803 6.22619 0 9.79729-2.8578 9.79729-7.8402 0-6.5905-4.6482-7.5599-8.7511-8.4155l-.0004-.0001c-3.78683-.7894-6.778-1.4129-6.778-5.58311 0-5.3023 5.11921-5.57069 6.1452-5.57069.2589 0 .5016.0141.7019.0402 2.2374.29768 2.8666 1.05201 3.4752 1.78165l.0007.00084.1535.18291c.3306.38793.5792.81694.8193 1.23148l.0001.00003v.00001l.001.00178.0059.01019v.00003c.2048.35351.3983.68743.6344.98467.0606.07641.1785.16871.3917.16871.5209-.00051 1.5415-.6064 1.8208-1.08091.1358-.23159.082-.4038.0377-.48469-2.0941-3.8703-4.4428-5.521502-7.8525-5.521502-4.57849 0-9.444496 2.787602-9.444496 7.953502 0 6.7642 4.696696 7.8898 8.840906 8.8829l.00119.0003c3.7366.8936 6.6875 1.6002 6.6875 5.6681 0 3.5023-1.8103 4.9298-6.2489 4.9298-.296 0-.6038-.0057-.92149-.0182-2.24672-.0894-2.92497-.4908-3.86343-1.0461l-.00048-.0003-.0728-.043c-1.09891-.6496-1.56694-1.316-2.21432-2.2379l-.00158-.0022-.20959-.2973c-.0719-.1019-.2126-.2225-.4752-.2225-.5365 0-1.3635.5334-1.702306 1.0974-.232898.3879-.1735.6755-.083397.8494zm146.705393 4.5405c-8.22 0-14.908-6.7196-14.908-14.9783 0-8.28581 6.688-15.028102 14.908-15.028102 8.193 0 14.859 6.742292 14.859 15.028102 0 8.2587-6.666 14.9783-14.859 14.9783zm0-26.99171c-6.57 0-11.916 5.3889-11.916 12.01341 0 6.5118 5.456 12.0123 11.916 12.0123 6.597 0 11.965-5.3884 11.965-12.0123 0-6.5129-5.479-12.01341-11.965-12.01341zm-110.551 27.05371h-1.9419c-.2944 0-.5341-.2418-.5341-.5385v-29.0024c0-.29731.2397-.538502.5341-.538502h1.9419c.2946 0 .534.241192.534.538502v29.0024c0 .2967-.2394.5385-.534.5385zm18.3961 0h17.9693c.2945 0 .534-.2418.534-.5385v-1.7559c0-.2973-.2395-.5391-.534-.5391h-15.5436v-26.7074c0-.29731-.2392-.538502-.5341-.538502h-1.8916c-.295 0-.5341.241192-.5341.538502v29.0024c0 .2967.2391.5385.5341.5385zm61.4429 0h-1.741c-.294 0-.535-.2418-.535-.5385v-24.3672l-12.128 24.4074c-.185.3681-.775.3653-.955 0l-12.0801-24.1678v24.1276c0 .2967-.2394.5385-.5341.5385h-1.7427c-.2942 0-.5341-.2418-.5341-.5385v-29.0024c0-.29731.2399-.538502.5341-.538502h2.6385c.2031 0 .3864.113202.4775.296102l11.7179 23.5762 11.717-23.5756c.092-.1835.275-.296702.478-.296702h2.687c.295 0 .534.241192.534.538502v29.0024c0 .2967-.239.5385-.534.5385zm-47.1088 30.5298.0003-.0001h.0001l.0001-.0001c.0789-.0255.1578-.0511.2353-.0796.0379.0328.0762.0662.114.1002-.0255.059-.0507.1179-.0759.1769l-.0005.001-.0004.001-.0006.0014c-.0543.1267-.1085.2533-.1642.3797-.2148.4847-.4299.9693-.6451 1.454-.4381.987-.8763 1.9742-1.3121 2.9627-1.1002 2.4926-2.0749 5.0339-2.8783 7.6398-.0676.218-.1064.4479-.1358.6749-.0257.2005.0234.3896.234.4768.2425.1008.3597-.0895.4511-.2474l.0625-.1084c.2278-.3948.4564-.791.6365-1.2076.1557-.3596.294-.7269.4325-1.0944l.0001-.0003.0001-.0003.0001-.0003.0001-.0003c.1317-.3496.2635-.6993.4103-1.0425.8461-1.9734 1.6999-3.9433 2.5704-5.9065.6678-1.5057 1.356-3.0028 2.0554-4.4943.2083-.4445.4209-.8879.8911-1.1585 1.5379-.8868 3.0694-1.7843 4.5846-2.7089l.0696-.0424c1.5727-.9586 3.1457-1.9174 4.5928-3.0714l.0201-.016c1.2039-.9595 2.4024-1.9146 3.4153-3.0933.7486-.8725 1.3149-1.8306 1.6565-2.9263.5204-1.667-.4285-3.3652-2.099-3.8171-1.8154-.492-3.5946-.2378-5.353.2526-1.7266.4824-3.4188 1.0741-5.0527 1.8199-1.2137.5538-2.4263 1.1138-3.609 1.7299-.6091.3168-1.1916.6859-1.7738 1.0549-.2067.1311-.4134.2621-.6212.3907-.2584.1598-.5186.3173-.7788.4749l-.0003.0002-.0003.0001-.0002.0002c-.7019.425-1.4043.8502-2.0736 1.3218-1.7015 1.1988-3.3222 2.5051-4.8425 3.9343-.8667.8154-1.6606 1.6948-2.2771 2.7202-.1851.3064-.3203.6507-.4347.9927-.1257.3771.061.6766.3406.9099.2789.2333.5203.1405.5336-.2259.0173-.4496.2028-.8052.4582-1.1523.7412-1.0062 1.5887-1.9139 2.504-2.7576 2.3712-2.1852 4.9477-4.0758 7.7613-5.6523 1.9008-1.0645 3.8351-2.0492 5.8432-2.8844 2.3125-.9615 4.6844-1.7265 7.1996-1.9151.9157-.0696 1.8255.0425 2.6906.3749.5766.222.7818.6829.6518 1.2893-.1848.8664-.5998 1.6167-1.1426 2.2933-1.0822 1.3494-2.3148 2.5311-3.7155 3.5543-2.2869 1.6693-4.6618 3.192-7.1083 4.6053-.062.0355-.1318.0571-.2289.0871h-.0001c-.0549.017-.1185.0366-.1943.063.1504-.284.2967-.5572.4391-.8234l.0001-.0001.0004-.0007.0006-.0011c.3174-.5929.6162-1.1511.9003-1.7166.2831-.5636.5474-1.1372.8114-1.7104.0803-.1742.1606-.3484.2414-.5223.1465-.3154.1445-.6336-.0351-.9383-.1297-.2191-.2813-.4298-.5639-.4309-.2435-.0014-.3267.1799-.41.3615-.0141.0306-.0281.0612-.0429.0909l-.2147.4317c-.3632.7309-.7266 1.4621-1.1036 2.185-.3225.6189-.6495 1.2352-.9764 1.8515-.4185.7886-.8369 1.5772-1.2457 2.3709-.143.2775-.3428.4496-.603.5799-.4595.23-.9179.4622-1.3763.6944l-.0001.0001h-.0001v.0001h-.0001c-1.0907.5525-2.1812 1.1049-3.2852 1.6275-1.3613.6461-2.7494 1.2367-4.2662 1.4287-.1286.0164-.331.1347-.3436.227-.019.1461.0524.35.158.4576.3053.3125.7223.3476 1.1215.2916.5068-.0708 1.0174-.1665 1.5056-.3188 1.6951-.5289 3.3274-1.2135 4.8868-2.0708.1576-.0868.3311-.143.5047-.1993zm23.9584-6.5676c.0049-.0104.0104-.0227.0166-.0366.0412-.0925.1114-.2499.2246-.2927.1567-.0589.418.0118.5642.12.1521.1127.2629.3262.3171.517.0857.3097.1463.6359.1525.9552.0073.3607-.2233.4842-.5254.2956-.4065-.2537-.7931-.6914-.7625-1.5345.0037-.0056.008-.0138.0129-.024zm4.1288 12.2092c-.2327.1786-.5327.2584-.8174.2426.0994-.8393.568-1.3228 1.0559-1.8261l.0002-.0002c.0837-.0863.168-.1733.251-.2627 0 0 0 0-.0001 0-.0832.0896-.1677.1767-.2515.2632-.4879.5034-.9565.9869-1.0559 1.8262.2848.0158.5851-.0642.8178-.243zm1.0518-3.4025c2.5598-1.714 5.5078-2.4297 5.9928-2.4926.206-.0272.319.1008.32.2961.002.1597-.167.3738-.302.3573-2.659.3661-5.0547 1.955-5.6282 2.3354l-.0002.0001c-.042.0279-.0742.0492-.096.0632.0155.0685.05.1616.0921.2754v.0001c.2281.6161.6799 1.8366-.4352 3.0386-.6273.6666-1.3738.8183-2.1795.5329-.2541-.09-.4487-.3255-.5065-.5968-.0551-.26-.0126-.5753.0583-.8391.1587-.5974.5336-1.0217.9178-1.427.1672-.1766.3074-.3117.436-.4358h.0001c.1102-.1063.2119-.2044.315-.3133.2751-.2914.1457-.4379-.2204-.8527-.2331-.264-.562-.6366-.9437-1.2243-1.0177.9309-2.5499 2.4065-5.1869 5.0293-.1626.1615-.353.2951-.544.4191-.4852.3159-.8989.2401-1.2364-.231-.2753-.3868-.4216-.8245-.3627-1.3024.0332-.2728.09-.5424.1469-.812l.0001-.0003v-.0001c.0223-.1057.0446-.2114.0654-.3173.0232-.1174.0486-.2339.0741-.3505.0128-.0588.0257-.1176.0383-.1766-.0343-.0181-.0687-.0363-.1026-.055-.036.0305-.073.06-.1099.0894-.0754.0601-.1508.12-.2164.1892-1.064 1.1206-2.2882 2.0488-3.5121 2.9767l-.0001.0001-.1649.1251c-.5907.4485-1.2983.2577-1.6137-.4372-.243-.5356-.3002-1.0912-.0755-1.6754.5576-1.4496 1.3879-2.7299 2.3201-3.953.1452-.1915.2881-.3849.4497-.6036l.0015-.0021c.1051-.1422.2181-.2951.3448-.4651-.147.0134-.2832.0233-.4114.0327h-.0003-.0001c-.2998.0219-.5561.0407-.8058.093-.1394.0284-.2748.1909-.3649.3245-.3612.5359-.7184 1.0751-1.0756 1.6144l-.0001.0001c-.3515.5308-.703 1.0615-1.0585 1.5892-.8297 1.231-1.8422 2.3002-2.9774 3.2435-.9229.7668-1.9182.5018-2.3902-.6115-.0815-.1929-.1281-.4015-.1745-.6094-.0164-.0736-.0328-.147-.0507-.2197-.0227-.0915-.0387-.1848-.0594-.3053-.0115-.0672-.0245-.1429-.0409-.2314-.1168.1035-.227.2007-.3326.2937l-.0003.0002c-.217.1913-.4144.3652-.6089.5419-.1341.1217-.2654.2469-.3967.372-.2559.2441-.5117.4881-.7879.7056-.6397.5021-1.1159.5368-1.6144.1846-.4845-.3415-.7329-1.06-.5795-1.6976.2693-1.1213.8044-2.1115 1.4889-3.0221.8666-1.1534 1.8362-2.2045 3.0522-2.9989.8265-.5401 1.4042-.5011 2.1591.1434.0688.0576.1573.1002.2431.1302.8745.3035 1.0401.9151.4784 1.6601-.8026 1.0652-1.444 2.2146-1.6693 3.5573-.0383.2276-.055.4594-.0721.697l-.0001.0017c-.0078.1082-.0157.2176-.0257.3284.2982.0331.4515-.1119.5997-.2519.0295-.0279.0588-.0556.089-.0816 1.6688-1.4406 2.9451-3.2066 4.1151-5.0578.3222-.51.6202-1.0358.9178-1.5609l.0002-.0002c.0449-.0792.0898-.1584.1347-.2375.0153-.0269.0306-.0538.0459-.0806.1617-.285.3902-.3919.6552-.1558.3842.3432.722.2129 1.102.0509.6137-.2626 1.23-.5197 1.8541-.7558.4696-.1767.7059-.1223.9625.218.2633.3494.4216.7525.2035 1.1761-.1656.321-.3789.6234-.6079.9043-1.1369 1.3963-2.2403 2.817-3.1905 4.351-.156.2525-.256.5396-.3403.8403.4745-.1557.8216-.4788 1.1604-.7943h.0001c.0323-.0301.0646-.0601.0968-.0899.0219-.0202.0439-.0404.0659-.0603.6956-.6336 1.3636-1.2985 2.0315-1.9634.0848-.0844.1696-.1688.2545-.2532.0603-.06.1207-.1199.1812-.1798.8652-.8586 1.7229-1.7247 2.5806-2.5909l.0013-.0012.0004-.0005.1657-.1673c.0871-.0877.169-.1803.251-.2729.0826-.0934.1653-.1868.2532-.2753.3401-.3413.7556-.3362 1.022.0578.2285.3376.3689.7254.1124 1.1286l-.0964.1505-.0003.0005c-.2876.4491-.5749.8979-.874 1.3387-.7049 1.0374-1.2235 2.1671-1.6476 3.3449-.0192.0521-.0259.1127-.0249.1688.0003.02.0112.0398.0318.0768.0124.0226.0285.0515.0478.0908.0689-.0594.137-.1177.2047-.1758.0759-.065.1513-.1297.2269-.1949.0296-.0255.0593-.051.089-.0767 1.4554-1.4994 5.022-5.1483 5.1792-5.2384.2765-.159.4862-.0712.5534.2798.4297 1.6811 1.122 2.7315 1.4253 3.1916.0446.0678.0808.1228.1066.1651zm-24.1745 2.8999c.1189-.0678.2379-.1355.337-.225.1363-.1234.2731-.2465.41-.3695l.0001-.0001c1.3522-1.2156 2.7051-2.4319 3.555-4.1015.042-.0827.0952-.1602.1483-.2377.0665-.0971.133-.194.1775-.3008.0427-.1024.0265-.2689-.0322-.3634-.0338-.0555-.2207-.0681-.3076-.0295-.2421.107-.4929.2197-.6955.3862-1.5502 1.2757-2.8436 2.7639-3.6641 4.6285-.0601.1366-.1002.2822-.1404.428v.0001l-.0001.0002c-.0186.0674-.0372.1348-.0577.2014.0302.022.0602.0444.0904.067l.0163.0121c.0529-.0333.1078-.0646.1626-.0958l.0003-.0002z" fill="#241d4c" fill-rule="evenodd"/></svg>