<svg fill="none" height="42" viewBox="0 0 91 42" width="91" xmlns="http://www.w3.org/2000/svg"><path clip-rule="evenodd" d="m.850802 14.584c1.319448 2.5412 3.565608 2.5412 5.051948 2.5412 3.45438 0 5.43565-1.5856 5.43565-4.3498 0-3.65653-2.57886-4.19437-4.8552-4.66906l-.00025-.00005c-2.10096-.43795-3.76049-.78388-3.76049-3.09758 0-2.94178 2.84019-3.09069 3.40943-3.09069.14364 0 .2783.00782.38942.0223 1.24136.16516 1.59044.58368 1.92808.98849l.00039.00046.08517.10148c.18343.21523.32134.45326.45459.68326l.00057.00099.00328.00565.00001.00002v.00001c.11363.19613.22096.38139.35196.5463.03362.04239.09904.0936.21732.0936.289-.00028.85522-.33644 1.01022-.5997.0753-.12849.0455-.22403.0209-.26891-1.16183-2.14729-2.46492-3.063396-4.35666-3.063396-2.54021 0-5.239925 1.546596-5.239925 4.412696 0 3.75288 2.605785 4.37734 4.905035 4.92834l.00067.00016c2.07311.49583 3.7103.88783 3.7103 3.14473 0 1.9431-1.00437 2.7351-3.46696 2.7351-.16423 0-.335-.0032-.51126-.0101-1.2465-.0496-1.62281-.2723-2.14347-.5804l-.00027-.0001-.04039-.0239c-.60969-.3604-.86936-.7301-1.22853-1.2416l-.00088-.0012-.11628-.165c-.0399-.0565-.11796-.1234-.26365-.1234-.29766 0-.75649.2959-.944459.6088-.129215.2152-.09626.3748-.046269.4713zm81.393398 2.519c-4.5604 0-8.271-3.7281-8.271-8.31011 0-4.59706 3.7106-8.337765 8.271-8.337765 4.5459 0 8.2443 3.740705 8.2443 8.337765 0 4.58201-3.6984 8.31011-8.2443 8.31011zm.0001-14.97532c-3.6452 0-6.6112 2.98983-6.6112 6.66518 0 3.61284 3.0275 6.66454 6.6112 6.66454 3.6604 0 6.6385-2.9895 6.6385-6.66454 0-3.61343-3.0401-6.66518-6.6385-6.66518zm-61.3348 15.00992h-1.0774c-.1633 0-.2963-.1342-.2963-.2988v-16.090874c0-.164947.133-.298765.2963-.298765h1.0774c.1634 0 .2963.133818.2963.298765v16.090874c0 .1646-.1329.2988-.2963.2988zm10.2062 0h9.9696c.1634 0 .2963-.1342.2963-.2988v-.9742c0-.1649-.1329-.2991-.2963-.2991h-8.6238v-14.817574c0-.164947-.1327-.298765-.2963-.298765h-1.0495c-.1636 0-.2963.133818-.2963.298765v16.090874c0 .1646.1327.2988.2963.2988zm34.0895 0h-.9663c-.1632 0-.2963-.1342-.2963-.2988v-13.51921l-6.729 13.54151c-.1028.2042-.4298.2027-.53 0l-6.7021-13.40857v13.38627c0 .1646-.1328.2988-.2963.2988h-.9669c-.1632 0-.2963-.1342-.2963-.2988v-16.090874c0-.164947.1331-.298765.2963-.298765h1.4639c.1127 0 .2144.062803.2649.164278l6.5011 13.080361 6.5011-13.080027c.0508-.101809.1522-.164612.2648-.164612h1.4911c.1637 0 .2963.133818.2963.298765v16.090874c0 .1646-.1326.2988-.2963.2988zm-26.1365 16.9382.0002-.0001c.0438-.0142.0876-.0284.1306-.0442.021.0182.0423.0367.0632.0556l-.0421.0982c-.0304.0709-.0607.1418-.0919.2125-.1193.2692-.2388.5383-.3582.8075l-.0006.0013-.0006.0014-.0007.0014c-.2423.5459-.4847 1.092-.7258 1.6388-.6104 1.3829-1.1512 2.7929-1.5969 4.2387-.0375.1209-.059.2485-.0754.3744-.0142.1113.013.2162.1299.2646.1345.0559.1995-.0497.2502-.1373l.0347-.0601c.1264-.2191.2533-.4389.3532-.67.0863-.1995.1631-.4033.2399-.6071v-.0001l.0001-.0001v-.0001-.0001l.0001-.0001c.0731-.194.1462-.3882.2277-.5787.4694-1.0949.9431-2.1878 1.4261-3.277.3705-.8354.7523-1.666 1.1403-2.4935.1156-.2466.2336-.4926.4944-.6427.8533-.492 1.703-.99 2.5436-1.503l.0386-.0235.0002-.0001c.8725-.5318 1.7452-1.0637 2.548-1.7039l.0111-.0089c.668-.5324 1.3329-1.0623 1.8949-1.7162.4153-.4841.7295-1.0156.919-1.6236.2888-.9248-.2377-1.867-1.1645-2.1177-1.0072-.273-1.9944-.132-2.9699.1401-.958.2677-1.8968.5959-2.8033 1.0097-.6734.3073-1.3462.618-2.0024.9598-.3379.1757-.661.3806-.9841.5853-.1146.0727-.2293.1454-.3446.2167-.1435.0888-.288.1763-.4325.2638-.3895.2358-.7792.4717-1.1505.7333-.944.6652-1.8432 1.3899-2.6867 2.1828-.4809.4524-.9213.9403-1.2634 1.5092-.1027.17-.1777.3611-.2411.5508-.0698.2092.0338.3754.1889.5048.1548.1295.2887.078.2961-.1253.0096-.2495.1125-.4467.2542-.6393.4112-.5583.8814-1.0619 1.3892-1.53 1.3156-1.2123 2.7451-2.2613 4.3061-3.1359 1.0546-.5906 2.1278-1.137 3.2419-1.6003 1.283-.5335 2.5989-.9579 3.9944-1.0626.5081-.0386 1.0128.0236 1.4928.208.3199.1232.4338.3789.3616.7154-.1025.4807-.3328.8969-.6339 1.2723-.6004.7487-1.2843 1.4043-2.0614 1.972-1.2688.9261-2.5864 1.7709-3.9438 2.5551-.0343.0196-.0731.0316-.127.0483-.0304.0094-.0657.0203-.1078.0349.0834-.1576.1646-.3092.2437-.4569.1763-.3293.3422-.6393.5-.9533.1571-.3127.3037-.631.4502-.949l.0485-.1052c.0284-.0616.0568-.1231.0854-.1846.0813-.175.0802-.3515-.0195-.5206-.0719-.1215-.1561-.2384-.3128-.239-.1351-.0008-.1813.0998-.2275.2005-.0078.017-.0156.034-.0238.0505l-.1191.2396-.0001.0001-.0001.0002-.0001.0002-.0001.0002c-.2014.4052-.4029.8106-.6119 1.2115-.1789.3433-.3603.6852-.5417 1.027l-.0001.0002-.0002.0004c-.2321.4374-.4641.8748-.6909 1.315-.0793.1539-.1902.2494-.3345.3217-.2543.1273-.5081.2559-.7618.3844l-.0018.0009c-.6052.3066-1.2103.6131-1.8228.9031-.7553.3584-1.5254.6861-2.367.7926-.0713.0091-.1836.0748-.1906.126-.0106.081.0291.1941.0876.2538.1694.1734.4008.1929.6223.1618.2811-.0393.5644-.0924.8353-.1769.9404-.2934 1.8461-.6732 2.7112-1.1489.0875-.0481.1838-.0793.2801-.1105zm13.2854-3.6304c.0042-.0063.0096-.0184.0164-.0336.0229-.0514.0618-.1387.1246-.1625.087-.0326.2319.0066.3131.0666.0844.0626.1458.181.1759.2869.0475.1718.0812.3528.0846.5299.0041.2002-.1239.2687-.2915.164-.2255-.1407-.44-.3836-.4231-.8513zm2.4197 6.6327c-.1308.1882-.3612.2742-.5757.2623.0138-.1164.0403-.2205.0767-.3155-.0364.0951-.063.1992-.0768.3157.2145.0119.4449-.0742.5758-.2623.0326-.0469.0611-.0929.0858-.1378-.0247.0448-.0532.0908-.0858.1376zm.4618-1.7602c1.42-.9509 3.056-1.348 3.3249-1.3829.1144-.0151.1768.0559.1777.1643.0008.0886-.0928.2073-.1679.1982-1.4752.2031-2.8042 1.0847-3.1224 1.2957-.0122.0081-.0229.0152-.0321.0212-.0084.0056-.0155.0102-.0213.0139.0086.0381.0277.0897.0511.1528v.0001c.1265.3418.3772 1.019-.2415 1.6859-.348.3698-.7622.4539-1.2092.2956-.1409-.0499-.2489-.1806-.281-.3311-.0306-.1442-.0069-.3192.0323-.4656.0881-.3314.2961-.5668.5092-.7917.0927-.0978.1704-.1728.2417-.2415l.0003-.0002c.0611-.059.1176-.1135.1748-.1739.1526-.1617.0808-.2429-.1223-.4731-.1293-.1464-.3118-.3531-.5235-.6792-.5647.5164-1.4148 1.3351-2.8779 2.7903-.0902.0896-.1958.1637-.3018.2325-.2692.1753-.4987.1332-.6859-.1282-.1527-.2146-.2339-.4574-.2013-.7226.0185-.1513.05-.3009.0816-.4506v-.0001c.0124-.0586.0247-.1173.0363-.176.0128-.0651.0269-.1296.041-.1942l.0001-.0002v-.0002l.0003-.001c.007-.0322.014-.0645.0209-.0969-.019-.01-.0381-.0201-.0569-.0305-.0199.017-.0404.0333-.061.0497-.0418.0333-.0836.0666-.12.1049-.5903.6217-1.2696 1.1367-1.9486 1.6515v.0001l-.0915.0694c-.3278.2488-.7203.1429-.8953-.2425-.1348-.2973-.1666-.6055-.0419-.9296.3094-.8043.77-1.5146 1.2872-2.1932.0806-.1063.1599-.2136.2496-.335l.0007-.001h.0001l.0001-.0002c.0582-.0788.1209-.1636.1911-.2579-.0816.0074-.1572.013-.2284.0182-.1663.0121-.3085.0225-.4471.0516-.0773.0157-.1525.1059-.2024.18-.2002.297-.3982.5959-.5961.8948l-.0007.001c-.195.2944-.3901.5889-.5873.8817-.4604.683-1.0221 1.2761-1.6519 1.7995-.512.4254-1.0643.2784-1.3261-.3393-.0452-.107-.0711-.2227-.0968-.3381l-.0001-.0003c-.0091-.0407-.0182-.0813-.0281-.1215-.0125-.0509-.0214-.1026-.0329-.1695-.0064-.0373-.0136-.0792-.0227-.1284-.0649.0575-.1261.1115-.1847.1631l-.0003.0003c-.1203.106-.2297.2024-.3376.3003-.0744.0676-.1472.137-.22.2065h-.0001c-.1419.1354-.2838.2708-.4371.3914-.3548.2786-.6191.2978-.8957.1024-.2688-.1894-.4066-.5881-.3215-.9418.1494-.6221.4464-1.1715.8261-1.6767.4808-.6399 1.0187-1.2231 1.6934-1.6638.4586-.2997.7791-.278 1.1979.0795.0381.032.0872.0556.1349.0722.4851.1684.577.5078.2654.9211-.4453.591-.8012 1.2287-.9262 1.9736-.0212.1263-.0304.2549-.0399.3866l-.0001.0002v.0003c-.0043.0602-.0087.1211-.0143.1828.1655.0183.2505-.0621.3327-.1398.0164-.0154.0327-.0308.0494-.0453.9259-.7992 1.634-1.779 2.2832-2.806.1787-.283.344-.5747.5092-.8661l.1002-.1766c.0897-.1581.2166-.2174.3635-.0864.2132.1904.4006.1181.6114.0283.3405-.1458.6825-.2884 1.0288-.4194.2605-.0981.3916-.0679.5339.1209.1462.1939.2339.4175.113.6525-.092.1781-.2103.3459-.3373.5018-.6308.7747-1.243 1.5629-1.7701 2.414-.0866.14-.1421.2993-.1889.4662.2633-.0864.4559-.2657.6439-.4407.0301-.028.0601-.0559.0902-.0834.386-.3515.7566-.7204 1.1272-1.0892l.0001-.0002.0027-.0027c.0796-.0792.1592-.1584.2389-.2374.4801-.4765.9561-.9571 1.4321-1.4377l.0006-.0007.0919-.0928c.0483-.0486.0938-.1.1392-.1514h.0001v-.0001c.0459-.0518.0917-.1036.1405-.1526.1886-.1894.4192-.1866.567.032.1267.1873.2047.4025.0623.6261l-.0534.0835c-.1596.2493-.3191.4984-.4851.7431-.3911.5756-.6788 1.2023-.9141 1.8557-.0107.0289-.0144.0626-.0139.0937.0002.0111.0063.0221.0177.0427.0069.0125.0158.0285.0265.0503l.1136-.0975c.0585-.0502.1166-.1.1752-.1507.8075-.8319 2.7863-2.8564 2.8735-2.9063.1534-.0883.2698-.0396.3071.1552.2384.9327.6225 1.5154.7907 1.7707.0248.0376.0449.0681.0592.0916zm-13.4127 1.6089c.0661-.0376.132-.0751.187-.1248.0751-.068.1505-.1358.2259-.2036l.0017-.0015c.7502-.6744 1.5008-1.3492 1.9723-2.2755.0234-.0459.0529-.0889.0823-.1319.0369-.0539.0738-.1077.0985-.1669.0237-.0568.0147-.1492-.0179-.2017-.0187-.0307-.1224-.0377-.1707-.0163-.1343.0594-.2734.1219-.3858.2142-.86.7079-1.5777 1.5335-2.0329 2.568-.0333.0758-.0556.1566-.0779.2375-.0103.0374-.0206.0749-.0321.1119.0168.0122.0335.0247.0502.0372l.009.0067c.0295-.0186.0599-.0359.0904-.0533z" fill="#241d4c" fill-rule="evenodd"/></svg>