<svg width="603" height="162" viewBox="0 0 603 162" fill="none" xmlns="http://www.w3.org/2000/svg">
<path d="M6.85534 102H19.4235V79.8834H46.6816V68.4578H19.4235V56.2978H50.3541V44.8722H6.85534V102ZM75.2659 102.898C90.6088 102.898 100.321 94.4102 100.321 77.1086V44.8722H87.7524V77.5983C87.7524 86.6571 83.1006 91.3089 75.4291 91.3089C67.7577 91.3089 63.1058 86.4939 63.1058 77.1902V44.8722H50.5377V77.5167C50.5377 94.3286 59.923 102.898 75.2659 102.898ZM117.447 102H130.016V56.461H147.399V44.8722H100.064V56.461H117.447V102ZM171.918 102.898C187.261 102.898 196.972 94.4102 196.972 77.1086V44.8722H184.404V77.5983C184.404 86.6571 179.752 91.3089 172.081 91.3089C164.41 91.3089 159.758 86.4939 159.758 77.1902V44.8722H147.19V77.5167C147.19 94.3286 156.575 102.898 171.918 102.898ZM200.797 102H213.365V83.7191H223.076H223.24L235.481 102H250.171L236.216 81.5972C243.479 78.904 248.458 73.1096 248.458 63.8876V63.7244C248.458 58.338 246.744 53.8494 243.561 50.6666C239.807 46.9125 234.176 44.8722 226.912 44.8722H200.797V102ZM213.365 72.62V56.2161H225.851C231.972 56.2161 235.726 58.9909 235.726 64.3773V64.5405C235.726 69.3555 232.217 72.62 226.096 72.62H213.365ZM251.367 102H263.936V44.8722H251.367V102ZM289.556 102.816C301.88 102.816 310.53 96.4504 310.53 85.1065V84.9433C310.53 74.9867 304.002 70.8245 292.413 67.8049C282.538 65.275 280.09 64.0508 280.09 60.2967V60.1335C280.09 57.3587 282.619 55.1552 287.435 55.1552C292.25 55.1552 297.228 57.2771 302.288 60.7864L308.817 51.3195C303.022 46.6676 295.922 44.0561 287.598 44.0561C275.927 44.0561 267.603 50.9114 267.603 61.276V61.4393C267.603 72.7832 275.03 75.966 286.537 78.904C296.085 81.3524 298.044 82.9846 298.044 86.1674V86.3307C298.044 89.6767 294.943 91.717 289.801 91.717C283.272 91.717 277.886 89.0238 272.745 84.78L265.318 93.6757C272.173 99.7965 280.906 102.816 289.556 102.816ZM331.985 102.816C344.308 102.816 352.959 96.4504 352.959 85.1065V84.9433C352.959 74.9867 346.43 70.8245 334.841 67.8049C324.966 65.275 322.518 64.0508 322.518 60.2967V60.1335C322.518 57.3587 325.048 55.1552 329.863 55.1552C334.678 55.1552 339.656 57.2771 344.716 60.7864L351.245 51.3195C345.45 46.6676 338.35 44.0561 330.026 44.0561C318.356 44.0561 310.031 50.9114 310.031 61.276V61.4393C310.031 72.7832 317.458 75.966 328.965 78.904C338.514 81.3524 340.472 82.9846 340.472 86.1674V86.3307C340.472 89.6767 337.371 91.717 332.229 91.717C325.701 91.717 320.314 89.0238 315.173 84.78L307.746 93.6757C314.601 99.7965 323.334 102.816 331.985 102.816ZM355.46 102H368.028V44.8722H355.46V102ZM373.328 102H414.378V90.5744H385.896V44.8722H373.328V102ZM414.879 102H427.203V64.9485L443.117 89.1054H443.443L459.521 64.7037V102H472.007V44.8722H458.46L443.443 69.0291L428.427 44.8722H414.879V102ZM504.502 102.979C522.13 102.979 534.943 89.6767 534.943 73.4361V73.2729C534.943 57.0323 522.293 43.8929 504.665 43.8929C487.037 43.8929 474.224 57.1955 474.224 73.4361V73.5993C474.224 89.8399 486.874 102.979 504.502 102.979ZM504.665 91.3905C494.545 91.3905 487.363 83.2294 487.363 73.4361V73.2729C487.363 63.4795 494.382 55.4816 504.502 55.4816C514.621 55.4816 521.803 63.6428 521.803 73.4361V73.5993C521.803 83.3927 514.785 91.3905 504.665 91.3905Z" fill="#FFED00"/>
<path d="M6.85534 102H5.85534V103H6.85534V102ZM19.4235 102V103H20.4235V102H19.4235ZM19.4235 79.8834V78.8834H18.4235V79.8834H19.4235ZM46.6816 79.8834V80.8834H47.6816V79.8834H46.6816ZM46.6816 68.4578H47.6816V67.4578H46.6816V68.4578ZM19.4235 68.4578H18.4235V69.4578H19.4235V68.4578ZM19.4235 56.2977V55.2977H18.4235V56.2977H19.4235ZM50.3541 56.2977V57.2977H51.3541V56.2977H50.3541ZM50.3541 44.8722H51.3541V43.8722H50.3541V44.8722ZM6.85534 44.8722V43.8722H5.85534V44.8722H6.85534ZM6.85534 103H19.4235V101H6.85534V103ZM20.4235 102V79.8834H18.4235V102H20.4235ZM19.4235 80.8834H46.6816V78.8834H19.4235V80.8834ZM47.6816 79.8834V68.4578H45.6816V79.8834H47.6816ZM46.6816 67.4578H19.4235V69.4578H46.6816V67.4578ZM20.4235 68.4578V56.2977H18.4235V68.4578H20.4235ZM19.4235 57.2977H50.3541V55.2977H19.4235V57.2977ZM51.3541 56.2977V44.8722H49.3541V56.2977H51.3541ZM50.3541 43.8722H6.85534V45.8722H50.3541V43.8722ZM5.85534 44.8722V102H7.85534V44.8722H5.85534ZM100.321 44.8722H101.321V43.8722H100.321V44.8722ZM87.7524 44.8722V43.8722H86.7524V44.8722H87.7524ZM63.1058 44.8722H64.1058V43.8722H63.1058V44.8722ZM50.5377 44.8722V43.8722H49.5377V44.8722H50.5377ZM75.2659 103.898C83.116 103.898 89.6636 101.724 94.2489 97.2034C98.8373 92.6796 101.321 85.944 101.321 77.1086H99.3205C99.3205 85.5748 96.9479 91.7337 92.8447 95.7791C88.7384 99.8276 82.7587 101.898 75.2659 101.898V103.898ZM101.321 77.1086V44.8722H99.3205V77.1086H101.321ZM100.321 43.8722H87.7524V45.8722H100.321V43.8722ZM86.7524 44.8722V77.5983H88.7524V44.8722H86.7524ZM86.7524 77.5983C86.7524 81.9664 85.6316 85.1184 83.7333 87.1718C81.8455 89.2139 79.0597 90.3089 75.4291 90.3089V92.3089C79.47 92.3089 82.8459 91.078 85.2019 88.5295C87.5473 85.9923 88.7524 82.289 88.7524 77.5983H86.7524ZM75.4291 90.3089C71.8091 90.3089 69.0261 89.1799 67.1353 87.0709C65.23 84.9459 64.1058 81.687 64.1058 77.1902H62.1058C62.1058 81.997 63.3075 85.7976 65.6461 88.406C67.999 91.0304 71.3777 92.3089 75.4291 92.3089V90.3089ZM64.1058 77.1902V44.8722H62.1058V77.1902H64.1058ZM63.1058 43.8722H50.5377V45.8722H63.1058V43.8722ZM49.5377 44.8722V77.5166H51.5377V44.8722H49.5377ZM49.5377 77.5166C49.5377 86.1054 51.9383 92.7375 56.4428 97.2205C60.9459 101.702 67.413 103.898 75.2659 103.898V101.898C67.7759 101.898 61.8789 99.8088 57.8536 95.8028C53.8298 91.7983 51.5377 85.7398 51.5377 77.5166H49.5377ZM117.447 102H116.447V103H117.447V102ZM130.016 102V103H131.016V102H130.016ZM130.016 56.461V55.461H129.016V56.461H130.016ZM147.399 56.461V57.461H148.399V56.461H147.399ZM147.399 44.8722H148.399V43.8722H147.399V44.8722ZM100.064 44.8722V43.8722H99.0642V44.8722H100.064ZM100.064 56.461H99.0642V57.461H100.064V56.461ZM117.447 56.461H118.447V55.461H117.447V56.461ZM117.447 103H130.016V101H117.447V103ZM131.016 102V56.461H129.016V102H131.016ZM130.016 57.461H147.399V55.461H130.016V57.461ZM148.399 56.461V44.8722H146.399V56.461H148.399ZM147.399 43.8722H100.064V45.8722H147.399V43.8722ZM99.0642 44.8722V56.461H101.064V44.8722H99.0642ZM100.064 57.461H117.447V55.461H100.064V57.461ZM116.447 56.461V102H118.447V56.461H116.447ZM196.972 44.8722H197.972V43.8722H196.972V44.8722ZM184.404 44.8722V43.8722H183.404V44.8722H184.404ZM159.758 44.8722H160.758V43.8722H159.758V44.8722ZM147.19 44.8722V43.8722H146.19V44.8722H147.19ZM171.918 103.898C179.768 103.898 186.315 101.724 190.901 97.2034C195.489 92.6796 197.972 85.944 197.972 77.1086H195.972C195.972 85.5748 193.6 91.7337 189.497 95.7791C185.39 99.8276 179.411 101.898 171.918 101.898V103.898ZM197.972 77.1086V44.8722H195.972V77.1086H197.972ZM196.972 43.8722H184.404V45.8722H196.972V43.8722ZM183.404 44.8722V77.5983H185.404V44.8722H183.404ZM183.404 77.5983C183.404 81.9664 182.283 85.1184 180.385 87.1718C178.497 89.2139 175.712 90.3089 172.081 90.3089V92.3089C176.122 92.3089 179.498 91.078 181.854 88.5295C184.199 85.9923 185.404 82.289 185.404 77.5983H183.404ZM172.081 90.3089C168.461 90.3089 165.678 89.1799 163.787 87.0709C161.882 84.9459 160.758 81.687 160.758 77.1902H158.758C158.758 81.997 159.959 85.7976 162.298 88.406C164.651 91.0304 168.03 92.3089 172.081 92.3089V90.3089ZM160.758 77.1902V44.8722H158.758V77.1902H160.758ZM159.758 43.8722H147.19V45.8722H159.758V43.8722ZM146.19 44.8722V77.5166H148.19V44.8722H146.19ZM146.19 77.5166C146.19 86.1054 148.59 92.7375 153.095 97.2205C157.598 101.702 164.065 103.898 171.918 103.898V101.898C164.428 101.898 158.531 99.8088 154.505 95.8028C150.482 91.7983 148.19 85.7398 148.19 77.5166H146.19ZM200.797 102H199.797V103H200.797V102ZM213.365 102V103H214.365V102H213.365ZM213.365 83.7191V82.7191H212.365V83.7191H213.365ZM223.24 83.7191L224.071 83.1627L223.774 82.7191H223.24V83.7191ZM235.481 102L234.65 102.556L234.947 103H235.481V102ZM250.171 102V103H252.067L250.997 101.435L250.171 102ZM236.216 81.5972L235.868 80.6596L234.667 81.1048L235.39 82.1618L236.216 81.5972ZM200.797 44.8722V43.8722H199.797V44.8722H200.797ZM213.365 72.62H212.365V73.62H213.365V72.62ZM213.365 56.2161V55.2161H212.365V56.2161H213.365ZM200.797 103H213.365V101H200.797V103ZM214.365 102V83.7191H212.365V102H214.365ZM213.365 84.7191H223.076V82.7191H213.365V84.7191ZM223.076 84.7191H223.24V82.7191H223.076V84.7191ZM222.409 84.2755L234.65 102.556L236.312 101.444L224.071 83.1627L222.409 84.2755ZM235.481 103H250.171V101H235.481V103ZM250.997 101.435L237.041 81.0326L235.39 82.1618L249.346 102.565L250.997 101.435ZM236.564 82.5348C240.345 81.1328 243.579 78.9048 245.867 75.7817C248.159 72.6534 249.458 68.6865 249.458 63.8876H247.458C247.458 68.3107 246.267 71.8521 244.254 74.5997C242.237 77.3527 239.35 79.3684 235.868 80.6596L236.564 82.5348ZM249.458 63.8876V63.7244H247.458V63.8876H249.458ZM249.458 63.7244C249.458 58.1214 247.67 53.3616 244.268 49.9595L242.854 51.3737C245.817 54.3372 247.458 58.5547 247.458 63.7244H249.458ZM244.268 49.9595C240.274 45.9658 234.357 43.8722 226.912 43.8722V45.8722C233.994 45.8722 239.339 47.8591 242.854 51.3737L244.268 49.9595ZM226.912 43.8722H200.797V45.8722H226.912V43.8722ZM199.797 44.8722V102H201.797V44.8722H199.797ZM214.365 72.62V56.2161H212.365V72.62H214.365ZM213.365 57.2161H225.851V55.2161H213.365V57.2161ZM225.851 57.2161C228.778 57.2161 230.994 57.8818 232.458 59.0568C233.889 60.2046 234.726 61.937 234.726 64.3773H236.726C236.726 61.4312 235.687 59.0831 233.71 57.4969C231.767 55.9379 229.045 55.2161 225.851 55.2161V57.2161ZM234.726 64.3773V64.5405H236.726V64.3773H234.726ZM234.726 64.5405C234.726 66.6897 233.952 68.4211 232.553 69.6289C231.139 70.8501 228.986 71.62 226.096 71.62V73.62C229.327 73.62 231.989 72.7577 233.86 71.1428C235.746 69.5146 236.726 67.2063 236.726 64.5405H234.726ZM226.096 71.62H213.365V73.62H226.096V71.62ZM251.367 102H250.367V103H251.367V102ZM263.936 102V103H264.936V102H263.936ZM263.936 44.8722H264.936V43.8722H263.936V44.8722ZM251.367 44.8722V43.8722H250.367V44.8722H251.367ZM251.367 103H263.936V101H251.367V103ZM264.936 102V44.8722H262.936V102H264.936ZM263.936 43.8722H251.367V45.8722H263.936V43.8722ZM250.367 44.8722V102H252.367V44.8722H250.367ZM292.413 67.8049L292.665 66.8372L292.661 66.8362L292.413 67.8049ZM302.288 60.7864L301.718 61.6081L302.542 62.1795L303.111 61.3541L302.288 60.7864ZM308.817 51.3195L309.64 51.8872L310.168 51.1218L309.443 50.5397L308.817 51.3195ZM286.537 78.904L286.785 77.9354L286.784 77.9351L286.537 78.904ZM272.745 84.78L273.381 84.0088L272.614 83.3758L271.977 84.1392L272.745 84.78ZM265.318 93.6757L264.55 93.0348L263.93 93.7773L264.652 94.4216L265.318 93.6757ZM289.556 103.816C295.879 103.816 301.367 102.184 305.295 98.9913C309.249 95.7784 311.53 91.0573 311.53 85.1065H309.53C309.53 90.4996 307.487 94.6333 304.034 97.4392C300.556 100.266 295.557 101.816 289.556 101.816V103.816ZM311.53 85.1065V84.9433H309.53V85.1065H311.53ZM311.53 84.9433C311.53 79.7068 309.795 75.8888 306.471 73.0161C303.209 70.1969 298.492 68.3555 292.665 66.8372L292.161 68.7726C297.922 70.2739 302.264 72.0234 305.164 74.5293C308.001 76.9818 309.53 80.2231 309.53 84.9433H311.53ZM292.661 66.8362C287.689 65.5624 284.757 64.6542 283.057 63.649C282.235 63.1632 281.771 62.6929 281.498 62.2075C281.225 61.7221 281.09 61.1271 281.09 60.2967H279.09C279.09 61.3433 279.26 62.3092 279.755 63.1882C280.249 64.0673 281.014 64.765 282.039 65.3707C284.032 66.5486 287.262 67.5175 292.165 68.7736L292.661 66.8362ZM281.09 60.2967V60.1335H279.09V60.2967H281.09ZM281.09 60.1335C281.09 59.0827 281.555 58.1321 282.545 57.4125C283.558 56.6754 285.167 56.1552 287.435 56.1552V54.1552C284.887 54.1552 282.823 54.7367 281.368 55.7951C279.889 56.8709 279.09 58.4095 279.09 60.1335H281.09ZM287.435 56.1552C291.96 56.1552 296.737 58.1535 301.718 61.6081L302.858 59.9646C297.719 56.4007 292.539 54.1552 287.435 54.1552V56.1552ZM303.111 61.3541L309.64 51.8872L307.993 50.7517L301.465 60.2186L303.111 61.3541ZM309.443 50.5397C303.468 45.7429 296.146 43.0561 287.598 43.0561V45.0561C295.698 45.0561 302.577 47.5923 308.191 52.0993L309.443 50.5397ZM287.598 43.0561C281.572 43.0561 276.33 44.8266 272.576 48.0174C268.809 51.22 266.603 55.8052 266.603 61.276H268.603C268.603 56.3822 270.559 52.3575 273.872 49.5412C277.198 46.7132 281.953 45.0561 287.598 45.0561V43.0561ZM266.603 61.276V61.4393H268.603V61.276H266.603ZM266.603 61.4393C266.603 67.3745 268.568 71.315 272.138 74.1111C275.618 76.8372 280.547 78.4067 286.289 79.873L286.784 77.9351C281.02 76.4634 276.481 74.9725 273.371 72.5366C270.351 70.1709 268.603 66.848 268.603 61.4393H266.603ZM286.288 79.8727C291.072 81.0992 293.794 82.0867 295.32 83.0947C296.059 83.5827 296.467 84.0443 296.702 84.4961C296.938 84.9487 297.044 85.4749 297.044 86.1674H299.044C299.044 85.2685 298.905 84.3972 298.476 83.572C298.045 82.7461 297.367 82.0498 296.422 81.4259C294.582 80.21 291.55 79.1572 286.785 77.9354L286.288 79.8727ZM297.044 86.1674V86.3307H299.044V86.1674H297.044ZM297.044 86.3307C297.044 87.6433 296.459 88.6854 295.303 89.4419C294.105 90.2263 292.259 90.717 289.801 90.717V92.717C292.485 92.717 294.76 92.1876 296.398 91.1152C298.079 90.0152 299.044 88.3641 299.044 86.3307H297.044ZM289.801 90.717C283.583 90.717 278.415 88.1636 273.381 84.0088L272.108 85.5513C277.357 89.884 282.962 92.717 289.801 92.717V90.717ZM271.977 84.1392L264.55 93.0348L266.086 94.3165L273.512 85.4209L271.977 84.1392ZM264.652 94.4216C271.702 100.716 280.676 103.816 289.556 103.816V101.816C281.135 101.816 272.644 98.8765 265.984 92.9297L264.652 94.4216ZM334.841 67.8049L335.093 66.8372L335.089 66.8362L334.841 67.8049ZM344.716 60.7864L344.146 61.6081L344.97 62.1795L345.539 61.3541L344.716 60.7864ZM351.245 51.3195L352.068 51.8872L352.596 51.1218L351.871 50.5397L351.245 51.3195ZM328.965 78.904L329.213 77.9354L329.212 77.9351L328.965 78.904ZM315.173 84.78L315.809 84.0088L315.042 83.3758L314.405 84.1392L315.173 84.78ZM307.746 93.6757L306.978 93.0348L306.359 93.7773L307.08 94.4216L307.746 93.6757ZM331.985 103.816C338.307 103.816 343.795 102.184 347.724 98.9913C351.677 95.7784 353.959 91.0573 353.959 85.1065H351.959C351.959 90.4996 349.915 94.6333 346.462 97.4392C342.984 100.266 337.986 101.816 331.985 101.816V103.816ZM353.959 85.1065V84.9433H351.959V85.1065H353.959ZM353.959 84.9433C353.959 79.7068 352.224 75.8888 348.9 73.0161C345.637 70.1969 340.92 68.3555 335.093 66.8372L334.589 68.7726C340.351 70.2739 344.692 72.0234 347.592 74.5293C350.429 76.9818 351.959 80.2231 351.959 84.9433H353.959ZM335.089 66.8362C330.117 65.5624 327.186 64.6542 325.485 63.649C324.663 63.1632 324.199 62.6929 323.926 62.2075C323.653 61.7221 323.518 61.1271 323.518 60.2967H321.518C321.518 61.3433 321.689 62.3092 322.183 63.1882C322.678 64.0673 323.443 64.765 324.467 65.3707C326.46 66.5486 329.69 67.5175 334.593 68.7736L335.089 66.8362ZM323.518 60.2967V60.1335H321.518V60.2967H323.518ZM323.518 60.1335C323.518 59.0827 323.983 58.1321 324.973 57.4125C325.986 56.6754 327.595 56.1552 329.863 56.1552V54.1552C327.315 54.1552 325.252 54.7367 323.796 55.7951C322.317 56.8709 321.518 58.4095 321.518 60.1335H323.518ZM329.863 56.1552C334.388 56.1552 339.165 58.1535 344.146 61.6081L345.286 59.9646C340.147 56.4007 334.968 54.1552 329.863 54.1552V56.1552ZM345.539 61.3541L352.068 51.8872L350.422 50.7517L343.893 60.2186L345.539 61.3541ZM351.871 50.5397C345.896 45.7429 338.574 43.0561 330.026 43.0561V45.0561C338.126 45.0561 345.005 47.5923 350.619 52.0993L351.871 50.5397ZM330.026 43.0561C324 43.0561 318.758 44.8266 315.005 48.0174C311.237 51.22 309.031 55.8052 309.031 61.276H311.031C311.031 56.3822 312.987 52.3575 316.3 49.5412C319.626 46.7132 324.381 45.0561 330.026 45.0561V43.0561ZM309.031 61.276V61.4393H311.031V61.276H309.031ZM309.031 61.4393C309.031 67.3745 310.997 71.315 314.566 74.1111C318.047 76.8372 322.975 78.4067 328.718 79.873L329.212 77.9351C323.448 76.4634 318.909 74.9725 315.8 72.5366C312.779 70.1709 311.031 66.848 311.031 61.4393H309.031ZM328.717 79.8727C333.5 81.0992 336.222 82.0867 337.748 83.0947C338.487 83.5827 338.895 84.0443 339.13 84.4961C339.366 84.9487 339.472 85.4749 339.472 86.1674H341.472C341.472 85.2685 341.334 84.3972 340.904 83.572C340.474 82.7461 339.795 82.0498 338.851 81.4259C337.01 80.21 333.979 79.1572 329.213 77.9354L328.717 79.8727ZM339.472 86.1674V86.3307H341.472V86.1674H339.472ZM339.472 86.3307C339.472 87.6433 338.887 88.6854 337.731 89.4419C336.533 90.2263 334.688 90.717 332.229 90.717V92.717C334.913 92.717 337.189 92.1876 338.827 91.1152C340.507 90.0152 341.472 88.3641 341.472 86.3307H339.472ZM332.229 90.717C326.011 90.717 320.843 88.1636 315.809 84.0088L314.536 85.5513C319.785 89.884 325.39 92.717 332.229 92.717V90.717ZM314.405 84.1392L306.978 93.0348L308.514 94.3165L315.94 85.4209L314.405 84.1392ZM307.08 94.4216C314.13 100.716 323.104 103.816 331.985 103.816V101.816C323.563 101.816 315.073 98.8765 308.412 92.9297L307.08 94.4216ZM355.46 102H354.46V103H355.46V102ZM368.028 102V103H369.028V102H368.028ZM368.028 44.8722H369.028V43.8722H368.028V44.8722ZM355.46 44.8722V43.8722H354.46V44.8722H355.46ZM355.46 103H368.028V101H355.46V103ZM369.028 102V44.8722H367.028V102H369.028ZM368.028 43.8722H355.46V45.8722H368.028V43.8722ZM354.46 44.8722V102H356.46V44.8722H354.46ZM373.328 102H372.328V103H373.328V102ZM414.378 102V103H415.378V102H414.378ZM414.378 90.5744H415.378V89.5744H414.378V90.5744ZM385.896 90.5744H384.896V91.5744H385.896V90.5744ZM385.896 44.8722H386.896V43.8722H385.896V44.8722ZM373.328 44.8722V43.8722H372.328V44.8722H373.328ZM373.328 103H414.378V101H373.328V103ZM415.378 102V90.5744H413.378V102H415.378ZM414.378 89.5744H385.896V91.5744H414.378V89.5744ZM386.896 90.5744V44.8722H384.896V90.5744H386.896ZM385.896 43.8722H373.328V45.8722H385.896V43.8722ZM372.328 44.8722V102H374.328V44.8722H372.328ZM414.879 102H413.879V103H414.879V102ZM427.203 102V103H428.203V102H427.203ZM427.203 64.9485L428.038 64.3984L426.203 61.6128V64.9485H427.203ZM443.117 89.1054L442.282 89.6556L442.578 90.1054H443.117V89.1054ZM443.443 89.1054V90.1054H443.982L444.278 89.6556L443.443 89.1054ZM459.521 64.7037H460.521V61.3683L458.686 64.1535L459.521 64.7037ZM459.521 102H458.521V103H459.521V102ZM472.007 102V103H473.007V102H472.007ZM472.007 44.8722H473.007V43.8722H472.007V44.8722ZM458.46 44.8722V43.8722H457.904L457.61 44.3442L458.46 44.8722ZM443.443 69.0291L442.594 69.557L443.443 70.9233L444.292 69.557L443.443 69.0291ZM428.427 44.8722L429.276 44.3442L428.983 43.8722H428.427V44.8722ZM414.879 44.8722V43.8722H413.879V44.8722H414.879ZM414.879 103H427.203V101H414.879V103ZM428.203 102V64.9485H426.203V102H428.203ZM426.367 65.4987L442.282 89.6556L443.952 88.5553L428.038 64.3984L426.367 65.4987ZM443.117 90.1054H443.443V88.1054H443.117V90.1054ZM444.278 89.6556L460.356 65.2539L458.686 64.1535L442.608 88.5553L444.278 89.6556ZM458.521 64.7037V102H460.521V64.7037H458.521ZM459.521 103H472.007V101H459.521V103ZM473.007 102V44.8722H471.007V102H473.007ZM472.007 43.8722H458.46V45.8722H472.007V43.8722ZM457.61 44.3442L442.594 68.5012L444.292 69.557L459.309 45.4001L457.61 44.3442ZM444.292 68.5012L429.276 44.3442L427.577 45.4001L442.594 69.557L444.292 68.5012ZM428.427 43.8722H414.879V45.8722H428.427V43.8722ZM413.879 44.8722V102H415.879V44.8722H413.879ZM504.502 103.979C522.673 103.979 535.943 90.2379 535.943 73.4361H533.943C533.943 89.1155 521.586 101.979 504.502 101.979V103.979ZM535.943 73.4361V73.2729H533.943V73.4361H535.943ZM535.943 73.2729C535.943 56.471 522.836 42.8929 504.665 42.8929V44.8929C521.75 44.8929 533.943 57.5935 533.943 73.2729H535.943ZM504.665 42.8929C486.494 42.8929 473.224 56.6343 473.224 73.4361H475.224C475.224 57.7567 487.58 44.8929 504.665 44.8929V42.8929ZM473.224 73.4361V73.5993H475.224V73.4361H473.224ZM473.224 73.5993C473.224 90.4012 486.33 103.979 504.502 103.979V101.979C487.417 101.979 475.224 89.2787 475.224 73.5993H473.224ZM504.665 90.3905C495.157 90.3905 488.363 82.7389 488.363 73.4361H486.363C486.363 83.7199 493.933 92.3905 504.665 92.3905V90.3905ZM488.363 73.4361V73.2729H486.363V73.4361H488.363ZM488.363 73.2729C488.363 63.9692 494.995 56.4816 504.502 56.4816V54.4816C493.769 54.4816 486.363 62.9898 486.363 73.2729H488.363ZM504.502 56.4816C514.009 56.4816 520.803 64.1333 520.803 73.4361H522.803C522.803 63.1522 515.234 54.4816 504.502 54.4816V56.4816ZM520.803 73.4361V73.5993H522.803V73.4361H520.803ZM520.803 73.5993C520.803 82.903 514.172 90.3905 504.665 90.3905V92.3905C515.398 92.3905 522.803 83.8823 522.803 73.5993H520.803Z" fill="#FFED00"/>
<mask id="path-3-inside-1" fill="white">
<path fill-rule="evenodd" clip-rule="evenodd" d="M559.427 31.3372V51.382L560.997 85.1348H573.86L575.568 51.4659L575.573 31.3372H559.427ZM567.435 90.3268C562.144 90.3268 558 93.9786 558 98.6414C558 103.304 562.144 106.956 567.435 106.956C572.888 106.956 577 103.381 577 98.6414C577 93.9004 572.888 90.3268 567.435 90.3268Z"/>
</mask>
<path fill-rule="evenodd" clip-rule="evenodd" d="M559.427 31.3372V51.382L560.997 85.1348H573.86L575.568 51.4659L575.573 31.3372H559.427ZM567.435 90.3268C562.144 90.3268 558 93.9786 558 98.6414C558 103.304 562.144 106.956 567.435 106.956C572.888 106.956 577 103.381 577 98.6414C577 93.9004 572.888 90.3268 567.435 90.3268Z" fill="#FFED00"/>
<path d="M559.427 51.382H558.427V51.4052L558.428 51.4284L559.427 51.382ZM559.427 31.3372V30.3372H558.427V31.3372H559.427ZM560.997 85.1348L559.998 85.1813L560.042 86.1348H560.997V85.1348ZM573.86 85.1348V86.1348H574.811L574.859 85.1855L573.86 85.1348ZM575.568 51.4659L576.567 51.5166L576.568 51.4913L576.568 51.4661L575.568 51.4659ZM575.573 31.3372L576.573 31.3374L576.573 30.3372H575.573V31.3372ZM560.427 51.382V31.3372H558.427V51.382H560.427ZM561.996 85.0884L560.426 51.3355L558.428 51.4284L559.998 85.1813L561.996 85.0884ZM573.86 84.1348H560.997V86.1348H573.86V84.1348ZM574.57 51.4152L572.861 85.0842L574.859 85.1855L576.567 51.5166L574.57 51.4152ZM574.573 31.3369L574.568 51.4657L576.568 51.4661L576.573 31.3374L574.573 31.3369ZM559.427 32.3372H575.573V30.3372H559.427V32.3372ZM559 98.6414C559 94.646 562.574 91.3268 567.435 91.3268V89.3268C561.715 89.3268 557 93.3112 557 98.6414H559ZM567.435 105.956C562.574 105.956 559 102.637 559 98.6414H557C557 103.972 561.715 107.956 567.435 107.956V105.956ZM576 98.6414C576 102.702 572.472 105.956 567.435 105.956V107.956C573.304 107.956 578 104.061 578 98.6414H576ZM567.435 91.3268C572.472 91.3268 576 94.5797 576 98.6414H578C578 93.2212 573.304 89.3268 567.435 89.3268V91.3268Z" fill="#FFED00" mask="url(#path-3-inside-1)"/>
</svg>
