<svg width="22" height="17" viewBox="0 0 22 17" fill="none" xmlns="http://www.w3.org/2000/svg">
<path fill-rule="evenodd" clip-rule="evenodd" d="M18.743 1.22168C19.6332 1.4834 20.3342 2.25391 20.5721 3.23242C21.0045 5.00488 21.0045 8.70459 21.0045 8.70459C21.0045 8.70459 21.0045 12.4048 20.5721 14.1768C20.3342 15.1558 19.6332 15.9263 18.743 16.188C17.1297 16.6626 10.6605 16.6626 10.6605 16.6626C10.6605 16.6626 4.19073 16.6626 2.57745 16.188C1.68707 15.9263 0.986267 15.1558 0.748352 14.1768C0.315979 12.4048 0.315979 8.70459 0.315979 8.70459C0.315979 8.70459 0.315979 5.00488 0.748352 3.23242C0.986267 2.25391 1.68707 1.4834 2.57745 1.22168C4.19073 0.74707 10.6605 0.74707 10.6605 0.74707C10.6605 0.74707 17.1297 0.74707 18.743 1.22168ZM8.54437 5.34619V12.0635L13.9515 8.70459L8.54437 5.34619Z" fill="white"/>
</svg>
