<svg width="50" height="52" viewBox="0 0 50 52" fill="none" xmlns="http://www.w3.org/2000/svg">
<g clip-path="url(#clip0)">
<g clip-path="url(#clip1)">
<path d="M22.337 39.9245C17.0426 39.9246 12.0333 37.9879 8.12296 34.4374L6.16118 36.4623C5.89152 36.7408 5.44704 36.7479 5.16859 36.4781C4.89015 36.2083 4.88312 35.7639 5.15291 35.4855L7.5952 32.9646C7.72471 32.8308 7.90208 32.7541 8.08822 32.7512C8.27154 32.7461 8.45395 32.8193 8.58778 32.9488C12.3809 36.6236 17.3759 38.597 22.6587 38.5182C27.9394 38.4347 32.8715 36.2998 36.5463 32.5067C44.1327 24.6765 43.9343 12.1344 36.1044 4.54793C35.8259 4.27814 35.8189 3.8338 36.0886 3.55534L38.5308 1.03457C38.8008 0.756111 39.2451 0.749091 39.5234 1.01889C39.8019 1.28868 39.8089 1.73303 39.5392 2.01147L37.5773 4.03643C45.4718 12.2033 45.5159 25.2665 37.5546 33.4836C33.6187 37.546 28.3365 39.8326 22.6808 39.9219C22.5663 39.9236 22.4513 39.9245 22.337 39.9245Z" fill="#353030"/>
</g>
<path d="M30.453 44.3574H26.9432C26.5556 44.3574 26.2412 44.043 26.2412 43.6554V38.9756C26.2412 38.588 26.5556 38.2736 26.9432 38.2736C27.3308 38.2736 27.6452 38.588 27.6452 38.9756V42.9534H29.7511V38.053C29.7511 37.6654 30.0654 37.3511 30.453 37.3511C30.8407 37.3511 31.155 37.6654 31.155 38.053V43.6554C31.155 44.043 30.8408 44.3574 30.453 44.3574Z" fill="#353030"/>
<path fill-rule="evenodd" clip-rule="evenodd" d="M4.65723 17.9024C4.65723 27.3211 12.32 34.9837 21.7385 34.9837C31.1572 34.9837 38.8199 27.3211 38.8199 17.9024C38.8199 8.48366 31.1571 0.821045 21.7385 0.821045C12.32 0.821045 4.65723 8.48366 4.65723 17.9024ZM6.06117 17.9024C6.06117 9.25781 13.094 2.22499 21.7385 2.22499C30.383 2.22499 37.4159 9.25781 37.4159 17.9024C37.4159 26.5469 30.383 33.5797 21.7385 33.5797C13.094 33.5797 6.06117 26.5469 6.06117 17.9024Z" fill="#353030"/>
<path d="M21.7374 34.9838C18.201 34.9838 15.1032 31.1906 13.653 25.0846C13.5633 24.7074 13.7965 24.329 14.1737 24.2394C14.551 24.1498 14.9293 24.383 15.0189 24.7602C16.2916 30.118 18.9286 33.58 21.7374 33.58C23.6452 33.58 25.4787 32.014 26.9005 29.1707C28.3995 26.1727 29.225 22.171 29.225 17.9026C29.225 16.3437 29.1135 14.804 28.8937 13.3262C28.8367 12.9429 29.1013 12.5856 29.4848 12.5287C29.8677 12.4718 30.2253 12.7362 30.2823 13.1197C30.5123 14.6656 30.629 16.2749 30.629 17.9028C30.629 22.3847 29.7508 26.6094 28.1562 29.7987C26.4842 33.1423 24.2047 34.9838 21.7374 34.9838Z" fill="#353030"/>
<path d="M13.5482 18.6043C13.1606 18.6043 12.8462 18.29 12.8462 17.9024C12.8462 13.4204 13.7244 9.19569 15.319 6.00651C16.991 2.66255 19.2705 0.821045 21.7379 0.821045C24.4596 0.821045 26.9823 3.11006 28.6587 7.10136C28.8088 7.45877 28.6408 7.87025 28.2833 8.02035C27.9258 8.17057 27.5145 8.00256 27.3643 7.64503C25.9175 4.20057 23.8667 2.22499 21.738 2.22499C19.8301 2.22499 17.9966 3.79097 16.5748 6.63431C15.0758 9.63231 14.2503 13.6341 14.2503 17.9024C14.2502 18.29 13.9359 18.6043 13.5482 18.6043Z" fill="#353030"/>
<path d="M38.1179 18.604H5.35919C4.9716 18.604 4.65723 18.2896 4.65723 17.9021C4.65723 17.5145 4.9716 17.2001 5.35919 17.2001H38.1179C38.5055 17.2001 38.8199 17.5145 38.8199 17.9021C38.8199 18.2896 38.5055 18.604 38.1179 18.604Z" fill="#353030"/>
<path d="M21.7381 34.9838C21.3505 34.9838 21.0361 34.6694 21.0361 34.2818V1.52302C21.0361 1.13541 21.3505 0.821045 21.7381 0.821045C22.1257 0.821045 22.4401 1.13541 22.4401 1.52302V34.2818C22.4401 34.6694 22.1258 34.9838 21.7381 34.9838Z" fill="#353030"/>
<path fill-rule="evenodd" clip-rule="evenodd" d="M12.4022 51.3767H36.9712C37.3588 51.3767 37.6732 51.0623 37.6732 50.6747V43.655C37.6732 43.2674 37.3588 42.953 36.9712 42.953H12.4022C12.0146 42.953 11.7002 43.2674 11.7002 43.655V50.6747C11.7002 51.0623 12.0146 51.3767 12.4022 51.3767ZM36.2692 49.9727H13.1041V44.357H36.2692V49.9727Z" fill="#353030"/>
<g clip-path="url(#clip2)">
<path d="M47.5001 51.377H0.701977C0.314247 51.377 0 51.0626 0 50.675C0 50.2874 0.314247 49.973 0.701977 49.973H47.5001C47.8877 49.973 48.2021 50.2874 48.2021 50.675C48.2021 51.0626 47.8877 51.377 47.5001 51.377Z" fill="#353030"/>
</g>
<path fill-rule="evenodd" clip-rule="evenodd" d="M1.16992 43.0699C1.16992 44.4247 2.27203 45.5269 3.62683 45.5269C4.98164 45.5269 6.08373 44.4247 6.08373 43.0699C6.08373 41.7153 4.98164 40.613 3.62683 40.613C2.27203 40.613 1.16992 41.7153 1.16992 43.0699ZM2.57388 43.0699C2.57388 42.4893 3.0463 42.017 3.62683 42.017C4.20735 42.017 4.67979 42.4893 4.67979 43.0699C4.67979 43.6506 4.20735 44.1229 3.62683 44.1229C3.0463 44.1229 2.57388 43.6506 2.57388 43.0699Z" fill="#353030"/>
<path fill-rule="evenodd" clip-rule="evenodd" d="M43.873 29.616C43.873 31.2934 45.2375 32.6579 46.9149 32.6579C48.5923 32.6579 49.9568 31.2934 49.9568 29.616C49.9568 27.9386 48.5923 26.5741 46.9149 26.5741C45.2375 26.5741 43.873 27.9386 43.873 29.616ZM45.277 29.616C45.277 28.7128 46.0117 27.9781 46.9149 27.9781C47.8181 27.9781 48.5528 28.7128 48.5528 29.616C48.5528 30.5192 47.8181 31.2539 46.9149 31.2539C46.0117 31.2539 45.277 30.5192 45.277 29.616Z" fill="#353030"/>
</g>
<defs>
<clipPath id="clip0">
<rect width="49.9568" height="50.556" fill="white" transform="translate(0 0.821045)"/>
</clipPath>
<clipPath id="clip1">
<rect width="38.5568" height="39.1035" fill="white" transform="translate(4.95508 0.821045)"/>
</clipPath>
<clipPath id="clip2">
<rect width="48.2021" height="1.40396" fill="white" transform="translate(0 49.973)"/>
</clipPath>
</defs>
</svg>
