<svg width="16" height="16" viewBox="0 0 16 16" fill="none" xmlns="http://www.w3.org/2000/svg">
<path fill-rule="evenodd" clip-rule="evenodd" d="M12.0699 9.90524L15.7509 13.5909C16.0798 13.921 16.0798 14.4561 15.7713 14.7647C15.6068 14.93 15.3805 15.0116 15.175 15.0116C14.9489 15.0116 14.7431 14.93 14.5786 14.7647L10.8773 11.0994C9.7872 11.9437 8.47128 12.3553 7.155 12.3553C5.57175 12.3553 4.00888 11.7585 2.79562 10.5428C0.38974 8.13404 0.38974 4.22124 2.79562 1.81194C4.00888 0.597839 5.57175 -6.10352e-05 7.155 -6.10352e-05C8.73849 -6.10352e-05 10.3014 0.597839 11.5146 1.81194C13.7354 4.01574 13.9206 7.49584 12.0699 9.90524ZM3.98825 9.37014C4.85202 10.2138 5.96237 10.6877 7.17563 10.6877C8.3685 10.6877 9.51999 10.2347 10.3631 9.37014C11.2061 8.50434 11.6792 7.39284 11.6792 6.17824C11.6792 4.96304 11.2267 3.83054 10.3631 2.98624C9.49924 2.14204 8.38889 1.66864 7.17563 1.66864C5.96237 1.66864 4.83139 2.14204 3.98825 2.98624C2.24045 4.75694 2.24045 7.61934 3.98825 9.37014Z" fill="#353030"/>
</svg>
