<svg width="11" height="14" viewBox="0 0 11 14" fill="none" xmlns="http://www.w3.org/2000/svg">
<path d="M9.50998 1.41309C8.63637 0.505981 7.42757 0.00598145 6.10597 0.00598145C4.08717 0.00598145 2.84547 0.901184 2.15938 1.6521C1.31387 2.57788 0.828979 3.80658 0.828979 5.02399C0.828979 6.55286 1.41988 7.72559 2.40938 8.16217C2.47577 8.1911 2.54268 8.2063 2.60828 8.2063C2.81697 8.2063 2.98238 8.05798 3.03967 7.82068C3.07307 7.68536 3.15038 7.35016 3.18407 7.2041C3.25607 6.91638 3.19777 6.77826 3.04088 6.57776C2.75458 6.21198 2.62137 5.77826 2.62137 5.21484C2.62137 3.53986 3.77388 1.76019 5.91028 1.76019C7.60527 1.76019 8.65828 2.80206 8.65828 4.47986C8.65828 5.53876 8.44757 6.52008 8.06467 7.24084C7.79868 7.74255 7.33067 8.33997 6.61258 8.33997C6.30188 8.33997 6.02298 8.20288 5.84688 7.96167C5.68068 7.73407 5.62587 7.4408 5.69267 7.1344C5.76817 6.7879 5.87128 6.42719 5.97098 6.07776C6.15268 5.44019 6.32487 4.83887 6.32487 4.35864C6.32487 3.5365 5.85808 2.9856 5.16327 2.9856C4.28047 2.9856 3.58897 3.95496 3.58897 5.19385C3.58897 5.80145 3.73807 6.25507 3.80568 6.42999C3.69437 6.9397 3.03337 9.97015 2.90807 10.5421C2.83557 10.875 2.39877 13.5109 3.12167 13.7209C3.93387 13.9571 4.65987 11.3903 4.73357 11.0998C4.79337 10.8649 5.00307 9.97247 5.13158 9.42487C5.52347 9.83258 6.15477 10.1089 6.76888 10.1089C7.92688 10.1089 8.96817 9.54547 9.70117 8.52167C10.412 7.52966 10.8036 6.14575 10.8036 4.62537C10.8036 3.43799 10.3321 2.26697 9.50998 1.41309Z" fill="#353030"/>
</svg>
