<svg width="46" height="65" viewBox="0 0 46 65" fill="none" xmlns="http://www.w3.org/2000/svg">
<path d="M38.3501 29.7551C38.3501 30.1417 38.6635 30.4551 39.0501 30.4551C39.8401 30.4551 40.7101 29.2551 40.7101 27.6451C40.8354 26.5205 40.2763 25.4299 39.2901 24.8751C38.9153 24.7624 38.5183 24.9653 38.3901 25.3351C38.3309 25.5061 38.3444 25.6939 38.4276 25.8546C38.5108 26.0153 38.6563 26.1347 38.8301 26.1851C39.1889 26.5827 39.3664 27.1115 39.3201 27.6451C39.3611 28.1668 39.1959 28.6838 38.8601 29.0851C38.5598 29.1698 38.3518 29.443 38.3501 29.7551Z" fill="#353030"/>
<path d="M7.15004 29.0852C6.81672 28.6864 6.65174 28.1735 6.69004 27.6552C6.66047 27.141 6.82458 26.6344 7.15004 26.2352C7.49456 26.1349 7.70748 25.7904 7.64307 25.4374C7.57865 25.0844 7.25777 24.8373 6.90004 24.8652C6.14004 24.9252 5.29004 26.0752 5.29004 27.6452C5.29004 29.2152 6.15004 30.4752 6.93004 30.4752C7.27655 30.4738 7.56992 30.2192 7.61997 29.8763C7.67003 29.5334 7.4617 29.2055 7.13004 29.1052L7.15004 29.0852Z" fill="#353030"/>
<path d="M11.5105 14.7245C11.864 14.8783 12.2753 14.7174 12.4305 14.3645C12.5105 14.1945 14.3605 10.1245 21.3205 10.2445C21.7071 10.2445 22.0205 9.93114 22.0205 9.54454C22.0205 9.15794 21.7071 8.84454 21.3205 8.84454C13.3905 8.74454 11.2105 13.6045 11.1205 13.8445C10.9962 14.1949 11.1675 14.5813 11.5105 14.7245Z" fill="#353030"/>
<path d="M38.5301 59.475H30.5301C30.1435 59.475 29.8301 59.7884 29.8301 60.175C29.8301 60.5616 30.1435 60.875 30.5301 60.875L38.5301 60.875C38.9167 60.875 39.2301 60.5616 39.2301 60.175C39.2301 59.7884 38.9167 59.475 38.5301 59.475Z" fill="#353030"/>
<path fill-rule="evenodd" clip-rule="evenodd" d="M38.7702 48.1751L31.5902 46.2551V44.0751C31.5891 43.8565 31.4859 43.651 31.3112 43.5195C31.1366 43.3881 30.9106 43.3457 30.7002 43.4051L29.7002 43.6851C34.1021 41.5761 37.4254 37.7273 38.8702 33.0651C41.2702 33.1851 43.2802 30.6951 43.2802 27.6551C43.2802 24.8351 41.5702 22.5051 39.3902 22.2651C40.5902 17.1351 40.8302 10.4751 37.9102 7.47507C36.6845 6.22088 34.9151 5.65859 33.1902 5.97507C28.2868 -3.79199 7.58008 2.42297 6.54998 2.73215L6.54024 2.73507C6.30208 2.80911 6.12131 3.00427 6.06568 3.24738C6.01006 3.49049 6.08798 3.74484 6.27024 3.91507C7.14023 4.72507 8.49024 6.36507 8.44024 7.29507C8.43727 7.47223 8.34758 7.63666 8.20024 7.73507C4.12024 10.7751 3.33023 15.6051 5.81024 22.4751C3.79151 23.3939 2.54719 25.4611 2.68023 27.6751C2.68023 30.4151 4.25023 32.6751 6.34023 33.0251C7.72941 37.4978 10.8468 41.2308 15.0002 43.3951C14.9069 43.4134 14.8184 43.4509 14.7402 43.5051C14.564 43.6373 14.4602 43.8447 14.4602 44.0651L14.4602 46.2551L7.23023 48.1751C3.25886 49.2379 0.495199 52.8339 0.490236 56.9451L0.490234 63.7751C0.490234 64.1617 0.803637 64.4751 1.19024 64.4751H44.8102C45.1968 64.4751 45.5102 64.1617 45.5102 63.7751V56.9451C45.5053 52.8339 42.7416 49.2379 38.7702 48.1751ZM21.4902 45.2551H22.2502H22.6302H22.8402H23.5302H24.1802L24.7602 45.1851L25.4902 45.0851C25.4583 45.1285 25.4314 45.1755 25.4102 45.2251V45.2851C25.3976 45.3612 25.3976 45.4389 25.4102 45.5151L25.4102 48.3651C25.2041 48.4407 24.9938 48.5041 24.7802 48.5551L24.3702 48.6351H24.2302C23.4211 48.7523 22.5993 48.7523 21.7902 48.6351H21.6502L21.2302 48.4751C21.0167 48.4241 20.8063 48.3607 20.6002 48.2851V45.4751C20.5987 45.3819 20.5783 45.2901 20.5402 45.2051H20.9702L21.4902 45.2551ZM19.2102 47.6251V45.9951L15.8202 45.0051V46.3951L19.2102 47.6251ZM21.1302 49.9351L21.7702 50.0451H22.0002H22.1502H23.0302H23.9102H24.0702H24.2402L24.8802 49.9351L24.1802 51.2051H21.8302L21.1302 49.9351ZM28.4502 47.0251L30.1902 46.3951L30.1902 44.9951L26.8002 45.9951V47.6251L28.4502 47.0251ZM9.00023 8.82507C9.4792 8.48004 9.77393 7.93479 9.80023 7.34507C9.87023 6.09507 8.80023 4.64507 8.02024 3.73507C12.4302 2.56507 28.6602 -1.12493 32.1002 6.99507C32.2277 7.30158 32.5555 7.47384 32.8802 7.40507C34.2959 6.97261 35.8346 7.3573 36.8802 8.40507C39.0202 10.6451 39.4302 16.2151 37.9402 22.4051C36.1102 22.3051 33.9402 18.1451 33.0702 15.9751C33.0034 15.7984 32.8679 15.6562 32.6947 15.5809C32.5214 15.5056 32.3251 15.5035 32.1502 15.5751C32.1424 15.5771 32.0945 15.5957 32.0096 15.6286C30.4587 16.2299 16.5723 21.6133 9.85023 18.4751C9.54777 18.334 9.1878 18.4261 8.99023 18.6951L7.00023 21.4751C4.88023 15.4751 5.56024 11.4751 9.00023 8.82507ZM32.8002 24.8151C33.634 24.8138 34.3904 25.3037 34.7302 26.0651L37.0602 23.5851C34.6502 22.6751 32.7602 18.7451 32.0602 17.0951C29.0602 18.2651 16.8002 22.6951 9.80023 19.9551L7.68023 22.8851L11.2002 26.3051C11.4706 25.4254 12.28 24.8224 13.2002 24.8151L20.3502 24.8151C20.9142 24.8123 21.4555 25.0365 21.8524 25.4371C22.2492 25.8378 22.4683 26.3812 22.4602 26.9451L23.5402 26.9451C23.5322 26.3812 23.7512 25.8378 24.1481 25.4371C24.545 25.0365 25.0863 24.8123 25.6502 24.8151H32.8002ZM25.0002 27.0751C24.9511 26.8628 25.0022 26.6397 25.1388 26.4699C25.2754 26.3002 25.4824 26.2025 25.7002 26.2051L32.8002 26.2051C33.1901 26.2104 33.5048 26.5252 33.5102 26.9151V28.3551C33.5048 28.7449 33.1901 29.0597 32.8002 29.0651H26.0002C25.665 29.0641 25.3747 28.8319 25.3002 28.5051L25.0002 27.0751ZM20.7302 28.4751L21.0002 27.0751L21.0502 27.0851C21.0994 26.8728 21.0483 26.6497 20.9117 26.4799C20.7751 26.3102 20.5681 26.2125 20.3502 26.2151H13.2002C12.8104 26.2205 12.4956 26.5352 12.4902 26.9251V28.3251C12.4956 28.7149 12.8104 29.0297 13.2002 29.0351L20.0302 29.0351C20.3655 29.0341 20.6557 28.8019 20.7302 28.4751ZM7.50023 32.1651C7.4177 31.8717 7.15482 31.6654 6.85024 31.6551C5.30023 31.6551 4.03023 29.8151 4.03023 27.6551C4.03023 25.6551 5.09023 24.0151 6.48023 23.7251L11.0302 28.1551V28.3651C11.03 28.9352 11.2605 29.4812 11.6693 29.8787C12.0781 30.2762 12.6303 30.4913 13.2002 30.4751L20.0002 30.4751C20.9903 30.4706 21.8454 29.7815 22.0602 28.8151L22.1602 28.3451H23.7602L23.8602 28.8151C24.0811 29.8113 24.9804 30.5089 26.0002 30.4751L32.8002 30.4751C33.9656 30.4751 34.9102 29.5304 34.9102 28.3651V27.9151L38.9102 23.6551H39.0902C40.6702 23.6551 41.9602 25.4551 41.9602 27.6551C41.9602 29.8551 40.6702 31.6551 39.0902 31.6551C38.9314 31.65 38.7737 31.6265 38.6202 31.5851C38.254 31.4955 37.8826 31.7122 37.7802 32.0751C36.3383 37.4374 32.227 41.6734 26.9102 43.2751L26.2702 43.4551L25.8802 43.5351C25.061 43.7167 24.2282 43.8304 23.3902 43.8751H22.8502H22.2702H21.6002H21.1202L20.2702 43.7651H19.9802C13.9553 42.6018 9.12641 38.0954 7.55023 32.1651H7.50023ZM7.59023 49.5251C4.23103 50.425 1.89388 53.4674 1.89023 56.9451V63.0751H3.34024V60.1351C3.34024 59.7485 3.65364 59.4351 4.04024 59.4351C4.42684 59.4351 4.74024 59.7485 4.74024 60.1351V63.0751H18.7402L20.6802 51.9451L19.0802 49.0451L18.9502 48.9551H18.9002L14.9502 47.5251L7.59023 49.5251ZM20.1602 63.0751L22.0002 52.5951H24.0002L25.8402 63.0751H20.1602ZM42.6702 63.0751H44.1102L44.0602 56.9851C44.0566 53.5074 41.7194 50.465 38.3602 49.5651L31.0002 47.5651L27.1002 49.0251H27.0502L26.9202 49.1151L25.3202 52.0151L27.2702 63.0751H41.2702L41.2702 60.1351C41.2702 59.7485 41.5836 59.4351 41.9702 59.4351C42.3568 59.4351 42.6702 59.7485 42.6702 60.1351V63.0751Z" fill="#353030"/>
</svg>
