<svg width="16" height="17" viewBox="0 0 16 17" fill="none" xmlns="http://www.w3.org/2000/svg">
<path fill-rule="evenodd" clip-rule="evenodd" d="M4.3324 2.62476C4.3324 3.52344 3.67761 4.25171 2.60034 4.25171C1.58685 4.25171 0.932129 3.52344 0.932129 2.62476C0.932129 1.7041 1.60803 0.998047 2.6427 0.998047C3.67761 0.998047 4.31152 1.7041 4.3324 2.62476ZM1.0166 16.0024V5.53589H4.22705V16.0024H1.0166ZM6.06413 5.53664C6.10612 6.47829 6.14811 7.57009 6.14811 8.87527V16.0032H9.35868V9.96682C9.35868 9.6675 9.37992 9.36794 9.4647 9.15383C9.697 8.55422 10.2246 7.9341 11.1117 7.9341C12.2734 7.9341 12.7381 8.85378 12.7381 10.2024V16.0032H15.9487V9.81692C15.9487 6.73488 14.3646 5.30105 12.2526 5.30105C10.5205 5.30105 9.48552 6.30666 9.06321 6.99196H8.99992L8.85173 5.53664H6.06413Z" fill="#150D46"/>
</svg>
