<svg width="16" height="16" viewBox="0 0 16 16" fill="none" xmlns="http://www.w3.org/2000/svg">
<path fill-rule="evenodd" clip-rule="evenodd" d="M11.1127 9.9053L14.7937 13.591C15.1226 13.9211 15.1226 14.4562 14.8141 14.7648C14.6496 14.9301 14.4232 15.0117 14.2178 15.0117C13.9917 15.0117 13.7859 14.9301 13.6214 14.7648L9.92007 11.0995C8.82999 11.9438 7.51407 12.3554 6.19778 12.3554C4.61453 12.3554 3.05167 11.7586 1.83841 10.5429C-0.567474 8.1341 -0.567474 4.2213 1.83841 1.812C3.05167 0.5979 4.61453 0 6.19778 0C7.78128 0 9.34415 0.5979 10.5574 1.812C12.7782 4.0158 12.9634 7.4959 11.1127 9.9053ZM3.03104 9.3702C3.89481 10.2139 5.00516 10.6878 6.21841 10.6878C7.41129 10.6878 8.56277 10.2348 9.40591 9.3702C10.2489 8.5044 10.722 7.3929 10.722 6.1783C10.722 4.9631 10.2694 3.8306 9.40591 2.9863C8.54202 2.1421 7.43167 1.6687 6.21841 1.6687C5.00516 1.6687 3.87418 2.1421 3.03104 2.9863C1.28323 4.757 1.28323 7.6194 3.03104 9.3702Z" fill="white"/>
</svg>
