<svg width="69" height="39" viewBox="0 0 69 39" fill="none" xmlns="http://www.w3.org/2000/svg">
<g clip-path="url(#clip0)">
<path fill-rule="evenodd" clip-rule="evenodd" d="M36.0952 18.2883C36.5136 18.8489 40.0143 23.5388 45.0986 23.5388C46.7307 23.5388 48.5668 22.9947 50.4709 21.7026L51.0149 21.3626L47.2067 12.5221L37.8221 10.278C36.326 9.93793 34.966 9.73392 33.4699 10.414L30.0017 11.9101C28.5056 12.5221 27.3495 13.8822 26.8735 15.4463L25.9894 18.5745C25.6494 19.5945 26.1254 20.6826 27.0775 21.1586C28.0976 21.6346 29.1856 21.7026 30.0697 21.3626C31.1577 20.9546 32.1098 19.8665 32.7898 18.2344C32.9258 17.8944 33.6059 17.0104 34.2859 16.9424C34.966 16.9424 35.646 17.6224 36.054 18.2344C36.0577 18.2381 36.0715 18.2566 36.0952 18.2883ZM37.3461 17.2824C36.3941 16.0583 35.374 15.3783 34.3539 15.3783C34.2859 15.3783 34.2179 15.3783 34.2859 15.3783C32.729 15.5028 31.7994 17.0532 31.5494 17.4701C31.5265 17.5085 31.5092 17.5372 31.4978 17.5544V17.6224C30.9537 18.8465 30.3417 19.6625 29.5936 19.9345C29.0496 20.1385 28.4376 20.0705 27.8255 19.7305C27.5535 19.5945 27.4175 19.2545 27.4855 18.9825L28.3696 15.8543C28.7096 14.6982 29.5256 13.7462 30.6137 13.2701L34.0819 11.706C35.102 11.23 35.986 11.366 37.4821 11.638L46.1186 13.6782L49.1108 20.7506C42.4464 24.6948 37.5501 17.6224 37.3461 17.2824Z" fill="#353030"/>
<path fill-rule="evenodd" clip-rule="evenodd" d="M40.1348 20.4791L45.7111 28.2996L53.0555 25.9874L50.4034 19.7991L49.5873 20.4791C46.5952 23.0633 42.7869 21.5672 42.6509 21.4992L40.1348 20.4791ZM46.3231 26.5315L44.147 23.4713C45.6431 23.6753 47.7512 23.6073 49.7233 22.3152L50.8794 25.1034L46.3231 26.5315Z" fill="#353030"/>
<path d="M6.47242 30.9509L0.488059 28.5708C0.080035 28.4348 -0.123977 27.9587 0.080035 27.5507C0.216043 27.1427 0.692072 26.9387 1.1001 27.1427L5.58836 28.9788L14.4289 7.35351L0.48806 1.70917C0.0800351 1.57316 -0.123977 1.09713 0.0800351 0.689109C0.216043 0.281085 0.692072 0.0770717 1.1001 0.281085L16.469 6.53746L6.47242 30.9509Z" fill="#353030"/>
<path d="M15.8573 26.5311L8.58083 23.675C8.17281 23.539 7.9688 23.0629 8.17281 22.6549C8.30882 22.2469 8.78484 22.0429 9.19287 22.2469L15.0412 24.559L20.4135 12.0463L14.4292 9.53011C14.0212 9.39411 13.8852 8.91808 14.0212 8.51005C14.1572 8.10203 14.6332 7.96602 15.0412 8.10203L22.4537 11.2302L15.8573 26.5311Z" fill="#353030"/>
<path d="M61.5557 32.3789L51.5591 7.96546L66.928 1.70908C67.336 1.57308 67.744 1.70908 67.9481 2.11711C68.0841 2.52513 67.9481 2.93316 67.54 3.13717L53.5992 8.78151L62.4397 30.4068L66.996 28.5707C67.404 28.4347 67.812 28.6387 68.0161 28.9787C68.1521 29.3867 67.9481 29.7948 67.608 29.9988L61.5557 32.3789Z" fill="#353030"/>
<path d="M52.1716 27.9591L45.5752 12.6582L53.0556 9.53001C53.4637 9.394 53.8717 9.53001 54.0757 9.93803C54.2117 10.346 54.0757 10.7541 53.6677 10.9581L47.6153 13.4742L52.9876 25.987L58.836 23.6749C59.244 23.5388 59.652 23.7429 59.856 24.0829C59.9921 24.4909 59.788 24.8989 59.448 25.1029L52.1716 27.9591Z" fill="#353030"/>
<path d="M45.3028 32.5155C44.5547 32.5155 43.8067 32.1755 43.2626 31.6315L36.2582 24.151C35.9862 23.811 35.9862 23.335 36.2582 23.063C36.5982 22.791 37.0743 22.791 37.3463 23.063L44.3507 30.4754C44.6907 30.8154 45.0987 30.9515 45.5748 30.8834C46.0508 30.8154 46.3908 30.4754 46.5268 30.0674C46.6628 29.7274 46.5948 29.3194 46.3228 29.0473L41.2225 22.655C40.9505 22.3149 41.0185 21.8389 41.3585 21.5669C41.6985 21.2949 42.1746 21.3629 42.4466 21.7029L47.5469 28.0953C48.0909 28.7753 48.2949 29.7274 47.9549 30.5434C47.6149 31.4955 46.8668 32.1755 45.8468 32.3795C45.7108 32.4475 45.5068 32.5155 45.3028 32.5155Z" fill="#353030"/>
<path d="M41.8343 35.0315C40.8143 35.0315 39.7942 34.6235 39.0462 33.8755L33.1298 27.6871C32.8578 27.3471 32.8578 26.871 33.1298 26.599C33.4018 26.327 33.9458 26.327 34.2179 26.599L40.1342 32.7874C40.6782 33.3994 41.4943 33.6034 42.3103 33.4674C43.1264 33.2634 43.6704 32.7194 43.9424 31.9713V31.9033C44.0784 31.4953 44.4865 31.2913 44.8945 31.4273C45.3025 31.5633 45.5065 31.9714 45.3705 32.3794V32.5154C44.9625 33.8075 43.9424 34.7595 42.6504 35.0315C42.3783 34.9635 42.1063 35.0315 41.8343 35.0315Z" fill="#353030"/>
<path d="M38.0268 37.2757C37.9588 37.2757 37.8908 37.2757 37.8228 37.2757C36.8707 37.2077 35.9187 36.7317 35.1706 35.9836L30.2743 30.5433C30.0023 30.2033 30.0023 29.7273 30.3423 29.4553C30.6824 29.1832 31.1584 29.1832 31.4304 29.5233L36.3267 34.9636C36.7347 35.4396 37.3468 35.7116 37.8908 35.7796C38.7749 35.8476 39.5909 35.3036 40.2709 34.2155C40.475 33.8755 40.951 33.7395 41.291 33.9435C41.631 34.1475 41.767 34.6236 41.563 34.9636C40.407 36.8677 39.0469 37.2757 38.0268 37.2757Z" fill="#353030"/>
<path d="M31.1582 12.9301C31.0902 12.9301 31.0222 12.9301 30.9542 12.9301C26.738 11.9781 21.5016 12.3861 21.4336 12.3861C21.0256 12.4541 20.6176 12.1141 20.6176 11.706C20.5496 11.298 20.8896 10.89 21.2976 10.89C21.5016 10.89 26.806 10.414 31.2942 11.434C31.7023 11.502 31.9743 11.9101 31.8383 12.3861C31.8383 12.7261 31.4982 12.9301 31.1582 12.9301Z" fill="#353030"/>
<path d="M34.287 38.4998C33.607 38.4998 32.8589 38.2278 32.3829 37.7517L30.0708 35.5756C22.8623 28.4352 16.1299 23.7429 16.0619 23.7429C15.7219 23.4709 15.6539 22.9949 15.8579 22.6548C16.1299 22.3148 16.606 22.2468 16.946 22.4508C17.014 22.5188 23.8144 27.2791 31.1588 34.4195L33.471 36.5957C33.811 36.9357 34.287 37.0037 34.7631 36.8677C34.9671 36.7997 35.4431 36.5957 35.5791 35.9836C35.6471 35.5756 35.9871 35.2356 36.4632 35.3036C36.8712 35.3716 37.2112 35.7116 37.1432 36.1196V36.1876C37.0072 37.2077 36.3271 37.9557 35.3071 38.2958C34.8991 38.4318 34.559 38.4998 34.287 38.4998Z" fill="#353030"/>
<path d="M29.1861 38.3632C28.37 38.3632 27.486 38.0232 26.8739 37.4792L20.6176 31.9028C19.6655 31.0188 19.2575 29.7267 19.5295 28.4346L20.0735 26.1905C20.2095 25.7825 20.6176 25.5105 21.0256 25.6465C21.4336 25.7825 21.7056 26.1905 21.5696 26.5985L21.0256 28.8427C20.8216 29.5907 21.0936 30.3387 21.6376 30.8148L27.894 36.3911C28.506 36.9351 29.3221 37.0712 30.0701 36.7311L31.9742 35.8471C32.3823 35.6431 32.7903 35.8471 32.9943 36.2551C33.1983 36.6631 32.9943 37.0711 32.5863 37.2752L30.6822 38.1592C30.2061 38.2952 29.7301 38.3632 29.1861 38.3632Z" fill="#353030"/>
</g>
<defs>
<clipPath id="clip0">
<rect width="68.0586" height="38.2987" fill="white" transform="translate(0 0.20105)"/>
</clipPath>
</defs>
</svg>
