<svg width="8" height="14" viewBox="0 0 8 14" fill="none" xmlns="http://www.w3.org/2000/svg">
<path d="M1.71677 2.79376C1.71677 3.13928 1.71677 4.67938 1.71677 4.67938H0.146973V6.98578H1.71677V13.8379H4.94187V6.98578H7.10607C7.10607 6.98578 7.30857 5.88037 7.40678 4.67145C7.12518 4.67145 4.95407 4.67145 4.95407 4.67145C4.95407 4.67145 4.95407 3.33008 4.95407 3.09448C4.95407 2.85944 5.30557 2.54187 5.65308 2.54187C6.00008 2.54187 6.73217 2.54187 7.41027 2.54187C7.41027 2.22815 7.41027 1.14374 7.41027 0.140991C6.50497 0.140991 5.47517 0.140991 5.02137 0.140991C1.63718 0.140991 1.71677 2.44897 1.71677 2.79376Z" fill="#353030"/>
</svg>
