<svg width="36" height="14" viewBox="0 0 36 14" fill="none" xmlns="http://www.w3.org/2000/svg">
<path fill-rule="evenodd" clip-rule="evenodd" d="M34.7289 6.12565H33.0345C32.6645 2.68729 29.7375 0 26.1917 0C22.8959 0 20.137 2.32232 19.4666 5.41067C18.8717 5.02883 18.2717 4.83445 17.6726 4.83445C17.648 4.83445 17.6235 4.83445 17.5996 4.83519C17.0471 4.84955 16.5095 5.03207 15.9902 5.36876C15.3037 2.30162 12.556 0 9.27533 0C5.72952 0 2.8032 2.68729 2.43316 6.12565H0.738912C0.330434 6.12565 0 6.45505 0 6.86222C0 7.26932 0.330434 7.59878 0.738912 7.59878H2.43316C2.8032 11.037 5.72952 13.7236 9.27533 13.7236C12.9658 13.7236 15.979 10.8115 16.1436 7.17253C16.6577 6.62077 17.1606 6.32062 17.6379 6.30758C18.154 6.30302 18.7177 6.60435 19.3253 7.19434C19.5008 10.8232 22.5086 13.7236 26.1917 13.7236C29.7375 13.7236 32.6645 11.037 33.0345 7.59878H34.7289C35.1372 7.59878 35.4678 7.26932 35.4678 6.86222C35.4678 6.45505 35.1372 6.12565 34.7289 6.12565ZM9.27566 12.2505C6.29474 12.2505 3.87022 9.8336 3.87022 6.86222C3.87022 3.89076 6.29474 1.47313 9.27566 1.47313C12.2566 1.47313 14.6818 3.89076 14.6818 6.86222C14.6818 9.8336 12.2566 12.2505 9.27566 12.2505ZM20.7867 6.86222C20.7867 9.8336 23.2113 12.2505 26.1922 12.2505C29.1731 12.2505 31.5984 9.8336 31.5984 6.86222C31.5984 3.89076 29.1731 1.47313 26.1922 1.47313C23.2113 1.47313 20.7867 3.89076 20.7867 6.86222Z" fill="white"/>
</svg>
