<svg width="48" height="19" viewBox="0 0 48 19" fill="none" xmlns="http://www.w3.org/2000/svg">
<path fill-rule="evenodd" clip-rule="evenodd" d="M47 8.3165H44.7069C44.2062 3.6484 40.245 0 35.4463 0C30.986 0 27.2522 3.1529 26.345 7.3458C25.5398 6.8274 24.7279 6.5635 23.917 6.5635C23.8838 6.5635 23.8506 6.5635 23.8183 6.5645C23.0705 6.584 22.343 6.8318 21.6402 7.2889C20.7111 3.1248 16.9925 0 12.5527 0C7.754 0 3.79369 3.6484 3.29289 8.3165H1C0.44719 8.3165 0 8.7637 0 9.3165C0 9.8692 0.44719 10.3165 1 10.3165H3.29289C3.79369 14.9844 7.754 18.6319 12.5527 18.6319C17.5472 18.6319 21.6251 14.6783 21.8478 9.7378C22.5436 8.9887 23.2242 8.5812 23.8701 8.5635C24.5685 8.5573 25.3315 8.9664 26.1537 9.7674C26.3913 14.6941 30.4618 18.6319 35.4463 18.6319C40.245 18.6319 44.2062 14.9844 44.7069 10.3165H47C47.5527 10.3165 48 9.8692 48 9.3165C48 8.7637 47.5527 8.3165 47 8.3165ZM12.5527 16.6319C8.51849 16.6319 5.23729 13.3506 5.23729 9.3165C5.23729 5.2823 8.51849 2 12.5527 2C16.5869 2 19.8691 5.2823 19.8691 9.3165C19.8691 13.3506 16.5869 16.6319 12.5527 16.6319ZM28.1308 9.3165C28.1308 13.3506 31.4121 16.6319 35.4463 16.6319C39.4804 16.6319 42.7627 13.3506 42.7627 9.3165C42.7627 5.2823 39.4804 2 35.4463 2C31.4121 2 28.1308 5.2823 28.1308 9.3165Z" fill="#353030"/>
</svg>
