<svg width="10" height="18" viewBox="0 0 10 18" fill="none" xmlns="http://www.w3.org/2000/svg">
<path d="M2.27386 4.05322C2.27386 4.48193 2.27386 6.39795 2.27386 6.39795H0.388977V9.2666H2.27386V17.7896H6.14642V9.2666H8.74518C8.74518 9.2666 8.98846 7.8916 9.10638 6.3877C8.76825 6.3877 6.16107 6.3877 6.16107 6.3877C6.16107 6.3877 6.16107 4.71973 6.16107 4.42676C6.16107 4.13428 6.58344 3.73877 7.00067 3.73877C7.41718 3.73877 8.29633 3.73877 9.11066 3.73877C9.11066 3.34863 9.11066 2 9.11066 0.75293C8.0235 0.75293 6.78717 0.75293 6.24188 0.75293C2.17816 0.75293 2.27386 3.62402 2.27386 4.05322Z" fill="white"/>
</svg>
