<svg width="18" height="14" viewBox="0 0 18 14" fill="none" xmlns="http://www.w3.org/2000/svg">
<path fill-rule="evenodd" clip-rule="evenodd" d="M16.1166 1.21771C16.8579 1.42834 17.4418 2.04724 17.64 2.83374C17.9999 4.25903 17.9999 7.23352 17.9999 7.23352C17.9999 7.23352 17.9999 10.2074 17.64 11.6326C17.4418 12.4197 16.8579 13.0392 16.1166 13.2492C14.773 13.6315 9.3856 13.6315 9.3856 13.6315C9.3856 13.6315 3.99789 13.6315 2.6543 13.2492C1.9129 13.0392 1.32919 12.4197 1.131 11.6326C0.770996 10.2074 0.770996 7.23352 0.770996 7.23352C0.770996 7.23352 0.770996 4.25903 1.131 2.83374C1.32919 2.04724 1.9129 1.42834 2.6543 1.21771C3.99789 0.835999 9.3856 0.835999 9.3856 0.835999C9.3856 0.835999 14.773 0.835999 16.1166 1.21771ZM7.6234 4.53302V9.9339L12.1264 7.23352L7.6234 4.53302Z" fill="#353030"/>
</svg>
