<svg width="19" height="22" viewBox="0 0 19 22" fill="none" xmlns="http://www.w3.org/2000/svg">
<path fill-rule="evenodd" clip-rule="evenodd" d="M11.06 0H9.65001V3.47H11.06V0ZM16.5721 8.729H17.0751C18.1365 8.729 18.9998 9.6062 18.9998 10.6836V20.042C18.9998 21.1196 18.1365 21.9961 17.0751 21.9961H2.90448C1.84314 21.9961 0.97998 21.1196 0.97998 20.042V10.6836C0.97998 10.2046 1.15125 9.76587 1.43384 9.42602C1.56836 9.21704 1.81384 8.98266 2.25574 8.84521C2.45886 8.77099 2.67657 8.729 2.90448 8.729H3.11597H16.5721ZM17.3856 10.0251C17.3469 9.93286 17.0978 9.79516 16.5721 9.79516H3.11615C2.87787 9.79516 2.69934 9.82421 2.56866 9.86328C2.46667 9.90673 2.37488 9.96899 2.29675 10.0461C2.27509 10.1548 2.36255 10.4204 2.70337 10.7805L8.43408 16.8286C8.80994 17.2248 9.31067 17.4436 9.84418 17.4436C10.3776 17.4436 10.8785 17.2256 11.2543 16.8286L16.985 10.7805C17.3494 10.395 17.4244 10.1182 17.3856 10.0251ZM17.0751 20.9299H2.90448C2.42218 20.9299 2.02966 20.5317 2.02966 20.0415V11.6067L7.67755 17.5681C8.25317 18.1755 9.02246 18.5103 9.84418 18.5103C10.666 18.5103 11.4352 18.1755 12.0107 17.5681L17.7411 11.5195C17.8193 11.4363 17.8871 11.3564 17.95 11.2776V20.0415C17.9501 20.5317 17.5574 20.9299 17.0751 20.9299ZM15.6025 1.389L16.8762 2.0433L15.1888 5.1285L13.915 4.47396L15.6025 1.389ZM3.86898 2.12715L5.10415 1.519L6.7405 4.38936L5.50527 4.998L3.86898 2.12715Z" fill="#150D46"/>
</svg>
