<svg width="8" height="13" viewBox="0 0 8 13" fill="none" xmlns="http://www.w3.org/2000/svg">
<path fill-rule="evenodd" clip-rule="evenodd" d="M0 5.04053C0 7.40137 3.7543 12.6201 3.7543 12.6201C3.89 12.8135 4.11121 12.8125 4.2471 12.6187C4.2471 12.6187 7.99991 7.40137 7.99991 5.04053C7.99991 2.67969 6.20911 0.765137 3.99989 0.765137C1.79089 0.765137 0 2.67969 0 5.04053ZM5.53851 5.25928C5.53851 6.16748 4.84959 6.90332 3.99989 6.90332C3.15041 6.90332 2.4615 6.16748 2.4615 5.25928C2.4615 4.35156 3.15041 3.61572 3.99989 3.61572C4.84959 3.61572 5.53851 4.35156 5.53851 5.25928Z" fill="#353030"/>
</svg>
