<svg width="15" height="14" viewBox="0 0 15 14" fill="none" xmlns="http://www.w3.org/2000/svg">
<path fill-rule="evenodd" clip-rule="evenodd" d="M4.19861 0.150024H10.2932C12.363 0.150024 14.0468 1.84711 14.0467 3.93372V10.0757C14.0467 12.1623 12.363 13.8594 10.2932 13.8594H4.19861C2.1288 13.8594 0.445007 12.1623 0.445007 10.0757V3.93372C0.445007 1.84711 2.1288 0.150024 4.19861 0.150024ZM10.2932 12.6431C11.6974 12.6431 12.84 11.4913 12.84 10.0757H12.8399V3.93372C12.8399 2.51813 11.6974 1.36633 10.2932 1.36633H4.19861C2.7942 1.36633 1.6517 2.51813 1.6517 3.93372V10.0757C1.6517 11.4913 2.7942 12.6436 4.19861 12.6431H10.2932ZM3.74101 7.00529C3.74101 5.05692 5.3133 3.47202 7.24601 3.47202C9.17861 3.47202 10.7508 5.05692 10.7508 7.00529C10.7508 8.95213 9.17861 10.5364 7.24601 10.5364C5.3133 10.5364 3.74101 8.95213 3.74101 7.00529ZM4.9481 7.00419C4.9481 8.28172 5.97891 9.32011 7.24601 9.32011C8.51301 9.32011 9.54391 8.28172 9.54391 7.00419C9.54391 5.72733 8.5131 4.68833 7.24601 4.68833C5.97891 4.68833 4.9481 5.72733 4.9481 7.00419ZM10.2719 2.70207C10.436 2.53618 10.6644 2.44102 10.897 2.44102C11.1303 2.44102 11.3588 2.53618 11.5229 2.70207C11.6879 2.86797 11.782 3.09904 11.782 3.33348C11.782 3.56786 11.6879 3.79777 11.5229 3.96428C11.358 4.13017 11.1303 4.22527 10.897 4.22527C10.6644 4.22527 10.4359 4.13017 10.2719 3.96428C10.1069 3.79777 10.012 3.56786 10.012 3.33348C10.012 3.09904 10.1069 2.86797 10.2719 2.70207Z" fill="#353030"/>
</svg>
