<svg width="17" height="14" viewBox="0 0 17 14" fill="none" xmlns="http://www.w3.org/2000/svg">
<path d="M5.3463 13.9998C11.7618 13.9998 15.27 8.61371 15.27 3.9444C15.27 3.79102 15.267 3.63861 15.2602 3.48694C15.9412 2.98804 16.5332 2.36572 16.9999 1.6568C16.3751 1.93823 15.7026 2.12793 14.9971 2.21344C15.7172 1.77631 16.27 1.0838 16.5308 0.25824C15.8569 0.663025 15.1106 0.95752 14.3161 1.11664C13.6796 0.429199 12.7735 0 11.7701 0C9.8439 0 8.2819 1.58264 8.2819 3.53394C8.2819 3.81079 8.3126 4.08093 8.3725 4.33972C5.4735 4.19189 2.9031 2.78534 1.183 0.647217C0.883499 1.16931 0.710701 1.77631 0.710701 2.42352C0.710701 3.64941 1.3265 4.73151 2.2628 5.36511C1.6907 5.3476 1.1532 5.18854 0.683201 4.92352C0.6828 4.93762 0.6828 4.95233 0.6828 4.9682C0.6828 6.67993 1.8849 8.10913 3.4809 8.43304C3.1878 8.51404 2.8795 8.55762 2.5613 8.55762C2.3368 8.55762 2.1182 8.53503 1.9057 8.49359C2.3498 9.89789 3.6373 10.9194 5.164 10.9483C3.9702 11.8962 2.4664 12.4613 0.832001 12.4613C0.5508 12.4613 0.273102 12.4449 0 12.412C1.5436 13.4149 3.3766 13.9998 5.3465 13.9998" fill="#353030"/>
</svg>
