<svg width="13" height="18" viewBox="0 0 13 18" fill="none" xmlns="http://www.w3.org/2000/svg">
<path d="M11.2932 2.33643C10.244 1.20703 8.7926 0.585938 7.20557 0.585938C4.78149 0.585938 3.29041 1.69922 2.46655 2.63379C1.45142 3.78467 0.869019 5.31299 0.869019 6.82764C0.869019 8.729 1.57849 10.188 2.76672 10.731C2.84656 10.7671 2.92676 10.7861 3.00562 10.7861C3.25623 10.7861 3.45483 10.6021 3.52368 10.3066C3.56372 10.1382 3.65662 9.7207 3.69702 9.53955C3.78357 9.18164 3.71362 9.00928 3.52502 8.76025C3.18127 8.30518 3.02136 7.76562 3.02136 7.06445C3.02136 4.98145 4.4054 2.76709 6.9707 2.76709C9.0061 2.76709 10.2705 4.06348 10.2705 6.15088C10.2705 7.46777 10.0173 8.68799 9.55762 9.58545C9.23816 10.2095 8.67627 10.9521 7.81384 10.9521C7.44092 10.9521 7.10596 10.7812 6.89453 10.4819C6.69482 10.1992 6.62903 9.8335 6.70935 9.45264C6.80005 9.02197 6.92371 8.57275 7.04346 8.13867C7.26172 7.3457 7.46838 6.59717 7.46838 6C7.46838 4.97803 6.90784 4.29199 6.07373 4.29199C5.01367 4.29199 4.18311 5.49805 4.18311 7.03857C4.18311 7.79395 4.3623 8.35889 4.44336 8.57617C4.30981 9.21045 3.51611 12.9805 3.36548 13.6914C3.27856 14.1064 2.75403 17.3843 3.62207 17.6455C4.59741 17.9385 5.46912 14.7466 5.55774 14.3853C5.62952 14.0928 5.88123 12.9829 6.03552 12.3018C6.5061 12.8096 7.26416 13.1528 8.00171 13.1528C9.39209 13.1528 10.6426 12.4517 11.5228 11.1782C12.3762 9.94385 12.8463 8.22217 12.8463 6.33252C12.8463 4.85498 12.2802 3.39795 11.2932 2.33643Z" fill="white"/>
</svg>
