<svg width="18" height="18" viewBox="0 0 18 18" fill="none" xmlns="http://www.w3.org/2000/svg">
<path fill-rule="evenodd" clip-rule="evenodd" d="M5.44226 0.00683594H12.7607C15.2461 0.00683594 17.2681 2.11719 17.2678 4.71289V12.3535C17.2678 14.9482 15.2461 17.0596 12.7607 17.0596H5.44226C2.95691 17.0596 0.935059 14.9482 0.935059 12.3535V4.71289C0.935059 2.11719 2.95691 0.00683594 5.44226 0.00683594ZM12.7607 15.5464C14.4469 15.5464 15.819 14.1143 15.819 12.3535H15.8188V4.71289C15.8188 2.95264 14.4469 1.52051 12.7607 1.52051H5.44226C3.75598 1.52051 2.38403 2.95264 2.38403 4.71289V12.3535C2.38403 14.1143 3.75598 15.5474 5.44226 15.5464H12.7607ZM4.89306 8.53437C4.89306 6.11103 6.781 4.13984 9.1018 4.13984C11.4225 4.13984 13.3103 6.11103 13.3103 8.53437C13.3103 10.9567 11.4225 12.9274 9.1018 12.9274C6.781 12.9274 4.89306 10.9567 4.89306 8.53437ZM6.34228 8.53339C6.34228 10.1227 7.58019 11.4142 9.1018 11.4142C10.6232 11.4142 11.8612 10.1227 11.8612 8.53339C11.8612 6.94501 10.6234 5.65302 9.1018 5.65302C7.58019 5.65302 6.34228 6.94501 6.34228 8.53339ZM12.7362 3.18054C12.9332 2.97449 13.2076 2.85584 13.4868 2.85584C13.767 2.85584 14.0412 2.97449 14.2384 3.18054C14.4365 3.3866 14.5494 3.67371 14.5494 3.9657C14.5494 4.25769 14.4365 4.54334 14.2384 4.75086C14.0404 4.95691 13.767 5.07556 13.4868 5.07556C13.2076 5.07556 12.9332 4.95691 12.7362 4.75086C12.5381 4.54334 12.4241 4.25769 12.4241 3.9657C12.4241 3.67371 12.5381 3.3866 12.7362 3.18054Z" fill="white"/>
</svg>
