<svg width="21" height="18" viewBox="0 0 21 18" fill="none" xmlns="http://www.w3.org/2000/svg">
<path d="M6.42303 17.9932C14.1266 17.9932 18.3392 11.2939 18.3392 5.48486C18.3392 5.29492 18.3356 5.10498 18.3273 4.9165C19.1452 4.2959 19.856 3.52197 20.4166 2.64014C19.6662 2.99023 18.8585 3.22607 18.0115 3.33203C18.876 2.78809 19.54 1.92676 19.8531 0.900879C19.044 1.4043 18.1478 1.77051 17.1935 1.96729C16.4294 1.11328 15.3412 0.579102 14.1365 0.579102C11.8235 0.579102 9.94806 2.54736 9.94806 4.97412C9.94806 5.31982 9.9848 5.65479 10.0567 5.97656C6.57562 5.79297 3.48907 4.04395 1.42371 1.38379C1.06396 2.0332 0.856567 2.78809 0.856567 3.59326C0.856567 5.11865 1.59601 6.46533 2.7204 7.25293C2.0332 7.22998 1.3877 7.03223 0.823486 6.70312C0.822876 6.72119 0.822876 6.73926 0.822876 6.75928C0.822876 8.88818 2.26648 10.6655 4.18298 11.0684C3.83105 11.1689 3.46075 11.2227 3.07849 11.2227C2.80908 11.2227 2.54657 11.1958 2.29138 11.144C2.82471 12.8911 4.37067 14.1616 6.20392 14.1973C4.77057 15.377 2.96466 16.0791 1.00208 16.0791C0.66449 16.0791 0.330872 16.0591 0.00299072 16.0181C1.85669 17.2651 4.05768 17.9932 6.42316 17.9932" fill="white"/>
</svg>
