<svg width="15" height="15" viewBox="0 0 15 15" fill="none" xmlns="http://www.w3.org/2000/svg">
<path fill-rule="evenodd" clip-rule="evenodd" d="M3.25737 1.55995C3.25737 2.42173 2.63017 3.11908 1.59822 3.11908C0.627609 3.11908 0.000488281 2.42173 0.000488281 1.55995C0.000488281 0.677522 0.647904 0 1.63891 0C2.63017 0 3.23741 0.677522 3.25737 1.55995ZM0.0802533 14.387V4.34979H3.15531V14.387H0.0802533ZM4.91569 4.34964C4.95587 5.25355 4.99615 6.30041 4.99615 7.55217V14.3869H8.07139V8.59903C8.07139 8.31149 8.0916 8.02396 8.17273 7.81988C8.39535 7.24398 8.9007 6.64908 9.75034 6.64908C10.8631 6.64908 11.3082 7.53152 11.3082 8.82459V14.3869H14.3834V8.45526C14.3834 5.49978 12.8661 4.12408 10.8431 4.12408C9.18413 4.12408 8.19279 5.08913 7.78819 5.746H7.72772L7.58566 4.34964H4.91569Z" fill="white"/>
</svg>
