<svg width="184" height="116" viewBox="0 0 184 116" fill="none" xmlns="http://www.w3.org/2000/svg">
<path fill-rule="evenodd" clip-rule="evenodd" d="M14.8819 24.3799C17.1464 28.7559 21.0015 28.7559 23.5524 28.7559C29.4812 28.7559 32.8816 26.0264 32.8816 21.2651C32.8816 14.9678 28.4555 14.0415 24.5487 13.2246L24.547 13.2243C20.9415 12.47 18.0941 11.8744 18.0941 7.89014C18.0941 2.82422 22.9687 2.56787 23.9457 2.56787C24.1923 2.56787 24.4232 2.58154 24.614 2.60645C26.7448 2.89055 27.3438 3.61146 27.9233 4.30905L27.9238 4.30957L28.0701 4.48389C28.3838 4.85372 28.62 5.26226 28.8481 5.65653L28.8513 5.66211L28.8525 5.6642L28.8525 5.66421C29.049 6.00523 29.2343 6.32676 29.4609 6.61279C29.5187 6.68604 29.6309 6.77441 29.8339 6.77441C30.3299 6.77393 31.3018 6.19482 31.5678 5.7417C31.697 5.52002 31.6458 5.35596 31.6037 5.27832C29.6096 1.58057 27.3731 0.00292969 24.1262 0.00292969C19.7665 0.00292969 15.133 2.6665 15.133 7.60156C15.133 14.0649 19.606 15.1401 23.5526 16.0888L23.5528 16.0889C27.1107 16.9429 29.9206 17.6187 29.9206 21.5054C29.9206 24.8506 28.1969 26.2153 23.9704 26.2153C23.6885 26.2153 23.3955 26.209 23.0928 26.1978C20.9531 26.1123 20.3075 25.729 19.4136 25.1978L19.3443 25.1562C18.2974 24.5358 17.8518 23.8989 17.2348 23.017L17.2342 23.0161L17.0346 22.7324C16.9663 22.6348 16.8322 22.52 16.5821 22.52C16.0713 22.52 15.2837 23.0298 14.9613 23.5688C14.7395 23.939 14.796 24.2134 14.8819 24.3799ZM154.577 28.7174C146.75 28.7174 140.382 22.2975 140.382 14.4064C140.382 6.48985 146.75 0.0489297 154.577 0.0489297C162.38 0.0489297 168.727 6.48985 168.727 14.4064C168.727 22.2975 162.38 28.7174 154.577 28.7174ZM154.577 2.92881C148.321 2.92881 143.231 8.07774 143.231 14.4064C143.231 20.6285 148.427 25.8839 154.577 25.8839C160.86 25.8839 165.971 20.7355 165.971 14.4064C165.971 8.18467 160.753 2.92881 154.577 2.92881ZM49.3097 28.7762H47.4606C47.1804 28.7762 46.952 28.5452 46.952 28.262V0.551578C46.952 0.267398 47.1804 0.0369297 47.4606 0.0369297H49.3097C49.5903 0.0369297 49.8182 0.267398 49.8182 0.551578V28.262C49.8182 28.5452 49.5903 28.7762 49.3097 28.7762ZM66.8255 28.7762H83.9363C84.2168 28.7762 84.4448 28.5452 84.4448 28.262V26.5838C84.4448 26.3001 84.2168 26.0696 83.9363 26.0696H69.1354V0.551578C69.1354 0.267398 68.9076 0.0369297 68.6268 0.0369297H66.8255C66.5447 0.0369297 66.317 0.267398 66.317 0.551578V28.262C66.317 28.5452 66.5447 28.7762 66.8255 28.7762ZM125.334 28.7762H123.675C123.395 28.7762 123.167 28.5452 123.167 28.262V4.98029L111.618 28.3001C111.441 28.6517 110.88 28.6487 110.708 28.3001L99.2055 5.20978V28.262C99.2055 28.5452 98.9775 28.7762 98.6969 28.7762H97.0375C96.7573 28.7762 96.529 28.5452 96.529 28.262V0.551578C96.529 0.267398 96.7573 0.0369297 97.0375 0.0369297H99.55C99.7433 0.0369297 99.9177 0.145816 100.005 0.320133L111.162 22.846L122.32 0.320621C122.407 0.145816 122.581 0.0369297 122.775 0.0369297H125.334C125.615 0.0369297 125.842 0.267398 125.842 0.551578V28.262C125.842 28.5452 125.615 28.7762 125.334 28.7762ZM80.4727 57.9476C80.549 57.9228 80.6252 57.898 80.6999 57.8703C80.736 57.9016 80.7725 57.9338 80.8085 57.966L80.7745 58.0452L80.7284 58.1532C80.6789 58.2692 80.6293 58.3855 80.5784 58.5007C80.3659 58.982 80.153 59.4633 79.9401 59.9446L79.9387 59.9477C79.5301 60.8716 79.1214 61.7956 78.7148 62.7204C77.6671 65.1023 76.739 67.5305 75.974 70.0202C75.9096 70.2287 75.8726 70.448 75.8446 70.6648C75.8202 70.8571 75.867 71.0378 76.0675 71.1208C76.2984 71.2165 76.41 71.0349 76.497 70.8845L76.5584 70.7776L76.5585 70.7774C76.7748 70.401 76.9917 70.0236 77.1627 69.6267C77.3108 69.2834 77.4424 68.9329 77.5741 68.5822C77.6998 68.2476 77.8255 67.9128 77.9656 67.5842C78.7713 65.6984 79.5842 63.8166 80.4132 61.9411C81.049 60.5017 81.7044 59.0715 82.3703 57.6462C82.5688 57.2219 82.7713 56.7985 83.2188 56.5398C84.6833 55.6926 86.1414 54.8347 87.5844 53.9514L87.6471 53.913C89.1459 52.9966 90.6449 52.08 92.024 50.9768L92.0517 50.9546C93.1953 50.0397 94.3333 49.1293 95.2954 48.0056C96.0082 47.1721 96.5475 46.2566 96.8726 45.2097C97.3682 43.6169 96.4646 41.9939 94.8741 41.5627C93.1453 41.0925 91.4511 41.3357 89.7766 41.8044C88.1326 42.2649 86.5212 42.8303 84.9654 43.5427C83.8097 44.0715 82.655 44.6071 81.5289 45.1955C80.9488 45.4986 80.3941 45.8511 79.8397 46.2035C79.6429 46.3286 79.4461 46.4536 79.2483 46.5764C78.9987 46.7315 78.7473 46.8843 78.4958 47.0371L78.4958 47.0371C77.8308 47.4413 77.1655 47.8456 76.5314 48.2942C74.911 49.4397 73.3679 50.6877 71.9203 52.0534C71.095 52.8317 70.339 53.6726 69.7519 54.6521C69.5758 54.945 69.4469 55.2736 69.3381 55.6008C69.2183 55.9607 69.3961 56.2468 69.6624 56.4699C69.9279 56.6926 70.1579 56.6042 70.1705 56.2541C70.187 55.8244 70.3637 55.4846 70.6068 55.153C71.3126 54.1916 72.1196 53.3244 72.9911 52.5183C75.2491 50.4304 77.7025 48.6242 80.3817 47.1179C82.1916 46.1008 84.0335 45.1599 85.9455 44.362C88.1476 43.4431 90.4061 42.7126 92.8012 42.5319C93.6731 42.4655 94.5395 42.5725 95.3632 42.8903C95.9125 43.1023 96.1078 43.5427 95.9838 44.1223C95.8079 44.9499 95.4128 45.6672 94.8959 46.3132C93.8655 47.6023 92.6916 48.7317 91.358 49.7092C89.1804 51.3039 86.919 52.759 84.5894 54.1091C84.5302 54.1432 84.4636 54.1638 84.3709 54.1926C84.3188 54.2088 84.2584 54.2275 84.1864 54.2526C84.3275 53.9853 84.4648 53.728 84.5985 53.4773L84.6021 53.4707L84.6026 53.4697L84.6029 53.469C84.9061 52.9008 85.1915 52.366 85.4628 51.8239C85.7353 51.2794 85.9897 50.7254 86.244 50.1716L86.2442 50.1713L86.3398 49.9631C86.3815 49.8724 86.4233 49.7817 86.4652 49.6911C86.6047 49.3899 86.6028 49.0852 86.4316 48.7942C86.3082 48.5852 86.1638 48.3835 85.8948 48.383C85.6629 48.3813 85.5836 48.5546 85.5043 48.7282L85.4878 48.764C85.4833 48.7738 85.4787 48.7835 85.4741 48.7932C85.4706 48.8005 85.467 48.8079 85.4634 48.8151L85.2785 49.1883L85.2781 49.1892C84.926 49.9003 84.5738 50.6115 84.2082 51.3156C83.9023 51.9045 83.5921 52.491 83.282 53.0775C82.8824 53.8331 82.4828 54.5887 82.0923 55.3493C81.9562 55.6145 81.7658 55.7795 81.5181 55.9035C81.0797 56.1238 80.6422 56.3461 80.2048 56.5684L80.203 56.5693L80.2025 56.5696L80.2024 56.5696C79.1654 57.0966 78.1287 57.6236 77.0791 58.1223C75.7827 58.7395 74.4609 59.3039 73.0167 59.487C72.8942 59.5026 72.7015 59.6154 72.6896 59.7038C72.6714 59.843 72.7394 60.0383 72.8399 60.1408C73.1307 60.4401 73.5277 60.4738 73.9079 60.4196C74.3903 60.3523 74.8767 60.2605 75.3415 60.115C76.9556 59.6091 78.5098 58.9558 79.9949 58.1369C80.1441 58.0545 80.3084 58.0011 80.4727 57.9476ZM103.304 51.6372L103.304 51.6371C103.343 51.5486 103.41 51.3976 103.519 51.3564C103.668 51.2998 103.917 51.3677 104.056 51.4717C104.201 51.5791 104.306 51.7832 104.358 51.9653C104.44 52.2612 104.497 52.5723 104.503 52.8774C104.51 53.2222 104.29 53.3403 104.003 53.1606C103.616 52.9175 103.247 52.4995 103.277 51.6943C103.284 51.6834 103.293 51.663 103.304 51.6372ZM107.129 63.3996C106.923 63.5257 106.677 63.5813 106.442 63.5685C106.501 63.0678 106.697 62.6998 106.95 62.3767C106.697 62.6998 106.501 63.0679 106.442 63.5687C106.677 63.5815 106.923 63.5258 107.129 63.3996ZM107.687 61.5721C107.607 61.6582 107.527 61.7419 107.446 61.825C107.446 61.8249 107.446 61.8248 107.447 61.8248L107.447 61.8247C107.527 61.7417 107.607 61.6581 107.687 61.5721ZM108.222 60.0858C110.659 58.4476 113.467 57.764 113.929 57.704C114.125 57.6781 114.232 57.8002 114.234 57.9872C114.235 58.1395 114.074 58.3441 113.946 58.328C111.413 58.6783 109.132 60.1964 108.586 60.5596L108.586 60.5599C108.546 60.5864 108.516 60.6067 108.495 60.62C108.51 60.6855 108.542 60.7745 108.583 60.8831C108.8 61.4718 109.23 62.6385 108.168 63.7865C107.571 64.4232 106.86 64.5677 106.093 64.2958C105.851 64.2103 105.666 63.9842 105.61 63.725C105.558 63.4774 105.599 63.1756 105.666 62.9232C105.817 62.3534 106.174 61.9481 106.54 61.5599C106.699 61.3919 106.832 61.2631 106.954 61.1449L106.954 61.1448C107.06 61.043 107.157 60.949 107.255 60.8446C107.517 60.5664 107.394 60.4262 107.045 60.0295L107.045 60.0294C106.823 59.7772 106.51 59.4212 106.147 58.8602C105.178 59.7494 103.719 61.1595 101.208 63.6654C101.053 63.8202 100.872 63.9471 100.69 64.0658C100.228 64.3675 99.8335 64.2953 99.5124 63.8451C99.2502 63.4754 99.1109 63.0575 99.1669 62.6009C99.1985 62.341 99.2524 62.0843 99.3063 61.8276L99.3064 61.8275C99.3278 61.7255 99.3492 61.6235 99.3692 61.5213C99.3905 61.4129 99.414 61.3053 99.4375 61.1974L99.4375 61.1971L99.4382 61.1942C99.451 61.1355 99.4638 61.0766 99.4763 61.0174C99.462 61.0098 99.4477 61.0023 99.4335 60.9949L99.4332 60.9947C99.4149 60.9851 99.3966 60.9756 99.3785 60.9657C99.3448 60.9943 99.3101 61.022 99.2755 61.0496L99.2754 61.0496C99.203 61.1073 99.1307 61.165 99.0678 61.2313C98.0537 62.3034 96.8866 63.1908 95.7202 64.0778L95.5665 64.1947C95.0038 64.6239 94.3303 64.4413 94.0298 63.7777C93.7983 63.265 93.7438 62.7357 93.958 62.1761C94.4888 60.7914 95.2795 59.5682 96.1672 58.3993C96.3046 58.2179 96.4398 58.0343 96.5924 57.827L96.5925 57.8269L96.5926 57.8268C96.6938 57.6894 96.8027 57.5415 96.9251 57.3768C96.7863 57.3894 96.6577 57.3988 96.5365 57.4076C96.2495 57.4286 96.0044 57.4465 95.7658 57.4969C95.6329 57.5238 95.504 57.6791 95.4183 57.807C95.077 58.315 94.7396 58.8263 94.4022 59.3375C94.0647 59.8487 93.7273 60.36 93.386 60.868C92.596 62.0443 91.6318 63.0653 90.5509 63.9671C89.6721 64.6996 88.7242 64.4462 88.2747 63.3822C88.1973 63.1981 88.1529 62.999 88.1086 62.8C88.093 62.7298 88.0774 62.6597 88.0603 62.5902C88.0389 62.5028 88.0237 62.414 88.004 62.299C87.993 62.2348 87.9806 62.1624 87.9649 62.0775C87.8694 62.1623 87.7785 62.2426 87.6911 62.32C87.4673 62.5179 87.2662 62.6957 87.0681 62.8758C86.9408 62.9918 86.8163 63.1111 86.6917 63.2303C86.4476 63.4639 86.2037 63.6974 85.9402 63.9056C85.331 64.3856 84.8774 64.4183 84.4029 64.0824C83.9414 63.7557 83.705 63.0692 83.851 62.4598C84.1075 61.389 84.617 60.4427 85.2688 59.5726C86.0941 58.4706 87.0172 57.4662 88.1753 56.7074C88.9622 56.1908 89.5124 56.2284 90.2311 56.8441C90.2965 56.8998 90.3808 56.9403 90.4626 56.9691C91.2954 57.2591 91.453 57.8426 90.9182 58.555C90.1538 59.5726 89.543 60.6712 89.3286 61.9535C89.2923 62.1709 89.2764 62.3917 89.2601 62.6178C89.2526 62.7223 89.245 62.828 89.2353 62.9349C89.5194 62.9667 89.6654 62.828 89.8063 62.6942C89.8344 62.6675 89.8623 62.641 89.8911 62.6161C91.4802 61.2401 92.6955 59.5526 93.8098 57.784C94.1179 57.2949 94.4028 56.7901 94.6875 56.2857L94.6904 56.2805C94.7455 56.183 94.8005 56.0855 94.8557 55.9881C95.0098 55.7157 95.2274 55.6141 95.4796 55.8392C95.8455 56.1678 96.1672 56.0438 96.5291 55.888C97.1134 55.6371 97.7003 55.3915 98.2945 55.1659C98.7416 54.9969 98.9667 55.0497 99.2111 55.3744C99.4618 55.7084 99.6126 56.0936 99.4048 56.4984C99.2471 56.8046 99.044 57.0936 98.8258 57.3622C97.7433 58.6966 96.6926 60.0541 95.788 61.5194C95.6392 61.7606 95.5441 62.035 95.4638 62.3216C95.9156 62.1736 96.2459 61.8651 96.5683 61.564L96.5695 61.5629C96.621 61.5147 96.6723 61.4668 96.7239 61.4198C97.389 60.8116 98.0276 60.1738 98.6662 59.5361L98.6691 59.5333C98.8037 59.3988 98.9383 59.2644 99.0732 59.1302C99.8792 58.3273 100.678 57.5178 101.477 56.7086L101.478 56.7084L101.69 56.4935C101.771 56.4108 101.848 56.3237 101.925 56.2366L101.925 56.2364C102.005 56.1458 102.085 56.0552 102.17 55.9696C102.494 55.6429 102.889 55.6488 103.143 56.0243C103.361 56.347 103.494 56.7181 103.25 57.1029L103.148 57.2633C102.877 57.687 102.607 58.1105 102.326 58.5267C101.655 59.5174 101.161 60.597 100.757 61.722C100.739 61.7718 100.732 61.8295 100.733 61.8837C100.734 61.9025 100.744 61.9215 100.764 61.9571C100.775 61.9787 100.791 62.0064 100.809 62.0438L100.985 61.8925L100.985 61.8924C101.092 61.8003 101.198 61.7091 101.305 61.6161C102.691 60.1835 106.087 56.6971 106.236 56.6107C106.5 56.4588 106.7 56.5428 106.763 56.8778C107.173 58.4842 107.832 59.4879 108.12 59.9279L108.121 59.9281C108.163 59.9929 108.198 60.0454 108.222 60.0858ZM85.2017 62.8571C85.3153 62.7923 85.4289 62.7274 85.5236 62.641C85.653 62.5234 85.783 62.4062 85.9129 62.289L85.9132 62.2887C87.2012 61.127 88.4898 59.9648 89.2992 58.3695C89.3396 58.2895 89.3907 58.2148 89.4417 58.1402C89.5046 58.0481 89.5674 57.9562 89.6094 57.8553C89.6502 57.7572 89.6348 57.598 89.5788 57.5077C89.5466 57.4545 89.3686 57.4422 89.2859 57.4798C89.0554 57.5819 88.8165 57.6893 88.6237 57.8485C87.1476 59.0672 85.9159 60.4891 85.1347 62.2709C85.0773 62.4018 85.039 62.5411 85.0006 62.6807C84.983 62.7446 84.9654 62.8086 84.9459 62.8719L84.9795 62.8969L84.9798 62.8972C85.0024 62.9139 85.0249 62.9305 85.0476 62.9481C85.0977 62.9164 85.1497 62.8867 85.2017 62.8571Z" fill="white"/>
<rect y="81.5" width="184" height="0.5" fill="white"/>
<path d="M2.60317 107.764H8.22697V106.198H4.32497V99.9373H2.60317V107.764ZM10.4758 107.764H16.435V106.232H12.1864V104.588H15.876V103.057H12.1864V101.469H16.3791V99.9373H10.4758V107.764ZM23.2186 107.764H24.9068V102.688L27.087 105.997H27.1317L29.3343 102.654V107.764H31.0449V99.9373H29.189L27.1317 103.247L25.0745 99.9373H23.2186V107.764ZM37.6768 107.898C40.0918 107.898 41.8471 106.075 41.8471 103.85V103.828C41.8471 101.603 40.1142 99.8031 37.6992 99.8031C35.2842 99.8031 33.5288 101.626 33.5288 103.85V103.873C33.5288 106.098 35.2618 107.898 37.6768 107.898ZM37.6992 106.31C36.3128 106.31 35.3289 105.192 35.3289 103.85V103.828C35.3289 102.486 36.2904 101.391 37.6768 101.391C39.0632 101.391 40.0471 102.509 40.0471 103.85V103.873C40.0471 105.215 39.0856 106.31 37.6992 106.31ZM44.3248 107.764H46.0243V102.788L49.8145 107.764H51.2791V99.9373H49.5797V104.756L45.9125 99.9373H44.3248V107.764ZM54.1082 107.764H57.1605C59.6202 107.764 61.3197 106.053 61.3197 103.85V103.828C61.3197 101.626 59.6202 99.9373 57.1605 99.9373H54.1082V107.764ZM55.83 106.21V101.491H57.1605C58.5693 101.491 59.5196 102.464 59.5196 103.85V103.873C59.5196 105.259 58.5693 106.21 57.1605 106.21H55.83ZM63.8825 107.764H65.6043V99.9373H63.8825V107.764ZM67.8398 107.764H69.5951L70.3106 106.008H73.6201L74.3356 107.764H76.1357L72.7815 99.8814H71.1939L67.8398 107.764ZM70.9256 104.488L71.9654 101.95L73.0052 104.488H70.9256ZM78.294 107.764H83.9178V106.198H80.0158V99.9373H78.294V107.764ZM90.4689 107.764H93.5212C95.9809 107.764 97.6804 106.053 97.6804 103.85V103.828C97.6804 101.626 95.9809 99.9373 93.5212 99.9373H90.4689V107.764ZM92.1907 106.21V101.491H93.5212C94.93 101.491 95.8803 102.464 95.8803 103.85V103.873C95.8803 105.259 94.93 106.21 93.5212 106.21H92.1907ZM100.165 107.764H106.124V106.232H101.876V104.588H105.565V103.057H101.876V101.469H106.068V99.9373H100.165V107.764ZM112.908 107.764H118.532V106.198H114.63V99.9373H112.908V107.764ZM119.886 103.537C121.216 103.515 121.954 102.923 121.954 101.447V99.9373H120.143V101.726H120.836C120.892 102.363 120.512 102.755 119.74 102.833L119.886 103.537ZM128.284 107.898C130.699 107.898 132.454 106.075 132.454 103.85V103.828C132.454 101.603 130.721 99.8031 128.306 99.8031C125.891 99.8031 124.136 101.626 124.136 103.85V103.873C124.136 106.098 125.869 107.898 128.284 107.898ZM128.306 106.31C126.92 106.31 125.936 105.192 125.936 103.85V103.828C125.936 102.486 126.897 101.391 128.284 101.391C129.67 101.391 130.654 102.509 130.654 103.85V103.873C130.654 105.215 129.692 106.31 128.306 106.31ZM134.932 107.764H136.653V105.416H137.962C139.717 105.416 141.126 104.477 141.126 102.665V102.643C141.126 101.044 139.996 99.9373 138.129 99.9373H134.932V107.764ZM136.653 103.884V101.491H137.984C138.845 101.491 139.381 101.905 139.381 102.677V102.699C139.381 103.37 138.878 103.884 138.017 103.884H136.653ZM145.173 107.764H146.894V101.525H149.276V99.9373H142.791V101.525H145.173V107.764ZM151.629 107.764H153.35V99.9373H151.629V107.764ZM163.245 107.998L164.34 106.78L163.535 106.098C163.982 105.449 164.228 104.667 164.228 103.85V103.828C164.228 101.603 162.495 99.8031 160.08 99.8031C157.665 99.8031 155.91 101.626 155.91 103.85V103.873C155.91 106.098 157.643 107.898 160.058 107.898C160.93 107.898 161.724 107.652 162.384 107.227L163.245 107.998ZM160.08 106.31C158.694 106.31 157.71 105.192 157.71 103.85V103.828C157.71 102.486 158.672 101.391 160.058 101.391C161.444 101.391 162.428 102.509 162.428 103.85V103.873C162.428 104.264 162.361 104.622 162.216 104.946L160.93 103.783L159.834 105.013L161.109 106.098C160.807 106.232 160.461 106.31 160.08 106.31ZM169.971 107.887C172.073 107.887 173.403 106.724 173.403 104.354V99.9373H171.681V104.421C171.681 105.662 171.044 106.299 169.993 106.299C168.942 106.299 168.305 105.639 168.305 104.365V99.9373H166.583V104.41C166.583 106.713 167.869 107.887 169.971 107.887ZM176.107 107.764H182.067V106.232H177.818V104.588H181.508V103.057H177.818V101.469H182.011V99.9373H176.107V107.764Z" fill="white"/>
</svg>
