<svg width="175" height="30" viewBox="0 0 175 30" fill="none" xmlns="http://www.w3.org/2000/svg">
<path fill-rule="evenodd" clip-rule="evenodd" d="M112.83 19.8895C108.254 19.8895 104.806 16.4742 104.806 11.9434C104.806 7.3665 108.254 3.95117 112.83 3.95117C117.451 3.95117 120.9 7.3665 120.9 11.9434C120.9 16.4742 117.451 19.8895 112.83 19.8895ZM130.35 15.245C130.35 14.4018 129.522 13.9925 128.119 13.6053L125.153 12.8076C122.785 12.1936 121.566 10.7591 121.566 8.66451C121.566 6.09067 123.521 3.97391 127.821 3.97391C130.073 3.97391 132.235 4.56523 133.431 5.20314L132.511 8.1858C131.362 7.45747 129.407 6.88779 127.706 6.88779C125.728 6.88779 124.901 7.50296 124.901 8.39049C124.901 9.23364 125.475 9.57478 126.602 9.89319L129.499 10.7136C132.327 11.5102 133.707 12.7849 133.707 14.9943C133.707 17.9087 131.108 19.8895 127.337 19.8895C125.061 19.8895 122.831 19.1152 121.82 18.5466L122.578 15.5179C123.705 16.2462 125.521 16.9751 127.407 16.9751C129.292 16.9751 130.35 16.2695 130.35 15.245ZM135.293 19.6621H138.513V4.1786H135.293V19.6621ZM140.903 4.1786H144.122V12.9219C144.122 15.3815 145.387 16.9524 147.984 16.9524C150.629 16.9524 151.917 15.2905 151.917 12.8991V4.1786H155.135V13.1266C155.135 16.7704 152.653 19.9128 147.984 19.9128C143.363 19.9128 140.903 17.0661 140.903 13.1266V4.1786ZM175 19.6621H171.782V9.2109L166.54 15.4497H165.965L160.746 9.2109V19.6621H157.526V4.1786H160.423L166.263 11.0775L172.103 4.1786H175V19.6621ZM107.978 11.9434C107.978 9.09718 110.024 6.97876 112.854 6.97876C115.727 6.97876 117.727 9.09718 117.727 11.9434C117.727 14.7441 115.727 16.9069 112.854 16.9069C110.024 16.9069 107.978 14.7441 107.978 11.9434ZM98.3444 6.95602C99.9307 6.95602 101.196 7.95837 101.196 9.80222C101.196 11.5329 99.9307 12.6029 98.3444 12.6029H94.5965V6.95602H98.3444ZM94.5965 19.6621H91.378V4.1786H98.8508C101.909 4.1786 104.53 5.95477 104.53 9.82496C104.53 13.3091 101.909 15.3815 98.8508 15.3815H94.5965V19.6621Z" fill="white"/>
<path fill-rule="evenodd" clip-rule="evenodd" d="M23.0712 19.9123C18.4898 19.9123 15.036 16.492 15.036 11.9539C15.036 7.37149 18.4898 3.95117 23.0712 3.95117C27.7002 3.95117 31.154 7.37149 31.154 11.9539C31.154 16.492 27.7002 19.9123 23.0712 19.9123ZM50.2642 19.6843H47.0406V9.21811L41.791 15.4658H41.2152L35.9885 9.21811V19.6843H32.7655V4.1786H35.6659L41.5154 11.088L47.3638 4.1786H50.2642V19.6843ZM65.2306 16.8797V19.6843H52.8431V4.1786H65.2306V6.9832H55.9289V10.3353H63.5496V13.1404H55.9289V16.8797H65.2306ZM18.2137 11.9539C18.2137 9.10495 20.2621 6.9832 23.0942 6.9832C25.9733 6.9832 27.9763 9.10495 27.9763 11.9539C27.9763 14.7591 25.9733 16.9252 23.0942 16.9252C20.2621 16.9252 18.2137 14.7591 18.2137 11.9539Z" fill="white"/>
<path d="M13.3963 6.28426C12.3426 4.79488 10.5323 3.95117 8.05927 3.95117C3.43085 3.95117 0 6.91497 0 11.9539C0 16.9479 3.43085 19.9123 8.05927 19.9123C10.6611 19.9123 13.0787 18.7263 14.4829 17.4039L12.9633 15.0098C11.8122 16.0588 10.0623 16.9479 8.12817 16.9479C5.25018 16.9479 3.33899 15.1241 3.33899 11.9539C3.33899 8.7394 5.25018 6.91497 8.01278 6.91497C9.3123 6.91497 10.218 7.34708 10.7832 8.09594L13.3963 6.28426Z" fill="white"/>
<path d="M73.2456 12.037L65.6479 2.71181C65.6479 2.71181 64.7214 1.57854 66.4651 1.47093C68.2083 1.36276 72.2401 1.47093 72.2401 1.47093C72.2401 1.47093 73.2456 1.44097 74.0925 2.28024C75.1467 3.3242 82.0157 12.0431 82.0157 12.0431L73.2456 12.037Z" fill="#A3063F"/>
<path d="M82.0156 12.0427L67.9539 28.224C67.9539 28.224 67.21 29.0333 65.3929 29.0333H60.0565C59.8274 29.0333 59.6201 28.9068 59.4812 28.7166C59.3115 28.4836 59.302 28.1375 59.7271 27.5761C60.5444 26.4972 73.2455 12.0371 73.2455 12.0371L82.0156 12.0427Z" fill="#A3063F"/>
<g opacity="0.699997" clip-path="url(#clip0)">
<g clip-path="url(#clip1)">
<mask id="mask0" mask-type="alpha" maskUnits="userSpaceOnUse" x="60" y="0" width="28" height="13">
<rect x="60.36" y="0.878906" width="26.6966" height="11.703" fill="white"/>
</mask>
<g mask="url(#mask0)">
<mask id="mask1" mask-type="alpha" maskUnits="userSpaceOnUse" x="65" y="1" width="18" height="12">
<path d="M73.7903 12.0207L65.6481 2.69665C65.6481 2.69665 64.7188 1.50292 66.4653 1.45577C68.232 1.40807 72.2409 1.45577 72.2409 1.45577C72.2409 1.45577 73.2464 1.42582 74.0927 2.26454C75.1469 3.30794 82.0153 12.0274 82.0153 12.0274L73.7903 12.0207Z" fill="white"/>
</mask>
<g mask="url(#mask1)">
<rect x="59.4557" y="5.7041" width="20.1675" height="19.0897" transform="rotate(-39.5001 59.4557 5.7041)" fill="url(#paint0_linear)"/>
</g>
</g>
</g>
</g>
<g opacity="0.699997" clip-path="url(#clip2)">
<g clip-path="url(#clip3)">
<mask id="mask2" mask-type="alpha" maskUnits="userSpaceOnUse" x="54" y="11" width="34" height="19">
<rect x="54.33" y="11.4824" width="32.726" height="18.1059" fill="white"/>
</mask>
<g mask="url(#mask2)">
<mask id="mask3" mask-type="alpha" maskUnits="userSpaceOnUse" x="59" y="12" width="24" height="18">
<path d="M82.0147 12.0432L67.953 28.224C67.953 28.224 67.2102 29.0333 65.3932 29.0333H60.0567C59.8271 29.0333 59.6193 28.9068 59.4803 28.7166C59.3112 28.4836 59.3017 28.1375 59.7262 27.5761C60.5435 26.4972 73.2009 12.0371 73.2009 12.0371L82.0147 12.0432Z" fill="white"/>
</mask>
<g mask="url(#mask3)">
<rect x="50.9334" y="22.418" width="27.5837" height="28.1824" transform="rotate(-51.4005 50.9334 22.418)" fill="url(#paint1_linear)"/>
</g>
</g>
</g>
</g>
<path d="M83.046 11.4252L79.707 7.34315C79.707 7.34315 81.3762 5.29129 81.6854 4.89468C82.0081 4.5735 82.4399 4.1081 83.5821 4.0127H87.5658C87.5658 4.0127 88.0766 4.0127 88.2721 4.47033C88.3724 4.70497 88.3651 4.97511 88.1567 5.22084C87.349 6.17272 83.046 11.4252 83.046 11.4252Z" fill="white"/>
<path d="M83.046 13.0986L79.707 17.0992L80.9489 18.8071C80.9489 18.8071 81.8384 19.8966 83.158 19.8966H86.9384C86.9384 19.8966 87.3703 19.8966 87.5787 19.5576C87.717 19.3358 87.7495 18.9497 87.5389 18.6912C86.9323 17.9468 83.046 13.0986 83.046 13.0986Z" fill="white"/>
<defs>
<linearGradient id="paint0_linear" x1="-25.2996" y1="65.6244" x2="-24.7393" y2="65.6244" gradientUnits="userSpaceOnUse">
<stop stop-color="#A3063F"/>
<stop offset="0.989609" stop-color="#BD5E6B"/>
<stop offset="1" stop-color="#BD5E6B"/>
</linearGradient>
<linearGradient id="paint1_linear" x1="-27.4324" y1="73.4215" x2="-26.8723" y2="73.4215" gradientUnits="userSpaceOnUse">
<stop stop-color="#A3063F"/>
<stop offset="0.989609" stop-color="#BD5E6B"/>
<stop offset="1" stop-color="#BD5E6B"/>
</linearGradient>
<clipPath id="clip0">
<rect width="26.6966" height="11.703" fill="white" transform="translate(60.36 0.878906)"/>
</clipPath>
<clipPath id="clip1">
<rect width="26.6966" height="11.703" fill="white" transform="translate(60.36 0.878906)"/>
</clipPath>
<clipPath id="clip2">
<rect width="32.726" height="18.1059" fill="white" transform="translate(54.33 11.4824)"/>
</clipPath>
<clipPath id="clip3">
<rect width="32.726" height="18.1059" fill="white" transform="translate(54.33 11.4824)"/>
</clipPath>
</defs>
</svg>
