<svg width="163" height="76" viewBox="0 0 163 76" fill="none" xmlns="http://www.w3.org/2000/svg">
<path fill-rule="evenodd" clip-rule="evenodd" d="M0.628607 26.4059C3.0068 30.9862 7.0553 30.9862 9.73431 30.9862C15.9605 30.9862 19.5316 28.1284 19.5316 23.146C19.5316 16.5555 14.8834 15.5861 10.7805 14.7305L10.7801 14.7304C6.99327 13.941 4.0021 13.3175 4.0021 9.14729C4.0021 3.84499 9.12131 3.5766 10.1473 3.5766C10.4062 3.5766 10.6489 3.5907 10.8492 3.6168C13.0866 3.91448 13.7158 4.66881 14.3244 5.39845L14.3251 5.39929L14.4786 5.5822C14.8092 5.97013 15.0578 6.39914 15.2979 6.81368L15.298 6.81371L15.298 6.81372L15.299 6.8155L15.3049 6.82569L15.3049 6.82572C15.5097 7.17923 15.7032 7.51315 15.9393 7.81039C15.9999 7.8868 16.1178 7.9791 16.331 7.9791C16.8519 7.97859 17.8725 7.3727 18.1518 6.89819C18.2876 6.6666 18.2338 6.49439 18.1895 6.4135C16.0954 2.5432 13.7467 0.891998 10.337 0.891998C5.75851 0.891998 0.892504 3.6796 0.892504 8.8455C0.892504 15.6097 5.5892 16.7353 9.73341 17.7284L9.7346 17.7287C13.4712 18.6223 16.4221 19.3289 16.4221 23.3968C16.4221 26.8991 14.6118 28.3266 10.1732 28.3266C9.8772 28.3266 9.5694 28.3209 9.25171 28.3084C7.00499 28.219 6.32674 27.8176 5.38828 27.2623L5.3878 27.262L5.315 27.219C4.21609 26.5694 3.74806 25.903 3.10068 24.9811L3.0991 24.9789L2.88951 24.6816C2.81761 24.5797 2.67691 24.4591 2.41431 24.4591C1.87781 24.4591 1.05081 24.9925 0.712004 25.5565C0.479106 25.9444 0.538504 26.232 0.628607 26.4059ZM147.334 30.9464C139.114 30.9464 132.426 24.2268 132.426 15.9681C132.426 7.68229 139.114 0.939998 147.334 0.939998C155.527 0.939998 162.193 7.68229 162.193 15.9681C162.193 24.2268 155.527 30.9464 147.334 30.9464ZM147.334 3.95469C140.764 3.95469 135.418 9.34359 135.418 15.9681C135.418 22.4799 140.874 27.9804 147.334 27.9804C153.931 27.9804 159.299 22.592 159.299 15.9681C159.299 9.4552 153.82 3.95469 147.334 3.95469ZM36.783 31.0084H34.8411C34.5467 31.0084 34.307 30.7666 34.307 30.4699V1.4675C34.307 1.17019 34.5467 0.928998 34.8411 0.928998H36.783C37.0776 0.928998 37.317 1.17019 37.317 1.4675V30.4699C37.317 30.7666 37.0776 31.0084 36.783 31.0084ZM55.1791 31.0084H73.1484C73.4429 31.0084 73.6824 30.7666 73.6824 30.4699V28.714C73.6824 28.4167 73.4429 28.1749 73.1484 28.1749H57.6048V1.4675C57.6048 1.17019 57.3656 0.928998 57.0707 0.928998H55.1791C54.8841 0.928998 54.645 1.17019 54.645 1.4675V30.4699C54.645 30.7666 54.8841 31.0084 55.1791 31.0084ZM116.622 31.0084H114.881C114.587 31.0084 114.346 30.7666 114.346 30.4699V6.1027L102.218 30.5101C102.033 30.8782 101.443 30.8754 101.263 30.5101L89.1829 6.3423V30.4699C89.1829 30.7666 88.9435 31.0084 88.6488 31.0084H86.9061C86.6119 31.0084 86.372 30.7666 86.372 30.4699V1.4675C86.372 1.17019 86.6119 0.928998 86.9061 0.928998H89.5446C89.7477 0.928998 89.931 1.0422 90.0221 1.2251L101.74 24.8013L113.457 1.2257C113.549 1.0422 113.732 0.928998 113.935 0.928998H116.622C116.917 0.928998 117.156 1.17019 117.156 1.4675V30.4699C117.156 30.7666 116.917 31.0084 116.622 31.0084ZM69.5132 61.5382L69.5135 61.5381L69.5136 61.5381L69.5137 61.538C69.5926 61.5125 69.6715 61.4869 69.749 61.4584C69.7869 61.4912 69.8252 61.5246 69.863 61.5586C69.8375 61.6176 69.8123 61.6765 69.7871 61.7355L69.7866 61.7365L69.7862 61.7375L69.7856 61.7389C69.7313 61.8656 69.6771 61.9922 69.6214 62.1186C69.4066 62.6033 69.1915 63.0879 68.9763 63.5726C68.5382 64.5596 68.1 65.5468 67.6642 66.5353C66.564 69.0279 65.5893 71.5692 64.7859 74.1751C64.7183 74.3931 64.6795 74.623 64.6501 74.85C64.6244 75.0505 64.6735 75.2396 64.8841 75.3268C65.1266 75.4276 65.2438 75.2373 65.3352 75.0794L65.3977 74.971C65.6255 74.5762 65.8541 74.18 66.0342 73.7634C66.1899 73.4038 66.3282 73.0365 66.4667 72.669L66.4668 72.6687L66.4669 72.6684L66.467 72.6681L66.4671 72.6678C66.5988 72.3182 66.7306 71.9685 66.8774 71.6253C67.7235 69.6519 68.5773 67.682 69.4478 65.7188C70.1156 64.2131 70.8038 62.716 71.5032 61.2245C71.7115 60.78 71.9241 60.3366 72.3943 60.066C73.9322 59.1792 75.4637 58.2817 76.9789 57.3571L77.0485 57.3147C78.6212 56.3561 80.1942 55.3973 81.6413 54.2433L81.6614 54.2273C82.8653 53.2678 84.0638 52.3127 85.0767 51.134C85.8253 50.2615 86.3916 49.3034 86.7332 48.2077C87.2536 46.5407 86.3047 44.8425 84.6342 44.3906C82.8188 43.8986 81.0396 44.1528 79.2812 44.6432C77.5546 45.1256 75.8624 45.7173 74.2285 46.4631C73.0148 47.0169 71.8022 47.5769 70.6195 48.193C70.0104 48.5098 69.4279 48.8789 68.8457 49.2479C68.639 49.379 68.4323 49.51 68.2245 49.6386C67.9661 49.7984 67.7059 49.9559 67.4457 50.1135L67.4454 50.1137L67.4451 50.1138L67.4449 50.114C66.743 50.539 66.0406 50.9642 65.3713 51.4358C63.6698 52.6346 62.0491 53.9409 60.5288 55.3701C59.6621 56.1855 58.8682 57.0649 58.2517 58.0903C58.0666 58.3967 57.9314 58.741 57.817 59.083C57.6913 59.4601 57.878 59.7596 58.1576 59.9929C58.4365 60.2262 58.6779 60.1334 58.6912 59.767C58.7085 59.3174 58.894 58.9618 59.1494 58.6147C59.8906 57.6085 60.7381 56.7008 61.6534 55.8571C64.0246 53.6719 66.6011 51.7813 69.4147 50.2048C71.3155 49.1403 73.2498 48.1556 75.2579 47.3204C77.5704 46.3589 79.9423 45.5939 82.4575 45.4053C83.3732 45.3357 84.283 45.4478 85.1481 45.7802C85.7247 46.0022 85.9299 46.4631 85.7999 47.0695C85.6151 47.9359 85.2001 48.6862 84.6573 49.3628C83.5751 50.7122 82.3425 51.8939 80.9418 52.9171C78.6549 54.5864 76.28 56.1091 73.8335 57.5224C73.7715 57.5579 73.7017 57.5795 73.6046 57.6095L73.6045 57.6095C73.5496 57.6265 73.486 57.6461 73.4102 57.6725C73.5606 57.3885 73.7069 57.1153 73.8493 56.8491L73.8494 56.849L73.8498 56.8483L73.8504 56.8472C74.1678 56.2543 74.4666 55.6961 74.7507 55.1306C75.0338 54.567 75.2981 53.9934 75.5621 53.4202C75.6424 53.246 75.7227 53.0718 75.8035 52.8979C75.95 52.5825 75.948 52.2643 75.7684 51.9596C75.6387 51.7405 75.4871 51.5298 75.2045 51.5287C74.961 51.5273 74.8778 51.7086 74.7945 51.8902C74.7804 51.9208 74.7664 51.9514 74.7516 51.9811L74.5369 52.4128C74.1737 53.1437 73.8103 53.8749 73.4333 54.5978C73.1108 55.2167 72.7838 55.833 72.4569 56.4493C72.0384 57.2379 71.62 58.0265 71.2112 58.8202C71.0682 59.0977 70.8684 59.2698 70.6082 59.4001C70.1487 59.6301 69.6903 59.8623 69.2319 60.0945L69.2318 60.0946L69.2317 60.0946L69.2317 60.0947L69.2316 60.0947C68.1409 60.6472 67.0504 61.1996 65.9464 61.7222C64.5851 62.3683 63.197 62.9589 61.6802 63.1509C61.5516 63.1673 61.3492 63.2856 61.3366 63.3779C61.3176 63.524 61.389 63.7279 61.4946 63.8355C61.7999 64.148 62.2169 64.1831 62.6161 64.1271C63.1229 64.0563 63.6335 63.9606 64.1217 63.8083C65.8168 63.2794 67.4491 62.5948 69.0085 61.7375C69.1661 61.6507 69.3396 61.5945 69.5132 61.5382ZM93.4716 54.9706C93.4765 54.9602 93.482 54.9479 93.4882 54.934C93.5294 54.8415 93.5996 54.6841 93.7128 54.6413C93.8695 54.5824 94.1308 54.6531 94.277 54.7613C94.4291 54.874 94.5399 55.0875 94.5941 55.2783C94.6798 55.588 94.7404 55.9142 94.7466 56.2335C94.7539 56.5942 94.5233 56.7177 94.2212 56.5291C93.8147 56.2754 93.4281 55.8377 93.4587 54.9946C93.4624 54.989 93.4667 54.9808 93.4716 54.9706ZM97.6004 67.1798C97.3677 67.3584 97.0677 67.4382 96.783 67.4224C96.8824 66.5831 97.351 66.0996 97.8389 65.5963L97.8391 65.5961C97.9228 65.5098 98.0071 65.4228 98.0901 65.3334C98.0901 65.3334 98.0901 65.3334 98.09 65.3334C98.0068 65.423 97.9223 65.5101 97.8385 65.5966C97.3506 66.1 96.882 66.5835 96.7826 67.4228C97.0674 67.4386 97.3677 67.3586 97.6004 67.1798ZM98.6522 63.7773C101.212 62.0633 104.16 61.3476 104.645 61.2847C104.851 61.2575 104.964 61.3855 104.965 61.5808C104.967 61.7405 104.798 61.9546 104.663 61.9381C102.004 62.3042 99.6083 63.8931 99.0348 64.2735L99.0346 64.2736C98.9926 64.3015 98.9604 64.3228 98.9386 64.3368C98.9541 64.4053 98.9886 64.4984 99.0307 64.6122L99.0307 64.6123C99.2588 65.2284 99.7106 66.4489 98.5955 67.6509C97.9682 68.3175 97.2217 68.4692 96.416 68.1838C96.1619 68.0938 95.9673 67.8583 95.9095 67.587C95.8544 67.327 95.8969 67.0117 95.9678 66.7479C96.1265 66.1505 96.5014 65.7262 96.8856 65.3209C97.0528 65.1443 97.193 65.0092 97.3216 64.8851L97.3217 64.8851C97.4319 64.7788 97.5336 64.6807 97.6367 64.5718C97.9118 64.2804 97.7824 64.1339 97.4163 63.7191C97.1832 63.4551 96.8543 63.0825 96.4726 62.4948C95.4549 63.4257 93.9227 64.9013 91.2857 67.5241C91.1231 67.6856 90.9327 67.8192 90.7417 67.9432C90.2565 68.2591 89.8428 68.1833 89.5053 67.7122C89.23 67.3254 89.0837 66.8877 89.1426 66.4098C89.1758 66.137 89.2326 65.8674 89.2895 65.5978L89.2896 65.5975L89.2896 65.5974C89.3119 65.4917 89.3342 65.386 89.355 65.2801C89.3782 65.1627 89.4036 65.0462 89.4291 64.9296C89.4419 64.8708 89.4548 64.812 89.4674 64.753C89.4331 64.7349 89.3987 64.7167 89.3648 64.698C89.3288 64.7285 89.2918 64.758 89.2549 64.7874C89.1795 64.8475 89.1041 64.9074 89.0385 64.9766C87.9745 66.0972 86.7503 67.0254 85.5264 67.9533L85.5263 67.9534L85.3614 68.0785C84.7707 68.527 84.0631 68.3362 83.7477 67.6413C83.5047 67.1057 83.4475 66.5501 83.6722 65.9659C84.2298 64.5163 85.0601 63.236 85.9923 62.0129C86.1375 61.8214 86.2804 61.628 86.442 61.4093L86.4435 61.4072C86.5486 61.265 86.6616 61.1121 86.7883 60.9421C86.6413 60.9555 86.5051 60.9654 86.3769 60.9748L86.3766 60.9748L86.3765 60.9748C86.0767 60.9967 85.8204 61.0155 85.5707 61.0678C85.4313 61.0962 85.2959 61.2587 85.2058 61.3923C84.8446 61.9282 84.4874 62.4674 84.1302 63.0067L84.1301 63.0068C83.7786 63.5376 83.4271 64.0683 83.0716 64.596C82.2419 65.827 81.2294 66.8962 80.0942 67.8395C79.1713 68.6063 78.176 68.3413 77.704 67.228C77.6225 67.0351 77.5759 66.8265 77.5295 66.6186C77.5131 66.545 77.4967 66.4716 77.4788 66.3989C77.4561 66.3074 77.4401 66.2141 77.4194 66.0936C77.4079 66.0264 77.3949 65.9507 77.3785 65.8622C77.2617 65.9657 77.1515 66.0629 77.0459 66.1559L77.0456 66.1561C76.8286 66.3474 76.6312 66.5213 76.4367 66.698C76.3026 66.8197 76.1713 66.9449 76.04 67.07C75.7841 67.3141 75.5283 67.5581 75.2521 67.7756C74.6124 68.2777 74.1362 68.3124 73.6377 67.9602C73.1532 67.6187 72.9048 66.9002 73.0582 66.2626C73.3275 65.1413 73.8626 64.1511 74.5471 63.2405C75.4137 62.0871 76.3833 61.036 77.5993 60.2416C78.4258 59.7015 79.0035 59.7405 79.7584 60.385C79.8272 60.4426 79.9157 60.4852 80.0015 60.5152C80.876 60.8187 81.0416 61.4303 80.4799 62.1753C79.6773 63.2405 79.0359 64.3899 78.8106 65.7326C78.7723 65.9602 78.7556 66.192 78.7385 66.4296L78.7384 66.4313C78.7306 66.5395 78.7227 66.6489 78.7127 66.7597C79.0109 66.7928 79.1642 66.6478 79.3124 66.5078C79.3419 66.4799 79.3712 66.4522 79.4014 66.4262C81.0702 64.9856 82.3465 63.2196 83.5165 61.3684C83.8387 60.8584 84.1367 60.3326 84.4343 59.8075L84.4345 59.8073C84.4794 59.7281 84.5243 59.6489 84.5692 59.5698C84.5845 59.5429 84.5998 59.516 84.6151 59.4892C84.7768 59.2042 85.0053 59.0973 85.2703 59.3334C85.6545 59.6766 85.9923 59.5463 86.3723 59.3843C86.986 59.1217 87.6023 58.8646 88.2264 58.6285C88.696 58.4518 88.9323 58.5062 89.1889 58.8465C89.4522 59.1959 89.6105 59.599 89.3924 60.0226C89.2268 60.3436 89.0135 60.646 88.7845 60.9269C87.6476 62.3232 86.5442 63.7439 85.594 65.2779C85.438 65.5304 85.338 65.8175 85.2537 66.1182C85.7282 65.9625 86.0753 65.6394 86.4141 65.3239L86.4142 65.3239C86.4465 65.2938 86.4788 65.2638 86.511 65.234C86.5329 65.2138 86.5549 65.1936 86.5769 65.1737C87.2725 64.5401 87.9405 63.8752 88.6084 63.2103C88.6932 63.1259 88.778 63.0415 88.8629 62.9571C88.9232 62.8971 88.9836 62.8372 89.0441 62.7773C89.9093 61.9187 90.767 61.0526 91.6247 60.1864L91.626 60.1852L91.6264 60.1847L91.7921 60.0174C91.8792 59.9297 91.9611 59.8371 92.0431 59.7445C92.1257 59.6511 92.2084 59.5577 92.2963 59.4692C92.6364 59.1279 93.0519 59.133 93.3183 59.527C93.5468 59.8646 93.6872 60.2524 93.4307 60.6556L93.3343 60.8061L93.334 60.8066C93.0464 61.2557 92.7591 61.7045 92.46 62.1453C91.7551 63.1827 91.2365 64.3124 90.8124 65.4902C90.7932 65.5423 90.7865 65.6029 90.7875 65.659C90.7878 65.679 90.7987 65.6988 90.8193 65.7358C90.8317 65.7584 90.8478 65.7873 90.8671 65.8266C90.936 65.7672 91.0041 65.7089 91.0718 65.6508C91.1477 65.5858 91.2231 65.5211 91.2987 65.4559C91.3283 65.4304 91.358 65.4049 91.3877 65.3792C92.8431 63.8798 96.4097 60.2309 96.5669 60.1408C96.8434 59.9818 97.0531 60.0696 97.1203 60.4206C97.55 62.1017 98.2423 63.1521 98.5456 63.6122C98.5902 63.68 98.6264 63.735 98.6522 63.7773ZM74.4777 66.6772C74.5966 66.6094 74.7156 66.5417 74.8147 66.4522C74.951 66.3288 75.0878 66.2057 75.2247 66.0827L75.2248 66.0826C76.577 64.867 77.9299 63.6507 78.7798 61.9811C78.8218 61.8984 78.875 61.8209 78.9281 61.7434C78.9946 61.6463 79.0611 61.5494 79.1056 61.4426C79.1483 61.3402 79.1321 61.1737 79.0734 61.0792C79.0396 61.0237 78.8527 61.0111 78.7658 61.0497C78.5237 61.1567 78.2729 61.2694 78.0703 61.4359C76.5201 62.7116 75.2267 64.1998 74.4062 66.0644C74.3461 66.201 74.306 66.3466 74.2658 66.4924L74.2658 66.4925L74.2657 66.4927C74.2471 66.5601 74.2285 66.6275 74.208 66.6941C74.2382 66.7161 74.2682 66.7385 74.2984 66.7611L74.3147 66.7732C74.3676 66.7399 74.4225 66.7086 74.4773 66.6774L74.4776 66.6772L74.4777 66.6772Z" fill="#353030"/>
</svg>
