<svg width="290" height="234" viewBox="0 0 290 234" fill="none" xmlns="http://www.w3.org/2000/svg">
<g clip-path="url(#clip0)">
<path d="M149.281 20.1513C148.047 23.2356 141.056 33.9281 132.626 41.1249C124.812 47.7049 117.615 47.088 115.559 45.2374C113.503 43.3868 113.297 41.9474 114.737 38.0406C116.793 32.4887 124.401 25.2919 129.13 21.5906C133.859 17.8894 142.907 13.9826 146.608 14.5994C150.515 15.0107 150.515 17.2725 149.281 20.1513ZM81.426 46.6768C77.9305 47.088 72.1731 43.1812 63.3314 33.7225C54.9009 24.8806 53.8728 17.4782 54.284 16.0388C54.6953 14.5994 57.3683 14.1882 61.0695 14.8051C64.7707 15.2163 73.6124 21.385 75.463 23.03C77.3136 24.675 88.0059 33.9281 88.6228 40.0968C89.2396 46.0599 84.716 46.4711 81.426 46.6768ZM157.095 1.85075C152.16 -0.205487 147.636 -1.64485 137.149 3.29012C126.663 8.22509 113.092 26.1144 110.624 28.5819C107.951 31.0493 105.484 34.1337 101.577 34.1337C97.6701 34.1337 91.7071 28.1706 89.4453 25.7031C87.1834 23.2356 71.3506 5.14073 64.3595 2.46762C58.1908 0.000136636 51.8166 0.00013639 46.676 2.87887C41.5355 5.75761 37.4231 11.5151 37.6287 12.9544C37.8343 14.3938 40.3018 17.2725 41.1243 18.9175C41.9467 20.5625 43.3861 24.4694 44.6198 25.9087C45.8535 27.3481 48.1154 28.1706 49.966 30.2268C52.0222 32.2831 52.2278 36.1899 54.0784 38.2462C55.929 40.3024 59.2189 42.5643 60.0414 43.798C61.2751 45.443 62.9201 52.4342 65.1819 55.5186C67.4438 58.6029 72.7899 61.2761 74.6405 63.5379C76.4911 65.7998 78.1361 71.5573 79.7811 74.0247C82.2485 77.726 86.3609 79.1653 88.6228 80.6047C90.4734 81.6328 91.5015 85.5397 90.679 88.0072C89.8565 90.4746 86.1553 96.849 85.5384 103.223C84.9216 111.243 87.8003 122.346 90.0621 132.216C92.3239 142.086 95.4083 158.331 95.8195 168.406C96.2307 178.276 96.2308 194.109 96.2308 196.577C96.2308 199.044 96.0251 200.689 96.0251 200.689C96.0251 200.689 83.6879 207.269 82.0429 208.092C80.3979 208.914 79.9867 208.914 79.7811 209.737C79.5754 210.559 78.9586 225.158 78.7529 227.215C78.5473 229.271 78.5473 230.916 79.3698 231.738C80.1923 232.561 90.679 234.823 101.371 234.617C112.064 234.206 123.373 232.561 123.99 231.121C124.606 229.888 123.784 213.849 123.578 212.41C123.373 210.97 123.578 210.353 123.167 209.737C122.756 209.12 111.447 203.773 109.596 202.745C107.746 201.512 104.456 200.072 104.456 200.072C104.456 200.072 105.278 177.659 106.101 168.2C106.923 158.947 109.596 144.142 112.475 133.039C115.354 121.935 117.615 109.598 117.41 104.046C116.998 98.494 110.83 89.4465 111.447 86.1566C112.064 82.8666 113.297 81.0159 117.41 79.371C121.522 77.726 122.55 74.8472 124.606 70.1179C126.663 65.3885 127.691 63.9492 128.925 62.921C130.158 61.8929 136.944 57.9861 139 54.9017C140.851 51.8174 141.673 46.6768 143.318 44.6205C144.963 42.5643 149.281 37.8349 150.72 36.3956C151.954 34.9562 152.571 32.0775 153.805 30.4325C155.038 28.7875 158.534 26.7312 160.179 24.4694C161.413 22.8244 162.441 19.3288 163.058 17.8894C163.675 16.6557 166.142 14.1882 166.142 12.7488C166.759 10.6926 162.03 3.90699 157.095 1.85075Z" fill="white" fill-opacity="0.4"/>
<path d="M0.205627 180.743V182.388H3.28995V190.613H5.14054V182.388H8.22486V180.743H0.205627Z" fill="white"/>
<path d="M17.0666 190.613V186.501H12.3373V190.613H10.4867V180.743H12.3373V184.856H17.0666V180.743H18.9172V190.613H17.0666Z" fill="white"/>
<path d="M29.1982 190.613H21.7958V180.743H29.1982V182.594H23.6464V184.856H28.9926V186.501H23.6464V188.763H29.1982V190.613Z" fill="white"/>
<path d="M39.8905 182.8L38.0399 186.912H41.7411L39.8905 182.8ZM42.5636 188.763H37.4231L36.6006 190.613H34.5444L39.068 180.743H41.1243L45.6479 190.613H43.5917L42.5636 188.763Z" fill="white"/>
<path d="M56.5459 190.613H54.9009L53.6672 187.529L52.6391 184.445L51.611 187.529L50.3772 190.613H48.7323L45.2367 180.743H47.2929L49.5547 187.735L52.0222 180.743H53.2559L55.7234 187.735L57.9852 180.743H60.0414L56.5459 190.613Z" fill="white"/>
<path d="M66.6213 182.8L64.7707 186.912H68.4719L66.6213 182.8ZM69.2944 188.763H64.1538L63.3314 190.613H61.2751L65.7988 180.743H67.855L72.3787 190.613H70.3225L69.2944 188.763Z" fill="white"/>
<path d="M75.8742 182.389V185.473H78.7529C79.9867 185.473 80.3979 184.651 80.3979 183.828C80.3979 183.006 79.781 182.184 78.7529 182.184H75.8742V182.389ZM82.6597 190.614H80.3979L77.5192 187.324H75.6686V190.614H74.0237V180.744C75.6686 180.744 77.108 180.744 78.7529 180.744C81.0148 180.744 82.2485 182.389 82.2485 184.034C82.2485 185.473 81.6316 186.707 79.781 187.118L82.6597 190.614Z" fill="white"/>
<path d="M86.3609 188.763H88.4171C90.6789 188.763 91.5014 187.118 91.5014 185.473C91.5014 184.033 90.4733 182.388 88.4171 182.388H86.3609V188.763ZM93.1464 185.473C93.1464 187.94 91.7071 190.408 88.2115 190.408H84.3047V180.538H88.2115C91.7071 180.743 93.1464 183.005 93.1464 185.473Z" fill="white"/>
<path d="M289.103 169.434H0V171.079H289.103V169.434Z" fill="white"/>
<path d="M126.868 144.759C127.691 143.731 128.513 142.703 129.336 141.675C129.541 141.264 129.747 141.058 129.953 140.647C130.158 140.236 130.364 140.03 130.57 139.619C130.57 139.413 130.775 139.413 130.775 139.207C130.775 139.002 130.775 139.002 130.981 138.796V138.591V138.385V138.179V137.974L131.803 135.712C132.009 135.301 132.009 135.095 132.214 134.684C132.42 134.272 132.42 133.861 132.626 133.656C132.626 133.45 132.831 133.244 132.831 133.039C132.831 132.833 133.037 132.627 133.037 132.422C133.037 132.216 133.243 132.011 133.243 131.805H133.037H132.626H132.42C132.214 131.805 132.214 131.805 132.009 131.805C131.392 131.805 130.775 132.216 129.953 132.627C129.13 133.039 128.308 133.656 127.485 134.272C127.28 134.478 127.074 134.684 126.868 134.889C126.663 135.095 126.457 135.301 126.251 135.506C126.046 135.506 126.046 135.712 125.84 135.712C125.84 135.917 125.635 135.917 125.429 136.123C125.223 136.329 125.223 136.329 125.018 136.534C124.812 136.74 124.812 136.74 124.607 136.946C124.401 137.151 124.195 137.357 123.99 137.768C123.784 137.974 123.578 138.385 123.373 138.591C123.373 138.796 123.167 138.796 123.167 139.002C122.962 139.207 122.962 139.207 122.756 139.413C122.55 139.824 122.345 140.03 122.139 140.236C121.728 140.852 121.317 141.469 120.905 142.086C120.494 142.703 120.083 143.32 119.672 144.142C119.466 144.348 119.26 144.759 119.055 145.17C118.849 145.376 118.849 145.582 118.643 145.582C118.643 145.787 118.438 145.993 118.438 146.199L118.232 146.404V146.61C118.232 146.61 118.232 146.815 118.027 146.815V147.021C117.821 147.432 117.821 147.638 117.615 148.049C117.615 148.46 117.41 148.666 117.615 149.077V149.283C117.615 149.283 117.615 149.489 117.821 149.694L118.027 149.9C118.027 149.9 118.027 149.9 118.232 149.9C118.232 149.9 118.232 149.9 118.438 149.9H119.26C119.466 149.9 119.672 149.9 119.672 149.9C120.083 149.9 120.494 149.694 120.7 149.489C120.905 149.489 121.111 149.283 121.111 149.283L121.317 149.077C121.317 149.077 121.522 149.077 121.522 148.872C121.933 148.666 122.139 148.46 122.55 148.255C122.756 148.049 123.167 147.844 123.373 147.638C123.99 147.227 124.401 146.61 125.018 146.199C125.84 145.787 126.251 145.17 126.868 144.759ZM142.907 116.383C143.318 116.589 143.524 116.794 143.524 117.206C143.524 117.617 143.524 117.823 143.524 118.234C143.524 118.234 143.524 118.234 143.524 118.439V118.645V118.851L143.318 119.056C143.318 119.056 143.318 119.262 143.112 119.467C143.112 119.673 142.907 119.673 142.907 119.879C142.907 120.084 142.701 120.084 142.701 120.29C142.701 120.496 142.496 120.701 142.496 120.701C142.496 120.701 142.084 121.112 141.879 121.318C141.879 121.524 141.673 121.729 141.673 121.935C141.673 122.141 141.467 122.346 141.262 122.552C141.262 122.757 141.056 122.963 141.056 123.169C140.851 123.374 140.851 123.58 140.645 123.786C140.645 123.991 140.439 123.991 140.439 124.197C140.439 124.402 140.234 124.402 140.234 124.608C140.234 124.814 140.028 124.814 140.028 125.019C140.028 125.225 139.822 125.225 139.822 125.431C139.617 125.636 139.617 125.842 139.411 126.253C139.206 126.459 139.206 126.87 139 127.076C138.794 127.281 138.794 127.692 138.589 127.898C138.383 128.104 138.383 128.515 138.178 128.721C137.972 129.337 137.561 129.954 137.355 130.571C137.149 130.982 136.944 131.188 136.944 131.599C136.738 132.011 136.738 132.216 136.533 132.627C136.533 132.833 136.327 133.039 136.327 133.039C136.327 133.244 136.121 133.45 136.121 133.45V133.656C136.121 133.656 136.121 133.861 135.916 133.861C135.916 133.861 135.916 134.067 135.71 134.067C135.71 134.067 135.71 134.272 135.504 134.272C135.299 134.684 135.093 134.889 135.093 135.301C134.888 135.712 134.682 135.917 134.682 136.329C134.476 136.74 134.271 136.946 134.271 137.357C133.654 137.768 133.654 138.179 133.448 138.591C133.448 138.796 133.243 139.002 133.243 139.002C133.243 139.207 133.037 139.413 133.037 139.619C133.037 139.824 132.831 140.03 132.831 140.03C132.831 140.236 132.626 140.441 132.626 140.647C132.214 141.264 132.009 142.086 131.803 142.703C131.598 143.32 131.392 144.142 131.186 144.759C130.981 145.17 130.981 145.582 130.981 145.787C130.981 146.199 130.775 146.404 130.775 146.815C130.775 147.021 130.775 147.227 130.775 147.432C130.775 147.638 130.775 147.844 130.775 148.049V148.46C130.775 148.666 130.775 148.872 130.775 148.872C130.775 149.283 130.981 149.489 130.981 149.694C130.981 149.694 130.981 149.694 131.186 149.694C131.186 149.694 131.186 149.694 131.392 149.694C131.598 149.694 131.598 149.694 131.803 149.694C132.009 149.694 132.214 149.694 132.626 149.694H132.831H133.037C133.243 149.694 133.448 149.489 133.448 149.489C133.654 149.489 133.654 149.283 133.859 149.283C134.065 149.283 134.065 149.077 134.271 149.077C134.476 149.077 134.476 148.872 134.682 148.872C134.888 148.872 134.888 148.666 135.093 148.666C135.299 148.46 135.504 148.255 135.71 148.049C135.916 147.844 136.121 147.638 136.327 147.432C137.149 146.61 137.972 145.993 138.589 145.17C139 144.759 139.206 144.554 139.411 144.142C139.617 143.937 139.822 143.525 140.028 143.32C140.234 143.114 140.439 142.909 140.645 142.703C140.851 142.497 140.851 142.292 141.056 142.086L141.262 141.881C141.262 141.881 141.262 141.675 141.467 141.675C141.673 141.469 141.879 141.469 142.084 141.469C142.29 141.675 142.29 141.88 142.29 142.086V142.292C142.29 142.292 142.29 142.292 142.084 142.497C141.879 142.703 141.879 142.909 141.673 143.114C141.467 143.32 141.262 143.525 141.056 143.731C140.851 143.937 140.645 144.348 140.439 144.554C140.234 144.965 139.822 145.17 139.617 145.582C139.206 145.993 139 146.199 138.589 146.61C138.178 147.021 137.766 147.432 137.355 147.844C137.149 148.049 136.944 148.255 136.738 148.46C136.533 148.666 136.327 148.872 135.916 149.077C135.71 149.077 135.71 149.283 135.504 149.283C135.299 149.283 135.299 149.489 135.093 149.489C134.888 149.489 134.888 149.694 134.682 149.694C134.476 149.694 134.271 149.9 134.271 149.9C134.271 149.9 134.065 149.9 134.065 150.105C134.065 150.105 134.065 150.105 133.859 150.105C133.859 150.105 133.859 150.105 133.654 150.105H133.448H133.243C133.037 150.105 132.831 150.311 132.626 150.311C132.42 150.311 132.214 150.311 132.009 150.311C131.803 150.311 131.598 150.311 131.392 150.105C131.186 150.105 130.981 149.9 130.775 149.694C129.541 150.517 129.541 150.311 129.336 150.105C129.336 149.9 129.13 149.9 129.13 149.694C129.13 149.694 129.13 149.489 128.925 149.283C128.925 149.077 128.925 148.872 128.719 148.666C128.719 148.46 128.719 148.255 128.719 148.049V147.432C128.719 147.227 128.719 147.021 128.719 146.815C128.719 146.61 128.719 146.404 128.719 146.199C128.719 145.993 128.719 145.787 128.719 145.582C128.719 145.376 128.719 145.17 128.719 144.965C128.719 144.759 128.719 144.554 128.719 144.348C128.719 143.937 128.925 143.731 128.925 143.32C128.925 142.909 129.13 142.703 129.13 142.292C128.719 142.703 128.513 143.32 128.102 143.731C127.691 144.142 127.28 144.759 126.868 145.17C125.84 146.199 124.812 147.432 123.578 148.46C122.962 149.077 122.345 149.489 121.728 149.9C121.728 149.9 121.522 150.105 121.317 150.311V150.517C121.111 150.722 120.905 150.722 120.7 150.722C120.494 150.722 120.288 150.928 120.083 150.928C119.672 151.134 119.055 151.134 118.643 151.134H118.438H118.232H118.027H117.821C117.615 151.134 117.41 150.928 117.41 150.928L117.204 150.722C117.204 150.722 117.204 150.722 116.999 150.517C116.793 150.517 116.793 150.311 116.793 150.105C116.793 149.9 116.587 149.9 116.587 149.694C116.587 149.489 116.382 149.489 116.382 149.283C116.382 149.077 116.382 149.077 116.382 148.872C116.382 148.666 116.382 148.46 116.382 148.255C116.382 148.049 116.382 147.844 116.382 147.638C116.382 147.432 116.382 147.227 116.587 147.021C116.587 146.815 116.587 146.61 116.793 146.404C116.793 146.404 116.793 146.199 116.999 145.993C116.999 145.993 116.999 145.787 116.999 145.582V145.376V145.17L117.204 144.965C117.204 144.759 117.41 144.554 117.41 144.348C117.41 144.142 117.615 143.937 117.615 143.731C117.615 143.525 117.821 143.32 117.821 143.114C117.821 142.909 118.027 142.703 118.027 142.497C118.438 141.675 118.643 141.058 119.055 140.236C119.466 139.413 119.877 138.796 120.288 138.179C120.288 137.974 120.494 137.768 120.494 137.768C120.7 137.562 120.7 137.357 120.7 137.357C120.905 137.151 120.905 136.946 121.111 136.946C121.317 136.74 121.317 136.74 121.522 136.534C121.728 136.123 121.933 135.917 122.139 135.506C122.345 135.301 122.55 134.889 122.756 134.684C122.962 134.478 123.167 134.067 123.578 133.861C123.99 133.656 123.99 133.244 124.401 133.039C124.607 132.833 124.812 132.627 125.223 132.422C125.429 132.216 125.84 132.011 126.046 131.805C126.663 131.394 127.074 130.982 127.485 130.571C127.896 130.16 128.513 129.954 128.925 129.749C129.953 129.132 130.981 128.926 131.803 128.721C132.009 128.721 132.214 128.721 132.42 128.721C132.626 128.721 132.831 128.721 133.037 128.721C133.448 128.721 133.654 128.721 134.065 128.926C134.271 128.926 134.271 128.926 134.476 128.926H134.682C134.682 128.721 134.888 128.721 134.888 128.515C134.888 128.309 135.093 128.309 135.093 128.104C135.093 127.898 135.299 127.898 135.299 127.692C135.299 127.487 135.504 127.281 135.504 127.281C135.504 127.076 135.71 127.076 135.71 126.87C135.71 126.664 135.916 126.664 135.916 126.459C135.916 126.253 136.121 126.253 136.121 126.047C136.121 125.842 136.327 125.842 136.327 125.636C136.533 125.431 136.533 125.019 136.738 124.814C136.944 124.608 136.944 124.197 137.149 123.991C137.149 123.786 137.355 123.786 137.355 123.58C137.355 123.374 137.561 123.374 137.561 123.169L137.972 122.552C138.178 122.346 138.178 122.141 138.383 121.935C138.589 121.729 138.589 121.524 138.794 121.318C139 120.907 139.206 120.496 139.411 120.084C139.617 119.673 139.822 119.468 140.028 119.056C140.028 118.851 140.234 118.851 140.234 118.645C140.234 118.439 140.439 118.439 140.439 118.234C140.439 118.028 140.645 118.028 140.645 117.823C140.645 117.823 140.645 117.617 140.851 117.617C140.851 117.617 141.056 117.411 141.056 117.206V117C141.262 116.589 141.467 116.383 141.879 116.383C142.084 116.178 142.496 116.383 142.907 116.383Z" fill="white"/>
<path d="M148.87 119.468C147.842 123.374 145.785 128.309 144.552 130.366L141.879 130.777C142.907 128.104 144.14 123.169 144.552 119.879L148.87 119.468Z" fill="white"/>
<path d="M173.956 130.16C174.367 128.104 174.367 126.459 174.161 124.814C174.161 123.991 173.956 123.375 173.75 122.758C173.544 122.141 173.133 121.73 172.927 121.318C172.722 121.113 172.516 120.907 172.311 120.907C172.105 120.701 171.899 120.701 171.899 120.496C171.899 120.496 171.694 120.496 171.694 120.29C171.694 120.29 171.488 120.29 171.488 120.085H171.283H171.077C171.077 120.085 171.077 120.085 170.871 120.085C170.666 120.085 170.666 120.085 170.46 120.085H170.254C170.254 120.085 170.254 120.085 170.049 120.085H169.843H169.638H169.432H169.226H169.021H168.815H168.609C168.404 120.085 168.198 120.29 167.993 120.29C167.787 120.29 167.581 120.496 167.376 120.496C167.17 120.496 166.964 120.701 166.759 120.701C166.553 120.701 166.348 120.907 165.936 121.113C165.731 121.113 165.731 121.318 165.525 121.318C165.319 121.318 165.319 121.524 165.114 121.524C164.908 121.524 164.908 121.73 164.703 121.73C164.497 121.73 164.497 121.935 164.291 122.141C164.086 122.346 164.086 122.346 163.88 122.552C163.675 122.758 163.675 122.758 163.469 122.963L163.263 123.169C163.263 123.169 163.263 123.169 163.058 123.375C163.058 123.375 163.058 123.375 163.058 123.58C163.058 123.786 162.852 123.786 162.852 123.991L162.646 124.197V124.403V124.608C162.646 124.814 162.441 124.814 162.441 125.02C162.441 125.225 162.235 125.225 162.235 125.431H162.03C162.03 125.431 161.824 125.636 161.824 125.842C161.618 126.253 161.618 126.459 161.413 126.87C161.207 127.281 161.207 127.487 161.207 127.898C161.207 128.31 161.001 128.515 161.001 128.926C161.001 129.338 160.796 129.749 160.796 129.955C160.796 130.366 160.59 130.777 160.59 131.188C160.59 131.6 160.59 132.011 160.59 132.422V133.039C160.59 133.244 160.59 133.45 160.59 133.656C160.59 133.861 160.59 134.067 160.59 134.273C160.59 134.478 160.59 134.684 160.796 134.889C160.796 135.301 161.001 135.712 161.207 136.123C161.207 136.329 161.413 136.534 161.413 136.534C161.618 136.74 161.618 136.946 161.618 136.946V137.151L161.824 137.357C161.824 137.357 161.824 137.357 162.03 137.357C162.441 137.563 162.646 137.768 163.058 137.768H163.263H163.469C163.675 137.768 163.88 137.768 163.88 137.768C164.086 137.768 164.291 137.563 164.291 137.563L164.703 137.357C164.908 137.357 164.908 137.151 165.114 137.151C165.319 137.151 165.319 136.946 165.525 136.946C165.525 136.946 165.731 136.74 165.936 136.74C165.936 136.74 165.936 136.534 166.142 136.534C166.142 136.534 166.348 136.534 166.348 136.329C166.553 136.123 166.759 135.918 166.964 135.712C167.17 135.506 167.376 135.301 167.376 135.095L167.581 134.889C167.581 134.889 167.581 134.889 167.581 134.684C167.581 134.684 167.581 134.478 167.787 134.478V134.273C167.787 134.273 167.787 134.273 167.787 134.067C167.787 133.861 167.993 133.861 167.993 133.861L168.198 133.656V133.45C168.198 133.45 168.404 133.244 168.404 133.039C168.609 132.833 168.815 132.628 169.021 132.628C169.226 132.628 169.432 132.628 169.638 132.628C169.843 132.833 170.049 133.039 170.049 133.245C170.049 133.45 170.049 133.656 169.843 133.861L169.638 134.067C169.638 134.067 169.432 134.067 169.432 134.273C169.432 134.273 169.432 134.273 169.432 134.478L169.226 134.684L169.021 134.889C168.815 135.095 168.815 135.301 168.609 135.301C168.404 135.506 168.198 135.712 168.198 135.918C167.787 136.329 167.376 136.74 166.759 137.151L166.553 137.357L166.348 137.563C166.348 137.563 166.142 137.563 166.142 137.768C165.731 137.974 165.319 138.179 165.114 138.179C164.908 138.179 164.703 138.385 164.497 138.385C164.291 138.385 164.086 138.591 163.88 138.591H163.469H163.263H163.058H162.852H162.646C162.441 138.591 162.235 138.385 162.03 138.385C161.824 138.385 161.618 138.179 161.413 137.974H161.207L161.001 137.768H160.796C160.796 137.768 160.796 137.563 160.59 137.563C160.59 137.563 160.59 137.563 160.385 137.357V137.151L160.179 136.946C159.973 136.74 159.973 136.534 159.768 136.329C159.768 136.123 159.562 135.918 159.562 135.712C159.356 135.301 159.151 134.889 159.151 134.478C159.151 134.273 158.945 134.067 158.945 133.861C158.945 133.656 158.945 133.45 158.945 133.245C158.945 133.039 158.945 132.833 158.945 132.628V132.011C158.945 131.6 158.945 131.188 158.945 130.777C158.945 130.366 158.945 129.955 159.151 129.543C159.356 128.721 159.562 127.898 159.768 127.281C159.768 126.87 159.973 126.665 159.973 126.253C160.179 125.842 160.179 125.636 160.385 125.225C160.385 125.02 160.385 125.02 160.385 125.02C159.973 125.431 159.562 125.842 159.356 126.459C159.151 126.87 158.74 127.281 158.534 127.693C158.328 128.104 157.917 128.515 157.712 128.926C157.506 129.132 157.506 129.338 157.3 129.543C157.095 129.749 157.095 129.955 156.889 130.16C156.683 130.366 156.683 130.571 156.478 130.777C156.272 130.983 156.272 131.188 156.067 131.394C155.861 131.805 155.655 132.422 155.45 132.833C155.244 133.244 155.038 133.861 154.833 134.273C154.627 134.889 154.422 135.301 154.216 135.918C154.01 136.534 153.805 136.946 153.599 137.563C153.393 138.179 153.393 138.591 153.188 139.208C152.982 139.824 152.982 140.441 152.777 140.853C152.777 141.469 152.571 142.086 152.571 142.498C152.571 143.114 152.571 143.731 152.571 144.143C152.777 145.376 153.188 146.404 153.805 147.227C154.01 147.638 154.422 147.844 155.038 148.255C155.244 148.461 155.45 148.461 155.861 148.666C156.067 148.666 156.067 148.872 156.272 148.872C156.478 148.872 156.478 148.872 156.683 149.078C156.889 149.078 156.889 149.078 157.095 149.078C157.3 149.078 157.3 149.078 157.506 149.078C157.712 149.078 157.917 149.078 157.917 149.078C158.123 149.078 158.328 149.078 158.328 149.078H158.534H158.74H158.945C159.151 149.078 159.151 149.078 159.151 149.078H160.385H160.59H160.796C161.001 149.078 161.001 148.872 161.207 148.872C161.413 148.872 161.413 148.872 161.618 148.666C161.824 148.666 161.824 148.461 162.03 148.461C162.235 148.461 162.235 148.255 162.441 148.255H162.646C162.852 148.255 162.852 148.255 162.852 148.255C163.058 148.049 163.058 148.049 163.263 148.049L163.675 147.844L163.88 147.638C163.88 147.638 164.086 147.638 164.086 147.433C165.114 146.816 165.936 145.788 166.759 144.965C167.581 143.937 168.404 142.909 169.021 142.086C169.638 141.058 170.254 140.03 170.871 139.002C171.488 137.974 171.899 136.946 172.311 135.918C172.722 134.889 173.133 133.861 173.339 132.833C173.544 132.011 173.75 131.188 173.956 130.16ZM175.189 124.814C175.395 126.459 175.395 128.31 174.984 130.366C174.778 131.394 174.572 132.422 174.367 133.45C174.161 134.478 173.75 135.506 173.339 136.74C172.927 137.768 172.516 138.796 171.899 140.03C171.283 141.058 170.666 142.086 170.049 143.32C169.638 143.937 169.432 144.348 169.021 144.965C168.609 145.376 168.198 145.993 167.787 146.404C166.964 147.433 165.936 148.255 164.908 149.078C164.703 149.283 164.703 149.283 164.497 149.489C164.291 149.489 164.291 149.694 164.086 149.694C163.88 149.694 163.88 149.9 163.675 149.9C163.469 149.9 163.469 150.106 163.263 150.106C163.058 150.106 163.058 150.311 162.852 150.311C162.646 150.311 162.646 150.517 162.441 150.517C162.03 150.723 161.824 150.928 161.413 150.928C161.207 150.928 161.001 151.134 161.001 151.134C160.796 151.134 160.59 151.134 160.59 151.339H160.385C160.385 151.339 160.385 151.339 160.179 151.339H159.973H159.768C159.768 151.339 159.768 151.339 159.562 151.339H159.356H159.151H158.945H158.74H158.534H158.123C157.917 151.339 157.712 151.339 157.506 151.339C157.3 151.339 157.095 151.339 156.889 151.339C156.683 151.339 156.478 151.339 156.272 151.134C156.067 151.134 155.861 150.928 155.861 150.928C155.655 150.928 155.45 150.928 155.244 150.723C154.833 150.517 154.627 150.311 154.216 150.106C153.805 149.9 153.599 149.694 153.188 149.283C152.982 149.078 152.571 148.666 152.365 148.461C152.16 148.255 152.16 148.049 151.954 148.049C151.748 147.844 151.749 147.638 151.749 147.433C151.749 147.227 151.543 147.021 151.543 147.021C151.543 146.816 151.337 146.61 151.337 146.404C151.337 146.199 150.72 145.993 150.72 145.993C150.72 145.788 150.72 145.582 150.515 145.376C150.309 145.171 150.515 144.965 150.309 144.759C150.309 144.554 150.309 144.348 150.309 144.143C150.309 143.937 150.309 143.731 150.309 143.731V143.114V142.086C150.309 141.881 150.309 141.675 150.309 141.469C150.309 141.264 150.309 141.058 150.309 141.058C150.309 140.853 150.309 140.647 150.309 140.647C150.309 140.441 150.309 140.236 150.309 140.03C150.309 139.824 150.309 139.619 150.309 139.619C150.309 139.413 150.309 139.208 150.309 139.208C150.309 138.796 150.515 138.591 150.515 138.179C150.515 137.768 150.72 137.563 150.72 137.151C150.926 136.534 151.132 135.918 151.337 135.301C151.543 134.684 151.748 134.067 151.954 133.656C152.16 133.039 152.365 132.422 152.777 132.011C152.982 131.394 153.393 130.983 153.599 130.366C153.805 130.16 154.01 129.955 154.01 129.543C154.216 129.338 154.216 129.132 154.422 128.721C154.627 128.515 154.833 128.31 154.833 128.104C155.038 127.898 155.038 127.693 155.244 127.487C155.655 127.076 155.861 126.665 156.272 126.253C156.683 125.842 156.889 125.431 157.3 125.02C157.712 124.608 157.917 124.197 158.328 123.991C158.74 123.58 158.945 123.375 159.356 122.963C159.768 122.552 159.973 122.346 160.385 122.141C160.796 121.935 161.207 121.524 161.413 121.318C162.03 120.907 162.852 120.496 163.469 120.085C164.086 119.673 164.703 119.468 165.319 119.262C165.525 119.262 165.936 119.056 166.142 119.056C166.348 119.056 166.553 119.056 166.964 118.851H167.17C167.17 118.851 167.376 118.851 167.581 118.851C167.787 118.851 167.993 118.851 168.198 118.851H168.404H168.609C168.609 118.851 168.609 118.851 168.815 118.851H169.021H169.226C169.432 118.851 169.432 118.851 169.638 118.851H169.843C169.843 118.851 169.843 118.851 170.049 118.851C170.46 118.851 170.871 119.056 171.283 119.262L171.488 119.468C171.694 119.468 171.694 119.673 171.899 119.673C172.105 119.879 172.311 120.085 172.516 120.29C172.927 120.701 173.133 121.318 173.544 122.141C174.778 123.169 174.984 123.991 175.189 124.814Z" fill="white"/>
<path d="M194.107 141.881C194.312 142.086 194.312 142.292 194.312 142.498C193.901 143.114 193.284 143.731 192.873 144.348C192.462 144.965 191.845 145.582 191.433 146.199C191.228 146.404 191.022 146.816 190.611 147.021C190.2 147.227 189.994 147.638 189.788 147.844C189.172 148.461 188.555 148.872 187.938 149.283C187.321 149.9 186.704 150.311 185.882 150.517C185.47 150.723 185.059 150.928 184.648 150.928C184.237 150.928 184.031 150.928 184.031 150.928C183.825 150.928 183.62 150.928 183.209 150.723C183.003 150.517 182.797 150.517 182.592 150.311C182.386 150.106 182.18 149.9 182.18 149.694C182.18 149.489 181.975 149.283 181.975 149.078C181.975 148.872 181.975 148.872 181.975 148.666C181.975 148.666 181.975 148.461 181.975 148.255C181.975 148.049 181.975 147.844 181.975 147.638C181.975 147.433 181.975 147.227 181.975 147.021C181.975 146.816 181.975 146.61 181.975 146.404C181.975 146.199 181.975 145.993 182.18 145.788C182.18 145.376 182.386 144.965 182.386 144.554C182.386 144.143 182.592 143.731 182.797 143.32C183.003 142.909 183.003 142.498 183.209 142.086C183.414 141.675 183.414 141.264 183.62 141.058C183.825 140.236 184.237 139.619 184.442 138.796C184.648 137.974 185.059 137.357 185.47 136.74C185.676 136.123 186.087 135.301 186.499 134.684C186.91 134.067 187.115 133.245 187.527 132.628C187.732 132.216 187.732 132.011 187.938 131.6C188.143 131.394 188.143 130.983 188.349 130.777H187.938L186.499 130.983L185.059 131.188L182.592 131.6C182.592 131.6 182.592 131.805 182.386 131.805C182.386 131.805 182.386 132.011 182.18 132.216C182.18 132.422 181.975 132.628 181.975 132.628L181.769 133.039L181.564 133.245V133.45C181.564 133.45 181.358 133.656 181.358 133.861C181.358 134.067 181.152 134.273 181.152 134.478V134.684C181.152 134.684 181.152 134.684 181.152 134.89L180.947 135.301L180.741 135.918L180.536 136.123C180.536 136.329 180.535 136.329 180.33 136.329C180.33 136.329 180.33 136.535 180.124 136.535C180.124 136.535 180.124 136.535 180.124 136.74L179.919 136.946C179.919 137.151 179.713 137.151 179.713 137.357C179.713 137.563 179.507 137.563 179.302 137.974L179.096 138.18C179.096 138.385 179.096 138.385 178.891 138.385C178.891 138.591 178.685 138.796 178.479 139.002C178.479 139.208 178.274 139.208 178.068 139.619C177.862 139.825 177.862 140.03 177.657 140.03C177.451 140.236 177.451 140.441 177.246 140.441L177.04 140.647C177.04 140.647 177.04 140.853 176.834 140.853L177.246 141.881C177.246 142.086 177.04 142.086 177.04 142.292C177.04 142.498 176.834 142.498 176.834 142.703C176.629 142.909 176.629 142.909 176.629 142.909L176.423 143.114L176.217 143.32C176.217 143.32 176.217 143.32 176.012 143.526V143.731C175.806 143.937 175.601 143.937 175.395 143.731C175.189 143.731 175.189 143.526 175.189 143.526C175.189 143.32 175.189 143.32 175.395 143.114C175.395 143.114 175.395 143.114 175.395 142.909C175.395 142.909 175.395 142.703 175.601 142.703C175.601 142.703 175.601 142.498 175.806 142.498C175.806 142.498 175.806 142.498 176.012 142.292V142.086C176.012 142.086 176.012 142.086 176.012 141.881C176.012 141.675 176.217 141.675 176.217 141.47C176.217 141.264 176.423 141.264 176.423 141.058L176.629 140.647C176.834 140.441 176.834 140.441 177.04 140.236L177.246 140.03C177.246 140.03 177.246 139.825 177.451 139.825L177.657 139.208C177.657 139.208 177.862 139.002 178.068 138.796C178.068 138.591 178.274 138.591 178.479 138.18C178.479 137.974 178.685 137.768 178.891 137.563C178.891 137.357 179.096 137.357 179.096 137.151C179.096 137.151 179.096 136.946 179.302 136.946L179.507 136.74L179.713 136.535C179.713 136.535 179.713 136.329 179.919 136.329C179.919 136.329 179.919 136.329 179.919 136.123L180.124 135.506L180.33 135.301C180.33 135.095 180.33 135.095 180.536 135.095C180.536 134.89 180.536 134.89 180.536 134.89C180.536 134.684 180.741 134.684 180.741 134.684C180.741 134.684 180.741 134.478 180.947 134.478C180.947 134.478 180.947 134.273 181.152 134.273C181.358 134.273 181.152 134.067 181.358 134.067C181.358 134.067 181.358 133.861 181.564 133.861V133.656C181.564 133.656 181.564 133.656 181.564 133.45C181.564 133.45 181.564 133.45 181.564 133.245V133.039V132.833L181.769 132.422C181.769 132.422 181.769 132.422 181.769 132.216H180.947L179.507 132.422C179.096 132.422 178.685 132.422 178.479 132.216C178.274 132.011 178.068 131.6 178.068 131.188C178.068 130.777 178.068 130.366 178.274 130.16C178.479 129.955 178.891 129.749 179.302 129.749L180.741 129.543L182.18 129.338L185.059 128.926L186.499 128.721L187.938 128.515H188.76H189.583L191.022 128.31C191.433 128.31 191.639 128.31 192.05 128.515C192.256 128.721 192.462 129.132 192.462 129.543C192.462 129.749 192.462 130.16 192.256 130.366C191.845 130.983 191.433 131.805 191.022 132.422C190.611 133.039 190.2 133.656 189.788 134.478C189.377 135.095 188.966 135.918 188.555 136.535C188.143 137.151 187.732 137.768 187.527 138.591C187.115 139.208 186.91 140.03 186.499 140.647C186.087 141.264 185.882 142.086 185.47 142.703C185.265 143.114 185.265 143.32 185.059 143.731C184.854 144.143 184.854 144.348 184.648 144.759C184.442 145.171 184.442 145.376 184.237 145.788C184.031 146.199 184.031 146.61 183.825 146.816C183.825 147.021 183.62 147.227 183.62 147.433C183.62 147.638 183.62 147.844 183.414 147.844C183.414 148.049 183.414 148.255 183.414 148.461C183.414 148.666 183.414 148.872 183.414 148.872V149.283C183.414 149.489 183.414 149.694 183.414 149.694C183.414 149.694 183.414 149.9 183.62 150.106L183.825 150.311C184.031 150.311 184.237 150.311 184.237 150.311C184.442 150.311 184.648 150.311 184.648 150.311C184.854 150.311 185.059 150.311 185.059 150.106C185.265 150.106 185.47 149.9 185.47 149.9C186.087 149.489 186.704 149.283 187.321 148.666C187.938 148.255 188.555 147.638 188.966 147.227C189.172 147.021 189.583 146.816 189.788 146.404C189.994 146.199 190.405 145.788 190.611 145.582C191.639 144.348 192.667 143.32 193.49 142.086C193.695 141.675 193.901 141.675 194.107 141.881Z" fill="white"/>
<path d="M244.072 58.3973C234.203 58.3973 226.183 66.4166 226.183 76.2866C226.183 85.9509 234.408 94.1759 244.072 94.1759C253.942 94.1759 261.961 86.1565 261.961 76.2866C262.167 66.6223 253.942 58.3973 244.072 58.3973ZM244.072 98.494C231.735 98.494 221.66 88.4184 221.66 76.081C221.66 63.7435 231.735 53.668 244.072 53.668C256.41 53.668 266.485 63.7435 266.485 76.081C266.485 88.624 256.41 98.494 244.072 98.494Z" fill="white"/>
<path d="M37.4231 98.7005C33.3107 98.7005 27.3477 98.7005 23.6465 91.9149C23.4409 91.7093 23.4409 91.2981 23.8521 90.6812C24.2633 89.8587 25.7027 89.0362 26.3196 89.0362C26.7308 89.0362 26.9364 89.2418 26.9364 89.4474L27.3477 89.8587C28.3758 91.2981 28.9926 92.3262 30.6376 93.1487H30.8432C32.2826 93.9712 33.3107 94.588 36.6006 94.7937C37.0119 94.7937 37.6287 94.7937 38.04 94.7937C44.6198 94.7937 47.4985 92.7374 47.4985 87.3912C47.4985 81.4281 42.9749 80.1944 37.4231 78.9606C31.2545 77.5213 24.0577 75.8763 24.0577 65.8007C24.0577 58.1926 31.4601 53.8745 38.2456 53.8745C43.3861 53.8745 46.8817 56.342 49.966 62.0995C49.966 62.3051 50.1716 62.5107 49.966 62.922C49.5548 63.5388 48.1154 64.567 47.2929 64.567C46.8817 64.567 46.8817 64.3613 46.6761 64.3613C46.2648 63.9501 46.0592 63.3332 45.648 62.922C45.2367 62.3051 44.8255 61.6882 44.4142 61.0713L44.2086 60.8657C43.3861 59.8376 42.358 58.6039 39.0681 58.1926C38.8624 58.1926 38.4512 58.1926 38.04 58.1926C36.395 58.1926 28.787 58.6039 28.787 66.4176C28.787 72.5863 33.3107 73.6144 39.0681 74.6425C45.2367 75.8763 52.2278 77.3156 52.2278 87.1856C52.0222 94.3824 46.6761 98.7005 37.4231 98.7005Z" fill="white"/>
<path d="M78.1361 98.6995H75.2574C74.8461 98.6995 74.4349 98.2883 74.4349 97.877V54.696C74.4349 54.2848 74.8461 53.8735 75.2574 53.8735H78.1361C78.5473 53.8735 78.9586 54.2848 78.9586 54.696V97.877C78.753 98.2883 78.5473 98.6995 78.1361 98.6995Z" fill="white"/>
<path d="M132.626 98.6995H105.689C105.278 98.6995 104.867 98.2883 104.867 97.877V54.696C104.867 54.2848 105.278 53.8735 105.689 53.8735H108.568C108.979 53.8735 109.391 54.2848 109.391 54.696V94.5871H132.831C133.243 94.5871 133.654 94.9983 133.654 95.4096V98.0827C133.448 98.2883 133.037 98.6995 132.626 98.6995Z" fill="white"/>
<path d="M198.013 98.6995H195.34C194.929 98.6995 194.518 98.2883 194.518 97.877V61.4816L176.217 97.877C176.012 98.4939 174.984 98.4939 174.778 97.877L156.683 61.8929V97.877C156.683 98.2883 156.272 98.6995 155.861 98.6995H153.188C152.777 98.6995 152.365 98.2883 152.365 97.877V54.696C152.365 54.2848 152.777 53.8735 153.188 53.8735H157.095C157.3 53.8735 157.712 54.0792 157.712 54.2848L175.395 89.4465L193.284 54.2848C193.49 54.0792 193.695 53.8735 193.901 53.8735H198.013C198.425 53.8735 198.836 54.2848 198.836 54.696V97.877C198.836 98.2883 198.425 98.6995 198.013 98.6995Z" fill="white"/>
<path d="M111.447 180.743H109.596V190.613H111.447V180.743Z" fill="white"/>
<path d="M120.288 180.743H122.139V190.613H121.111L115.97 183.828V190.613H114.12V180.743H115.559L120.288 186.706V180.743Z" fill="white"/>
<path d="M131.186 180.743H133.037V190.613H131.803L126.663 183.828V190.613H124.812V180.743H126.251L131.186 186.706V180.743Z" fill="white"/>
<path d="M136.944 185.678C136.944 187.323 137.766 188.968 140.234 188.968C142.496 188.968 143.524 187.323 143.524 185.678C143.524 184.033 142.701 182.183 140.234 182.183C137.766 182.183 136.944 184.033 136.944 185.678ZM145.169 185.678C145.169 188.146 143.524 190.819 140.028 190.819C136.533 190.819 134.888 188.352 134.888 185.678C134.888 183.005 136.533 180.538 140.028 180.538C143.524 180.538 145.169 183.005 145.169 185.678Z" fill="white"/>
<path d="M152.16 190.613H150.309L146.197 180.743H148.253L151.132 188.351L154.216 180.743H156.272L152.16 190.613Z" fill="white"/>
<path d="M162.646 182.8L160.796 186.912H164.497L162.646 182.8ZM165.114 188.763H159.973L159.151 190.613H157.095L161.618 180.743H163.674L168.198 190.613H166.142L165.114 188.763Z" fill="white"/>
<path d="M170.46 182.388H167.376V180.743H175.395V182.388H172.311V190.613H170.46V182.388Z" fill="white"/>
<path d="M179.096 180.743H177.246V190.613H179.096V180.743Z" fill="white"/>
<path d="M183.209 185.678C183.209 187.323 184.031 188.968 186.498 188.968C188.76 188.968 189.788 187.323 189.788 185.678C189.788 184.033 188.966 182.183 186.498 182.183C184.237 182.183 183.209 184.033 183.209 185.678ZM191.639 185.678C191.639 188.146 189.994 190.819 186.498 190.819C183.003 190.819 181.358 188.352 181.358 185.678C181.358 183.005 183.003 180.538 186.498 180.538C189.994 180.538 191.639 183.005 191.639 185.678Z" fill="white"/>
<path d="M200.069 180.743H201.92V190.613H200.892L195.751 183.828V190.613H193.901V180.743H195.34L200.069 186.706V180.743Z" fill="white"/>
<path d="M208.5 183.828L209.117 183.417C209.528 183.211 209.734 182.8 209.734 182.594C209.734 182.389 209.734 182.183 209.528 181.977C209.322 181.772 209.117 181.772 208.706 181.772C208.5 181.772 208.089 181.772 207.883 181.977C207.677 182.183 207.677 182.389 207.677 182.594C207.677 182.8 207.883 183.211 208.089 183.417L208.5 183.828ZM207.677 185.884C207.266 186.09 206.855 186.295 206.649 186.707C206.444 187.118 206.238 187.324 206.238 187.735C206.238 188.146 206.444 188.557 206.649 188.763C206.855 188.969 207.266 189.174 207.677 189.174C207.883 189.174 208.294 189.174 208.5 188.969C208.706 188.763 209.117 188.557 209.322 188.352L207.677 185.884ZM213.64 189.38L212.407 190.819C211.79 190.614 211.379 190.202 210.762 189.585C210.351 189.997 209.939 190.202 209.528 190.408C209.117 190.614 208.5 190.614 207.883 190.614C206.649 190.614 205.621 190.202 205.004 189.585C204.593 188.969 204.182 188.352 204.182 187.735C204.182 187.118 204.387 186.501 204.799 186.09C205.21 185.473 205.827 185.062 206.444 184.65C206.032 184.239 205.827 183.828 205.621 183.417C205.416 183.005 205.416 182.8 205.416 182.389C205.416 181.772 205.621 181.36 206.238 180.744C206.649 180.332 207.472 180.127 208.294 180.127C209.117 180.127 209.939 180.332 210.351 180.744C210.762 181.155 211.173 181.772 211.173 182.389C211.173 182.8 210.967 183.211 210.762 183.622C210.556 184.034 209.939 184.445 209.322 184.856L210.762 186.707C210.967 186.501 211.173 186.09 211.173 185.473L212.818 185.884C212.612 186.501 212.407 186.912 212.407 187.324C212.201 187.529 212.201 187.94 211.995 187.94C212.201 188.146 212.407 188.352 212.818 188.557C213.229 189.174 213.435 189.174 213.64 189.38Z" fill="white"/>
<path d="M223.922 189.38C222.893 190.408 221.66 190.819 220.22 190.819C216.519 190.819 215.08 188.352 215.08 185.679C215.08 183.006 216.725 180.538 220.22 180.538C221.66 180.538 222.893 180.949 223.922 181.977L222.688 183.211C222.071 182.594 221.248 182.183 220.22 182.183C217.753 182.183 216.725 184.034 216.725 185.679C216.725 187.324 217.753 188.969 220.22 188.969C221.043 188.969 222.071 188.557 222.688 187.941L223.922 189.38Z" fill="white"/>
<path d="M227.623 182.389V185.473H230.501C231.735 185.473 232.146 184.651 232.146 183.828C232.146 183.006 231.53 182.183 230.501 182.183H227.623V182.389ZM234.408 190.614H232.352L229.473 187.324H227.623V190.614H225.772V180.744C227.417 180.744 228.856 180.744 230.501 180.744C232.763 180.744 233.997 182.389 233.997 184.034C233.997 185.473 233.38 186.707 231.53 187.118L234.408 190.614Z" fill="white"/>
<path d="M243.25 190.613H235.848V180.743H243.25V182.594H237.698V184.856H243.044V186.501H237.698V188.763H243.25V190.613Z" fill="white"/>
<path d="M249.83 182.8L247.979 186.912H251.68L249.83 182.8ZM252.503 188.763H247.362L246.54 190.613H244.484L249.007 180.743H251.064L255.587 190.613H253.531L252.503 188.763Z" fill="white"/>
<path d="M257.849 182.388H254.765V180.743H262.784V182.388H259.7V190.613H257.849V182.388Z" fill="white"/>
<path d="M266.485 180.743H264.635V190.613H266.485V180.743Z" fill="white"/>
<path d="M270.598 185.678C270.598 187.323 271.42 188.968 273.887 188.968C276.149 188.968 277.177 187.323 277.177 185.678C277.177 184.033 276.355 182.183 273.887 182.183C271.626 182.183 270.598 184.033 270.598 185.678ZM278.822 185.678C278.822 188.146 277.177 190.819 273.682 190.819C270.186 190.819 268.541 188.352 268.541 185.678C268.541 183.005 270.186 180.538 273.682 180.538C277.177 180.538 279.028 183.005 278.822 185.678Z" fill="white"/>
<path d="M287.459 180.743V186.706L282.729 180.743H281.084V190.613H282.935V183.828L288.075 190.613H289.309V180.743H287.459Z" fill="white"/>
</g>
<defs>
<clipPath id="clip0">
<rect width="289.309" height="234" fill="white"/>
</clipPath>
</defs>
</svg>
