<svg width="300" height="162" viewBox="0 0 300 162" fill="none" xmlns="http://www.w3.org/2000/svg">
<g clip-path="url(#clip0)">
<path d="M300 131.89H0V132.738H300V131.89Z" fill="white"/>
<path d="M252.999 4.66504C242.837 4.66504 234.368 12.9347 234.368 23.3247C234.368 33.5027 242.837 41.9844 252.999 41.9844C263.373 41.9844 271.63 33.7148 271.63 23.3247C271.63 13.3588 262.95 4.66504 252.999 4.66504ZM252.999 46.6493C240.085 46.6493 229.711 36.2593 229.711 23.5368C229.711 10.6022 240.085 0.212158 252.999 0.212158C265.702 0.212158 276.076 10.6022 276.076 23.5368C276.076 36.2593 265.702 46.6493 252.999 46.6493Z" fill="white"/>
<path d="M38.3204 46.6493C34.0861 46.6493 27.7346 46.6493 24.1355 39.6519C23.9238 39.4399 23.9238 39.0158 24.3472 38.3797C24.7706 37.5315 26.2526 36.6834 27.0995 36.6834C27.5229 36.6834 27.7346 36.8954 27.9464 37.1074L28.3698 37.5315C29.4284 39.0158 30.0635 40.076 31.7572 40.9242H31.9689C33.451 41.7724 34.5095 42.4085 37.897 42.6205C38.3204 42.6205 38.9555 42.6205 39.379 42.6205C46.3656 42.6205 49.1179 40.5001 49.1179 34.987C49.1179 28.6258 44.4601 27.5656 38.7438 26.2933C32.1807 24.809 24.9824 23.1127 24.9824 12.5106C24.9824 4.453 32.6041 0.212158 39.8024 0.212158C45.0953 0.212158 48.6944 2.75666 52.0819 8.69383C52.0819 8.90588 52.2936 9.11792 52.0819 9.542C51.6584 10.1781 49.9647 11.2383 49.3296 11.2383C48.9061 11.2383 48.9061 11.0263 48.6944 11.0263C48.271 10.6022 48.0593 9.96608 47.6359 9.542C46.5773 8.48179 46.1538 7.84567 45.7304 7.20954L45.5187 6.9975C44.4601 5.93729 43.6133 4.66504 40.0141 4.24095C39.8024 4.24095 39.379 4.24095 38.9555 4.24095C37.2618 4.24095 29.4284 4.66504 29.4284 12.9347C29.4284 19.2959 34.0861 20.3561 40.0141 21.6284C46.3656 22.9006 53.5639 24.3849 53.5639 34.775C53.5639 42.1964 48.0593 46.6493 38.3204 46.6493Z" fill="white"/>
<path d="M80.4517 46.6492H77.4876C77.0642 46.6492 76.6408 46.2251 76.6408 45.801V0.848168C76.6408 0.424084 77.0642 0 77.4876 0H80.4517C80.8751 0 81.2985 0.424084 81.2985 0.848168V45.801C81.2985 46.2251 80.8751 46.6492 80.4517 46.6492Z" fill="white"/>
<path d="M137.191 46.6492H109.245C108.821 46.6492 108.398 46.2251 108.398 45.801V0.848168C108.398 0.424084 108.821 0 109.245 0H112.209C112.632 0 113.056 0.424084 113.056 0.848168V42.1963H137.403C137.826 42.1963 138.25 42.6204 138.25 43.0445V45.801C138.038 46.2251 137.615 46.6492 137.191 46.6492Z" fill="white"/>
<path d="M204.94 46.6492H202.188C201.764 46.6492 201.341 46.2251 201.341 45.801V8.05759L182.498 45.801C182.287 46.4372 181.228 46.4372 181.016 45.801L162.174 8.48168V45.801C162.174 46.2251 161.75 46.6492 161.327 46.6492H158.574C158.151 46.6492 157.728 46.2251 157.728 45.801V0.848168C157.728 0.424084 158.151 0 158.574 0H162.597C163.02 0 163.232 0.212042 163.444 0.424084L181.651 36.8953L199.859 0.424084C200.282 0.212042 200.494 0 200.706 0H204.94C205.363 0 205.787 0.424084 205.787 0.848168V45.801C205.787 46.2251 205.363 46.6492 204.94 46.6492Z" fill="white"/>
<path d="M38.5321 155.639H42.1312C45.307 155.639 45.307 151.186 42.1312 151.186H38.5321V155.639ZM42.1312 157.971H38.5321V161.788H35.9915V149.065C38.1087 149.065 40.0141 149.065 42.1312 149.065C48.271 148.853 48.271 157.971 42.1312 157.971Z" fill="white"/>
<path d="M52.9287 151.186V155.215H56.5279C58.0099 155.215 58.645 154.155 58.645 153.094C58.645 152.034 58.0099 150.974 56.5279 150.974H52.9287V151.186ZM61.8207 161.576H58.8567L55.0459 157.335H52.9287V161.576H50.5999V148.642C52.717 148.642 54.6224 148.642 56.7396 148.642C59.7036 148.642 61.3973 150.762 61.3973 152.882C61.3973 154.579 60.5504 156.487 58.2216 156.911L61.8207 161.576Z" fill="white"/>
<path d="M64.7848 148.853V161.576H74.3119V159.243H67.1136V156.275H74.1002V154.154H67.1136V151.186H74.3119V148.853H64.7848Z" fill="white"/>
<path d="M89.132 148.853L85.1094 154.366L81.0868 148.853H78.3345V161.576H80.6634V152.246L84.6859 157.971H85.3211L89.3437 152.458V161.576H91.8843V148.853H89.132Z" fill="white"/>
<path d="M98.4474 148.853H96.1186V161.576H98.4474V148.853Z" fill="white"/>
<path d="M114.114 148.853V156.275C114.114 160.091 111.785 162 108.61 162C105.434 162 102.893 160.091 102.893 156.275V148.853H105.222V156.275C105.222 158.607 106.493 159.879 108.61 159.879C110.515 159.879 111.785 158.607 111.785 156.275V148.853H114.114Z" fill="white"/>
<path d="M129.358 148.853L125.335 154.366L121.313 148.853H118.56V161.576H120.889V152.246L124.912 157.971H125.547L129.57 152.458V161.576H132.11V148.853H129.358Z" fill="white"/>
<path d="M142.061 148.853V161.576H151.588V159.243H144.39V156.275H151.376V154.154H144.39V151.186H151.588V148.853H142.061Z" fill="white"/>
<path d="M157.728 159.244H160.268C163.232 159.244 164.291 157.123 164.291 155.003C164.291 153.094 163.02 150.974 160.268 150.974H157.728V159.244ZM166.831 155.215C166.831 158.396 164.926 161.788 160.48 161.788H155.399V149.066H160.48C164.714 148.854 166.62 152.034 166.831 155.215Z" fill="white"/>
<path d="M181.651 148.854V156.275C181.651 160.092 179.323 162 176.147 162C172.971 162 170.43 160.092 170.43 156.275V148.854H172.759V156.275C172.759 158.608 174.03 159.88 176.147 159.88C178.052 159.88 179.323 158.608 179.323 156.275V148.854H181.651Z" fill="white"/>
<path d="M197.318 160.092C196.048 161.364 194.354 162 192.449 162C187.791 162 185.674 158.82 185.674 155.427C185.674 152.034 187.791 148.642 192.449 148.642C194.143 148.642 195.836 149.278 197.107 150.55L195.413 152.034C194.566 151.186 193.507 150.762 192.237 150.762C189.061 150.762 187.791 153.094 187.791 155.215C187.791 157.335 189.061 159.456 192.237 159.456C193.296 159.456 194.566 159.032 195.413 158.183L197.318 160.092Z" fill="white"/>
<path d="M205.787 151.61L208.116 157.123H203.458L205.787 151.61ZM204.517 148.853L198.8 161.576H201.341L202.399 159.243H209.174L210.233 161.576H212.773L207.057 148.853H204.517Z" fill="white"/>
<path d="M213.197 148.853V150.974H217.219V161.576H219.76V150.974H223.783V148.853H213.197Z" fill="white"/>
<path d="M229.499 148.853H227.17V161.576H229.499V148.853Z" fill="white"/>
<path d="M236.062 155.427C236.062 157.547 237.332 159.879 240.296 159.879C243.26 159.879 244.531 157.547 244.531 155.427C244.531 153.306 243.26 150.762 240.296 150.762C237.332 150.762 236.062 153.306 236.062 155.427ZM246.86 155.215C246.86 158.607 244.742 161.788 240.296 161.788C235.85 161.788 233.733 158.607 233.733 155.215C233.733 151.822 235.85 148.429 240.296 148.429C244.742 148.641 246.86 152.034 246.86 155.215Z" fill="white"/>
<path d="M259.139 148.853V156.699L252.788 148.853H250.882V161.576H253.211V153.094L259.986 161.576H261.468V148.853H259.139Z" fill="white"/>
<path d="M100.988 77.1832C100.353 79.3036 99.7177 81.6361 99.2943 84.1806L95.06 85.2408C95.2717 84.8167 95.6951 84.1806 95.9068 83.7565C96.3302 83.1204 96.7537 82.4843 97.1771 81.6361C98.024 80.1518 98.8708 78.6675 99.7177 77.3953C100.565 76.123 101.411 74.6387 102.047 73.5785C102.047 73.3665 102.258 73.1544 102.258 73.1544C101.835 74.2146 101.411 75.6989 100.988 77.1832ZM103.952 82.9083H103.74L103.105 83.1204C103.529 81.6361 103.952 80.1518 104.375 78.6675C104.799 76.9712 105.434 75.4869 105.857 73.7905C106.281 72.3062 106.916 70.822 107.339 69.3377C107.763 68.0654 108.398 66.7932 108.61 65.7329C108.821 65.3089 108.821 64.8848 108.61 64.4607C108.398 64.0366 108.186 63.6125 107.551 63.4005C107.128 63.1884 106.704 63.1884 106.281 63.4005C105.857 63.6125 105.434 63.8246 105.222 64.4607L105.011 65.3089C104.799 65.7329 104.587 66.157 104.164 66.7932C103.74 67.4293 103.317 68.2775 102.682 69.3377C102.047 70.3979 101.411 71.4581 100.776 72.5183C100.141 73.7905 99.2943 75.0628 98.4474 76.335C97.6005 77.6073 96.7537 79.0916 95.9068 80.5759C95.06 82.0602 94.0014 83.5445 93.1545 85.0288C92.096 86.5131 91.2491 88.2094 90.1905 89.6937C89.1319 91.178 88.0734 92.8743 87.2265 94.3586C86.1679 95.8429 85.1094 97.3272 84.0508 98.5994C83.8391 99.0235 83.4156 99.2356 83.2039 99.6597C82.9922 100.084 82.7805 100.296 82.5688 100.72L81.5102 101.78L81.2985 101.992L81.0868 102.204L80.8751 102.416C80.8751 102.416 80.8751 102.628 80.6633 102.628C79.8165 103.476 78.7579 104.537 77.911 105.385C77.0642 106.233 75.7939 106.869 74.7353 107.293C74.5236 107.293 74.5236 107.293 74.3119 107.293C74.1002 107.293 74.1002 107.293 74.1002 107.293C74.1002 107.293 73.8885 107.293 73.6767 107.293C73.6767 107.293 72.8299 107.505 72.8299 108.141C72.8299 108.353 72.8299 108.777 73.0416 108.99C73.2533 109.414 73.8885 109.414 74.1002 109.414C74.5236 109.414 74.947 109.414 75.1588 109.202C75.3705 109.202 75.5822 108.99 75.5822 108.99C75.7939 108.99 75.7939 108.777 76.0056 108.777C77.0642 108.141 78.1228 107.293 78.9696 106.445C79.8165 105.597 80.6633 104.537 81.5102 103.476C81.7219 103.264 81.7219 103.264 81.9336 103.052C82.1454 102.84 82.3571 102.628 82.3571 102.628C82.5688 102.416 82.5688 102.204 82.7805 102.204C82.9922 101.992 82.9922 101.78 83.2039 101.78C83.6274 101.144 84.2625 100.508 84.6859 99.6597C85.7445 98.1754 86.8031 96.6911 87.8617 95.2068C88.9202 93.7225 89.9788 92.2382 91.0374 90.5419C91.4608 89.9057 91.8842 89.2696 92.3077 88.6335C92.7311 87.9973 93.1545 87.3612 93.3662 86.7251L98.4474 85.4528C98.2357 86.9371 97.8123 88.4214 97.8123 89.6937C97.6005 91.178 97.6005 92.2382 97.3888 93.5104C97.1771 96.9031 98.024 99.0235 99.2943 100.084C99.7177 100.296 99.9294 100.508 100.353 100.508C100.988 100.508 101.411 100.296 101.835 99.8717C102.258 99.4476 102.258 99.0235 102.258 98.5994C102.258 98.1754 102.047 97.7513 101.623 97.3272C101.411 97.1152 101.411 96.9031 101.2 96.6911C101.2 96.479 100.988 96.0549 100.988 95.6309C100.988 95.2068 100.988 94.5706 100.988 93.7225C100.988 92.6623 101.2 91.39 101.411 89.9057C101.623 88.4214 101.835 86.7251 102.258 85.0288C102.258 85.0288 102.258 85.0288 102.258 84.8167L103.74 84.3926C104.164 84.3926 104.375 83.9686 104.375 83.5445C104.587 83.1204 104.164 82.9083 103.952 82.9083Z" fill="white"/>
<path d="M192.449 106.233C191.602 107.929 190.755 109.626 189.908 111.322C189.273 112.594 188.426 113.442 187.579 114.503C187.156 115.139 185.462 117.047 182.71 117.895C181.016 118.531 177.84 118.955 175.723 118.531C173.606 118.319 170.007 116.835 170.43 113.866C170.854 110.686 174.03 109.414 175.3 108.353C176.358 107.505 177.417 107.081 178.476 106.445C179.323 106.021 180.381 105.385 181.44 104.961C182.286 104.537 183.345 104.113 184.192 103.9C186.097 103.476 188.003 103.052 189.908 102.628C191.179 102.416 192.661 102.204 193.931 101.992C193.719 103.476 193.084 104.749 192.449 106.233ZM144.813 90.5418L144.601 90.9659V91.178C144.601 91.39 144.601 91.39 144.39 91.602V91.8141C144.178 92.0261 144.178 92.2382 143.966 92.4502C143.754 92.6622 143.754 92.8743 143.543 93.0863C143.119 93.7225 142.484 94.5706 141.849 95.2068C141.426 95.6308 141.214 96.0549 140.79 96.267C140.367 96.691 140.155 96.9031 139.732 97.3272L139.097 97.7512C138.885 97.9633 138.673 97.9633 138.462 98.1753C138.462 98.1753 138.25 98.1753 138.25 98.3874C138.25 98.3874 138.25 98.3874 138.038 98.3874C137.826 98.3874 137.615 98.5994 137.403 98.5994C137.403 98.5994 137.403 98.5994 137.191 98.5994H136.98C136.98 98.5994 136.98 98.5994 136.768 98.5994V98.3874C136.768 98.1753 136.768 97.9633 136.768 97.9633C136.768 97.7513 136.98 97.5392 136.98 97.3272V97.1151C136.98 97.1151 136.98 97.1151 136.98 96.9031V96.691L137.191 96.0549L137.403 95.8429C137.615 95.6308 137.615 95.4188 137.826 95.2068C138.038 94.7827 138.462 94.1465 138.673 93.7225C138.885 93.2984 139.308 92.8743 139.52 92.4502C139.732 92.2382 139.944 92.0261 139.944 91.8141L140.155 91.602C140.155 91.39 140.367 91.39 140.367 91.39C140.579 91.1779 140.79 90.9659 140.79 90.7539C141.002 90.5418 141.002 90.3298 141.214 90.1177L141.426 89.9057L141.637 89.6937L141.849 89.4816C141.849 89.4816 141.849 89.4816 142.061 89.2696C142.272 89.0575 142.484 89.0575 142.484 88.8455L142.908 88.4214C143.543 87.9973 144.178 87.5732 144.601 87.3612C145.025 87.1492 145.448 86.9371 145.872 86.9371C145.872 86.9371 145.872 86.9371 145.872 87.1492C145.872 87.3612 145.66 87.3612 145.66 87.5732C145.448 87.7853 145.448 87.9973 145.236 88.4214C145.236 88.6335 145.025 88.8455 145.025 89.2696L144.813 90.5418ZM129.781 87.9973C129.781 87.9973 129.781 88.2094 129.57 88.2094C129.57 88.2094 129.569 88.4214 129.358 88.4214C129.358 88.6335 129.358 88.6335 129.146 88.8455C129.146 89.0575 129.146 89.2696 128.934 89.4816C128.934 89.6937 128.723 89.9057 128.723 90.3298C128.723 90.5418 128.511 90.7539 128.511 90.7539C128.511 90.9659 128.299 91.1779 128.087 91.39C127.876 92.0261 127.452 92.6622 126.817 93.5104C126.817 93.5104 126.817 93.5104 126.605 93.7225L126.394 93.9345L126.182 94.1465C126.182 94.1465 125.97 94.3586 125.97 94.5706C125.759 94.9947 125.335 95.4188 125.123 95.6308L124.912 96.691C124.7 96.9031 124.488 97.1151 124.277 97.3272L124.065 97.5392C124.065 97.5392 123.853 97.5392 123.853 97.7512C123.853 97.7512 123.853 97.7513 123.641 97.9633C123.641 97.9633 123.641 97.9633 123.43 97.9633C123.43 97.9633 123.218 97.9633 123.218 98.1753L123.006 98.3874H122.795L122.583 98.5994C122.371 98.5994 122.371 98.5994 122.371 98.8115C122.159 98.8115 122.159 99.0235 122.159 99.0235C121.948 99.0235 121.948 99.0235 121.736 99.2355H121.524H121.101H120.889V99.0235V98.8115V98.5994C120.889 98.3874 120.889 98.3874 120.889 98.1753V97.7512V97.5392C120.889 97.5392 120.889 97.5392 120.889 97.3272V97.1151L121.948 94.9947C122.159 94.7827 122.159 94.5706 122.371 94.1465C122.583 93.7225 123.006 93.0863 123.218 92.6622C123.43 92.2382 123.853 91.8141 124.065 91.178C124.277 90.7539 124.7 90.3298 124.912 89.9057C125.123 89.4816 125.547 89.0575 125.97 88.8455L126.182 88.6334L126.394 88.4214L126.605 88.2094L126.817 87.9973C126.817 87.9973 126.817 87.9973 127.029 87.9973C127.029 87.9973 127.241 87.9973 127.241 87.7853H127.452C127.452 87.7853 127.664 87.7853 127.664 87.5732C127.876 87.5732 127.876 87.3612 128.087 87.3612C128.299 87.3612 128.299 87.1492 128.511 87.1492H128.723H128.934H129.146C129.358 87.1492 129.358 87.1492 129.57 87.1492C129.781 87.1492 129.781 87.1492 129.993 87.1492C129.993 87.1492 129.993 87.1492 130.205 87.1492C130.205 87.1492 130.205 87.1492 130.416 87.1492C130.416 87.1492 130.416 87.1492 130.628 87.3612C130.628 87.3612 130.628 87.3612 130.628 87.5732C130.628 87.5732 130.628 87.7853 130.84 87.7853C130.628 87.7853 130.205 87.7853 129.993 87.7853C130.205 87.5732 129.993 87.7853 129.781 87.9973ZM155.61 91.602C155.61 91.39 155.822 91.39 156.034 91.178C156.246 90.9659 156.246 90.9659 156.457 90.7539L156.669 90.5418C156.669 90.5418 156.669 90.5418 156.881 90.3298L157.092 90.1177C157.092 90.1177 157.092 89.9057 157.304 89.9057L158.151 89.0575C158.363 88.8455 158.574 88.4214 158.786 88.2094C158.998 87.9973 159.21 87.5732 159.633 87.3612C159.845 87.1492 160.268 86.9371 160.48 86.7251C160.692 86.513 161.115 86.301 161.327 86.0889C161.538 86.0889 161.538 85.8769 161.75 85.8769C161.75 85.8769 161.75 85.8769 161.962 85.8769C162.174 85.8769 162.174 85.6649 162.174 85.6649H162.385C162.597 85.6649 162.597 85.4528 162.809 85.4528C163.02 85.4528 163.02 85.4528 163.232 85.4528C163.444 85.4528 163.444 85.4528 163.444 85.4528C163.444 85.4528 163.444 85.4528 163.444 85.8769C163.444 85.8769 163.444 85.8769 163.444 86.0889C163.444 86.0889 163.444 86.0889 163.444 86.301V86.513V86.7251V86.9371C163.444 87.1492 163.444 87.1492 163.232 87.1492C163.232 87.1492 163.232 87.1492 163.232 87.3612C163.232 87.5732 163.02 87.5732 163.02 87.7853C163.02 87.9973 162.809 87.9973 162.809 87.9973C162.597 88.2094 162.597 88.4214 162.174 88.6334C161.962 88.8455 161.75 89.0575 161.538 89.2696C161.327 89.4816 161.115 89.6937 160.903 89.9057C160.48 90.3298 160.056 90.5418 159.633 90.7539C159.21 90.9659 158.786 91.1779 158.363 91.39C157.939 91.602 157.516 91.8141 157.092 91.8141C156.669 92.0261 156.457 92.0261 156.034 92.0261L155.61 91.602ZM227.382 102.84C226.958 102.628 226.747 102.204 226.323 101.992C225.9 101.78 224.418 100.508 221.877 99.8717C220.395 99.4476 219.125 99.4476 217.643 99.2355C215.949 99.0235 214.255 99.0235 212.562 98.8115C210.656 98.8115 208.963 98.5994 207.057 98.5994C205.575 98.5994 204.093 98.5994 202.611 98.8115C201.341 98.8115 200.071 99.0235 198.8 99.0235C198.589 99.0235 198.165 99.0235 197.953 99.0235C197.953 98.8115 198.165 98.8115 198.165 98.5994C198.165 98.3874 198.377 98.1753 198.377 98.1753C198.377 97.9633 198.589 97.7512 198.589 97.7512C198.589 97.5392 198.8 97.3272 198.8 97.3272C198.8 97.1151 199.012 96.9031 199.012 96.9031C199.012 96.691 199.224 96.691 199.224 96.479C199.224 96.267 199.435 96.0549 199.435 96.0549C199.435 95.8429 199.647 95.8429 199.647 95.6308C199.647 95.4188 199.859 95.2068 199.859 95.2068C200.071 94.5706 200.282 93.9345 200.494 93.2984C200.706 92.6622 200.917 92.2382 201.129 91.602L201.553 90.1177C201.764 89.0575 201.976 88.4214 202.188 87.5732C202.188 87.3612 202.188 87.1492 202.399 87.1492C202.399 86.9371 202.399 86.9371 202.611 86.7251C202.611 86.513 202.611 86.513 202.823 86.301V86.0889C202.823 85.8769 202.823 85.8769 202.823 85.6649V85.4528V85.2408L202.399 84.3926C202.188 84.1806 202.188 83.9685 201.764 83.7565C201.553 83.5444 201.129 83.5444 200.917 83.7565C200.706 83.9685 200.494 83.9685 200.282 84.3926C200.282 84.3926 200.282 84.3926 200.282 84.6047C200.282 84.8167 200.071 84.8167 200.071 85.0287C200.071 85.0287 200.071 85.0287 200.071 85.2408C200.071 85.4528 200.071 85.4528 199.859 85.6649L199.647 86.0889C199.647 86.301 199.647 86.301 199.435 86.513C199.435 86.7251 199.435 86.7251 199.224 86.9371C199.224 86.9371 199.224 87.1492 199.012 87.3612V87.5732C198.8 87.7853 198.589 87.9973 198.589 88.4214C198.589 88.8455 198.165 89.0575 198.165 89.2696C197.953 89.4816 197.742 89.9057 197.53 90.1177C197.318 90.3298 197.107 90.7539 196.895 91.178C196.683 91.602 196.471 91.8141 196.26 92.2382C196.048 92.6622 195.836 92.8743 195.625 93.2984C195.413 93.7225 195.201 93.9345 194.778 94.3586C194.566 94.7827 194.143 94.9947 193.931 95.4188C193.931 95.4188 193.931 95.6308 193.719 95.6308L193.507 95.8429L192.661 96.691L192.449 96.9031C192.449 96.9031 192.237 96.9031 192.237 97.1151C192.237 97.1151 192.025 97.1151 192.025 97.3272C192.025 97.3272 192.025 97.3272 191.814 97.3272C191.814 97.3272 191.814 97.3272 191.602 97.3272C191.602 97.1151 191.602 97.1151 191.602 96.9031C191.602 96.691 191.602 96.479 191.602 96.267C191.602 96.0549 191.602 95.8429 191.814 95.6308C192.025 95.2067 192.025 94.7827 192.237 94.3586C192.449 93.9345 192.449 93.5104 192.661 93.2984C192.872 92.8743 192.872 92.4502 193.084 92.2382C193.296 91.8141 193.507 91.602 193.507 91.178C193.719 90.7539 193.719 90.5418 193.931 90.1177C194.143 89.9057 194.143 89.4816 194.354 89.2696C194.566 89.0575 194.566 88.6335 194.778 88.4214C194.989 88.2094 194.989 87.9973 195.201 87.7853C195.413 87.5732 195.413 87.3612 195.413 87.1492C195.625 86.9371 195.625 86.7251 195.625 86.7251C195.625 86.513 195.836 86.513 195.836 86.301V86.0889C196.048 85.8769 196.048 85.4528 195.836 85.0287C195.836 84.6047 195.625 84.3926 195.201 84.1806C194.778 83.9685 194.566 83.9685 194.143 83.9685C193.719 83.9685 193.507 84.1806 193.296 84.6047C193.296 84.6047 193.296 84.6047 193.084 84.8167L192.872 85.0287C192.872 85.0287 192.872 85.2408 192.661 85.2408V85.0287C192.449 85.2408 192.449 85.4528 192.237 85.6649C192.025 85.8769 192.025 86.0889 191.814 86.301C191.602 86.513 191.602 86.9371 191.39 87.1492C191.179 87.3612 191.179 87.7853 190.967 88.2094C190.755 88.6334 190.755 88.8455 190.543 89.2696C190.332 89.6937 190.332 90.1177 190.12 90.5418C189.908 91.39 189.697 92.2382 189.485 93.2984C189.485 93.5104 189.485 93.5104 189.485 93.7225L189.273 93.9345C189.061 94.1465 189.061 94.1465 188.85 94.3586C188.638 94.5706 188.638 94.7827 188.426 94.9947L187.791 95.8429C187.579 96.0549 187.368 96.479 186.944 96.691C186.733 96.9031 186.521 97.1151 186.521 97.1151C186.309 97.3272 186.309 97.5392 186.097 97.5392C185.886 97.7513 185.674 97.9633 185.674 97.9633C185.462 98.1753 185.251 98.1753 185.039 98.3874C184.827 98.5994 184.615 98.5994 184.615 98.8115C184.615 98.8115 184.615 98.8115 184.404 98.8115C184.404 98.5994 184.404 98.5994 184.404 98.5994C184.404 98.3874 184.404 98.1753 184.615 98.1753C184.615 97.9633 184.615 97.9633 184.615 97.7512L184.827 96.9031C185.039 96.691 185.039 96.267 185.251 96.0549C185.462 95.8429 185.462 95.4188 185.674 95.2068C185.886 94.5706 186.097 93.9345 186.309 93.2984L186.944 91.39V91.178C186.944 91.178 186.944 91.178 186.944 90.9659C186.944 90.7539 187.156 90.7539 187.156 90.5418C187.156 90.5418 187.156 90.5418 187.156 90.3298C187.156 90.1177 187.156 90.1177 187.368 89.9057V89.6937C187.368 89.4816 187.368 89.2696 187.579 89.0575C187.791 88.6335 187.791 88.2094 187.791 87.9973C187.791 87.5732 187.791 87.1492 188.003 86.9371C188.003 86.7251 188.003 86.513 188.003 86.301C188.003 86.0889 188.003 85.8769 188.003 85.6649V85.4528C188.003 85.2408 188.003 85.2408 188.003 85.0287V84.6047C188.003 84.3926 188.003 84.3926 187.791 84.1806C187.791 84.1806 187.791 83.9685 187.579 83.9685C187.579 83.7565 187.368 83.7565 187.368 83.7565C187.156 83.5444 186.944 83.3324 186.733 83.3324H186.521C186.521 83.3324 186.309 83.3324 186.097 83.3324C185.886 83.3324 185.674 83.3324 185.462 83.5444C185.251 83.5444 185.039 83.7565 185.039 83.7565C184.827 83.7565 184.827 83.9685 184.615 83.9685C184.615 83.9685 184.615 83.9685 184.404 84.1806C184.192 84.3926 183.98 84.3926 183.98 84.6047C183.769 84.8167 183.769 84.8167 183.557 85.0287C183.345 85.2408 183.345 85.2408 183.133 85.4528L182.71 85.8769C182.498 86.0889 182.287 86.301 182.075 86.7251C181.863 86.9371 181.651 87.1492 181.44 87.5732C180.593 88.6334 179.746 89.6937 178.899 90.5418L177.84 91.602C177.84 91.178 178.052 90.9659 178.052 90.5418C178.052 90.3298 178.052 90.3298 178.264 90.1177V89.9057C178.264 89.6937 178.264 89.6937 178.264 89.4816C178.264 89.4816 178.264 89.2696 178.264 89.0575C178.264 88.8455 178.264 88.8455 178.264 88.6334C178.264 88.4214 178.264 88.4214 178.264 88.2094C178.264 87.9973 178.264 87.9973 178.264 87.7853C178.264 87.5732 178.264 87.5732 178.264 87.3612C178.264 86.7251 178.264 86.089 178.264 85.6649C178.264 85.4528 178.052 85.0287 178.052 84.6047C178.052 84.3926 177.84 84.1806 177.84 83.9685C177.84 83.9685 177.84 83.9685 177.84 83.7565C177.84 83.7565 177.84 83.5444 177.629 83.5444C177.417 83.3324 177.417 83.3324 177.417 83.3324L177.205 83.1204C177.205 83.1204 177.205 83.1204 176.994 83.1204C176.782 83.1204 176.57 83.1204 176.57 83.1204C176.358 83.1204 176.147 83.1204 175.935 83.1204C175.723 83.1204 175.512 83.1204 175.3 83.3324C175.088 83.3324 174.876 83.5444 174.876 83.5444C174.665 83.5444 174.665 83.7565 174.453 83.7565L174.03 84.8167L173.818 85.0287L173.183 85.6649C172.971 85.8769 172.759 86.0889 172.548 86.301C171.912 87.1492 171.277 87.9973 170.642 88.6334C170.43 89.0575 170.219 89.2696 169.795 89.6937V89.4816C170.219 88.2094 170.854 86.7251 171.277 85.4528C171.489 85.0287 171.489 84.6047 171.277 84.3926C171.066 83.9685 170.854 83.7565 170.43 83.5444C170.007 83.3324 169.584 83.3324 169.372 83.5444C168.948 83.7565 168.737 83.9685 168.525 84.3926C167.89 85.8769 167.466 87.3612 166.831 88.8455C166.196 90.3298 165.773 91.8141 165.349 93.0863C165.349 93.2984 165.138 93.7225 165.138 93.9345L164.714 94.5706C164.714 94.7827 164.502 94.7827 164.502 94.9947C164.079 95.4188 163.444 96.0549 162.809 96.691L162.597 96.9031L162.385 97.1151C162.174 97.1151 162.174 97.3272 161.962 97.3272L161.538 97.5392C161.327 97.7513 161.115 97.7513 160.903 97.9633C160.692 98.1753 160.48 98.1753 160.268 98.3874C160.056 98.3874 160.056 98.5994 159.845 98.5994C159.633 98.5994 159.633 98.8115 159.421 98.8115L158.574 99.0235C158.363 99.0235 158.363 99.0235 158.151 99.0235C157.939 99.0235 157.939 99.0235 157.728 99.0235C157.516 99.0235 157.516 99.0235 157.304 99.0235C157.092 99.0235 157.092 99.0235 156.881 99.0235C156.669 99.0235 156.457 99.0235 156.457 99.0235H156.034H155.822H155.61C155.399 99.0235 155.399 99.0235 155.187 98.8115C154.975 98.5994 154.764 98.5994 154.552 98.3874C154.34 98.1753 154.128 97.9633 154.128 97.7512C153.917 97.3272 153.705 96.9031 153.705 96.267C153.705 96.0549 153.705 95.6308 153.705 95.4188L153.917 94.9947C153.917 94.9947 153.917 94.7827 154.128 94.5706V94.3586V94.1465C154.128 94.1465 154.128 94.1465 154.128 93.9345C154.34 93.9345 154.34 93.9345 154.552 93.9345C154.764 93.9345 155.187 93.9345 155.61 93.7225C156.034 93.7225 156.457 93.5104 156.881 93.2984C157.304 93.0863 157.728 93.0863 158.151 92.8743C159.21 92.4502 160.056 91.8141 161.115 91.178C161.327 90.9659 161.538 90.7539 161.962 90.5418C162.174 90.3298 162.385 90.1177 162.597 89.9057C162.809 89.6937 162.809 89.6937 163.02 89.4816C163.232 89.2696 163.232 89.2696 163.444 89.0575C163.656 88.8455 163.656 88.6334 163.867 88.6334C163.867 88.4214 164.079 88.2094 164.079 87.9973C164.291 87.7853 164.291 87.3612 164.502 86.9371C164.502 86.7251 164.502 86.7251 164.714 86.513C164.714 86.513 164.714 86.301 164.714 86.0889V85.8769V85.6649V85.4528C164.714 85.2408 164.714 85.2408 164.714 85.0287C164.714 84.8167 164.714 84.6047 164.714 84.6047V84.3926C164.714 84.1806 164.714 84.1806 164.714 84.1806C164.714 84.1806 164.714 83.9685 164.502 83.9685C164.502 83.7565 164.502 83.7565 164.291 83.7565C164.079 83.5444 164.079 83.5444 163.867 83.3324C163.656 83.3324 163.656 83.1204 163.444 83.1204C163.232 83.1204 163.232 83.1204 163.02 83.1204H162.597C162.385 83.1204 162.385 83.1204 162.174 83.1204L161.115 83.3324C160.903 83.3324 160.692 83.5444 160.48 83.5444C160.268 83.5444 160.056 83.7565 159.845 83.7565C159.421 83.9685 159.21 84.1806 158.786 84.3926C158.363 84.6047 158.151 84.8167 157.728 85.0287C157.092 85.4528 156.457 86.089 155.822 86.7251C155.61 86.9371 155.61 86.9371 155.399 87.1492C155.187 87.3612 155.187 87.3612 154.975 87.5732C154.975 87.5732 154.975 87.7853 154.764 87.7853L154.552 87.9973L154.34 88.2094L154.128 88.4214C154.128 88.4214 154.128 88.6334 153.917 88.6334L153.705 88.8455L153.493 89.0575L153.282 89.2696L152.646 90.1177L152.435 91.178L152.223 91.39L152.011 91.602L151.8 91.8141L151.588 92.4502C151.588 92.6622 151.588 92.6622 151.376 92.8743C151.376 92.8743 151.376 93.0863 151.164 93.0863C151.164 93.2984 151.164 93.2984 150.953 93.5104V93.7225V93.9345L150.741 94.1465C150.529 94.3586 150.529 94.5706 150.318 94.7827C150.106 94.9947 149.894 95.2068 149.682 95.4188C149.259 95.8429 148.836 96.479 148.2 96.9031L147.777 97.3272C147.565 97.5392 147.354 97.5392 147.142 97.7512L146.93 97.9633C146.93 97.9633 146.718 97.9633 146.718 98.1753L146.507 98.3874C146.507 98.3874 146.295 98.3874 146.295 98.5994C146.295 98.5994 146.295 98.5994 146.083 98.5994C145.872 98.5994 145.872 98.5994 145.872 98.5994C145.66 98.5994 145.66 98.5994 145.66 98.5994C145.66 98.5994 145.66 98.5994 145.448 98.5994V98.3874V98.1753V97.9633C145.448 97.7513 145.448 97.7513 145.448 97.5392C145.448 97.3272 145.448 97.3272 145.448 97.1151C145.448 96.9031 145.448 96.691 145.66 96.479C145.66 96.267 145.872 96.0549 145.872 95.8429C146.083 95.4188 146.295 94.7827 146.295 94.3586C146.507 93.9345 146.718 93.2984 146.93 92.8743C146.93 92.6622 146.93 92.6622 147.142 92.4502L147.354 92.0261C147.354 91.8141 147.565 91.8141 147.565 91.602L147.777 91.178C147.989 90.9659 147.989 90.7539 148.2 90.3298C148.412 90.1177 148.412 89.9057 148.624 89.4816C148.836 89.2696 148.836 89.0575 149.047 88.8455C149.259 88.6335 149.259 88.4214 149.471 88.2094C149.471 87.9973 149.682 87.9973 149.682 87.7853L149.894 87.5732V87.3612C149.894 87.1492 150.106 87.1492 150.106 86.9371C150.106 86.9371 150.106 86.7251 150.318 86.513C150.529 86.301 150.529 86.0889 150.741 85.8769C150.953 85.6649 150.953 85.4528 151.164 85.2408C151.376 84.8167 151.588 84.3926 151.8 83.9685C152.011 83.7565 152.011 83.5444 152.223 83.3324C152.223 83.1204 152.435 82.9083 152.435 82.6963C152.646 82.4842 152.646 82.2722 152.646 82.0602C152.646 81.8481 152.858 81.6361 152.858 81.424V81.212L153.07 80.9999C153.07 80.9999 153.07 80.7879 153.282 80.7879C153.282 80.7879 153.282 80.5759 153.493 80.5759C153.705 80.3638 153.705 80.1518 153.705 79.9397C153.705 79.7277 153.917 79.5156 153.917 79.5156C153.917 79.3036 154.128 79.3036 154.128 79.0916L154.34 78.6675C154.34 78.4554 154.552 78.4554 154.552 78.2434C154.552 78.0314 154.764 78.0314 154.764 77.8193C154.764 77.6073 154.975 77.6073 154.975 77.3952C154.975 77.3952 154.975 77.1832 155.187 77.1832L155.399 76.9711C155.399 76.9711 155.399 76.9711 155.399 76.7591V76.5471C155.399 76.5471 155.399 76.5471 155.399 76.335C155.61 75.9109 155.61 75.6989 155.399 75.2748C155.399 74.8507 154.975 74.6387 154.764 74.4266C154.34 74.2146 154.128 74.2146 153.705 74.2146C153.282 74.2146 153.07 74.4266 152.858 74.8507C152.858 74.8507 152.858 74.8507 152.646 75.0628V75.2748C152.646 75.2748 152.646 75.4868 152.435 75.4868L151.376 76.335C151.376 76.335 151.376 76.5471 151.164 76.5471L150.953 76.9711C150.741 77.1832 150.741 77.3952 150.529 77.6073L149.259 79.9397V80.1518L149.047 80.3638C148.836 80.5759 148.836 80.7879 148.836 80.9999C148.836 81.212 148.624 81.424 148.624 81.6361C148.624 81.6361 148.624 81.8481 148.412 81.8481C148.412 82.0601 148.2 82.0601 148.2 82.2722C148.2 82.2722 148.2 82.4842 147.989 82.4842C147.989 82.6963 147.777 82.6963 147.777 82.9083C147.777 82.9083 147.777 83.1204 147.565 83.1204C147.565 83.3324 147.354 83.3324 147.354 83.5444V83.7565C147.142 83.7565 146.718 83.5444 146.507 83.5444C146.295 83.5444 146.083 83.5444 145.872 83.5444C145.66 83.5444 145.66 83.5444 145.448 83.5444C144.813 83.5444 143.966 83.9685 143.331 84.1806C142.908 84.3926 142.484 84.6047 142.272 84.8167C141.849 85.0287 141.637 85.4528 141.214 85.6649C141.002 85.8769 140.79 85.8769 140.579 86.0889C140.367 86.301 140.155 86.513 139.944 86.513C139.732 86.7251 139.52 86.9371 139.308 87.1492L138.673 87.7853C138.462 87.9973 138.25 88.2094 138.25 88.4214C138.038 88.6335 137.826 88.8455 137.826 89.0575C137.826 89.2696 137.615 89.2696 137.615 89.4816C137.615 89.6937 137.403 89.6937 137.403 89.9057C137.403 90.1177 137.191 90.1177 137.191 90.3298C137.191 90.5418 136.98 90.5418 136.98 90.7539C136.768 91.178 136.344 91.8141 136.133 92.2382C135.921 92.6622 135.709 93.0863 135.498 93.5104L135.286 93.7225C135.074 93.9345 134.862 94.1465 134.651 94.5706C134.439 94.7827 134.439 94.9947 134.227 94.9947C134.016 94.9947 134.016 95.4188 133.804 95.4188C133.592 95.8429 133.169 96.267 132.745 96.479C132.534 96.691 132.322 96.9031 132.11 97.1151C131.898 97.3272 131.687 97.5392 131.475 97.7512C131.475 97.7512 131.263 97.7513 131.263 97.9633C131.263 97.9633 131.052 97.9633 131.052 98.1753C131.052 98.1753 131.052 98.1753 130.84 98.1753H130.628H130.416V97.9633C130.416 97.7513 130.416 97.5392 130.416 97.1151C130.416 96.9031 130.416 96.9031 130.416 96.691C130.416 96.479 130.416 96.479 130.416 96.267C130.416 96.0549 130.416 95.8429 130.416 95.6308C130.416 95.4188 130.416 95.4188 130.416 95.2068C130.416 94.9947 130.416 94.7827 130.628 94.7827C130.628 94.5706 130.628 94.5706 130.628 94.3586C130.628 94.1465 130.628 93.9345 130.84 93.9345C130.84 93.7225 130.84 93.7225 130.84 93.5104C130.84 93.2984 130.84 93.0863 131.052 93.0863C131.052 92.8743 131.052 92.8743 131.052 92.6622C131.052 92.4502 131.263 92.2382 131.263 92.0261C131.263 91.8141 131.475 91.602 131.475 91.178C131.687 90.7539 131.687 90.3298 131.898 89.9057C131.898 89.4816 132.11 89.2696 132.11 89.0575C132.11 88.8455 132.11 88.8455 132.322 88.6334C132.322 88.6334 132.322 88.6335 132.322 88.4214C132.322 88.4214 132.322 88.4214 132.322 88.2094C132.322 88.2094 132.322 88.2094 132.322 87.9973C132.322 87.5732 132.322 87.3612 132.322 86.9371C132.322 86.7251 132.11 86.7251 132.11 86.513C132.322 86.513 132.745 86.513 133.169 86.513C133.592 86.301 133.804 86.089 134.016 85.6649C134.227 85.2408 134.227 84.8167 134.016 84.6047C134.016 84.6047 134.016 84.6047 134.016 84.3926C134.016 84.3926 134.016 84.3926 134.016 84.1806L133.804 83.7565C133.804 83.7565 133.804 83.5444 133.592 83.5444C133.592 83.5444 133.592 83.3324 133.38 83.3324C133.169 83.1204 133.169 83.1204 132.957 82.9083C132.745 82.9083 132.745 82.6963 132.534 82.4842C132.322 82.2722 132.322 82.2722 132.11 82.2722L131.687 82.0602C131.687 82.0602 131.687 82.0602 131.475 82.0602C131.475 82.0602 131.475 82.0602 131.263 82.0602C130.84 82.0602 130.628 81.8481 130.205 81.8481C129.993 81.8481 129.993 81.8481 129.781 81.8481H129.57C129.57 81.8481 129.569 81.8481 129.358 81.8481H129.146C129.146 81.8481 129.146 81.8481 128.934 81.8481L128.299 82.0602C127.876 82.2722 127.241 82.4842 126.817 82.6963C126.605 82.9083 126.394 83.1204 126.182 83.1204C125.97 83.3324 125.759 83.3324 125.547 83.5444C125.547 83.5444 125.335 83.5444 125.335 83.7565V83.9685C125.335 83.9685 125.123 83.9685 125.123 84.1806L124.912 84.3926L124.277 85.0287C123.853 85.4528 123.43 85.8769 123.218 86.513C122.795 86.9371 122.583 87.5732 122.159 87.9973C121.524 89.0575 120.889 90.1177 120.466 91.178C120.254 91.602 120.254 91.8141 120.042 92.0261C120.042 92.2382 119.831 92.4502 119.831 92.4502C119.831 92.4502 119.831 92.6622 119.619 92.6622L119.407 92.8743L119.195 93.0863C118.984 93.2984 118.984 93.2984 118.772 93.5104C118.772 93.7225 118.56 93.7225 118.56 93.7225C118.349 93.9345 118.137 94.1465 117.713 94.3586C117.502 94.5706 117.078 94.7827 116.867 95.2068C116.443 95.4188 116.231 95.6308 115.808 95.8429C115.385 96.0549 115.173 96.267 114.538 96.479C114.114 96.691 113.691 96.9031 113.267 96.9031L112.632 97.1151C111.997 97.3272 111.362 97.1151 110.727 96.9031C110.515 96.9031 110.303 96.691 110.092 96.691C109.88 96.691 109.668 96.479 109.457 96.267C109.033 96.0549 108.821 95.6308 108.61 95.4188C108.398 94.9947 108.398 94.7827 108.186 94.3586C108.186 93.9345 108.186 93.5104 108.398 93.0863V92.8743V92.6622C108.398 92.6622 108.398 92.4502 108.61 92.4502C108.61 92.4502 108.61 92.2382 108.821 92.0261C108.821 91.8141 109.033 91.602 109.033 91.602C109.033 91.602 109.033 91.39 109.245 91.39C109.245 91.39 109.245 91.178 109.457 91.178C109.457 91.178 109.457 91.178 109.457 90.9659L109.668 90.7539C109.668 90.7539 109.668 90.5418 109.88 90.5418C109.88 90.5418 109.88 90.3298 110.092 90.3298C110.092 90.3298 110.303 90.1177 110.303 89.9057C110.515 89.4816 110.939 89.0575 111.15 88.8455C111.574 88.4214 111.785 88.2094 112.209 87.7853C112.844 87.1492 113.479 86.513 114.114 86.0889C114.749 85.6649 115.385 85.2408 115.808 85.0287C116.02 85.0287 116.231 84.8167 116.231 84.8167C116.231 85.2408 116.443 85.4528 116.655 85.6649C116.867 85.8769 117.29 86.0889 117.713 86.0889H117.925C118.349 86.0889 118.772 85.8769 118.984 85.6649C119.195 85.4528 119.407 85.0287 119.407 84.6047V84.3926V84.1806C119.407 84.1806 119.407 84.1806 119.407 83.9685V83.7565C119.407 83.7565 119.407 83.7565 119.407 83.5444V83.3324L119.195 83.1204C119.195 83.1204 119.195 83.1204 118.984 82.9083C118.984 82.6963 118.772 82.6963 118.772 82.6963L118.56 82.4842C118.56 82.4842 118.56 82.4842 118.349 82.4842C118.349 82.4842 118.137 82.4842 118.137 82.2722C118.137 82.2722 117.925 82.2722 117.713 82.0602C117.502 82.0602 117.29 82.0602 117.29 82.0602H116.443C116.231 82.0602 116.231 82.0602 116.02 82.0602C115.808 82.0602 115.596 82.0601 115.385 82.2722C115.173 82.2722 114.961 82.4842 114.749 82.4842C114.538 82.4842 114.326 82.6963 114.114 82.6963C113.903 82.6963 113.691 82.9083 113.479 83.1204C113.267 83.3324 113.056 83.3324 112.844 83.5444C112.632 83.7565 112.421 83.7565 112.209 83.9685C111.362 84.3926 110.727 85.0287 109.88 85.8769C109.457 86.301 109.033 86.7251 108.821 86.9371C108.398 87.3612 108.186 87.7853 107.763 88.2094L107.339 88.8455C107.339 88.8455 107.339 88.8455 107.128 89.0575C107.128 89.0575 107.128 89.0575 107.128 89.2696L106.916 89.4816C106.916 89.4816 106.916 89.6937 106.704 89.6937C106.704 89.6937 106.704 89.6937 106.704 89.9057L106.493 90.3298C106.493 90.3298 106.493 90.3298 106.493 90.5418V90.7539C106.281 90.9659 106.281 91.39 106.069 91.602C105.857 92.0261 105.857 92.2382 105.857 92.4502C105.646 92.8743 105.646 93.2984 105.646 93.5104C105.646 94.1465 105.646 94.7827 105.646 95.6308C105.857 96.479 106.069 97.1151 106.493 97.5392C106.916 98.1753 107.551 98.5994 108.186 99.0235C108.821 99.2355 109.457 99.6596 110.092 99.6596C110.303 99.6596 110.515 99.6596 110.515 99.6596C110.727 99.6596 110.727 99.6596 110.939 99.6596H111.362C111.574 99.6596 111.574 99.6596 111.785 99.6596C111.997 99.6596 112.421 99.6596 112.632 99.6596C112.844 99.6596 113.267 99.6596 113.479 99.4476C113.903 99.2355 114.538 99.2355 114.961 99.0235C115.385 98.8115 115.808 98.5994 116.231 98.3874C116.655 98.1753 117.078 97.9633 117.29 97.5392C117.502 97.3272 117.925 97.1151 118.137 96.9031C118.137 97.1151 118.137 97.5392 118.137 97.7512V97.9633V98.1753C118.137 98.3874 118.137 98.3874 118.137 98.5994C118.137 98.8115 118.349 99.0235 118.349 99.2355C118.56 99.4476 118.56 99.6596 118.772 99.8717L118.984 100.084H119.195C119.195 100.084 119.407 100.084 119.407 100.296H119.619C119.831 100.296 120.042 100.508 120.254 100.508H120.466C120.466 100.508 120.466 100.508 120.677 100.508H120.889C121.313 100.508 121.524 100.296 121.948 100.084C121.948 100.084 121.948 100.084 122.159 100.084L122.795 99.8717C122.795 99.8717 122.795 99.8717 123.006 99.8717L123.43 99.6596C123.641 99.6596 123.641 99.4476 123.853 99.4476C124.065 99.2355 124.065 99.2355 124.277 99.2355C124.277 99.2355 124.488 99.2355 124.488 99.0235C124.488 99.0235 124.488 99.0235 124.7 98.8115L125.123 98.3874C125.335 98.1753 125.547 97.9633 125.759 97.7512C125.97 97.5392 126.182 97.3272 126.394 97.1151C126.605 96.9031 126.817 96.691 126.817 96.479L127.241 95.8429L127.452 95.6308L127.664 95.4188C127.664 95.4188 127.664 95.2068 127.876 95.2068V95.4188C127.876 95.6308 127.876 95.6308 127.876 96.0549V97.5392C127.876 97.7513 127.876 97.9633 127.876 98.1753C127.876 98.5994 127.876 99.0235 128.087 99.2355C128.087 99.4476 128.299 99.6596 128.299 99.8717V100.084C128.299 100.084 128.299 100.296 128.511 100.296C128.511 100.296 128.511 100.296 128.511 100.508C128.511 100.508 128.511 100.72 128.723 100.72C128.934 100.932 128.934 100.932 129.146 101.144C129.146 101.144 129.146 101.144 129.358 101.144H129.57H129.781H129.993H130.205C130.416 101.144 130.416 101.144 130.628 101.144C130.628 101.144 130.84 101.144 130.84 100.932H131.052C131.263 100.932 131.475 100.72 131.687 100.508L131.898 100.296C131.898 100.296 132.11 100.296 132.11 100.084C132.11 100.084 132.11 100.084 132.322 100.084C132.322 100.084 132.322 100.084 132.534 99.8717C132.745 99.6596 132.957 99.4476 133.169 99.2355C133.38 99.0235 133.592 98.8115 133.804 98.5994C133.804 98.5994 133.804 98.5994 134.016 98.3874V98.5994C134.016 98.8115 134.016 99.0235 134.016 99.2355C134.016 99.4476 134.016 99.4476 134.016 99.6596C134.016 99.6596 134.016 99.8717 134.227 100.084C134.227 100.084 134.227 100.296 134.439 100.296C134.439 100.508 134.651 100.508 134.651 100.508L134.862 100.72H135.074C135.074 100.72 135.286 100.932 135.498 100.932H135.709H135.921H136.133H136.344C136.556 100.932 136.98 100.932 137.403 100.72C137.615 100.72 137.826 100.72 137.826 100.508C138.038 100.508 138.25 100.296 138.25 100.296L138.673 100.084C138.885 100.084 139.097 99.8717 139.097 99.8717C139.52 99.6596 140.155 99.2355 140.579 98.8115C141.426 97.9633 142.272 97.3272 142.908 96.479C143.119 96.267 143.119 96.267 143.331 96.0549V96.267C143.331 96.479 143.331 96.479 143.331 96.691C143.331 96.9031 143.331 97.1151 143.331 97.1151C143.331 97.3272 143.331 97.5392 143.331 97.5392V97.9633C143.331 98.1753 143.331 98.1753 143.331 98.3874C143.331 98.5994 143.331 98.8115 143.543 99.0235V99.2355C143.543 99.2355 143.543 99.4476 143.754 99.4476C143.966 99.6596 143.966 99.8717 144.178 100.084C144.39 100.296 144.601 100.508 144.813 100.508C145.236 100.72 145.872 100.72 146.083 100.508C146.295 100.508 146.507 100.508 146.507 100.296H146.718H146.93H147.142C147.142 100.296 147.354 100.296 147.354 100.084C147.354 100.084 147.565 100.084 147.565 99.8717C147.777 99.8717 147.777 99.6596 147.989 99.6596C148.2 99.6596 148.2 99.4476 148.412 99.4476L148.624 99.2355C148.836 99.0235 149.047 99.0235 149.259 98.8115C149.471 98.5994 149.682 98.5994 149.682 98.3874C149.894 98.1753 150.318 97.7513 150.529 97.5392C150.741 97.3272 150.953 96.9031 151.376 96.691V96.9031C151.376 97.1151 151.588 97.3272 151.588 97.5392C151.8 97.9633 152.011 98.3874 152.435 98.8115C152.858 99.2355 153.07 99.4476 153.493 99.6596C153.917 99.8717 154.34 100.084 154.764 100.296C154.975 100.296 154.975 100.296 155.187 100.508L156.034 100.72C156.246 100.72 156.457 100.72 156.669 100.72H157.304H157.516C157.516 100.72 157.728 100.72 157.939 100.72H158.151H158.363H158.574C158.998 100.72 159.21 100.72 159.633 100.508C159.845 100.296 160.268 100.296 160.48 100.084C160.692 99.8717 161.115 99.8717 161.327 99.6596C161.962 99.4476 162.385 99.0235 163.02 98.5994L163.232 98.3874C163.444 98.3874 163.444 98.1753 163.656 98.1753C163.867 98.1753 163.867 97.9633 163.867 97.9633L164.079 97.7512C163.867 98.1753 163.867 98.5994 163.656 98.8115C163.444 99.2355 163.444 99.4476 163.656 99.8717C163.867 100.296 164.079 100.508 164.502 100.72C165.349 101.144 166.196 100.72 166.408 100.084C166.62 99.8717 166.62 99.2355 166.831 98.8115C167.043 98.1753 167.255 97.5392 167.466 96.9031L168.102 95.6308C168.313 95.2067 168.737 94.7827 168.948 94.1465C169.16 93.7225 169.372 93.5104 169.584 93.0863L170.219 92.0261C170.43 91.602 170.642 91.178 171.066 90.9659C171.489 90.7539 171.701 90.1177 171.912 89.9057L172.759 88.6334C172.971 88.2094 173.394 87.7853 173.606 87.5732L173.818 87.3612L174.03 87.1492L174.241 86.9371L174.453 86.7251L174.665 86.513L174.876 86.301C175.088 86.301 175.088 86.0889 175.3 86.0889L175.512 85.8769C175.723 85.8769 175.723 85.8769 175.723 85.6649C175.723 85.6649 175.723 85.6649 175.935 85.6649C175.935 85.6649 175.935 85.6649 175.935 85.8769V86.0889V86.513C175.935 86.9371 175.935 87.3612 175.723 87.7853C175.723 87.9973 175.723 88.2094 175.512 88.4214C175.512 88.6335 175.3 88.8455 175.3 89.0575L174.876 90.3298C174.876 90.5418 174.665 90.7539 174.665 90.9659C174.665 91.178 174.453 91.39 174.453 91.602L173.606 93.9345C173.394 94.5706 172.971 95.4188 172.759 95.8429L172.124 97.3272C172.124 97.5392 171.912 97.7513 171.912 97.9633C171.912 98.1753 171.912 98.1753 171.701 98.3874C171.701 98.3874 171.701 98.3874 171.701 98.5994C171.701 98.5994 171.701 98.5994 171.701 98.8115C171.489 99.2355 171.701 99.4476 171.701 99.8717C171.912 100.296 172.124 100.508 172.548 100.72C172.971 100.932 173.183 100.932 173.606 100.72C174.03 100.72 174.241 100.508 174.453 100.084C174.453 100.084 174.453 99.8717 174.665 99.8717C174.665 99.8717 174.665 99.6596 174.876 99.6596C174.876 99.4476 175.088 99.4476 175.088 99.2355C175.088 99.0235 175.3 99.0235 175.3 98.5994L175.723 97.7512C175.935 97.5392 175.935 97.1151 176.147 96.691C176.358 96.267 176.57 96.0549 176.994 95.6308L177.84 94.3586C178.264 93.9345 178.476 93.5104 178.899 93.0863L179.958 91.602C180.381 91.178 180.804 90.5418 181.228 90.1177C181.651 89.6937 182.075 89.0575 182.498 88.6334C182.71 88.4214 182.922 88.2094 183.133 87.7853C183.345 87.5732 183.557 87.3612 183.769 87.1492C183.98 86.9371 183.98 86.9371 184.192 86.7251C184.404 86.513 184.404 86.513 184.615 86.301L185.462 85.6649C185.674 85.4528 185.674 85.4528 185.886 85.4528V85.6649C185.886 85.6649 185.886 85.6649 185.886 85.8769L185.674 86.301C185.674 86.513 185.674 86.7251 185.462 86.7251C185.462 86.9371 185.462 86.9371 185.251 87.1492C185.251 87.3612 185.039 87.5732 185.039 87.5732V87.7853C185.039 87.7853 185.039 87.7853 185.039 87.9973L184.615 89.0575C184.615 89.0575 184.404 89.2696 184.404 89.4816C184.404 89.6937 184.192 89.9057 184.192 89.9057V90.1177C184.192 90.3298 184.192 90.3298 183.98 90.3298C183.769 90.9659 183.557 91.602 183.133 92.4502C182.922 93.0863 182.71 93.7225 182.498 94.5706C182.286 95.2067 182.287 95.8429 182.075 96.691V97.1151C182.075 97.3272 182.075 97.5392 182.075 97.5392C182.075 97.7513 182.075 97.9633 182.075 98.1753V98.5994C182.075 98.8115 182.075 99.0235 182.075 99.2355V99.4476C182.075 99.6596 182.075 99.6596 182.075 99.8717C182.075 100.084 182.287 100.084 182.287 100.296C182.498 100.508 182.498 100.508 182.71 100.72C182.922 100.932 182.922 100.932 183.133 100.932C183.345 100.932 183.345 100.932 183.769 100.932C183.769 100.932 183.769 100.932 183.98 100.932C184.192 100.932 184.192 100.932 184.404 100.72H184.615H184.827L185.251 100.508L185.462 100.296H185.674C185.674 100.296 185.886 100.296 185.886 100.084C186.097 99.8717 186.309 99.6596 186.521 99.4476C186.733 99.2355 186.944 99.0235 187.156 98.8115L187.579 98.3874C187.791 98.1753 188.003 97.9633 188.003 97.9633C188.426 97.5392 188.638 97.3272 188.85 96.9031C189.061 96.691 189.061 96.691 189.061 96.479C189.061 96.479 189.061 96.479 189.061 96.691C189.061 96.691 189.061 96.691 189.061 96.9031C189.061 96.9031 189.061 96.9031 189.061 97.1151C189.061 97.3272 189.061 97.3272 189.061 97.3272V97.5392C189.061 97.7513 189.061 97.7513 189.273 97.9633C189.273 97.9633 189.273 98.1753 189.485 98.1753C189.485 98.1753 189.485 98.1753 189.485 98.3874L189.697 98.5994C189.697 98.5994 189.908 98.8115 190.12 98.8115H190.332C190.543 98.8115 190.755 98.8115 190.967 98.8115H191.179H191.39C191.39 98.8115 191.602 98.8115 191.602 98.5994C191.602 98.5994 191.814 98.5994 191.814 98.3874C192.237 98.1753 192.661 97.7513 193.084 97.3272L193.296 97.1151L193.507 96.9031L193.719 96.691C193.719 96.691 193.931 96.479 193.931 96.267C194.566 95.6308 195.201 94.7827 195.625 94.1465C195.836 93.9345 196.048 93.5104 196.26 93.2984C196.048 94.1465 195.625 95.2067 195.201 96.0549C194.989 96.479 194.778 96.9031 194.566 97.5392H195.201C194.989 98.1753 194.778 98.5994 194.354 99.6596H194.143C192.025 100.084 189.908 100.508 187.791 100.932C186.521 101.144 181.016 103.052 178.476 104.325C175.723 105.597 172.548 107.717 171.066 108.777C169.795 110.05 168.525 111.322 168.313 113.23C168.102 114.291 168.102 115.139 168.525 116.199C168.948 117.047 170.007 118.531 173.606 119.804C177.205 120.864 181.016 120.228 183.133 119.592C185.251 118.955 188.215 117.259 189.061 116.199C189.908 115.351 191.179 114.078 191.814 113.23C193.296 110.898 194.354 108.565 195.201 106.021C195.625 104.537 196.048 103.264 196.471 101.78C197.318 101.568 198.165 101.568 198.8 101.356C199.859 101.144 201.129 101.144 202.188 100.932C202.823 100.932 203.67 100.932 204.305 100.932C205.787 100.932 207.057 100.72 208.539 100.72C210.233 100.72 211.927 100.72 213.62 100.932C215.314 100.932 217.008 101.144 218.913 101.144C219.548 101.144 220.183 101.144 220.819 101.356C221.665 101.568 222.512 101.78 223.359 101.992C224.629 102.204 225.688 102.416 226.747 103.264C226.958 103.476 227.17 103.264 227.382 103.264C227.382 103.264 227.593 102.84 227.382 102.84Z" fill="white"/>
</g>
<defs>
<clipPath id="clip0">
<rect width="300" height="162" fill="white"/>
</clipPath>
</defs>
</svg>
