<svg width="91" height="42" viewBox="0 0 91 42" fill="none" xmlns="http://www.w3.org/2000/svg">
<path fill-rule="evenodd" clip-rule="evenodd" d="M0.850802 14.584C2.17025 17.1252 4.41641 17.1252 5.90275 17.1252C9.35713 17.1252 11.3384 15.5396 11.3384 12.7754C11.3384 9.11887 8.75954 8.58103 6.4832 8.10634L6.48295 8.10629C4.38199 7.66834 2.72246 7.32241 2.72246 5.00871C2.72246 2.06693 5.56265 1.91802 6.13189 1.91802C6.27553 1.91802 6.41019 1.92584 6.52131 1.94032C7.76267 2.10548 8.11175 2.524 8.44939 2.92881L8.44978 2.92927L8.53495 3.03075C8.71838 3.24598 8.85629 3.48401 8.98954 3.71401L8.99011 3.715L8.99339 3.72065L8.9934 3.72067L8.9934 3.72068C9.10703 3.91681 9.21436 4.10207 9.34536 4.26698C9.37898 4.30937 9.4444 4.36058 9.56268 4.36058C9.85168 4.3603 10.4179 4.02414 10.5729 3.76088C10.6482 3.63239 10.6184 3.53685 10.5938 3.49197C9.43197 1.34468 8.12888 0.428574 6.23714 0.428574C3.69693 0.428574 0.997215 1.97517 0.997215 4.84127C0.997215 8.59415 3.603 9.21861 5.90225 9.76961L5.90292 9.76977C7.97603 10.2656 9.61322 10.6576 9.61322 12.9145C9.61322 14.8576 8.60885 15.6496 6.14626 15.6496C5.98203 15.6496 5.81126 15.6464 5.635 15.6395C4.3885 15.5899 4.01219 15.3672 3.49153 15.0591L3.49126 15.059L3.45087 15.0351C2.84118 14.6747 2.58151 14.305 2.22234 13.7935L2.22146 13.7923L2.10518 13.6273C2.06528 13.5708 1.98722 13.5039 1.84153 13.5039C1.54387 13.5039 1.08504 13.7998 0.897071 14.1127C0.767856 14.3279 0.800811 14.4875 0.850802 14.584ZM82.2442 17.103C77.6838 17.103 73.9732 13.3749 73.9732 8.79289C73.9732 4.19583 77.6838 0.455125 82.2442 0.455125C86.7901 0.455125 90.4885 4.19583 90.4885 8.79289C90.4885 13.3749 86.7901 17.103 82.2442 17.103ZM82.2443 2.12768C78.5991 2.12768 75.6331 5.11751 75.6331 8.79286C75.6331 12.4057 78.6606 15.4574 82.2443 15.4574C85.9047 15.4574 88.8828 12.4679 88.8828 8.79286C88.8828 5.17943 85.8427 2.12768 82.2443 2.12768ZM20.9095 17.1376H19.8321C19.6688 17.1376 19.5358 17.0034 19.5358 16.8388V0.747926C19.5358 0.582979 19.6688 0.449161 19.8321 0.449161H20.9095C21.0729 0.449161 21.2058 0.582979 21.2058 0.747926V16.8388C21.2058 17.0034 21.0729 17.1376 20.9095 17.1376ZM31.1157 17.1376H41.0853C41.2487 17.1376 41.3816 17.0034 41.3816 16.8388V15.8646C41.3816 15.6997 41.2487 15.5655 41.0853 15.5655H32.4615V0.747926C32.4615 0.582979 32.3288 0.449161 32.1652 0.449161H31.1157C30.9521 0.449161 30.8194 0.582979 30.8194 0.747926V16.8388C30.8194 17.0034 30.9521 17.1376 31.1157 17.1376ZM65.2052 17.1376H64.2389C64.0757 17.1376 63.9426 17.0034 63.9426 16.8388V3.31959L57.2136 16.8611C57.1108 17.0653 56.7838 17.0638 56.6836 16.8611L49.9815 3.45253V16.8388C49.9815 17.0034 49.8487 17.1376 49.6852 17.1376H48.7183C48.5551 17.1376 48.422 17.0034 48.422 16.8388V0.747926C48.422 0.582979 48.5551 0.449161 48.7183 0.449161H50.1822C50.2949 0.449161 50.3966 0.511964 50.4471 0.613439L56.9482 13.6938L63.4493 0.613773C63.5001 0.511964 63.6015 0.449161 63.7141 0.449161H65.2052C65.3689 0.449161 65.5015 0.582979 65.5015 0.747926V16.8388C65.5015 17.0034 65.3689 17.1376 65.2052 17.1376ZM39.0687 34.0758L39.0689 34.0757C39.1127 34.0615 39.1565 34.0473 39.1995 34.0315C39.2205 34.0497 39.2418 34.0682 39.2627 34.0871L39.2206 34.1853C39.1902 34.2562 39.1599 34.3271 39.1287 34.3978C39.0094 34.667 38.8899 34.9361 38.7705 35.2053L38.7699 35.2066L38.7693 35.208L38.7686 35.2094C38.5263 35.7553 38.2839 36.3014 38.0428 36.8482C37.4324 38.2311 36.8916 39.6411 36.4459 41.0869C36.4084 41.2078 36.3869 41.3354 36.3705 41.4613C36.3563 41.5726 36.3835 41.6775 36.5004 41.7259C36.6349 41.7818 36.6999 41.6762 36.7506 41.5886L36.7853 41.5285C36.9117 41.3094 37.0386 41.0896 37.1385 40.8585C37.2248 40.659 37.3016 40.4552 37.3784 40.2514L37.3784 40.2513L37.3785 40.2512L37.3785 40.2511L37.3785 40.251L37.3786 40.2509C37.4517 40.0569 37.5248 39.8627 37.6063 39.6722C38.0757 38.5773 38.5494 37.4844 39.0324 36.3952C39.4029 35.5598 39.7847 34.7292 40.1727 33.9017C40.2883 33.6551 40.4063 33.4091 40.6671 33.259C41.5204 32.767 42.3701 32.269 43.2107 31.756L43.2493 31.7325L43.2495 31.7324C44.122 31.2006 44.9947 30.6687 45.7975 30.0285L45.8086 30.0196C46.4766 29.4872 47.1415 28.9573 47.7035 28.3034C48.1188 27.8193 48.433 27.2878 48.6225 26.6798C48.9113 25.755 48.3848 24.8128 47.458 24.5621C46.4508 24.2891 45.4636 24.4301 44.4881 24.7022C43.5301 24.9699 42.5913 25.2981 41.6848 25.7119C41.0114 26.0192 40.3386 26.3299 39.6824 26.6717C39.3445 26.8474 39.0214 27.0523 38.6983 27.257C38.5837 27.3297 38.469 27.4024 38.3537 27.4737C38.2102 27.5625 38.0657 27.65 37.9212 27.7375C37.5317 27.9733 37.142 28.2092 36.7707 28.4708C35.8267 29.136 34.9275 29.8607 34.084 30.6536C33.6031 31.106 33.1627 31.5939 32.8206 32.1628C32.7179 32.3328 32.6429 32.5239 32.5795 32.7136C32.5097 32.9228 32.6133 33.089 32.7684 33.2184C32.9232 33.3479 33.0571 33.2964 33.0645 33.0931C33.0741 32.8436 33.177 32.6464 33.3187 32.4538C33.7299 31.8955 34.2001 31.3919 34.7079 30.9238C36.0235 29.7115 37.453 28.6625 39.014 27.7879C40.0686 27.1973 41.1418 26.6509 42.2559 26.1876C43.5389 25.6541 44.8548 25.2297 46.2503 25.125C46.7584 25.0864 47.2631 25.1486 47.7431 25.333C48.063 25.4562 48.1769 25.7119 48.1047 26.0484C48.0022 26.5291 47.7719 26.9453 47.4708 27.3207C46.8704 28.0694 46.1865 28.725 45.4094 29.2927C44.1406 30.2188 42.823 31.0636 41.4656 31.8478C41.4313 31.8674 41.3925 31.8794 41.3386 31.8961L41.3386 31.8961C41.3082 31.9055 41.2729 31.9164 41.2308 31.931C41.3142 31.7734 41.3954 31.6218 41.4745 31.4741C41.6508 31.1448 41.8167 30.8348 41.9745 30.5208C42.1316 30.2081 42.2782 29.8898 42.4247 29.5718L42.4732 29.4666C42.5016 29.405 42.53 29.3435 42.5586 29.282C42.6399 29.107 42.6388 28.9305 42.5391 28.7614C42.4672 28.6399 42.383 28.523 42.2263 28.5224C42.0912 28.5216 42.045 28.6222 41.9988 28.7229C41.991 28.7399 41.9832 28.7569 41.975 28.7734L41.8559 29.013L41.8558 29.0131L41.8557 29.0133L41.8556 29.0135L41.8555 29.0137C41.6541 29.4189 41.4526 29.8243 41.2436 30.2252C41.0647 30.5685 40.8833 30.9104 40.7019 31.2522L40.7018 31.2524L40.7016 31.2528C40.4695 31.6902 40.2375 32.1276 40.0107 32.5678C39.9314 32.7217 39.8205 32.8172 39.6762 32.8895C39.4219 33.0168 39.1681 33.1454 38.9144 33.2739L38.9126 33.2748C38.3074 33.5814 37.7023 33.8879 37.0898 34.1779C36.3345 34.5363 35.5644 34.864 34.7228 34.9705C34.6515 34.9796 34.5392 35.0453 34.5322 35.0965C34.5216 35.1775 34.5613 35.2906 34.6198 35.3503C34.7892 35.5237 35.0206 35.5432 35.2421 35.5121C35.5232 35.4728 35.8065 35.4197 36.0774 35.3352C37.0178 35.0418 37.9235 34.662 38.7886 34.1863C38.8761 34.1382 38.9724 34.107 39.0687 34.0758ZM52.3541 30.4454C52.3583 30.4391 52.3637 30.427 52.3705 30.4118C52.3934 30.3604 52.4323 30.2731 52.4951 30.2493C52.5821 30.2167 52.727 30.2559 52.8082 30.3159C52.8926 30.3785 52.954 30.4969 52.9841 30.6028C53.0316 30.7746 53.0653 30.9556 53.0687 31.1327C53.0728 31.3329 52.9448 31.4014 52.7772 31.2967C52.5517 31.156 52.3372 30.9131 52.3541 30.4454ZM54.7738 37.0781C54.643 37.2663 54.4126 37.3523 54.1981 37.3404C54.2119 37.224 54.2384 37.1199 54.2748 37.0249C54.2384 37.12 54.2118 37.2241 54.198 37.3406C54.4125 37.3525 54.6429 37.2664 54.7738 37.0783C54.8064 37.0314 54.8349 36.9854 54.8596 36.9405C54.8349 36.9853 54.8064 37.0313 54.7738 37.0781ZM55.2356 35.3179C56.6556 34.367 58.2916 33.9699 58.5605 33.935C58.6749 33.9199 58.7373 33.9909 58.7382 34.0993C58.739 34.1879 58.6454 34.3066 58.5703 34.2975C57.0951 34.5006 55.7661 35.3822 55.4479 35.5932C55.4357 35.6013 55.425 35.6084 55.4158 35.6144C55.4074 35.62 55.4003 35.6246 55.3945 35.6283C55.4031 35.6664 55.4222 35.718 55.4456 35.7811L55.4456 35.7812L55.4456 35.7812C55.5721 36.123 55.8228 36.8002 55.2041 37.4671C54.8561 37.8369 54.4419 37.921 53.9949 37.7627C53.854 37.7128 53.746 37.5821 53.7139 37.4316C53.6833 37.2874 53.707 37.1124 53.7462 36.966C53.8343 36.6346 54.0423 36.3992 54.2554 36.1743C54.3481 36.0765 54.4258 36.0015 54.4971 35.9328L54.4974 35.9326L54.4974 35.9326C54.5585 35.8736 54.615 35.8191 54.6722 35.7587C54.8248 35.597 54.753 35.5158 54.5499 35.2856C54.4206 35.1392 54.2381 34.9325 54.0264 34.6064C53.4617 35.1228 52.6116 35.9415 51.1485 37.3967C51.0583 37.4863 50.9527 37.5604 50.8467 37.6292C50.5775 37.8045 50.348 37.7624 50.1608 37.501C50.0081 37.2864 49.9269 37.0436 49.9595 36.7784C49.978 36.6271 50.0095 36.4775 50.0411 36.3278L50.0411 36.3278L50.0411 36.3277C50.0535 36.2691 50.0658 36.2104 50.0774 36.1517C50.0902 36.0866 50.1043 36.0221 50.1184 35.9575L50.1185 35.9573L50.1185 35.9571L50.1188 35.9561C50.1258 35.9239 50.1328 35.8916 50.1397 35.8592C50.1207 35.8492 50.1016 35.8391 50.0828 35.8287C50.0629 35.8457 50.0424 35.862 50.0218 35.8784L50.0218 35.8784C49.98 35.9117 49.9382 35.945 49.9018 35.9833C49.3115 36.605 48.6322 37.12 47.9532 37.6348L47.9532 37.6349L47.8617 37.7043C47.5339 37.9531 47.1414 37.8472 46.9664 37.4618C46.8316 37.1645 46.7998 36.8563 46.9245 36.5322C47.2339 35.7279 47.6945 35.0176 48.2117 34.339C48.2923 34.2327 48.3716 34.1254 48.4613 34.004L48.462 34.003L48.4621 34.003L48.4622 34.0028C48.5204 33.924 48.5831 33.8392 48.6533 33.7449C48.5717 33.7523 48.4961 33.7579 48.4249 33.7631C48.2586 33.7752 48.1164 33.7856 47.9778 33.8147C47.9005 33.8304 47.8253 33.9206 47.7754 33.9947C47.5752 34.2917 47.3772 34.5906 47.1793 34.8895L47.1786 34.8905C46.9836 35.1849 46.7885 35.4794 46.5913 35.7722C46.1309 36.4552 45.5692 37.0483 44.9394 37.5717C44.4274 37.9971 43.8751 37.8501 43.6133 37.2324C43.5681 37.1254 43.5422 37.0097 43.5165 36.8943L43.5165 36.8943L43.5164 36.894C43.5073 36.8533 43.4982 36.8127 43.4883 36.7725C43.4758 36.7216 43.4669 36.6699 43.4554 36.603C43.449 36.5657 43.4418 36.5238 43.4327 36.4746C43.3678 36.5321 43.3066 36.5861 43.248 36.6377L43.2477 36.638C43.1274 36.744 43.018 36.8404 42.9101 36.9383C42.8357 37.0059 42.7629 37.0753 42.6901 37.1448L42.69 37.1448C42.5481 37.2802 42.4062 37.4156 42.2529 37.5362C41.8981 37.8148 41.6338 37.834 41.3572 37.6386C41.0884 37.4492 40.9506 37.0505 41.0357 36.6968C41.1851 36.0747 41.4821 35.5253 41.8618 35.0201C42.3426 34.3802 42.8805 33.797 43.5552 33.3563C44.0138 33.0566 44.3343 33.0783 44.7531 33.4358C44.7912 33.4678 44.8403 33.4914 44.888 33.508C45.3731 33.6764 45.465 34.0158 45.1534 34.4291C44.7081 35.0201 44.3522 35.6578 44.2272 36.4027C44.206 36.529 44.1968 36.6576 44.1873 36.7893L44.1872 36.7895L44.1872 36.7898C44.1829 36.85 44.1785 36.9109 44.1729 36.9726C44.3384 36.9909 44.4234 36.9105 44.5056 36.8328C44.522 36.8174 44.5383 36.802 44.555 36.7875C45.4809 35.9883 46.189 35.0085 46.8382 33.9815C47.0169 33.6985 47.1822 33.4068 47.3474 33.1154L47.4476 32.9388C47.5373 32.7807 47.6642 32.7214 47.8111 32.8524C48.0243 33.0428 48.2117 32.9705 48.4225 32.8807C48.763 32.7349 49.105 32.5923 49.4513 32.4613C49.7118 32.3632 49.8429 32.3934 49.9852 32.5822C50.1314 32.7761 50.2191 32.9997 50.0982 33.2347C50.0062 33.4128 49.8879 33.5806 49.7609 33.7365C49.1301 34.5112 48.5179 35.2994 47.9908 36.1505C47.9042 36.2905 47.8487 36.4498 47.8019 36.6167C48.0652 36.5303 48.2578 36.351 48.4458 36.176L48.4458 36.176C48.4759 36.148 48.5059 36.1201 48.536 36.0926C48.922 35.7411 49.2926 35.3722 49.6632 35.0034L49.6633 35.0032L49.666 35.0005C49.7456 34.9213 49.8252 34.8421 49.9049 34.7631C50.385 34.2866 50.861 33.806 51.337 33.3254L51.3376 33.3247L51.4295 33.2319C51.4778 33.1833 51.5233 33.1319 51.5687 33.0805L51.5688 33.0805L51.5688 33.0804C51.6147 33.0286 51.6605 32.9768 51.7093 32.9278C51.8979 32.7384 52.1285 32.7412 52.2763 32.9598C52.403 33.1471 52.481 33.3623 52.3386 33.5859L52.2852 33.6694C52.1256 33.9187 51.9661 34.1678 51.8001 34.4125C51.409 34.9881 51.1213 35.6148 50.886 36.2682C50.8753 36.2971 50.8716 36.3308 50.8721 36.3619C50.8723 36.373 50.8784 36.384 50.8898 36.4046C50.8967 36.4171 50.9056 36.4331 50.9163 36.4549L51.0299 36.3574C51.0884 36.3072 51.1465 36.2574 51.2051 36.2067C52.0126 35.3748 53.9914 33.3503 54.0786 33.3004C54.232 33.2121 54.3484 33.2608 54.3857 33.4556C54.6241 34.3883 55.0082 34.971 55.1764 35.2263C55.2012 35.2639 55.2213 35.2944 55.2356 35.3179ZM41.8229 36.9268C41.889 36.8892 41.9549 36.8517 42.0099 36.802C42.085 36.734 42.1604 36.6662 42.2358 36.5984L42.2375 36.5969L42.2375 36.5969C42.9877 35.9225 43.7383 35.2477 44.2098 34.3214C44.2332 34.2755 44.2627 34.2325 44.2921 34.1895C44.329 34.1356 44.3659 34.0818 44.3906 34.0226C44.4143 33.9658 44.4053 33.8734 44.3727 33.8209C44.354 33.7902 44.2503 33.7832 44.202 33.8046C44.0677 33.864 43.9286 33.9265 43.8162 34.0188C42.9562 34.7267 42.2385 35.5523 41.7833 36.5868C41.75 36.6626 41.7277 36.7434 41.7054 36.8243C41.6951 36.8617 41.6848 36.8992 41.6733 36.9362C41.6901 36.9484 41.7068 36.9609 41.7235 36.9734L41.7325 36.9801C41.762 36.9615 41.7924 36.9442 41.8229 36.9268Z" fill="#353030"/>
</svg>
