<svg width="294" height="155" viewBox="0 0 294 155" fill="none" xmlns="http://www.w3.org/2000/svg">
<mask id="mask0" mask-type="alpha" maskUnits="userSpaceOnUse" x="0" y="-1" width="294" height="156">
<rect x="294" y="-0.000244141" width="154.563" height="293.997" transform="rotate(90 294 -0.000244141)" fill="white"/>
</mask>
<g mask="url(#mask0)">
<path d="M6.39928 47.4153V59.2597C11.4613 50.1047 20.6568 46.3376 29.85 46.2017C47.438 46.2017 59.5618 57.1058 59.5618 75.5471L59.5618 113.909H53.0338L53.0338 75.6808C53.0338 60.6048 43.8398 52.5283 29.5831 52.6627C15.9925 52.7987 6.53236 63.1628 6.53236 76.8922L6.53236 113.909H0.00358582L0.00358582 47.4153H6.39928Z" fill="white"/>
<path fill-rule="evenodd" clip-rule="evenodd" d="M119.377 46.3362C100.856 46.4873 86.0488 61.0105 86.2087 80.9314C86.3777 102.063 101.405 114.999 119.926 114.848C130.451 114.761 141.876 110.361 148.203 101.828L143.509 98.0971C138.633 104.733 128.534 108.315 119.874 108.386C106.283 108.498 94.3531 99.5759 92.8945 83.9727L152.186 83.4886C154.509 57.4903 137.896 46.1852 119.377 46.3362ZM119.426 52.3925C135.28 52.2633 146.012 61.3292 146.278 77.748L92.8482 78.1853C94.1841 61.8865 105.835 52.5042 119.426 52.3925Z" fill="white"/>
</g>
<path d="M249.206 3.23364L257.066 3.23364V3.50175L203.615 79.4507L229.064 113.639V113.909H221.336L199.751 84.1618L150.959 151.329H143.232V151.058L195.888 79.4507L172.302 47.6839V47.4158H180.164L199.751 74.6043L249.206 3.23364Z" fill="white"/>
<mask id="mask1" mask-type="alpha" maskUnits="userSpaceOnUse" x="0" y="-1" width="294" height="156">
<rect x="294" y="-0.000244141" width="154.563" height="293.997" transform="rotate(90 294 -0.000244141)" fill="white"/>
</mask>
<g mask="url(#mask1)">
<path fill-rule="evenodd" clip-rule="evenodd" d="M143.231 154.563H150.958C151.977 154.563 152.937 154.071 153.54 153.241L199.747 89.6313L218.754 115.821C219.358 116.651 220.315 117.143 221.336 117.143H229.065C230.833 117.143 232.266 115.695 232.266 113.908V113.64C232.266 112.939 232.041 112.257 231.624 111.696L207.581 79.3971L259.674 5.37553C260.061 4.82874 260.268 4.1732 260.268 3.50179V3.23368C260.268 1.44755 258.835 -0.000244141 257.066 -0.000244141L249.206 -0.000244141C248.161 -0.000244141 247.183 0.514072 246.585 1.37957L199.698 69.0382L182.751 45.5134C182.149 44.6766 181.188 44.1826 180.164 44.1826H172.302C170.533 44.1826 169.1 45.6297 169.1 47.4158V47.6832C169.1 48.3825 169.325 49.0637 169.74 49.6234L191.892 79.4598L140.661 149.131C140.251 149.688 140.03 150.364 140.03 151.059V151.328C140.03 153.114 141.462 154.563 143.231 154.563ZM239.459 22.9386L250.872 6.46761H251.051L239.459 22.9386ZM199.75 80.9287C200.142 80.9287 200.526 81.0027 200.884 81.1409C200.221 80.0443 200.257 78.6433 201.002 77.5807C200.621 77.7454 200.205 77.836 199.778 77.8405L199.734 77.8359C199.258 77.7861 198.885 77.7471 198.499 77.583C199.243 78.6411 199.282 80.0421 198.617 81.1386C198.974 81.0027 199.356 80.9287 199.75 80.9287Z" fill="white"/>
<path d="M269.483 27.3577V47.4153H291.868V52.9345H269.483V93.4492C269.483 102.468 271.348 108.795 281.608 108.795C284.807 108.795 288.403 107.718 291.735 106.101L294 111.485C289.869 113.505 285.74 114.852 281.608 114.852C267.619 114.852 263.087 106.505 263.087 93.4492V52.9345H249.097V47.4153H263.087V28.0321L269.483 27.3577Z" fill="white"/>
</g>
</svg>
